<?xml  version="1.0" encoding="UTF-8"?>
<!DOCTYPE svg PUBLIC "-//W3C//DTD SVG 1.0//EN" "http://www.w3.org/TR/2001/REC-SVG-20010904/DTD/svg10.dtd" >
<svg xmlns="http://www.w3.org/2000/svg" >
<metadata>
<version>1.0</version>
<id><![CDATA[ITC Century W01 Book Italic]]></id>
<vendor>Monotype Imaging Inc.</vendor>
<credits>
<name>Fonts.com WebFonts</name>
<URL>http://webfonts.fonts.com</URL>
<role>Home of the Web fonts</role>
</credits>
<license>
<URL>http://webfonts.fonts.com/Legal</URL>
</license>
<copyright><![CDATA[Font software Copyright 1988, 1994, 2001 Adobe Systems Incorporated. Typeface designs Copyright 2008 International Typeface Corporation. All rights reserved.]]></copyright>
<trademark><![CDATA[ITC Century is a trademark of International Typeface Corporation.]]></trademark>
<licensee>
<name></name>
</licensee>
</metadata>
<defs >
<font horiz-adv-x="540" id="1bee3527-0b8c-4ada-afc0-2095c99fe654">
<font-face font-family="" panose-1="0 0 5 0 0 0 0 0 0 0" ascent="688" descent="-312" units-per-em="1000" alphabetic="0">
</font-face>
<missing-glyph horiz-adv-x="278" />

<glyph unicode="&#xA;" />
<glyph unicode="&#xD;" />
<glyph unicode=" " horiz-adv-x="278" />
<glyph unicode="!" horiz-adv-x="333" d="M111 190Q137 305 151 401T176 588Q181 624 200 650T248 676Q274 676 288 660T303 618Q303 596 298 577T283 536T259 485T228 416T189 320T145 190H111ZM34 50Q34 74 51 90T92 106Q116 106 133 90T150 50Q150 26 133 10T92 -6Q66 -6 50 10T34 50Z"  />
<glyph unicode="&quot;" horiz-adv-x="333" d="M268 632Q265 667 274 683T302 700Q321 700 330 683T337 641L318 415Q316 397 313 391T302 384Q296 384 292 390T286 415L268 632ZM124 632Q121 667 130 683T158 700Q177 700 186 683T193 641L174 415Q172 397 169 391T158 384Q152 384 148 390T142 415L124 632Z"  />
<glyph unicode="#" horiz-adv-x="556" d="M507 220H398L367 0H311L343 220H208L177 0H121L153 220H43V270H160L181 418H71V468H188L219 688H275L243 468H378L409 688H465L433 468H535V418H426L405 270H507V220ZM236 418L215 270H350L371 418H236Z"  />
<glyph unicode="$" horiz-adv-x="556" d="M240 60Q276 64 302 78T347 110T373 150T382 193Q382 236 359 261T304 309L240 60ZM350 635Q302 630 268 601T234 517Q234 490 252 471T297 432L350 635ZM414 738L396 664Q452 657 482 628T513 564Q513 538 501 523T462 507Q437 507 424 521T411 557Q411 570 416 579T427 593T438 602T443 609Q443 615 430 624T388 635L330 410Q352 396 374 380T414 342T443 293T454 229Q454 191 439 156T394 94T324 49T232 28L208 -66H170L194 28Q157 31 129 43T81 73T53 114T43 158Q43 187 60 210T109 234Q135 234 148 219T162 183Q162 162 152 152T130 137T107 129T97 117Q97 109 105 99T127 80T160 65T201 58L271 330Q250 343 231 358T196 392T172 438T162 499Q162 536 178 566T222 618T284 652T358 665L376 738H414Z"  />
<glyph unicode="%" horiz-adv-x="667" d="M129 316Q154 316 175 331T212 371T242 426T263 487T276 545T281 592Q281 633 268 647T230 662Q195 662 166 632T116 560T84 471T72 392Q72 352 86 334T129 316ZM122 290Q74 290 44 325T14 428Q14 476 32 522T81 605T150 665T227 688Q279 688 309 650T339 545Q339 504 324 459T280 377T212 315T122 290ZM480 26Q505 26 526 41T563 81T593 136T614 197T627 255T632 302Q632 343 619 357T581 372Q546 372 517 342T467 270T435 181T423 102Q423 62 437 44T480 26ZM473 0Q425 0 395 35T365 138Q365 186 383 232T432 315T501 375T578 398Q630 398 660 360T690 255Q690 214 675 169T631 87T563 25T473 0ZM553 700H601L155 -12H109L553 700Z"  />
<glyph unicode="&amp;" horiz-adv-x="778" d="M713 127Q696 90 674 64T628 21T580 -4T534 -12Q514 -12 500 -8T473 5T449 23T425 47Q383 18 334 3T234 -12Q195 -12 159 1T96 39T52 96T36 169Q36 223 63 257T127 314T204 351T266 378Q258 401 251 429T244 482Q244 530 260 570T305 639T371 684T450 700Q487 700 516 689T565 660T597 620T608 575Q608 548 598 524T561 477T488 430T372 380Q385 350 399 316T427 249T456 188T483 143Q497 162 508 181T528 220T546 263T566 312Q588 365 611 382T661 399Q689 399 705 384T722 343Q722 321 707 307T669 293Q657 293 649 297T636 307T626 317T618 322Q613 322 605 304T585 258Q572 227 554 192T499 112Q516 85 535 66T588 46Q606 46 621 56T649 82T670 113T686 141L713 127ZM146 178Q146 148 155 121T182 74T224 42T280 30Q313 30 347 41T407 74Q364 136 333 208T276 346Q246 333 222 319T181 285T155 240T146 178ZM336 544Q336 507 341 476T360 412Q443 438 486 478T530 569Q530 617 505 643T442 670Q422 670 403 661T369 635T345 595T336 544Z"  />
<glyph unicode="&apos;" horiz-adv-x="222" d="M122 632Q119 667 128 683T156 700Q175 700 184 683T191 641L172 415Q170 397 167 391T156 384Q150 384 146 390T140 415L122 632Z"  />
<glyph unicode="(" horiz-adv-x="444" d="M281 -190Q235 -185 195 -162T126 -99T79 1T62 140Q62 231 89 316T160 473T259 596T372 673Q418 693 452 696T521 700L515 674Q497 674 474 671T426 660T374 636T322 596Q280 554 247 490T191 354T156 206T144 68Q144 14 151 -26T175 -94T219 -139T287 -164L281 -190Z"  />
<glyph unicode=")" horiz-adv-x="444" d="M135 700Q181 695 221 672T290 609T337 509T354 370Q354 278 327 193T256 37T157 -86T44 -163Q-2 -183 -36 -186T-105 -190L-99 -164Q-81 -164 -58 -161T-10 -150T42 -126T94 -86Q136 -44 169 20T225 156T260 304T272 442Q272 496 265 536T241 604T197 649T129 674L135 700Z"  />
<glyph unicode="*" horiz-adv-x="444" d="M316 700Q340 700 348 688T357 662Q357 650 348 636T327 603T303 563T284 511L290 506Q320 506 340 513T377 528T408 544T440 551Q457 551 467 542T477 516Q477 498 467 487T432 476Q412 476 392 483T338 490Q328 490 317 490T293 487V476Q320 446 345 432T389 409T420 391T432 363Q432 341 418 332T392 322Q371 322 362 334T344 367T322 413T278 466L269 463Q261 440 259 422T256 387Q256 363 259 347T263 319Q263 302 252 291T221 280Q201 280 190 292T179 316Q179 326 188 340T209 374T233 416T252 469L246 474Q216 474 196 467T159 452T128 436T96 429Q79 429 69 438T59 464Q59 482 69 493T104 504Q123 504 146 497T196 489Q206 489 217 490T242 493V504Q216 534 191 548T147 571T116 589T104 617Q104 633 115 645T141 658Q163 658 173 646T192 613T214 567T258 514L267 517Q275 539 277 557T280 591Q280 616 277 632T273 660Q273 678 284 689T316 700Z"  />
<glyph unicode="+" horiz-adv-x="600" d="M252 470H306V262H514V208H306V0H252V208H44V262H252V470Z"  />
<glyph unicode="&#x2c;" horiz-adv-x="278" d="M19 -168Q45 -144 61 -125T86 -89T98 -59T101 -33Q101 -21 94 -20Q56 -12 40 5T24 48Q24 77 41 94T89 112Q121 112 140 88T159 21Q159 -32 134 -82T42 -190L19 -168Z"  />
<glyph unicode="-" horiz-adv-x="333" d="M45 266H281L263 204H27L45 266Z"  />
<glyph unicode="." horiz-adv-x="278" d="M28 50Q28 74 45 90T86 106Q110 106 127 90T144 50Q144 26 127 10T86 -6Q62 -6 45 10T28 50Z"  />
<glyph unicode="/" horiz-adv-x="278" d="M-66 -12L326 700H380L-12 -12H-66Z"  />
<glyph unicode="0" horiz-adv-x="556" d="M35 260Q35 301 47 350T82 448T134 542T202 623T280 679T365 700Q402 700 435 684T494 635T535 550T550 427Q550 386 539 338T505 241T453 147T385 66T303 9T210 -12Q174 -12 142 6T86 58T49 144T35 260ZM121 143Q121 77 146 48T210 18Q257 18 294 53T360 143T408 262T440 385T458 487T464 543Q464 603 442 636T372 670Q332 670 298 639T236 559T187 450T151 331T129 222T121 143Z"  />
<glyph unicode="1" horiz-adv-x="556" d="M49 0L56 30Q93 32 117 36T157 49T180 69T192 96L323 584H206L213 620Q269 623 316 639T414 688H447Q444 678 436 647T417 573T391 477T362 371T335 267T311 176T295 110T288 81Q288 67 292 57T309 41T343 33T398 30L392 0H49Z"  />
<glyph unicode="2" horiz-adv-x="556" d="M334 554Q330 523 318 495T286 444T242 408T188 394Q145 394 122 420T98 485Q98 527 117 566T170 635T246 682T336 700Q388 700 427 688T492 653T531 598T544 528Q544 480 518 442T450 372T355 311T247 252T141 188T53 112L55 110Q74 122 96 131T146 140Q172 140 195 131T241 110Q264 99 287 90T336 80Q377 80 408 117T465 215L492 210Q477 167 457 127T411 56T355 7T289 -12Q249 -12 220 5T168 43Q145 63 125 80T82 98Q49 98 49 79Q49 70 52 59T55 32Q55 18 47 9T18 0Q-2 0 -11 8T-21 39Q-21 55 -13 76T27 130T120 209T288 322Q363 369 402 428T442 560Q442 614 413 642T330 670Q289 670 254 653T192 609T150 549T134 485Q134 455 148 440T185 424Q228 424 260 460T305 563L334 554Z"  />
<glyph unicode="3" horiz-adv-x="556" d="M218 345Q218 353 226 357T254 362Q278 362 291 360T320 358Q339 358 361 372T401 410T432 469T444 546Q444 670 330 670Q301 670 271 658T217 624T178 571T162 502Q162 479 176 463T216 447Q248 447 275 474T333 565L357 553Q346 524 332 500T298 457T258 428T212 417Q191 417 175 425T148 446T132 473T126 502Q126 546 144 582T194 645T265 685T350 700Q396 700 432 687T494 653T533 603T546 545Q546 487 523 451T468 394T406 364T360 348V346Q369 343 389 337T430 315T466 272T482 200Q482 157 462 119T403 51T310 5T186 -12Q145 -12 112 0T56 31T20 75T7 123Q7 142 12 160T27 191T51 213T82 221Q112 221 127 207T143 172Q143 146 127 131T93 115Q73 115 67 118T51 121Q47 121 45 118T43 106Q43 95 52 80T79 51T123 28T184 18Q227 18 264 35T327 83T369 152T384 234Q384 260 378 279T364 312T345 331T328 338Q318 338 296 332T249 326Q230 326 224 330T218 345Z"  />
<glyph unicode="4" horiz-adv-x="556" d="M369 688Q363 638 338 577T278 454T207 337T141 244Q165 237 192 228T244 209T288 194T314 188L403 518H490L405 186Q424 186 440 191T469 206T495 228T520 253L536 236Q513 195 475 168T391 130L341 -56H255L301 128Q272 128 251 138T209 163T170 194T126 221Q104 210 79 195T25 179Q12 179 2 187T-8 209Q-8 226 8 238T66 251Q80 251 92 250T116 248Q172 348 209 454T269 688H369Z"  />
<glyph unicode="5" horiz-adv-x="556" d="M96 342L215 688Q258 682 298 679Q340 676 381 676Q398 676 420 678T464 683T508 690T546 700L556 672Q506 624 440 599T306 574Q278 574 257 576T215 580L149 389L151 387Q176 419 214 436T300 454Q339 454 373 438T433 395T473 332T488 253Q488 202 468 154T410 70T318 11T193 -12Q147 -12 114 0T60 31T29 76T19 129Q19 169 39 190T87 211Q114 211 129 198T145 159Q145 133 131 119T88 105Q80 105 75 106T67 107Q61 107 61 99Q61 86 70 72T95 46T133 26T183 18Q226 18 263 37T327 93T370 181T386 298Q386 360 360 392T288 424Q241 424 199 396T128 322L96 342Z"  />
<glyph unicode="6" horiz-adv-x="556" d="M506 260Q506 203 486 153T430 67T349 9T252 -12Q205 -12 170 8T112 64T76 150T64 260Q64 345 96 424T178 565T290 663T410 700Q444 700 468 690T507 664T529 633T536 603Q536 571 520 554T478 536Q449 536 434 550T418 589Q418 614 435 626T472 638Q478 638 478 646Q478 650 463 660T416 670Q384 670 352 655T289 607T234 522T190 395L192 393Q200 408 216 422T251 446T290 463T328 470Q372 470 405 452T460 404T494 337T506 260ZM408 326Q408 376 386 408T316 440Q283 440 252 414T196 346T157 255T142 159Q142 91 169 55T250 18Q289 18 318 42T368 108T398 206T408 326Z"  />
<glyph unicode="7" horiz-adv-x="556" d="M95 445L172 678H206L166 567L168 565Q180 587 197 611T237 655T284 687T336 700Q364 700 388 685T432 650T471 616T506 600Q532 600 547 608T563 627Q563 635 561 642T558 664Q558 692 588 692Q616 692 616 659Q616 646 614 638T602 619L421 410Q397 383 371 339T324 246T288 147T274 58Q274 50 276 41T278 20Q278 4 265 -4T235 -12Q199 -12 182 6T164 72Q164 120 180 163T222 244T279 317T340 381L541 583L539 585Q516 574 488 566T418 558Q391 558 370 566T332 585T299 605T267 614Q251 614 233 600T196 562T160 508T128 445H95Z"  />
<glyph unicode="8" horiz-adv-x="556" d="M141 521Q141 600 199 650T367 700Q411 700 446 689T507 658T545 612T559 556Q559 518 542 491T498 443T442 407T385 380Q408 363 429 344T467 301T493 252T503 194Q503 153 484 116T428 51T343 5T233 -12Q180 -12 139 2T69 39T25 93T10 159Q10 199 26 230T73 286T146 331T240 370Q222 380 204 396T172 432T150 475T141 521ZM411 168Q411 202 394 230T353 282T304 321T261 348Q231 336 200 320T142 282T99 231T82 164Q82 131 93 104T124 58T172 29T234 18Q272 18 304 29T360 60T397 107T411 168ZM491 560Q491 606 459 638T365 670Q298 670 259 640T219 555Q219 529 232 506T266 462T309 426T352 400Q383 412 408 427T452 461T481 504T491 560Z"  />
<glyph unicode="9" horiz-adv-x="556" d="M79 436Q79 491 101 539T159 623T241 679T336 700Q387 700 424 680T486 624T522 542T534 442Q534 345 500 262T412 118T292 23T161 -12Q119 -12 92 -1T48 26T26 62T20 96Q20 163 83 163Q112 163 126 147T140 108Q140 86 132 77T114 64T96 56T88 43Q88 34 106 26T162 18Q206 18 244 38T313 96T368 188T409 310H407Q394 293 380 278T347 252T306 235T253 228Q215 228 183 243T128 287T92 353T79 436ZM171 375Q171 314 198 286T270 258Q300 258 330 277T386 331T426 418T442 535Q442 595 414 632T336 670Q300 670 270 643T218 574T184 479T171 375Z"  />
<glyph unicode=":" horiz-adv-x="278" d="M23 50Q23 74 39 90T81 106Q104 106 121 90T139 50Q139 26 122 10T81 -6Q56 -6 40 10T23 50ZM113 394Q113 418 129 434T171 450Q194 450 211 434T229 394Q229 370 212 354T171 338Q146 338 130 354T113 394Z"  />
<glyph unicode=";" horiz-adv-x="278" d="M9 -168Q35 -144 51 -125T76 -89T88 -59T91 -33Q91 -21 84 -20Q46 -12 30 5T14 48Q14 77 31 94T79 112Q111 112 130 88T149 21Q149 -32 124 -82T32 -190L9 -168ZM113 394Q113 418 129 434T171 450Q194 450 211 434T229 394Q229 370 212 354T171 338Q146 338 130 354T113 394Z"  />
<glyph unicode="&lt;" horiz-adv-x="600" d="M55 263L545 486V427L125 235L545 43V-16L55 208V263Z"  />
<glyph unicode="=" horiz-adv-x="600" d="M514 299H44V353H514V299ZM514 117H44V171H514V117Z"  />
<glyph unicode="&gt;" horiz-adv-x="600" d="M545 207L55 -16V43L475 235L55 427V486L545 262V207Z"  />
<glyph unicode="?" horiz-adv-x="500" d="M318 274Q301 231 278 211T221 190Q188 190 167 212T146 270Q146 293 156 310T187 346T242 385T324 438Q344 451 357 462T377 487T388 517T391 558Q391 579 383 597T360 628T327 650T287 658Q261 658 239 649T199 623T173 582T163 530Q163 501 177 475L154 462Q141 480 136 498T131 538Q131 570 143 597T178 645T232 676T300 688Q337 688 370 678T429 649T468 601T483 537Q483 434 362 388Q300 365 264 347T208 314T184 286T178 260Q178 240 190 230T223 220Q245 220 260 236T289 288L318 274ZM94 50Q94 74 111 90T152 106Q176 106 193 90T210 50Q210 26 193 10T152 -6Q126 -6 110 10T94 50Z"  />
<glyph unicode="@" horiz-adv-x="800" d="M514 422Q514 451 503 467T462 484Q441 484 417 468T372 424T337 357T323 274Q323 238 339 216T381 194Q403 194 426 212T469 262T501 335T514 422ZM541 512H611L543 251Q541 244 540 236T539 220Q539 205 549 194T582 182Q616 182 643 202T688 254T715 322T725 395Q725 440 705 489T645 579T549 647T418 674Q356 674 302 651T208 582T145 470T122 317Q122 261 143 208T204 113T300 46T428 20Q462 20 490 24T542 36T589 52T633 72L646 46Q595 24 543 6T429 -12Q328 -12 255 21T135 106T65 216T42 328Q42 412 72 480T153 597T273 673T418 700Q490 700 551 677T659 614T731 517T757 396Q757 357 745 314T708 234T648 174T566 150Q543 150 527 157T500 175T482 198T473 223H471Q460 210 449 197T423 174T389 157T345 150Q327 150 311 158T282 183T261 221T253 271Q253 307 267 351T307 434T370 499T454 526Q488 526 504 509T530 472L541 512Z"  />
<glyph unicode="A" horiz-adv-x="667" d="M-70 0L-63 30Q-30 34 -4 47T44 78T81 118T112 165L414 688H457L545 103Q548 81 553 68T567 47T591 36T631 30L625 0H337L343 30Q377 33 397 38T429 49T444 65T448 89Q448 102 442 134T426 234H193Q186 220 172 196T144 147T120 99T109 66Q109 59 112 53T125 43T152 35T199 30L193 0H-70ZM218 270H421L384 563H382L218 270Z"  />
<glyph unicode="B" horiz-adv-x="667" d="M428 688Q496 688 542 682T617 659T657 618T669 553Q669 515 656 482T613 424T534 384T413 366V364Q510 359 562 317T614 194Q614 151 594 116T534 55T435 15T296 0H-49L-42 30Q-8 33 14 39T51 56T73 84T88 125L194 532Q202 562 208 583T214 616Q214 639 197 648T132 658L139 688H428ZM245 350L190 134Q185 116 179 99T173 69Q173 47 190 39T250 30Q287 30 323 34T390 48Q423 59 445 80T480 128T498 182T504 235Q504 292 472 321T360 350H245ZM393 386Q428 386 458 397T511 431T546 489T559 571Q559 617 532 637T444 658Q408 658 384 654T345 639T320 613T305 575L255 386H393Z"  />
<glyph unicode="C" horiz-adv-x="667" d="M607 251Q593 198 567 150T504 66T420 9T316 -12Q258 -12 209 10T124 73T68 167T47 286Q47 372 85 447T185 579T320 667T466 700Q511 700 541 690T592 666T622 643T637 632Q645 632 654 648T677 684H706L646 444L621 442Q621 488 616 528T594 599T546 646T462 664Q391 664 335 626T240 524T179 377T157 204Q157 151 170 117T206 62T259 33T324 24Q373 24 412 42T481 92T534 165T572 254L607 251Z"  />
<glyph unicode="D" horiz-adv-x="722" d="M190 502Q199 537 208 571T218 616Q218 639 201 648T136 658L144 688H471Q538 688 582 660T652 590T688 502T699 417Q699 382 691 338T664 247T613 157T537 77T429 21T287 0H-40L-33 30Q2 33 24 40T60 62T83 99T100 153L190 502ZM589 486Q589 536 580 569T551 622T502 650T434 658Q406 658 386 654T352 640T329 614T313 573L217 212Q212 195 207 175T197 137T189 103T186 82Q186 55 205 43T278 30Q341 30 388 48T474 108Q499 135 520 181T556 280T580 388T589 486Z"  />
<glyph unicode="E" horiz-adv-x="667" d="M517 0H-41L-34 30Q-4 30 16 34T49 48T71 73T85 110L188 509Q196 540 204 568T212 610Q212 636 197 646T133 658L141 688H689L630 444H600Q600 456 601 470T602 496Q602 579 564 618T432 658Q399 658 378 653T342 638T321 612T308 578L258 384Q304 382 332 386T380 403T414 439T443 498H472L403 224H375Q375 268 371 292T354 329T315 344T248 348L199 160Q193 138 186 113T178 72Q178 52 192 41T245 30Q308 30 356 44T442 85T506 154T556 252H589L517 0Z"  />
<glyph unicode="F" horiz-adv-x="611" d="M691 688L632 444H602Q602 456 603 470T604 496Q604 579 568 618T446 658Q408 658 384 654T344 639T320 608T303 558L258 384Q307 383 338 387T389 404T422 439T451 498H480L411 224H383Q383 268 379 292T360 329T320 344T248 348L213 211Q207 190 201 168T190 126T182 93T178 74Q178 64 182 56T197 42T228 33T281 30L273 0H-41L-34 30Q-4 30 16 34T49 48T71 73T85 110L188 509Q196 540 204 568T212 610Q212 636 197 646T133 658L141 688H691Z"  />
<glyph unicode="G" horiz-adv-x="722" d="M706 327L700 297Q669 297 649 293T616 280T595 255T581 216L527 0H496Q495 2 493 10T487 27T479 43T472 50Q467 50 455 41T421 19T370 -2T300 -12Q243 -12 196 13T116 81T63 176T44 286Q44 369 80 444T175 576T306 666T450 700Q490 700 520 690T571 668T603 646T618 636Q621 636 626 643T637 660T646 677T652 688H682L630 438H598Q597 495 590 537T567 608T522 650T452 664Q385 664 330 625T236 521T176 370T154 190Q154 143 166 112T200 61T247 33T302 24Q340 24 373 40T430 84T467 153T481 240Q481 266 463 281T391 297L398 327H706Z"  />
<glyph unicode="H" horiz-adv-x="778" d="M-41 0L-34 30Q-2 31 18 34T50 47T71 71T86 113L202 535Q205 547 208 560T215 585T220 608T222 623Q222 633 219 640T207 651T182 656T137 658L142 688H447L441 658Q406 658 386 655T352 642T330 612T313 562L263 386H561L598 523Q606 555 612 580T619 618Q619 625 616 631T604 644T577 653T532 658L539 688H843L837 658Q805 658 784 654T749 636T724 598T703 533L608 164Q601 138 593 110T584 67Q584 45 603 37T675 30L668 0H356L363 30Q397 30 419 33T455 45T477 71T492 115L551 350H253L212 196Q201 152 193 123T184 77Q184 54 201 42T271 30L265 0H-41Z"  />
<glyph unicode="I" horiz-adv-x="389" d="M-24 0L-14 30Q12 28 30 31T61 42T82 65T97 105L198 494Q209 533 217 567T225 618Q225 625 222 632T210 645T186 654T145 658L153 688H442L438 658Q406 658 386 654T354 642T334 620T323 589L235 247Q229 223 222 197T208 147T197 103T192 72Q192 49 210 38T282 30L274 0H-24Z"  />
<glyph unicode="J" horiz-adv-x="500" d="M567 688L563 658Q540 657 523 654T493 644T472 625T459 594L350 161Q329 77 277 33T137 -12Q95 -12 65 -1T14 31T-15 77T-25 135Q-25 151 -20 167T-5 197T22 220T61 229Q90 229 107 215T124 171Q124 142 110 128T69 113Q55 113 47 118T28 124Q23 124 20 119T17 105Q17 93 22 78T40 49T71 27T118 18Q149 18 171 28T208 54T232 92T246 135L342 525Q350 559 355 581T360 616Q360 627 357 635T344 648T316 655T269 658L276 688H567Z"  />
<glyph unicode="K" horiz-adv-x="722" d="M-35 0L-28 30Q34 30 62 49T99 100L218 551Q223 568 227 587T232 617Q232 636 215 647T146 658L153 688H461L454 658Q424 658 403 656T368 644T344 616T326 567L266 330L268 328L579 580Q594 592 603 604T612 629Q612 639 610 644T601 653T580 657T542 658L549 688H808L804 658Q749 650 707 623T624 563L446 419L583 83Q598 47 621 39T684 30L679 0H361L368 30Q414 30 440 40T466 74Q466 90 457 111L358 351L248 262L211 116Q208 105 203 90T198 63Q198 44 222 37T294 30L288 0H-35Z"  />
<glyph unicode="L" horiz-adv-x="611" d="M-44 0L-37 30Q-4 31 17 34T51 44T70 60T80 84L201 536Q206 555 211 578T216 616Q216 627 214 635T202 648T176 655T130 658L137 688H438L433 658Q401 658 381 655T347 643T325 617T310 572L201 160Q193 131 188 112T183 79Q183 56 197 43T247 30Q310 30 358 44T443 86T507 156T557 255L588 252L516 0H-44Z"  />
<glyph unicode="M" horiz-adv-x="833" d="M-48 0L-41 30Q-11 31 9 37T43 53T65 77T78 110L187 515Q196 550 204 576T213 622Q213 633 206 640T186 652T159 658T127 658L132 688H358L380 168H382L672 688H903L897 658Q867 658 848 652T815 632T794 598T778 551L682 192Q675 166 670 148T662 117T657 94T655 74Q655 48 672 37T734 28L726 0H435L442 30Q473 30 493 33T525 42T543 57T552 80L702 650L700 652L331 0H294L263 644H261L141 180Q133 150 125 123T117 78Q117 54 136 42T206 29L200 0H-48Z"  />
<glyph unicode="N" horiz-adv-x="722" d="M-50 0L-43 30Q7 35 35 51T73 102L181 497Q191 532 200 563T209 612Q209 619 206 627T193 641T166 652T120 658L127 688H289L526 156H528L613 481Q620 510 625 529T633 563T637 587T639 606Q639 613 636 621T623 637T598 650T556 658L563 688H794L789 658Q740 658 714 636T675 564L525 0H488L237 562H235L137 183Q130 156 123 130T116 84Q116 58 135 44T204 30L198 0H-50Z"  />
<glyph unicode="O" horiz-adv-x="722" d="M695 400Q695 319 661 245T571 113T443 22T296 -12Q243 -12 199 9T122 70T71 169T52 302Q52 351 67 400T111 493T176 575T257 641T348 684T444 700Q497 700 543 677T622 613T675 517T695 400ZM597 476Q597 565 557 614T440 664Q384 664 341 639T266 574T212 482T176 379T156 277T150 192Q150 145 163 113T197 61T247 33T306 24Q359 24 401 48T475 110T531 197T568 296T590 394T597 476Z"  />
<glyph unicode="P" horiz-adv-x="611" d="M-52 0L-45 30Q-14 33 5 37T37 50T57 72T70 108L183 536Q191 565 196 585T201 614Q201 624 198 632T187 646T163 655T123 658L130 688H404Q474 688 520 676T593 641T632 589T643 521Q643 473 625 435T568 371T464 330T306 315H231L192 169Q186 146 179 120T172 76Q172 69 176 61T190 46T219 35T266 30L260 0H-52ZM340 351Q385 351 421 360T481 394T519 460T533 564Q533 581 527 598T506 628T471 650T420 658Q370 658 342 644T302 584L241 351H340Z"  />
<glyph unicode="Q" horiz-adv-x="722" d="M213 112Q213 73 240 49T303 24Q310 24 317 25T330 27Q332 43 334 66T336 111Q336 149 319 167T276 186Q247 186 230 169T213 112ZM695 400Q695 336 674 276T615 165T528 75T422 14Q427 -24 441 -46T485 -68Q501 -68 514 -59T539 -35T559 -5T575 27L597 16Q546 -146 427 -146Q379 -146 356 -111T330 -10Q320 -11 312 -11T296 -12Q243 -12 199 11T122 75T71 174T52 302Q52 351 67 400T111 493T176 575T257 641T348 684T444 700Q497 700 543 677T622 613T675 517T695 400ZM597 476Q597 565 557 614T440 664Q384 664 341 639T266 574T212 482T176 379T156 277T150 192Q150 142 163 110T199 56V58Q191 70 186 87T181 119Q181 160 207 188T279 216Q330 216 367 176T414 54Q447 74 473 105T519 174T554 252T578 334T592 410T597 476Z"  />
<glyph unicode="R" horiz-adv-x="667" d="M646 143Q636 116 623 89T592 39T549 2T491 -12Q443 -12 418 16T392 86Q392 109 395 133T401 182T407 227T409 264Q407 297 386 314T314 332H243L200 167Q193 141 186 119T179 79Q179 67 182 58T196 42T225 33T273 30L265 0H-52L-44 30Q-11 31 11 37T49 57T74 91T91 140L195 542Q201 565 205 586T209 620Q209 631 206 638T194 649T168 656T123 658L130 688H445Q503 688 543 675T609 640T645 587T657 523Q657 485 640 453T592 397T518 360T424 346H389V344Q420 332 442 316T480 274T502 206T510 104Q510 73 520 62T547 50Q559 50 570 62T591 90T606 124T617 151L646 143ZM255 372H368Q460 372 503 415T547 544Q547 600 518 626T438 652Q380 652 352 640T315 600L255 372Z"  />
<glyph unicode="S" horiz-adv-x="556" d="M-25 0L42 251H70V191Q70 140 83 107T118 54T169 26T230 18Q261 18 292 26T348 52T390 98T406 166Q406 205 384 231T328 277T255 315T183 355T127 408T104 483Q104 528 121 568T172 637T251 683T355 700Q397 700 426 690T473 668T501 646T516 636Q522 636 527 643T538 659T548 676T554 688H586L526 438H498V494Q498 579 461 624T343 670Q316 670 291 662T246 637T214 598T202 543Q202 506 224 481T280 436T353 398T425 355T481 297T504 214Q504 166 484 125T427 53T341 6T233 -12Q185 -12 154 -3T102 17T69 38T49 47Q44 47 38 41T26 27T15 11T9 0H-25Z"  />
<glyph unicode="T" horiz-adv-x="611" d="M71 0L79 30Q110 31 132 35T169 48T193 73T209 111L353 658Q302 658 264 644T195 603T142 538T96 451H67L137 688H691L632 449H602V502Q602 546 595 576T571 624T525 650T451 658L330 192Q318 145 310 117T302 70Q302 61 305 54T319 41T347 32T394 30L386 0H71Z"  />
<glyph unicode="U" horiz-adv-x="722" d="M419 688L413 658Q381 658 361 655T328 645T308 625T296 593L204 244Q197 219 189 188T181 131Q181 105 192 86T224 52T271 31T328 24Q383 24 420 37T482 73T520 126T543 190L619 482Q628 516 637 547T646 605Q646 638 629 648T563 658L567 688H799L794 658Q773 657 756 654T726 643T703 620T687 581L581 181Q555 82 486 35T313 -12Q258 -12 216 2T144 41T99 96T83 160Q83 178 91 217T112 306T139 408T166 506T187 582T196 621Q196 631 194 638T182 650T156 656T111 658L118 688H419Z"  />
<glyph unicode="V" horiz-adv-x="611" d="M343 688L339 658Q300 658 273 644T246 606Q246 586 250 560T259 494L305 129L310 128L513 510Q539 558 550 582T562 617Q562 633 545 644T488 658L493 688H700L694 658Q675 658 661 652T634 630T607 591T574 533L279 0H231L146 561Q143 583 139 600T126 631T102 651T60 658L65 688H343Z"  />
<glyph unicode="W" horiz-adv-x="833" d="M329 688L324 658Q297 658 281 654T255 644T242 628T239 609Q239 581 240 562T244 523L270 176H272L452 557V603Q452 629 435 642T377 658L384 688H634L628 658Q604 658 589 654T565 642T553 623T550 599Q550 585 551 569T554 532L580 174H582L750 541Q763 568 774 588T785 621Q785 639 772 647T715 658L722 688H919L912 658Q889 654 874 648T847 627T822 590T791 529L543 0H502L459 485H457L234 0H190L141 568Q138 597 135 613T123 639T102 651T67 658L74 688H329Z"  />
<glyph unicode="X" horiz-adv-x="667" d="M-71 0L-66 30Q-31 38 6 52T66 91L301 346L205 602Q194 633 173 645T106 658L111 688H398L391 658Q363 658 347 656T321 648T309 635T306 616Q306 610 309 598T318 571T331 537T345 500L377 416L497 544Q520 569 532 587T544 622Q544 634 530 646T475 658L481 688H741L735 658Q691 659 652 637T576 576L392 380L498 93Q512 57 532 44T593 30L586 0H301L308 30Q356 32 376 42T396 72Q396 84 392 101T380 138T365 178T349 218L315 308L219 198Q205 181 188 164T157 130T133 99T123 74Q123 66 126 59T138 45T165 35T211 30L204 0H-71Z"  />
<glyph unicode="Y" horiz-adv-x="611" d="M76 0L82 30Q112 32 131 36T164 48T184 68T196 100L244 290L163 624Q161 633 157 639T146 650T126 656T93 658L97 688H361L355 658Q313 661 289 647T265 612Q265 599 269 587T276 562L333 336L506 543Q510 549 518 557T533 576T546 599T552 622Q552 641 538 649T479 658L484 688H711L705 658Q672 654 647 637T593 585L346 288L307 146Q300 122 297 107T293 78Q293 65 296 56T309 42T336 34T382 30L374 0H76Z"  />
<glyph unicode="Z" horiz-adv-x="611" d="M-10 0L-5 22L509 652H454Q390 652 346 641T268 605T210 541T158 444H128L196 688H650L645 670L130 36H163Q241 36 297 47T395 84T468 150T526 249H555L482 0H-10Z"  />
<glyph unicode="[" horiz-adv-x="444" d="M271 688H429L421 658Q396 658 379 656T350 648T331 628T317 593Q309 562 293 503T258 372T217 222T178 78T148 -37T133 -99Q129 -120 142 -131T203 -142L194 -178H34L271 688Z"  />
<glyph unicode="\" horiz-adv-x="278" d="M-15 700L349 -12H295L-69 700H-15Z"  />
<glyph unicode="]" horiz-adv-x="444" d="M147 -178H-11L-3 -148Q22 -148 39 -146T68 -138T87 -118T101 -83Q107 -60 117 -21T141 69T170 175T201 288T231 398T256 495T275 569T285 609Q289 630 276 641T215 652L224 688H384L147 -178Z"  />
<glyph unicode="^" horiz-adv-x="600" d="M91 323L274 688H326L509 323H447L300 616L153 323H91Z"  />
<glyph unicode="_" horiz-adv-x="500" d="M0 -125V-75H500V-125H0Z"  />
<glyph unicode="`" horiz-adv-x="352" d="M284 534L201 597Q180 613 166 623T142 640T128 654T124 668Q124 686 134 696T159 706Q166 706 171 705T183 698T197 685T216 661L314 534H284Z"  />
<glyph unicode="a" horiz-adv-x="556" d="M476 470L391 119Q385 93 382 77T378 53Q378 18 409 18Q421 18 434 31T461 66T490 119T519 185L543 179Q529 148 514 114T481 52T441 6T390 -12Q357 -12 332 15T310 103L307 105Q298 89 286 69T256 30T216 0T164 -12Q134 -12 108 2T64 40T34 99T23 174Q23 245 49 302T113 399T195 460T271 482Q316 482 337 453T363 367H365L388 470H476ZM339 322Q339 383 322 417T276 452Q254 452 233 436T194 394T160 333T133 260T116 182T109 108Q109 57 125 38T172 18Q201 18 231 46T285 118T324 216T339 322Z"  />
<glyph unicode="b" horiz-adv-x="500" d="M85 672L256 676L181 384L183 382Q192 401 205 419T235 451T273 473T319 482Q344 482 367 469T410 432T440 374T452 298Q452 239 430 183T372 84T287 14T186 -12Q149 -12 121 0T74 35T46 87T36 152Q36 177 44 216T66 301T93 395T121 486T142 562T151 612Q151 632 138 638T79 646L85 672ZM366 365Q366 408 352 430T312 452Q284 452 259 433T212 384T173 314T143 236T125 159T118 93Q118 60 137 39T188 18Q220 18 245 39T291 93T325 166T348 245T361 316T366 365Z"  />
<glyph unicode="c" horiz-adv-x="444" d="M426 382Q426 346 408 328T366 310Q349 310 333 323T317 360Q317 381 326 391T347 406T368 414T378 426Q378 435 360 443T314 452Q264 452 226 416T162 329T123 223T110 128Q110 71 129 45T202 18Q234 18 261 33T309 73T347 125T375 180L399 169Q384 133 365 101T319 43T260 3T184 -12Q152 -12 123 0T70 37T32 96T18 179Q18 248 48 304T122 399T215 460T304 482Q426 482 426 382Z"  />
<glyph unicode="d" horiz-adv-x="556" d="M272 456Q250 456 229 440T190 397T156 335T129 261T112 183T105 110Q105 18 172 18Q200 18 229 46T281 118T320 216T335 324Q335 387 318 421T272 456ZM359 672L532 676L420 252Q417 239 409 211T392 151T377 94T370 58Q370 24 398 24Q416 24 435 44T471 91T501 144T520 184L544 174Q531 148 517 116T484 56T440 8T378 -12Q339 -12 324 17T308 104H306Q294 81 280 60T248 23T207 -2T154 -12Q124 -12 99 2T56 42T29 101T19 173Q19 247 45 304T109 401T191 461T267 482Q312 482 333 453T359 367H361L394 486Q408 536 415 564T423 606Q423 623 411 634T353 646L359 672Z"  />
<glyph unicode="e" horiz-adv-x="444" d="M24 176Q24 246 53 302T125 399T218 460T310 482Q373 482 401 457T430 388Q430 361 416 332T366 276T269 227T115 190Q111 172 109 154T106 117Q106 69 129 44T194 18Q224 18 251 32T303 69T349 117T388 167L409 146Q383 115 360 87T311 36T255 1T185 -12Q154 -12 125 1T74 38T38 97T24 176ZM362 394Q362 418 348 435T305 452Q282 452 255 437T201 391T154 318T121 217Q166 223 209 237T286 272T341 324T362 394Z"  />
<glyph unicode="f" horiz-adv-x="333" d="M65 470H149Q169 525 200 566T265 634T334 674T394 688Q431 688 450 669T470 627Q470 604 455 591T419 578Q403 578 391 588T378 616Q378 635 385 640T392 651Q392 658 375 658Q357 658 336 647T296 612T262 554T238 470H345L337 440H233Q228 408 222 370T209 292T195 211T180 132Q161 43 132 -18T67 -118T-7 -173T-83 -190Q-100 -190 -116 -185T-146 -169T-167 -144T-175 -112Q-175 -93 -161 -76T-121 -59Q-97 -59 -85 -71T-73 -100Q-73 -115 -77 -123T-85 -136T-94 -144T-98 -151Q-98 -156 -93 -158T-68 -160Q-21 -160 17 -119T71 16Q80 70 87 128T102 241T119 348T140 440H56L65 470Z"  />
<glyph unicode="g" horiz-adv-x="500" d="M116 110Q116 62 132 40T179 18Q205 18 234 45T287 115T328 212T344 320Q344 392 327 422T276 452Q254 452 234 435T196 391T163 327T138 253T122 178T116 110ZM486 470L374 38Q360 -17 337 -62Q320 -95 294 -119T236 -159T172 -182T107 -190Q82 -190 58 -186T14 -172T-18 -145T-30 -103Q-30 -77 -15 -66T23 -54Q68 -54 68 -100Q68 -119 59 -129T49 -148Q49 -153 58 -156T90 -160Q128 -160 160 -149T218 -111T264 -39T299 76L297 78Q274 39 244 14T170 -12Q136 -12 110 2T66 42T39 101T30 173Q30 244 55 301T117 398T198 460T278 482Q306 482 323 471T350 442T364 402T372 356H374L403 470H486Z"  />
<glyph unicode="h" horiz-adv-x="556" d="M1 0L139 531Q141 538 144 549T150 572T155 595T157 614Q157 623 154 629T141 638T115 643T71 646L78 672L261 676L165 301H167Q182 325 200 356T241 416T291 463T352 482Q402 482 430 448T458 358Q458 320 442 278T406 196Q386 156 370 123T354 66Q354 44 367 34T394 24Q406 24 420 32T449 59T483 109T525 185L550 174Q509 88 468 38T376 -12Q328 -12 302 20T276 106Q276 139 292 180T327 262T363 339T380 402Q380 420 374 436T345 452Q321 452 295 432T244 376T194 295T150 199T115 98T90 0H1Z"  />
<glyph unicode="i" horiz-adv-x="389" d="M362 168Q345 131 326 99T284 42T238 3T188 -12Q166 -12 149 -3T119 21T100 55T93 94Q93 142 109 182T145 259Q164 296 179 331T194 404Q194 452 159 452Q142 452 127 441T97 409T68 362T38 301L14 309Q28 343 44 374T80 430T123 468T174 482Q196 482 213 472T242 445T260 408T266 366Q266 327 251 283T219 197T186 118T171 57Q171 39 178 29T206 18Q232 18 264 56T338 178L362 168ZM208 629Q208 654 225 671T266 688Q289 688 306 671T324 629Q324 604 307 587T266 570Q241 570 225 586T208 629Z"  />
<glyph unicode="j" horiz-adv-x="333" d="M178 -19Q167 -55 149 -86T106 -141T47 -177T-26 -190Q-58 -190 -81 -183T-118 -164T-139 -140T-146 -115Q-146 -90 -132 -74T-94 -58Q-73 -58 -61 -68T-48 -97Q-48 -108 -53 -116T-65 -131T-77 -141T-83 -148Q-83 -152 -75 -156T-47 -160Q-19 -160 2 -150T38 -123T63 -84T81 -38L183 321Q192 352 197 377T202 424Q202 452 171 452Q151 452 130 434T91 390T58 340T36 300L11 312Q24 338 41 367T81 422T132 465T193 482Q239 482 263 460T288 396Q288 387 286 373T280 342T272 309T264 280L178 -19ZM230 629Q230 654 247 671T288 688Q311 688 328 671T346 629Q346 604 329 587T288 570Q263 570 247 586T230 629Z"  />
<glyph unicode="k" horiz-adv-x="500" d="M-3 0L142 560Q146 574 149 587T152 614Q152 630 141 637T84 646L90 672L261 676L156 274Q183 274 203 277T239 290T267 317T291 361Q307 398 320 422T348 459T377 477T410 482Q436 482 455 468T474 424Q474 400 460 386T423 372Q405 372 394 384T382 416Q382 423 385 430T388 441Q388 446 384 446Q374 446 363 431T341 396T321 357T307 327Q297 307 288 295T268 275T248 263T226 257V253Q248 250 269 242T302 222Q314 210 319 191T325 151T325 108T325 69T329 41T344 30Q355 30 367 37T393 63T424 110T461 184L483 170Q462 116 441 81T397 25T353 -4T306 -12Q269 -12 250 7T231 62Q231 88 235 116T239 182Q239 199 236 210T223 228T195 238T147 244L84 0H-3Z"  />
<glyph unicode="l" horiz-adv-x="278" d="M14 88Q14 111 18 130T29 176L130 552Q134 566 139 583T144 614Q144 632 130 638T74 646L80 672L253 676L110 142Q108 136 105 125T99 100T94 74T92 50Q92 35 100 27T122 18Q141 18 160 37T196 83T226 136T246 175L269 163Q257 142 243 112T209 55T165 8T105 -12Q65 -12 40 15T14 88Z"  />
<glyph unicode="m" horiz-adv-x="889" d="M69 0L149 289Q162 334 167 365T172 413Q172 430 166 441T144 452Q116 452 86 417T23 297L-4 306Q23 386 61 434T152 482Q193 482 213 451T234 371Q234 351 232 332T230 294V292H232Q250 335 271 370T314 430T358 468T402 482Q416 482 431 477T460 456T481 416T490 352Q490 333 489 319T486 291L488 289Q525 376 571 429T668 482Q690 482 708 472T740 443T761 399T768 346Q768 313 755 273T724 192Q707 152 693 117T679 59Q679 44 690 34T716 24Q727 24 739 31T767 55T800 102T841 177L869 169Q827 85 787 37T701 -12Q659 -12 634 16T607 94Q606 131 620 171T653 253Q671 294 685 330T700 396Q700 422 690 436T660 451Q641 451 621 435T579 393T538 332T501 262T471 189T450 123L419 0H328L410 307Q416 330 422 359T428 410Q428 431 419 441T394 452Q377 452 358 436T319 392T280 330T244 258T214 185T192 119L159 0H69Z"  />
<glyph unicode="n" horiz-adv-x="611" d="M63 0L99 140Q112 189 124 233T145 313T159 373T165 411Q165 452 135 452Q122 452 107 441T77 409T47 362T20 301L-6 310Q5 338 20 368T54 423T96 465T146 482Q185 482 206 454T227 384Q227 353 224 328T217 286L219 284Q237 323 258 359T304 422T354 465T408 482Q437 482 457 472T489 445T506 406T512 360Q512 328 498 285T466 199Q448 156 434 120T419 64Q419 41 428 33T452 24Q462 24 475 31T503 56T536 103T575 177L598 167Q560 86 520 37T432 -12Q393 -12 370 18T347 101Q347 142 362 184T396 268Q414 309 429 344T444 406Q444 452 404 452Q379 452 355 434T309 385T266 318T229 241T200 166T179 104L148 0H63Z"  />
<glyph unicode="o" horiz-adv-x="500" d="M284 482Q324 482 354 465T406 420T437 353T448 272Q448 222 427 171T369 80T286 14T188 -12Q148 -12 118 5T66 50T35 117T24 198Q24 256 46 307T105 398T188 459T284 482ZM284 452Q252 452 227 434T181 387T146 322T121 249T107 180T102 126Q102 75 125 47T188 18Q220 18 246 36T293 83T327 150T351 224T365 294T370 352Q370 400 349 426T284 452Z"  />
<glyph unicode="p" horiz-adv-x="556" d="M162 413Q162 446 135 446Q119 446 104 434T75 402T47 355T20 296L-5 304Q9 336 24 367T58 424T98 466T150 482Q182 482 203 454T224 388Q224 380 224 367T222 342L224 340Q233 364 246 389T278 435T320 469T373 482Q402 482 427 468T472 428T503 366T515 284Q515 229 492 176T432 81T350 14T260 -12Q224 -12 196 15T168 88H166L137 -41Q132 -62 127 -82T122 -118Q122 -136 140 -141T206 -148L200 -178H-78L-73 -148Q-41 -147 -21 -144T11 -132T30 -108T43 -70L139 299Q147 331 154 360T162 413ZM363 452Q334 452 304 419T249 336T208 229T192 124Q192 65 210 42T260 18Q289 18 313 37T356 86T388 153T411 227T424 297T429 351Q429 405 414 428T363 452Z"  />
<glyph unicode="q" horiz-adv-x="500" d="M127 -178L132 -148Q167 -147 188 -143T221 -130T238 -109T248 -81L294 89L292 91Q260 44 230 16T154 -12Q126 -12 102 2T60 42T32 100T22 169Q22 235 48 292T112 391T195 457T277 482Q322 482 348 459T391 396L442 470H472L346 -42Q342 -59 336 -79T330 -114Q330 -124 333 -130T344 -141T367 -146T405 -148L399 -178H127ZM108 96Q108 58 123 38T168 18Q188 18 209 34T250 78T288 140T319 214T341 291T349 362Q349 452 280 452Q252 452 229 432T186 379T152 306T128 227T113 152T108 96Z"  />
<glyph unicode="r" horiz-adv-x="444" d="M67 0L103 140Q116 189 128 233T149 313T163 373T169 411Q169 452 139 452Q126 452 111 441T81 409T51 362T24 301L-2 310Q9 338 24 368T58 423T100 465T150 482Q189 482 210 454T231 384Q231 353 228 328T221 286L223 284Q241 323 262 359T307 422T355 465T407 482Q438 482 457 464T477 414Q477 388 462 370T420 351Q399 351 385 362T371 393Q371 406 377 414T390 428T403 437T409 443Q409 448 406 450T397 452Q374 452 352 434T308 385T267 318T231 241T202 166T181 104L150 0H67Z"  />
<glyph unicode="s" horiz-adv-x="444" d="M374 150Q374 115 357 85T311 34T243 0T162 -12Q124 -12 94 -2T44 25T12 63T1 106Q1 131 15 148T58 166Q83 166 97 153T111 116Q111 96 104 86T89 71T73 62T66 53Q66 49 73 43T92 32T119 22T151 18Q188 18 215 26T260 47T287 77T296 111Q296 134 280 150T240 181T187 209T135 241T94 283T78 342Q78 376 93 402T134 446T193 473T264 482Q302 482 329 474T375 453T401 424T410 392Q410 367 393 353T356 339Q336 339 322 351T308 384Q308 395 312 402T323 414T333 423T338 433Q338 437 331 440T314 446T291 450T267 452Q221 452 189 430T156 372Q156 348 172 331T212 301T265 275T317 246T358 206T374 150Z"  />
<glyph unicode="t" horiz-adv-x="333" d="M235 470H326L318 440H227L168 223Q149 153 138 116T127 57Q127 39 134 29T162 18Q188 18 220 56T294 178L318 168Q301 131 282 99T240 42T194 3T144 -12Q100 -12 78 14T55 84Q55 107 60 133T72 180L143 440H58L66 470H151L192 612H276L235 470Z"  />
<glyph unicode="u" horiz-adv-x="611" d="M80 101Q80 135 96 178T131 266Q151 310 166 347T182 406Q182 452 147 452Q115 452 88 416T28 301L3 313Q32 391 66 436T152 482Q178 482 196 473T227 448T244 411T250 368Q251 333 237 290T207 203T176 123T162 66Q162 46 173 35T207 24Q229 24 255 48T306 109T351 189T382 268L440 470H528L448 195Q435 150 425 113T415 58Q415 43 421 34T444 24Q461 24 475 34T503 64T532 113T565 181L588 168Q571 134 555 102T520 45T480 4T428 -12Q395 -12 374 11T353 66Q353 95 356 115T362 151L360 153Q351 134 335 106T298 52T249 7T188 -12Q137 -12 109 18T80 101Z"  />
<glyph unicode="v" horiz-adv-x="500" d="M2 311Q13 340 27 370T59 425T101 466T158 482Q202 482 226 454T250 366Q250 338 238 298T209 216Q194 174 182 142T170 80Q170 47 186 33T228 18Q265 18 300 48T364 121T409 213T427 298Q427 331 417 349T394 380T372 405T361 438Q361 455 373 468T405 482Q435 482 455 453T475 376Q475 342 467 300T445 215T408 131T358 59T296 8T222 -12Q156 -12 124 22T92 120Q92 166 105 206T135 284Q152 321 165 353T178 412Q178 452 143 452Q109 452 81 410T27 304L2 311Z"  />
<glyph unicode="w" horiz-adv-x="778" d="M2 303Q8 331 22 362T55 420T99 464T151 482Q177 482 196 472T227 446T246 409T252 366Q252 321 240 281T213 204Q199 167 187 134T174 69Q174 48 185 33T218 18Q242 18 270 49T324 127T372 228T406 330L442 470H534L484 281Q481 270 475 248T462 199T451 144T446 92Q446 60 456 39T501 18Q528 18 553 33T599 74T638 132T668 200T688 269T695 332Q695 350 684 361T658 383T633 405T621 434Q621 457 633 469T671 482Q701 482 719 456T737 376Q737 348 730 309T710 226T676 140T628 64T565 9T488 -12Q450 -12 427 2T391 41T376 97T374 164H372Q358 138 342 108T304 51T255 6T192 -12Q171 -12 154 -2T123 27T103 70T96 124Q96 166 109 204T138 280Q154 318 167 351T180 415Q180 429 172 440T148 452Q117 452 85 410T30 295L2 303Z"  />
<glyph unicode="x" horiz-adv-x="556" d="M34 302Q43 331 57 363T92 421T140 465T203 482Q257 482 286 435T312 311H314Q346 389 386 435T487 482Q521 482 541 463T562 416Q562 392 549 377T514 361Q491 361 478 372T464 402Q464 414 467 421T475 434T482 442T486 447Q486 456 471 456Q446 456 424 436T381 382T345 308T317 224T299 142T292 75Q292 18 333 18Q371 18 409 61T486 185L511 175Q485 119 460 83T411 26T365 -3T324 -12Q298 -12 279 -2T248 25T230 66T224 117Q224 124 224 130T225 144L223 146Q194 60 153 24T63 -12Q21 -12 -2 11T-26 70Q-26 99 -11 115T28 131Q48 131 60 119T72 88Q72 73 65 64T50 50T34 42T27 35Q27 27 36 21T68 14Q97 14 122 35T167 89T202 164T228 245T244 319T250 373Q250 409 236 430T192 452Q151 452 118 413T60 297L34 302Z"  />
<glyph unicode="y" horiz-adv-x="556" d="M544 470L419 23Q406 -22 386 -61T334 -128T257 -173T148 -190Q122 -190 97 -184T52 -166T20 -139T8 -104Q8 -81 22 -66T58 -50Q78 -50 92 -62T106 -94Q106 -116 97 -128T87 -149Q87 -154 97 -157T130 -160Q171 -160 204 -150T264 -112T312 -34T350 95L348 97Q339 80 324 61T287 26T241 -1T189 -12Q146 -12 118 18T90 101Q90 147 107 188T143 267Q163 305 178 342T194 406Q194 452 159 452Q125 452 100 415T38 301L11 310Q27 344 42 375T76 430T117 468T170 482Q193 482 210 472T239 445T256 408T262 366Q262 331 247 287T215 199Q197 155 183 120T168 67Q168 44 182 34T218 24Q241 24 269 47T323 107T372 188T405 275L458 470H544Z"  />
<glyph unicode="z" horiz-adv-x="500" d="M50 311Q60 343 77 373T118 428T169 467T227 482Q259 482 281 467T320 432Q337 413 352 398T386 382Q404 382 414 394T424 414Q424 425 419 433T414 455Q414 466 421 474T446 482Q463 482 470 470T478 440Q478 390 425 336T253 221Q209 199 177 182T121 150T78 124T45 101L47 99Q68 110 96 117T146 124Q175 124 198 117T243 99Q264 90 284 82T324 74Q346 74 361 85T387 112T405 148T419 185L448 182Q438 141 420 106T379 44T328 3T269 -12Q231 -12 205 3T159 38Q139 57 122 72T85 88Q50 88 50 69Q50 64 51 61T55 53T58 44T60 30Q60 15 51 6T27 -4Q12 -4 2 7T-8 40Q-8 60 5 80T43 124Q86 166 144 201T258 267T358 322T419 370L417 372Q400 362 381 357T326 352Q296 352 273 360T231 378Q212 388 197 396T166 404Q151 404 138 395T113 372T92 340T75 305L50 311Z"  />
<glyph unicode="{" horiz-adv-x="444" d="M240 556Q254 602 272 630T313 674T365 695T427 700L424 680Q379 672 355 644T314 562L263 388Q253 355 243 333T219 296T187 272T144 256L143 254Q166 248 182 233T198 186Q198 162 187 121T161 34Q147 -11 136 -51T124 -113Q124 -139 138 -153T173 -170L168 -190Q101 -190 77 -171T52 -110Q52 -101 58 -78T72 -23T91 42T109 107T124 161T130 194Q130 235 77 255Q117 268 142 289T179 350L240 556Z"  />
<glyph unicode="|" horiz-adv-x="222" d="M94 0V676H148V0H94Z"  />
<glyph unicode="}" horiz-adv-x="444" d="M177 -46Q163 -93 145 -121T104 -164T52 -185T-10 -190L-7 -170Q38 -162 62 -134T103 -52L154 122Q164 155 174 177T198 214T230 238T273 254L274 256Q251 262 235 277T219 324Q219 348 230 389T256 476Q270 521 281 561T293 623Q293 651 279 664T244 680L249 700Q316 700 340 681T365 620Q365 611 359 588T345 533T326 468T308 403T293 349T287 316Q287 275 340 255Q300 242 275 221T238 160L177 -46Z"  />
<glyph unicode="~" horiz-adv-x="600" d="M531 259Q520 243 508 228T481 200T448 181T406 173Q377 173 355 181T312 202Q281 219 249 229T193 239Q160 239 142 222T105 169L69 211Q77 227 88 242T115 270T149 289T194 297Q223 297 252 286T313 261Q339 250 363 240T406 229Q421 229 434 235T457 252T477 275T495 301L531 259Z"  />
<glyph unicode="&#xA0;" horiz-adv-x="278" />
<glyph unicode="&#xA1;" horiz-adv-x="333" d="M191 308Q165 193 151 97T126 -90Q121 -126 102 -152T54 -178Q28 -178 14 -162T-1 -120Q-1 -99 4 -80T19 -38T43 13T74 82T113 178T157 308H191ZM268 448Q268 424 251 408T210 392Q186 392 169 408T152 448Q152 472 169 488T210 504Q236 504 252 488T268 448Z"  />
<glyph unicode="&#xA2;" horiz-adv-x="556" d="M293 544Q258 529 231 496T185 420T156 333T146 249Q146 216 159 191T195 157L293 544ZM152 -12L186 123Q134 134 101 180T68 300Q68 350 87 396T138 479T213 541T301 575L332 700H370L340 578Q359 578 377 573T411 557T435 528T444 485Q444 458 428 441T391 423Q368 423 355 436T342 468Q342 486 350 495T369 509T387 518T396 532Q396 542 382 548T347 554Q338 554 333 553L232 150Q260 153 284 166T329 201T365 250T394 307L418 296Q400 250 379 218T332 165T280 133T223 118L190 -12H152Z"  />
<glyph unicode="&#xA3;" horiz-adv-x="556" d="M128 333L135 365H273Q247 399 227 435T207 516Q207 556 225 589T274 647T342 686T421 700Q459 700 487 690T533 664T561 629T570 592Q570 560 552 544T510 527Q486 527 471 540T456 578Q456 593 464 602T483 617T502 627T511 636Q511 647 492 658T430 670Q367 670 328 636T289 545Q289 523 298 500T321 453T353 407T386 364H557L548 334H404Q412 311 417 289T423 240Q423 199 406 162T369 102Q389 90 419 81T490 72Q511 72 529 80T563 103T590 135T610 175L633 156Q620 126 604 97T567 45T518 8T454 -6Q428 -6 407 -1T368 11T338 27T316 43Q278 18 239 3T146 -12Q111 -12 87 -3T47 21T24 54T17 89Q17 113 28 131T57 161T95 179T135 185Q163 185 188 180T237 165T285 143T334 118Q342 129 348 148T355 194Q355 233 338 265T295 333H128ZM53 90Q53 55 80 37T148 18Q182 18 220 30T285 64Q271 74 252 88T212 116T169 139T126 149Q92 149 73 133T53 90Z"  />
<glyph unicode="&#xA4;" horiz-adv-x="556" d="M509 95L455 153Q423 124 383 110T300 96Q257 96 217 110T145 153L91 95L51 135L104 191Q77 225 65 264T52 344Q52 386 64 426T105 498L50 552L92 594L148 538Q180 565 219 578T300 592Q342 592 381 579T452 538L508 594L550 552L495 498Q523 466 535 426T548 344Q548 303 536 264T496 191L549 135L509 95ZM114 344Q114 306 128 272T167 211T226 170T300 154Q340 154 374 169T433 211T472 271T486 344Q486 382 472 416T433 477T374 518T300 534Q260 534 226 519T167 477T128 417T114 344Z"  />
<glyph unicode="&#xA5;" horiz-adv-x="556" d="M337 254L307 146Q300 122 297 107T293 78Q293 65 296 56T309 42T336 34T382 30L374 0H76L82 30Q112 32 131 36T164 48T184 68T196 100L235 254H74L86 284H243L244 290L228 356H98L110 386H221L163 624Q161 633 157 639T146 650T126 656T93 658L97 688H361L355 658Q313 661 289 648T265 620Q265 608 270 588T278 555L333 336L506 543Q510 549 518 557T533 576T546 599T552 622Q552 641 538 649T479 658L484 688H711L705 658Q672 654 647 637T593 585L428 386H536L524 356H403L346 288L345 284H512L500 254H337Z"  />
<glyph unicode="&#xA6;" horiz-adv-x="222" d="M94 253H148V0H94V253ZM94 676H148V423H94V676Z"  />
<glyph unicode="&#xA7;" horiz-adv-x="500" d="M420 267Q420 235 410 210T384 168T345 141T298 131Q278 131 259 137L258 135Q266 125 276 113T296 85T311 53T317 16Q317 -11 305 -37T272 -85T219 -119T150 -132Q120 -132 96 -122T55 -97T29 -64T20 -28Q20 6 37 23T78 41Q97 41 110 31T124 -3Q124 -18 117 -27T101 -44T85 -59T78 -76Q78 -88 95 -97T148 -106Q173 -106 193 -98T227 -77T248 -48T255 -13Q255 12 242 35T209 82T166 131T123 185T90 247T76 320Q76 345 84 368T107 409T143 437T192 448Q205 448 217 445T240 433L242 435Q217 467 200 499T183 570Q183 603 196 627T230 667T279 692T335 700Q367 700 390 692T430 671T453 640T461 605Q461 580 447 563T408 546Q389 546 376 558T363 590Q363 603 368 611T381 626T393 637T399 649Q399 659 388 668T339 678Q289 678 265 652T241 585Q241 567 254 545T287 496T330 442T373 384T406 325T420 267ZM134 348Q134 324 146 298T192 229Q208 207 220 193T243 171T264 160T289 157Q317 157 337 177T358 228Q358 253 344 285T307 347T259 397T210 418Q175 418 155 401T134 348Z"  />
<glyph unicode="&#xA8;" horiz-adv-x="352" d="M110 600Q110 620 125 634T160 648Q179 648 193 634T208 600Q208 580 194 565T160 550Q138 550 124 564T110 600ZM311 600Q311 620 326 634T361 648Q380 648 394 634T409 600Q409 580 395 565T361 550Q339 550 325 564T311 600Z"  />
<glyph unicode="&#xA9;" horiz-adv-x="800" d="M389 700Q461 700 525 672T636 595T711 482T739 344Q739 271 712 207T637 94T525 17T389 -12Q317 -12 253 16T142 93T67 206T39 344Q39 417 66 481T141 594T253 671T389 700ZM389 30Q449 30 502 55T596 123T661 223T685 344Q685 408 661 465T597 565T503 633T389 658Q329 658 275 633T181 565T117 465T93 344Q93 280 116 223T180 123T275 55T389 30ZM562 255L545 185Q543 177 537 173T519 165Q503 160 476 154T413 148Q369 148 329 159T259 195T212 257T194 350Q194 404 211 442T259 505T329 540T413 552Q456 552 479 546T523 532Q545 525 545 510V438H529Q527 455 521 471T501 499T466 518T413 526Q375 526 347 513T299 477T271 421T262 350Q262 312 271 280T299 224T346 187T413 174Q472 174 502 197T546 255H562Z"  />
<glyph unicode="&#xAA;" horiz-adv-x="334" d="M348 693Q340 661 329 620T307 540T290 473T283 441Q283 433 287 429T298 425Q315 425 331 446T373 523L391 519Q376 487 364 465T339 430T315 410T288 404Q265 404 250 420T235 474H233Q230 466 223 455T205 432T178 412T143 404Q101 404 77 436T52 515Q52 559 69 593T110 651T163 687T213 700Q243 700 255 683T271 631H273L290 693H348ZM114 477Q114 446 124 435T149 424Q164 424 183 438T218 478T246 536T257 608Q257 650 245 665T213 680Q196 680 178 661T146 612T123 546T114 477Z"  />
<glyph unicode="&#xAB;" horiz-adv-x="500" d="M215 241Q263 275 301 307T367 363T411 401T433 416Q443 416 443 409Q443 405 433 392T408 360T374 322T338 284T306 251T286 230Q299 202 313 174T340 123T359 84T367 64Q367 54 355 54Q351 54 339 71T309 113T266 170T215 229V241ZM55 241Q103 275 141 307T207 363T251 401T273 416Q283 416 283 409Q283 405 273 392T248 360T214 322T178 284T146 251T126 230Q139 202 153 174T180 123T199 84T207 64Q207 54 195 54Q191 54 179 71T149 113T106 170T55 229V241Z"  />
<glyph unicode="&#xAC;" horiz-adv-x="600" d="M460 299H44V353H514V100H460V299Z"  />
<glyph unicode="&#xAD;" horiz-adv-x="333" d="M45 266H281L263 204H27L45 266Z"  />
<glyph unicode="&#xAE;" horiz-adv-x="800" d="M221 158V176Q256 179 264 186T273 213V484Q273 504 265 511T221 521V539H403Q462 539 493 513T525 445Q525 404 501 377T440 337L501 256Q522 227 545 203T584 168V158H522Q513 158 504 164T482 187T447 238T392 325H335V213Q335 193 343 186T387 176V158H221ZM335 347H380Q423 347 443 371T463 439Q463 480 442 498T382 517H335V347ZM389 700Q461 700 525 672T636 595T711 482T739 344Q739 271 712 207T637 94T525 17T389 -12Q317 -12 253 16T142 93T67 206T39 344Q39 417 66 481T141 594T253 671T389 700ZM389 30Q449 30 502 55T596 123T661 223T685 344Q685 408 661 465T597 565T503 633T389 658Q329 658 275 633T181 565T117 465T93 344Q93 280 116 223T180 123T275 55T389 30Z"  />
<glyph unicode="&#xAF;" horiz-adv-x="352" d="M403 574H102L113 628H414L403 574Z"  />
<glyph unicode="&#xB0;" horiz-adv-x="400" d="M119 557Q119 536 127 517T148 482T181 459T221 450Q242 450 260 458T291 482T313 516T321 557Q321 578 313 597T292 632T260 655T220 664Q199 664 181 656T149 632T127 598T119 557ZM77 557Q77 587 88 613T118 658T164 689T220 700Q250 700 276 689T321 659T352 613T363 557Q363 527 352 501T322 456T276 425T220 414Q190 414 164 425T119 455T88 501T77 557Z"  />
<glyph unicode="&#xB1;" horiz-adv-x="600" d="M252 470H306V307H514V253H306V90H252V253H44V307H252V470ZM44 54H514V0H44V54Z"  />
<glyph unicode="&#xB2;" horiz-adv-x="333" d="M248 617Q245 596 236 578T214 546T184 524T149 516Q122 516 107 532T91 571Q91 596 104 619T138 661T188 689T246 700Q283 700 309 692T351 671T374 639T381 602Q381 571 365 548T323 505T263 469T194 434T125 395T62 347L65 346Q76 354 90 361T123 369Q140 369 155 364T184 350Q198 342 213 337T246 331Q264 331 277 339T299 359T316 385T330 413L348 410Q327 350 294 312T215 273Q186 273 169 281T138 301Q112 324 101 330T76 336Q59 336 59 324Q59 317 62 311T66 295Q66 276 38 276Q12 276 12 303Q12 311 17 324T42 356T99 402T200 466Q260 501 286 539T313 621Q313 647 296 662T238 678Q214 678 193 670T155 646T129 611T119 568Q119 538 150 538Q164 538 177 546T200 567T216 595T224 623L248 617Z"  />
<glyph unicode="&#xB3;" horiz-adv-x="333" d="M261 617Q250 583 225 558T161 533Q136 533 123 547T109 584Q109 608 121 629T153 666T201 691T258 700Q318 700 350 672T382 607Q382 569 363 547T322 512T280 496T261 489Q261 487 273 484T300 473T327 447T340 400Q340 374 327 351T288 310T227 283T146 273Q91 273 59 297T27 359Q27 388 43 402T83 416Q120 416 120 384Q120 367 109 358T86 348Q75 348 70 350T60 353Q55 353 55 344Q55 327 78 311T144 295Q171 295 194 305T235 332T262 373T272 425Q272 453 259 466T238 480Q231 480 217 478T188 476Q176 476 172 478T168 487Q168 492 173 495T195 498Q206 498 217 497T234 495Q244 495 257 503T282 528T302 566T310 618Q310 646 293 662T246 678Q225 678 206 671T171 652T146 623T137 587Q137 555 164 555Q184 555 204 568T240 623L261 617Z"  />
<glyph unicode="&#xB4;" horiz-adv-x="352" d="M322 671Q334 682 341 689T352 699T361 704T370 706Q385 706 395 697T406 669Q406 657 402 652T388 640L218 534H183L322 671Z"  />
<glyph unicode="&#xB5;" horiz-adv-x="611" d="M528 470L448 195Q435 150 425 113T415 58Q415 43 421 34T444 24Q461 24 475 34T503 64T532 113T565 181L588 168Q571 134 555 102T520 45T480 4T428 -12Q395 -12 374 11T353 66Q353 95 356 115T362 151L360 153Q351 134 335 106T298 52T249 7T188 -12Q159 -12 137 -1Q128 -28 122 -61T107 -124T82 -172T38 -192Q12 -192 -1 -175T-14 -134Q-14 -118 0 -75T37 24T84 142T131 260T167 355T182 410Q182 452 147 452Q115 452 88 416T28 301L3 313Q32 391 66 436T152 482Q178 482 196 473T227 448T244 411T250 368Q251 333 237 290T207 203T176 123T162 66Q162 46 173 35T207 24Q229 24 255 48T306 109T351 189T382 268L440 470H528Z"  />
<glyph unicode="&#xB6;" horiz-adv-x="600" d="M268 -178L498 658H435L205 -178H147L272 277Q190 279 155 313T120 407Q120 446 132 495T173 586T248 658T363 688H644L636 658Q586 658 567 646T541 606L326 -178H268Z"  />
<glyph unicode="&#xB7;" horiz-adv-x="278" d="M76 235Q76 259 93 276T134 293Q158 293 175 276T192 235Q192 211 175 194T134 177Q110 177 93 194T76 235Z"  />
<glyph unicode="&#xB8;" horiz-adv-x="352" d="M115 4L71 -60L73 -62Q84 -58 99 -58Q112 -58 126 -62T151 -74T170 -96T177 -126Q177 -166 144 -189T59 -212Q32 -212 6 -206T-35 -190L-18 -160Q-1 -168 17 -172T50 -176Q75 -176 90 -164T105 -135Q105 -119 93 -107T58 -94Q42 -94 24 -100L15 -92L76 4H115Z"  />
<glyph unicode="&#xB9;" horiz-adv-x="333" d="M54 280L58 302Q82 303 98 306T124 314T139 326T147 342Q167 416 189 488T231 630H156L160 652Q196 654 227 663T291 693H312Q310 686 302 658T282 590T257 507T234 425T216 362T209 333Q209 316 223 309T281 302L277 280H54Z"  />
<glyph unicode="&#xBA;" horiz-adv-x="300" d="M61 535Q61 563 75 592T112 645T167 684T233 700Q280 700 308 663T337 569Q337 541 323 512T286 459T231 420T165 404Q118 404 90 441T61 535ZM283 623Q283 680 231 680Q209 680 192 668T161 638T139 596T125 551T118 510T115 481Q115 424 166 424Q189 424 206 436T237 466T258 508T272 553T280 594T283 623Z"  />
<glyph unicode="&#xBB;" horiz-adv-x="500" d="M267 229Q219 194 181 163T115 107T71 69T49 54Q39 54 39 61Q39 65 49 78T74 110T108 148T144 186T176 219T196 240Q183 268 169 296T142 347T123 386T115 406Q115 416 127 416Q131 416 143 399T173 357T216 300T267 241V229ZM427 229Q379 194 341 163T275 107T231 69T209 54Q199 54 199 61Q199 65 209 78T234 110T268 148T304 186T336 219T356 240Q343 268 329 296T302 347T283 386T275 406Q275 416 287 416Q291 416 303 399T333 357T376 300T427 241V229Z"  />
<glyph unicode="&#xBC;" horiz-adv-x="834" d="M775 142Q757 115 734 100T681 78L649 -34H587L618 78Q609 78 601 79T586 84Q561 96 544 108T500 132Q486 124 470 114T438 104Q427 104 420 109T413 125Q413 136 423 144T461 152Q471 152 478 151T494 148Q531 209 554 272T593 412H662Q658 382 642 345T603 272T557 202T514 146Q562 137 589 126T627 114L683 310H746L690 114Q715 114 732 125T764 153L775 142ZM55 280L59 302Q83 303 99 306T125 314T140 326T148 342Q168 416 190 488T232 630H157L161 652Q197 654 228 663T292 693H313Q311 686 303 658T283 590T258 507T235 425T217 362T210 333Q210 316 224 309T282 302L278 280H55ZM233 -12H178L624 700H679L233 -12Z"  />
<glyph unicode="&#xBD;" horiz-adv-x="834" d="M55 280L59 302Q83 303 99 306T125 314T140 326T148 342Q168 416 190 488T232 630H157L161 652Q197 654 228 663T292 693H313Q311 686 303 658T283 590T258 507T235 425T217 362T210 333Q210 316 224 309T282 302L278 280H55ZM233 -12H178L624 700H679L233 -12ZM669 337Q666 316 657 298T635 266T605 244T570 236Q543 236 528 252T512 291Q512 316 525 339T559 381T609 409T667 420Q704 420 730 412T772 391T795 359T802 322Q802 291 786 268T744 225T684 189T615 154T546 115T483 67L486 66Q497 74 511 81T544 89Q561 89 576 84T605 70Q619 62 634 57T667 51Q685 51 698 59T720 79T737 105T751 133L769 130Q748 70 715 32T636 -7Q607 -7 590 1T559 21Q533 44 522 50T497 56Q480 56 480 44Q480 37 483 31T487 15Q487 -4 459 -4Q433 -4 433 23Q433 31 438 44T463 76T520 122T621 186Q681 221 707 259T734 341Q734 367 717 382T659 398Q635 398 614 390T576 366T550 331T540 288Q540 258 571 258Q585 258 598 266T621 287T637 315T645 343L669 337Z"  />
<glyph unicode="&#xBE;" horiz-adv-x="834" d="M775 142Q757 115 734 100T681 78L649 -34H587L618 78Q609 78 601 79T586 84Q561 96 544 108T500 132Q486 124 470 114T438 104Q427 104 420 109T413 125Q413 136 423 144T461 152Q471 152 478 151T494 148Q531 209 554 272T593 412H662Q658 382 642 345T603 272T557 202T514 146Q562 137 589 126T627 114L683 310H746L690 114Q715 114 732 125T764 153L775 142ZM261 617Q250 583 225 558T161 533Q136 533 123 547T109 584Q109 608 121 629T153 666T201 691T258 700Q318 700 350 672T382 607Q382 569 363 547T322 512T280 496T261 489Q261 487 273 484T300 473T327 447T340 400Q340 374 327 351T288 310T227 283T146 273Q91 273 59 297T27 359Q27 388 43 402T83 416Q120 416 120 384Q120 367 109 358T86 348Q75 348 70 350T60 353Q55 353 55 344Q55 327 78 311T144 295Q171 295 194 305T235 332T262 373T272 425Q272 453 259 466T238 480Q231 480 217 478T188 476Q176 476 172 478T168 487Q168 492 173 495T195 498Q206 498 217 497T234 495Q244 495 257 503T282 528T302 566T310 618Q310 646 293 662T246 678Q225 678 206 671T171 652T146 623T137 587Q137 555 164 555Q184 555 204 568T240 623L261 617ZM233 -12H178L624 700H679L233 -12Z"  />
<glyph unicode="&#xBF;" horiz-adv-x="500" d="M162 224Q179 267 202 287T259 308Q292 308 313 286T334 228Q334 205 324 188T293 152T238 113T156 60Q136 47 123 36T103 11T92 -19T89 -60Q89 -81 97 -99T120 -131T153 -152T193 -160Q219 -160 241 -151T281 -125T307 -85T317 -32Q317 -3 303 23L326 36Q339 18 344 0T349 -40Q349 -72 337 -99T302 -147T248 -178T180 -190Q143 -190 110 -180T51 -151T12 -103T-3 -39Q-3 64 118 110Q180 133 216 151T272 184T296 212T302 238Q302 258 290 268T257 278Q235 278 220 262T191 210L162 224ZM386 448Q386 424 369 408T328 392Q304 392 287 408T270 448Q270 472 287 488T328 504Q354 504 370 488T386 448Z"  />
<glyph unicode="&#xC0;" horiz-adv-x="667" d="M-70 0L-63 30Q-30 34 -4 47T44 78T81 118T112 165L414 688H457L545 103Q548 81 553 68T567 47T591 36T631 30L625 0H337L343 30Q377 33 397 38T429 49T444 65T448 89Q448 102 442 134T426 234H193Q186 220 172 196T144 147T120 99T109 66Q109 59 112 53T125 43T152 35T199 30L193 0H-70ZM218 270H421L384 563H382L218 270ZM477 716L394 779Q373 795 359 805T335 822T321 836T317 850Q317 868 327 878T352 888Q359 888 364 887T376 880T390 867T409 843L507 716H477Z"  />
<glyph unicode="&#xC1;" horiz-adv-x="667" d="M-70 0L-63 30Q-30 34 -4 47T44 78T81 118T112 165L414 688H457L545 103Q548 81 553 68T567 47T591 36T631 30L625 0H337L343 30Q377 33 397 38T429 49T444 65T448 89Q448 102 442 134T426 234H193Q186 220 172 196T144 147T120 99T109 66Q109 59 112 53T125 43T152 35T199 30L193 0H-70ZM218 270H421L384 563H382L218 270ZM515 853Q527 864 534 871T545 881T554 886T563 888Q578 888 588 879T599 851Q599 839 595 834T581 822L411 716H376L515 853Z"  />
<glyph unicode="&#xC2;" horiz-adv-x="667" d="M-70 0L-63 30Q-30 34 -4 47T44 78T81 118T112 165L414 688H457L545 103Q548 81 553 68T567 47T591 36T631 30L625 0H337L343 30Q377 33 397 38T429 49T444 65T448 89Q448 102 442 134T426 234H193Q186 220 172 196T144 147T120 99T109 66Q109 59 112 53T125 43T152 35T199 30L193 0H-70ZM218 270H421L384 563H382L218 270ZM487 884L575 716H539L457 820L319 716H281L438 884H487Z"  />
<glyph unicode="&#xC3;" horiz-adv-x="667" d="M-70 0L-63 30Q-30 34 -4 47T44 78T81 118T112 165L414 688H457L545 103Q548 81 553 68T567 47T591 36T631 30L625 0H337L343 30Q377 33 397 38T429 49T444 65T448 89Q448 102 442 134T426 234H193Q186 220 172 196T144 147T120 99T109 66Q109 59 112 53T125 43T152 35T199 30L193 0H-70ZM218 270H421L384 563H382L218 270ZM296 740Q319 846 394 846Q418 846 439 840T477 825Q494 817 509 810T537 803Q563 803 575 812T595 848H624Q613 796 587 769T525 742Q508 742 490 749T452 765Q433 774 414 781T376 788Q337 788 325 740H296Z"  />
<glyph unicode="&#xC4;" horiz-adv-x="667" d="M-70 0L-63 30Q-30 34 -4 47T44 78T81 118T112 165L414 688H457L545 103Q548 81 553 68T567 47T591 36T631 30L625 0H337L343 30Q377 33 397 38T429 49T444 65T448 89Q448 102 442 134T426 234H193Q186 220 172 196T144 147T120 99T109 66Q109 59 112 53T125 43T152 35T199 30L193 0H-70ZM218 270H421L384 563H382L218 270ZM303 782Q303 802 318 816T353 830Q372 830 386 816T401 782Q401 762 387 747T353 732Q331 732 317 746T303 782ZM504 782Q504 802 519 816T554 830Q573 830 587 816T602 782Q602 762 588 747T554 732Q532 732 518 746T504 782Z"  />
<glyph unicode="&#xC5;" horiz-adv-x="667" d="M-70 0L-63 30Q-30 34 -4 47T44 78T81 118T112 165L414 688H457L545 103Q548 81 553 68T567 47T591 36T631 30L625 0H337L343 30Q377 33 397 38T429 49T444 65T448 89Q448 102 442 134T426 234H193Q186 220 172 196T144 147T120 99T109 66Q109 59 112 53T125 43T152 35T199 30L193 0H-70ZM218 270H421L384 563H382L218 270ZM357 815Q357 836 364 854T385 885T417 907T457 915Q478 915 496 907T527 886T548 854T556 815Q556 794 548 776T527 745T495 724T457 716Q436 716 418 723T387 744T365 776T357 815ZM393 816Q393 789 411 771T456 752Q482 752 501 770T520 816Q520 842 501 860T456 879Q429 879 411 861T393 816Z"  />
<glyph unicode="&#xC6;" horiz-adv-x="944" d="M766 0H280L287 30Q314 32 331 36T360 46T376 63T386 89L447 328H279L154 163Q144 150 134 136T114 107T99 82T93 66Q93 57 96 50T108 39T135 32T181 30L175 0H-50L-43 30Q-18 28 7 47T69 114L411 563Q428 586 441 604T454 634Q454 649 433 652T382 658L389 688H928L869 444H839Q839 456 840 470T841 496Q841 579 809 618T714 658Q666 658 645 641T615 589L563 384Q596 385 619 391T658 410T685 445T708 498H737L676 224H648Q648 260 645 283T631 321T602 342T553 348Q547 324 535 280T512 192T492 113T483 72Q483 54 496 42T538 30Q634 30 698 85T807 255L838 252L766 0ZM457 364L536 658H524L304 364H457Z"  />
<glyph unicode="&#xC7;" horiz-adv-x="667" d="M607 251Q593 200 568 154T508 71T429 13T331 -12L298 -60L300 -62Q311 -58 326 -58Q339 -58 353 -62T378 -74T397 -96T404 -126Q404 -166 371 -189T286 -212Q259 -212 233 -206T192 -190L209 -160Q226 -168 244 -172T277 -176Q302 -176 317 -164T332 -135Q332 -119 320 -107T285 -94Q269 -94 251 -100L242 -92L294 -12Q240 -8 195 16T117 80T66 172T47 286Q47 372 85 447T185 579T320 667T466 700Q511 700 541 690T592 666T622 643T637 632Q645 632 654 648T677 684H706L646 444L621 442Q621 488 616 528T594 599T546 646T462 664Q391 664 335 626T240 524T179 377T157 204Q157 151 170 117T206 62T259 33T324 24Q373 24 412 42T481 92T534 165T572 254L607 251Z"  />
<glyph unicode="&#xC8;" horiz-adv-x="667" d="M517 0H-41L-34 30Q-4 30 16 34T49 48T71 73T85 110L188 509Q196 540 204 568T212 610Q212 636 197 646T133 658L141 688H689L630 444H600Q600 456 601 470T602 496Q602 579 564 618T432 658Q399 658 378 653T342 638T321 612T308 578L258 384Q304 382 332 386T380 403T414 439T443 498H472L403 224H375Q375 268 371 292T354 329T315 344T248 348L199 160Q193 138 186 113T178 72Q178 52 192 41T245 30Q308 30 356 44T442 85T506 154T556 252H589L517 0ZM494 716L411 779Q390 795 376 805T352 822T338 836T334 850Q334 868 344 878T369 888Q376 888 381 887T393 880T407 867T426 843L524 716H494Z"  />
<glyph unicode="&#xC9;" horiz-adv-x="667" d="M517 0H-41L-34 30Q-4 30 16 34T49 48T71 73T85 110L188 509Q196 540 204 568T212 610Q212 636 197 646T133 658L141 688H689L630 444H600Q600 456 601 470T602 496Q602 579 564 618T432 658Q399 658 378 653T342 638T321 612T308 578L258 384Q304 382 332 386T380 403T414 439T443 498H472L403 224H375Q375 268 371 292T354 329T315 344T248 348L199 160Q193 138 186 113T178 72Q178 52 192 41T245 30Q308 30 356 44T442 85T506 154T556 252H589L517 0ZM532 853Q544 864 551 871T562 881T571 886T580 888Q595 888 605 879T616 851Q616 839 612 834T598 822L428 716H393L532 853Z"  />
<glyph unicode="&#xCA;" horiz-adv-x="667" d="M517 0H-41L-34 30Q-4 30 16 34T49 48T71 73T85 110L188 509Q196 540 204 568T212 610Q212 636 197 646T133 658L141 688H689L630 444H600Q600 456 601 470T602 496Q602 579 564 618T432 658Q399 658 378 653T342 638T321 612T308 578L258 384Q304 382 332 386T380 403T414 439T443 498H472L403 224H375Q375 268 371 292T354 329T315 344T248 348L199 160Q193 138 186 113T178 72Q178 52 192 41T245 30Q308 30 356 44T442 85T506 154T556 252H589L517 0ZM504 884L592 716H556L474 820L336 716H298L455 884H504Z"  />
<glyph unicode="&#xCB;" horiz-adv-x="667" d="M517 0H-41L-34 30Q-4 30 16 34T49 48T71 73T85 110L188 509Q196 540 204 568T212 610Q212 636 197 646T133 658L141 688H689L630 444H600Q600 456 601 470T602 496Q602 579 564 618T432 658Q399 658 378 653T342 638T321 612T308 578L258 384Q304 382 332 386T380 403T414 439T443 498H472L403 224H375Q375 268 371 292T354 329T315 344T248 348L199 160Q193 138 186 113T178 72Q178 52 192 41T245 30Q308 30 356 44T442 85T506 154T556 252H589L517 0ZM320 782Q320 802 335 816T370 830Q389 830 403 816T418 782Q418 762 404 747T370 732Q348 732 334 746T320 782ZM521 782Q521 802 536 816T571 830Q590 830 604 816T619 782Q619 762 605 747T571 732Q549 732 535 746T521 782Z"  />
<glyph unicode="&#xCC;" horiz-adv-x="389" d="M-24 0L-14 30Q12 28 30 31T61 42T82 65T97 105L198 494Q209 533 217 567T225 618Q225 625 222 632T210 645T186 654T145 658L153 688H442L438 658Q406 658 386 654T354 642T334 620T323 589L235 247Q229 223 222 197T208 147T197 103T192 72Q192 49 210 38T282 30L274 0H-24ZM355 716L272 779Q251 795 237 805T213 822T199 836T195 850Q195 868 205 878T230 888Q237 888 242 887T254 880T268 867T287 843L385 716H355Z"  />
<glyph unicode="&#xCD;" horiz-adv-x="389" d="M-24 0L-14 30Q12 28 30 31T61 42T82 65T97 105L198 494Q209 533 217 567T225 618Q225 625 222 632T210 645T186 654T145 658L153 688H442L438 658Q406 658 386 654T354 642T334 620T323 589L235 247Q229 223 222 197T208 147T197 103T192 72Q192 49 210 38T282 30L274 0H-24ZM393 853Q405 864 412 871T423 881T432 886T441 888Q456 888 466 879T477 851Q477 839 473 834T459 822L289 716H254L393 853Z"  />
<glyph unicode="&#xCE;" horiz-adv-x="389" d="M-24 0L-14 30Q12 28 30 31T61 42T82 65T97 105L198 494Q209 533 217 567T225 618Q225 625 222 632T210 645T186 654T145 658L153 688H442L438 658Q406 658 386 654T354 642T334 620T323 589L235 247Q229 223 222 197T208 147T197 103T192 72Q192 49 210 38T282 30L274 0H-24ZM365 884L453 716H417L335 820L197 716H159L316 884H365Z"  />
<glyph unicode="&#xCF;" horiz-adv-x="389" d="M-24 0L-14 30Q12 28 30 31T61 42T82 65T97 105L198 494Q209 533 217 567T225 618Q225 625 222 632T210 645T186 654T145 658L153 688H442L438 658Q406 658 386 654T354 642T334 620T323 589L235 247Q229 223 222 197T208 147T197 103T192 72Q192 49 210 38T282 30L274 0H-24ZM181 782Q181 802 196 816T231 830Q250 830 264 816T279 782Q279 762 265 747T231 732Q209 732 195 746T181 782ZM382 782Q382 802 397 816T432 830Q451 830 465 816T480 782Q480 762 466 747T432 732Q410 732 396 746T382 782Z"  />
<glyph unicode="&#xD0;" horiz-adv-x="722" d="M164 401L190 502Q199 537 208 571T218 616Q218 639 201 648T136 658L144 688H471Q538 688 582 660T652 590T688 502T699 417Q699 382 691 338T664 247T613 157T537 77T429 21T287 0H-40L-33 30Q2 33 24 40T60 62T83 99T100 153L153 359H68L80 401H164ZM267 401H460L448 359H256L217 212Q212 195 207 175T197 137T189 103T186 82Q186 55 205 43T278 30Q341 30 388 48T474 108Q499 135 520 181T556 280T580 388T589 486Q589 536 580 569T551 622T502 650T434 658Q406 658 386 654T352 640T329 614T313 573L267 401Z"  />
<glyph unicode="&#xD1;" horiz-adv-x="722" d="M-50 0L-43 30Q7 35 35 51T73 102L181 497Q191 532 200 563T209 612Q209 619 206 627T193 641T166 652T120 658L127 688H289L526 156H528L613 481Q620 510 625 529T633 563T637 587T639 606Q639 613 636 621T623 637T598 650T556 658L563 688H794L789 658Q740 658 714 636T675 564L525 0H488L237 562H235L137 183Q130 156 123 130T116 84Q116 58 135 44T204 30L198 0H-50ZM340 740Q363 846 438 846Q462 846 483 840T521 825Q538 817 553 810T581 803Q607 803 619 812T639 848H668Q657 796 631 769T569 742Q552 742 534 749T496 765Q477 774 458 781T420 788Q381 788 369 740H340Z"  />
<glyph unicode="&#xD2;" horiz-adv-x="722" d="M695 400Q695 319 661 245T571 113T443 22T296 -12Q243 -12 199 9T122 70T71 169T52 302Q52 351 67 400T111 493T176 575T257 641T348 684T444 700Q497 700 543 677T622 613T675 517T695 400ZM597 476Q597 565 557 614T440 664Q384 664 341 639T266 574T212 482T176 379T156 277T150 192Q150 145 163 113T197 61T247 33T306 24Q359 24 401 48T475 110T531 197T568 296T590 394T597 476ZM521 716L438 779Q417 795 403 805T379 822T365 836T361 850Q361 868 371 878T396 888Q403 888 408 887T420 880T434 867T453 843L551 716H521Z"  />
<glyph unicode="&#xD3;" horiz-adv-x="722" d="M695 400Q695 319 661 245T571 113T443 22T296 -12Q243 -12 199 9T122 70T71 169T52 302Q52 351 67 400T111 493T176 575T257 641T348 684T444 700Q497 700 543 677T622 613T675 517T695 400ZM597 476Q597 565 557 614T440 664Q384 664 341 639T266 574T212 482T176 379T156 277T150 192Q150 145 163 113T197 61T247 33T306 24Q359 24 401 48T475 110T531 197T568 296T590 394T597 476ZM559 853Q571 864 578 871T589 881T598 886T607 888Q622 888 632 879T643 851Q643 839 639 834T625 822L455 716H420L559 853Z"  />
<glyph unicode="&#xD4;" horiz-adv-x="722" d="M695 400Q695 319 661 245T571 113T443 22T296 -12Q243 -12 199 9T122 70T71 169T52 302Q52 351 67 400T111 493T176 575T257 641T348 684T444 700Q497 700 543 677T622 613T675 517T695 400ZM597 476Q597 565 557 614T440 664Q384 664 341 639T266 574T212 482T176 379T156 277T150 192Q150 145 163 113T197 61T247 33T306 24Q359 24 401 48T475 110T531 197T568 296T590 394T597 476ZM531 884L619 716H583L501 820L363 716H325L482 884H531Z"  />
<glyph unicode="&#xD5;" horiz-adv-x="722" d="M695 400Q695 319 661 245T571 113T443 22T296 -12Q243 -12 199 9T122 70T71 169T52 302Q52 351 67 400T111 493T176 575T257 641T348 684T444 700Q497 700 543 677T622 613T675 517T695 400ZM597 476Q597 565 557 614T440 664Q384 664 341 639T266 574T212 482T176 379T156 277T150 192Q150 145 163 113T197 61T247 33T306 24Q359 24 401 48T475 110T531 197T568 296T590 394T597 476ZM340 740Q363 846 438 846Q462 846 483 840T521 825Q538 817 553 810T581 803Q607 803 619 812T639 848H668Q657 796 631 769T569 742Q552 742 534 749T496 765Q477 774 458 781T420 788Q381 788 369 740H340Z"  />
<glyph unicode="&#xD6;" horiz-adv-x="722" d="M695 400Q695 319 661 245T571 113T443 22T296 -12Q243 -12 199 9T122 70T71 169T52 302Q52 351 67 400T111 493T176 575T257 641T348 684T444 700Q497 700 543 677T622 613T675 517T695 400ZM597 476Q597 565 557 614T440 664Q384 664 341 639T266 574T212 482T176 379T156 277T150 192Q150 145 163 113T197 61T247 33T306 24Q359 24 401 48T475 110T531 197T568 296T590 394T597 476ZM347 782Q347 802 362 816T397 830Q416 830 430 816T445 782Q445 762 431 747T397 732Q375 732 361 746T347 782ZM548 782Q548 802 563 816T598 830Q617 830 631 816T646 782Q646 762 632 747T598 732Q576 732 562 746T548 782Z"  />
<glyph unicode="&#xD7;" horiz-adv-x="600" d="M44 432L82 470L279 273L476 470L514 432L317 235L514 38L476 0L279 197L82 0L44 38L241 235L44 432Z"  />
<glyph unicode="&#xD8;" horiz-adv-x="722" d="M198 61Q219 41 247 33T306 24Q359 24 401 48T475 110T531 197T568 296T590 394T597 476Q597 555 565 602L198 61ZM539 632Q501 664 440 664Q384 664 341 639T266 574T212 482T176 379T156 277T150 192Q150 134 172 95L539 632ZM688 782L593 643Q641 601 668 538T695 400Q695 319 661 245T571 113T443 22T296 -12Q261 -12 230 -3T173 24L94 -92H44L141 50Q99 90 76 153T52 302Q52 351 67 400T111 493T176 575T257 641T348 684T444 700Q477 700 506 691T562 666L642 782H688Z"  />
<glyph unicode="&#xD9;" horiz-adv-x="722" d="M419 688L413 658Q381 658 361 655T328 645T308 625T296 593L204 244Q197 219 189 188T181 131Q181 105 192 86T224 52T271 31T328 24Q383 24 420 37T482 73T520 126T543 190L619 482Q628 516 637 547T646 605Q646 638 629 648T563 658L567 688H799L794 658Q773 657 756 654T726 643T703 620T687 581L581 181Q555 82 486 35T313 -12Q258 -12 216 2T144 41T99 96T83 160Q83 178 91 217T112 306T139 408T166 506T187 582T196 621Q196 631 194 638T182 650T156 656T111 658L118 688H419ZM521 716L438 779Q417 795 403 805T379 822T365 836T361 850Q361 868 371 878T396 888Q403 888 408 887T420 880T434 867T453 843L551 716H521Z"  />
<glyph unicode="&#xDA;" horiz-adv-x="722" d="M419 688L413 658Q381 658 361 655T328 645T308 625T296 593L204 244Q197 219 189 188T181 131Q181 105 192 86T224 52T271 31T328 24Q383 24 420 37T482 73T520 126T543 190L619 482Q628 516 637 547T646 605Q646 638 629 648T563 658L567 688H799L794 658Q773 657 756 654T726 643T703 620T687 581L581 181Q555 82 486 35T313 -12Q258 -12 216 2T144 41T99 96T83 160Q83 178 91 217T112 306T139 408T166 506T187 582T196 621Q196 631 194 638T182 650T156 656T111 658L118 688H419ZM559 853Q571 864 578 871T589 881T598 886T607 888Q622 888 632 879T643 851Q643 839 639 834T625 822L455 716H420L559 853Z"  />
<glyph unicode="&#xDB;" horiz-adv-x="722" d="M419 688L413 658Q381 658 361 655T328 645T308 625T296 593L204 244Q197 219 189 188T181 131Q181 105 192 86T224 52T271 31T328 24Q383 24 420 37T482 73T520 126T543 190L619 482Q628 516 637 547T646 605Q646 638 629 648T563 658L567 688H799L794 658Q773 657 756 654T726 643T703 620T687 581L581 181Q555 82 486 35T313 -12Q258 -12 216 2T144 41T99 96T83 160Q83 178 91 217T112 306T139 408T166 506T187 582T196 621Q196 631 194 638T182 650T156 656T111 658L118 688H419ZM531 884L619 716H583L501 820L363 716H325L482 884H531Z"  />
<glyph unicode="&#xDC;" horiz-adv-x="722" d="M419 688L413 658Q381 658 361 655T328 645T308 625T296 593L204 244Q197 219 189 188T181 131Q181 105 192 86T224 52T271 31T328 24Q383 24 420 37T482 73T520 126T543 190L619 482Q628 516 637 547T646 605Q646 638 629 648T563 658L567 688H799L794 658Q773 657 756 654T726 643T703 620T687 581L581 181Q555 82 486 35T313 -12Q258 -12 216 2T144 41T99 96T83 160Q83 178 91 217T112 306T139 408T166 506T187 582T196 621Q196 631 194 638T182 650T156 656T111 658L118 688H419ZM347 782Q347 802 362 816T397 830Q416 830 430 816T445 782Q445 762 431 747T397 732Q375 732 361 746T347 782ZM548 782Q548 802 563 816T598 830Q617 830 631 816T646 782Q646 762 632 747T598 732Q576 732 562 746T548 782Z"  />
<glyph unicode="&#xDD;" horiz-adv-x="611" d="M76 0L82 30Q112 32 131 36T164 48T184 68T196 100L244 290L163 624Q161 633 157 639T146 650T126 656T93 658L97 688H361L355 658Q313 661 289 647T265 612Q265 599 269 587T276 562L333 336L506 543Q510 549 518 557T533 576T546 599T552 622Q552 641 538 649T479 658L484 688H711L705 658Q672 654 647 637T593 585L346 288L307 146Q300 122 297 107T293 78Q293 65 296 56T309 42T336 34T382 30L374 0H76ZM498 853Q510 864 517 871T528 881T537 886T546 888Q561 888 571 879T582 851Q582 839 578 834T564 822L394 716H359L498 853Z"  />
<glyph unicode="&#xDE;" horiz-adv-x="611" d="M170 494Q181 533 189 567T197 618Q197 625 194 632T182 645T158 654T117 658L125 688H414L410 658Q378 658 358 654T326 642T306 620T295 589L287 557Q299 558 321 558T382 559Q497 559 546 518T596 392Q596 297 520 243T278 189Q257 189 235 189T191 191Q181 154 173 122T164 72Q164 49 182 38T254 30L246 0H-52L-42 30Q-16 28 2 31T33 42T54 65T69 105L170 494ZM201 227Q212 227 228 226T262 225Q331 225 374 235T443 270T477 332T486 425Q486 478 459 503T374 529Q339 529 313 522T271 496L201 227Z"  />
<glyph unicode="&#xDF;" horiz-adv-x="611" d="M-198 -111Q-198 -91 -185 -75T-147 -59Q-121 -59 -109 -74T-96 -106Q-96 -117 -100 -124T-108 -137T-117 -145T-121 -151Q-121 -156 -116 -158T-91 -160Q-44 -160 -6 -119T48 16Q59 82 67 141T83 252T98 352T117 440H45L54 470H126Q152 531 184 573T252 640T325 677T400 688Q491 688 539 649T587 546Q587 503 570 478T527 440T472 420T416 409T373 397T356 372Q356 354 370 340T405 312T452 284T498 250T534 206T548 147Q548 120 534 92T495 41T436 3T360 -12Q314 -12 283 -3T232 20T203 51T194 86Q194 119 209 140T252 162Q276 162 290 149T304 113Q304 95 297 85T282 69T266 60T259 53Q259 42 285 30T351 18Q400 18 431 42T462 122Q462 145 448 163T413 196T368 226T323 255T288 287T274 327Q274 363 290 381T331 410T384 428T437 448T478 485T495 553Q495 603 467 630T389 658Q322 658 278 608T208 440Q198 395 192 351T180 260T162 160T132 44Q115 -10 91 -53T35 -126T-31 -173T-106 -190Q-145 -190 -171 -170T-198 -111Z"  />
<glyph unicode="&#xE0;" horiz-adv-x="556" d="M476 470L391 119Q385 93 382 77T378 53Q378 18 409 18Q421 18 434 31T461 66T490 119T519 185L543 179Q529 148 514 114T481 52T441 6T390 -12Q357 -12 332 15T310 103L307 105Q298 89 286 69T256 30T216 0T164 -12Q134 -12 108 2T64 40T34 99T23 174Q23 245 49 302T113 399T195 460T271 482Q316 482 337 453T363 367H365L388 470H476ZM339 322Q339 383 322 417T276 452Q254 452 233 436T194 394T160 333T133 260T116 182T109 108Q109 57 125 38T172 18Q201 18 231 46T285 118T324 216T339 322ZM386 534L303 597Q282 613 268 623T244 640T230 654T226 668Q226 686 236 696T261 706Q268 706 273 705T285 698T299 685T318 661L416 534H386Z"  />
<glyph unicode="&#xE1;" horiz-adv-x="556" d="M476 470L391 119Q385 93 382 77T378 53Q378 18 409 18Q421 18 434 31T461 66T490 119T519 185L543 179Q529 148 514 114T481 52T441 6T390 -12Q357 -12 332 15T310 103L307 105Q298 89 286 69T256 30T216 0T164 -12Q134 -12 108 2T64 40T34 99T23 174Q23 245 49 302T113 399T195 460T271 482Q316 482 337 453T363 367H365L388 470H476ZM339 322Q339 383 322 417T276 452Q254 452 233 436T194 394T160 333T133 260T116 182T109 108Q109 57 125 38T172 18Q201 18 231 46T285 118T324 216T339 322ZM424 671Q436 682 443 689T454 699T463 704T472 706Q487 706 497 697T508 669Q508 657 504 652T490 640L320 534H285L424 671Z"  />
<glyph unicode="&#xE2;" horiz-adv-x="556" d="M476 470L391 119Q385 93 382 77T378 53Q378 18 409 18Q421 18 434 31T461 66T490 119T519 185L543 179Q529 148 514 114T481 52T441 6T390 -12Q357 -12 332 15T310 103L307 105Q298 89 286 69T256 30T216 0T164 -12Q134 -12 108 2T64 40T34 99T23 174Q23 245 49 302T113 399T195 460T271 482Q316 482 337 453T363 367H365L388 470H476ZM339 322Q339 383 322 417T276 452Q254 452 233 436T194 394T160 333T133 260T116 182T109 108Q109 57 125 38T172 18Q201 18 231 46T285 118T324 216T339 322ZM396 702L484 534H448L366 638L228 534H190L347 702H396Z"  />
<glyph unicode="&#xE3;" horiz-adv-x="556" d="M476 470L391 119Q385 93 382 77T378 53Q378 18 409 18Q421 18 434 31T461 66T490 119T519 185L543 179Q529 148 514 114T481 52T441 6T390 -12Q357 -12 332 15T310 103L307 105Q298 89 286 69T256 30T216 0T164 -12Q134 -12 108 2T64 40T34 99T23 174Q23 245 49 302T113 399T195 460T271 482Q316 482 337 453T363 367H365L388 470H476ZM339 322Q339 383 322 417T276 452Q254 452 233 436T194 394T160 333T133 260T116 182T109 108Q109 57 125 38T172 18Q201 18 231 46T285 118T324 216T339 322ZM205 558Q228 664 303 664Q327 664 348 658T386 643Q403 635 418 628T446 621Q472 621 484 630T504 666H533Q522 614 496 587T434 560Q417 560 399 567T361 583Q342 592 323 599T285 606Q246 606 234 558H205Z"  />
<glyph unicode="&#xE4;" horiz-adv-x="556" d="M476 470L391 119Q385 93 382 77T378 53Q378 18 409 18Q421 18 434 31T461 66T490 119T519 185L543 179Q529 148 514 114T481 52T441 6T390 -12Q357 -12 332 15T310 103L307 105Q298 89 286 69T256 30T216 0T164 -12Q134 -12 108 2T64 40T34 99T23 174Q23 245 49 302T113 399T195 460T271 482Q316 482 337 453T363 367H365L388 470H476ZM339 322Q339 383 322 417T276 452Q254 452 233 436T194 394T160 333T133 260T116 182T109 108Q109 57 125 38T172 18Q201 18 231 46T285 118T324 216T339 322ZM212 600Q212 620 227 634T262 648Q281 648 295 634T310 600Q310 580 296 565T262 550Q240 550 226 564T212 600ZM413 600Q413 620 428 634T463 648Q482 648 496 634T511 600Q511 580 497 565T463 550Q441 550 427 564T413 600Z"  />
<glyph unicode="&#xE5;" horiz-adv-x="556" d="M476 470L391 119Q385 93 382 77T378 53Q378 18 409 18Q421 18 434 31T461 66T490 119T519 185L543 179Q529 148 514 114T481 52T441 6T390 -12Q357 -12 332 15T310 103L307 105Q298 89 286 69T256 30T216 0T164 -12Q134 -12 108 2T64 40T34 99T23 174Q23 245 49 302T113 399T195 460T271 482Q316 482 337 453T363 367H365L388 470H476ZM339 322Q339 383 322 417T276 452Q254 452 233 436T194 394T160 333T133 260T116 182T109 108Q109 57 125 38T172 18Q201 18 231 46T285 118T324 216T339 322ZM266 633Q266 654 273 672T294 703T326 725T366 733Q387 733 405 725T436 704T457 672T465 633Q465 612 457 594T436 563T404 542T366 534Q345 534 327 541T296 562T274 594T266 633ZM302 634Q302 607 320 589T365 570Q391 570 410 588T429 634Q429 660 410 678T365 697Q338 697 320 679T302 634Z"  />
<glyph unicode="&#xE6;" horiz-adv-x="722" d="M109 110Q109 62 125 40T172 18Q201 18 230 46T283 118T322 216T337 324Q337 384 320 418T270 452Q250 452 230 436T192 394T159 333T133 260T115 183T109 110ZM439 472L410 369L412 367Q447 418 494 450T596 482Q650 482 677 457T705 388Q705 361 691 332T641 276T544 227T390 190Q386 172 384 154T381 117Q381 69 404 44T469 18Q499 18 526 32T578 69T624 117T663 167L684 146Q658 115 635 87T586 36T530 1T460 -12Q403 -12 369 20T327 108H325Q318 95 303 75T267 36T220 2T164 -12Q131 -12 105 2T61 42T33 101T23 173Q23 247 49 304T112 401T192 461T265 482Q315 482 335 456T361 388H363L378 472H439ZM637 394Q637 418 623 435T580 452Q557 452 530 437T476 391T429 318T396 217Q441 223 484 237T561 272T616 324T637 394Z"  />
<glyph unicode="&#xE7;" horiz-adv-x="444" d="M426 382Q426 346 408 328T366 310Q349 310 333 323T317 360Q317 381 326 391T347 406T368 414T378 426Q378 435 360 443T314 452Q264 452 226 416T162 329T123 223T110 128Q110 71 129 45T202 18Q234 18 261 33T309 73T347 125T375 180L399 169Q384 133 365 101T319 43T260 3T185 -12H173L140 -60L142 -62Q153 -58 168 -58Q181 -58 195 -62T220 -74T239 -96T246 -126Q246 -166 213 -189T128 -212Q101 -212 75 -206T34 -190L51 -160Q68 -168 86 -172T119 -176Q144 -176 159 -164T174 -135Q174 -119 162 -107T127 -94Q111 -94 93 -100L84 -92L139 -6Q114 1 92 16T54 55T28 110T18 179Q18 248 48 304T122 399T215 460T304 482Q426 482 426 382Z"  />
<glyph unicode="&#xE8;" horiz-adv-x="444" d="M24 176Q24 246 53 302T125 399T218 460T310 482Q373 482 401 457T430 388Q430 361 416 332T366 276T269 227T115 190Q111 172 109 154T106 117Q106 69 129 44T194 18Q224 18 251 32T303 69T349 117T388 167L409 146Q383 115 360 87T311 36T255 1T185 -12Q154 -12 125 1T74 38T38 97T24 176ZM362 394Q362 418 348 435T305 452Q282 452 255 437T201 391T154 318T121 217Q166 223 209 237T286 272T341 324T362 394ZM353 534L270 597Q249 613 235 623T211 640T197 654T193 668Q193 686 203 696T228 706Q235 706 240 705T252 698T266 685T285 661L383 534H353Z"  />
<glyph unicode="&#xE9;" horiz-adv-x="444" d="M24 176Q24 246 53 302T125 399T218 460T310 482Q373 482 401 457T430 388Q430 361 416 332T366 276T269 227T115 190Q111 172 109 154T106 117Q106 69 129 44T194 18Q224 18 251 32T303 69T349 117T388 167L409 146Q383 115 360 87T311 36T255 1T185 -12Q154 -12 125 1T74 38T38 97T24 176ZM362 394Q362 418 348 435T305 452Q282 452 255 437T201 391T154 318T121 217Q166 223 209 237T286 272T341 324T362 394ZM391 671Q403 682 410 689T421 699T430 704T439 706Q454 706 464 697T475 669Q475 657 471 652T457 640L287 534H252L391 671Z"  />
<glyph unicode="&#xEA;" horiz-adv-x="444" d="M24 176Q24 246 53 302T125 399T218 460T310 482Q373 482 401 457T430 388Q430 361 416 332T366 276T269 227T115 190Q111 172 109 154T106 117Q106 69 129 44T194 18Q224 18 251 32T303 69T349 117T388 167L409 146Q383 115 360 87T311 36T255 1T185 -12Q154 -12 125 1T74 38T38 97T24 176ZM362 394Q362 418 348 435T305 452Q282 452 255 437T201 391T154 318T121 217Q166 223 209 237T286 272T341 324T362 394ZM363 702L451 534H415L333 638L195 534H157L314 702H363Z"  />
<glyph unicode="&#xEB;" horiz-adv-x="444" d="M24 176Q24 246 53 302T125 399T218 460T310 482Q373 482 401 457T430 388Q430 361 416 332T366 276T269 227T115 190Q111 172 109 154T106 117Q106 69 129 44T194 18Q224 18 251 32T303 69T349 117T388 167L409 146Q383 115 360 87T311 36T255 1T185 -12Q154 -12 125 1T74 38T38 97T24 176ZM362 394Q362 418 348 435T305 452Q282 452 255 437T201 391T154 318T121 217Q166 223 209 237T286 272T341 324T362 394ZM179 600Q179 620 194 634T229 648Q248 648 262 634T277 600Q277 580 263 565T229 550Q207 550 193 564T179 600ZM380 600Q380 620 395 634T430 648Q449 648 463 634T478 600Q478 580 464 565T430 550Q408 550 394 564T380 600Z"  />
<glyph unicode="&#xEC;" horiz-adv-x="389" d="M362 168Q345 131 326 99T284 42T238 3T188 -12Q166 -12 149 -3T119 21T100 55T93 94Q93 142 109 182T145 259Q164 296 179 331T194 404Q194 452 159 452Q142 452 127 441T97 409T68 362T38 301L14 309Q28 343 44 374T80 430T123 468T174 482Q196 482 213 472T242 445T260 408T266 366Q266 327 251 283T219 197T186 118T171 57Q171 39 178 29T206 18Q232 18 264 56T338 178L362 168ZM280 534L197 597Q176 613 162 623T138 640T124 654T120 668Q120 686 130 696T155 706Q162 706 167 705T179 698T193 685T212 661L310 534H280Z"  />
<glyph unicode="&#xED;" horiz-adv-x="389" d="M362 168Q345 131 326 99T284 42T238 3T188 -12Q166 -12 149 -3T119 21T100 55T93 94Q93 142 109 182T145 259Q164 296 179 331T194 404Q194 452 159 452Q142 452 127 441T97 409T68 362T38 301L14 309Q28 343 44 374T80 430T123 468T174 482Q196 482 213 472T242 445T260 408T266 366Q266 327 251 283T219 197T186 118T171 57Q171 39 178 29T206 18Q232 18 264 56T338 178L362 168ZM318 671Q330 682 337 689T348 699T357 704T366 706Q381 706 391 697T402 669Q402 657 398 652T384 640L214 534H179L318 671Z"  />
<glyph unicode="&#xEE;" horiz-adv-x="389" d="M362 168Q345 131 326 99T284 42T238 3T188 -12Q166 -12 149 -3T119 21T100 55T93 94Q93 142 109 182T145 259Q164 296 179 331T194 404Q194 452 159 452Q142 452 127 441T97 409T68 362T38 301L14 309Q28 343 44 374T80 430T123 468T174 482Q196 482 213 472T242 445T260 408T266 366Q266 327 251 283T219 197T186 118T171 57Q171 39 178 29T206 18Q232 18 264 56T338 178L362 168ZM290 702L378 534H342L260 638L122 534H84L241 702H290Z"  />
<glyph unicode="&#xEF;" horiz-adv-x="389" d="M362 168Q345 131 326 99T284 42T238 3T188 -12Q166 -12 149 -3T119 21T100 55T93 94Q93 142 109 182T145 259Q164 296 179 331T194 404Q194 452 159 452Q142 452 127 441T97 409T68 362T38 301L14 309Q28 343 44 374T80 430T123 468T174 482Q196 482 213 472T242 445T260 408T266 366Q266 327 251 283T219 197T186 118T171 57Q171 39 178 29T206 18Q232 18 264 56T338 178L362 168ZM106 600Q106 620 121 634T156 648Q175 648 189 634T204 600Q204 580 190 565T156 550Q134 550 120 564T106 600ZM307 600Q307 620 322 634T357 648Q376 648 390 634T405 600Q405 580 391 565T357 550Q335 550 321 564T307 600Z"  />
<glyph unicode="&#xF0;" horiz-adv-x="500" d="M284 444Q252 444 227 426T181 380T146 316T121 245T107 177T102 124Q102 73 125 46T188 18Q220 18 246 36T293 82T327 147T351 220T365 290T370 346Q370 394 349 419T284 444ZM229 543L202 570L302 631Q262 659 200 674L216 700Q256 695 288 684T345 657L445 718L472 691L377 633Q424 593 443 535T462 404Q462 296 441 218T382 88T294 13T188 -12Q148 -12 118 4T66 49T35 115T24 195Q24 252 46 302T105 391T188 451T284 474Q344 474 385 435Q385 491 373 533T331 605L229 543Z"  />
<glyph unicode="&#xF1;" horiz-adv-x="611" d="M63 0L99 140Q112 189 124 233T145 313T159 373T165 411Q165 452 135 452Q122 452 107 441T77 409T47 362T20 301L-6 310Q5 338 20 368T54 423T96 465T146 482Q185 482 206 454T227 384Q227 353 224 328T217 286L219 284Q237 323 258 359T304 422T354 465T408 482Q437 482 457 472T489 445T506 406T512 360Q512 328 498 285T466 199Q448 156 434 120T419 64Q419 41 428 33T452 24Q462 24 475 31T503 56T536 103T575 177L598 167Q560 86 520 37T432 -12Q393 -12 370 18T347 101Q347 142 362 184T396 268Q414 309 429 344T444 406Q444 452 404 452Q379 452 355 434T309 385T266 318T229 241T200 166T179 104L148 0H63ZM221 558Q244 664 319 664Q343 664 364 658T402 643Q419 635 434 628T462 621Q488 621 500 630T520 666H549Q538 614 512 587T450 560Q433 560 415 567T377 583Q358 592 339 599T301 606Q262 606 250 558H221Z"  />
<glyph unicode="&#xF2;" horiz-adv-x="500" d="M284 482Q324 482 354 465T406 420T437 353T448 272Q448 222 427 171T369 80T286 14T188 -12Q148 -12 118 5T66 50T35 117T24 198Q24 256 46 307T105 398T188 459T284 482ZM284 452Q252 452 227 434T181 387T146 322T121 249T107 180T102 126Q102 75 125 47T188 18Q220 18 246 36T293 83T327 150T351 224T365 294T370 352Q370 400 349 426T284 452ZM346 534L263 597Q242 613 228 623T204 640T190 654T186 668Q186 686 196 696T221 706Q228 706 233 705T245 698T259 685T278 661L376 534H346Z"  />
<glyph unicode="&#xF3;" horiz-adv-x="500" d="M284 482Q324 482 354 465T406 420T437 353T448 272Q448 222 427 171T369 80T286 14T188 -12Q148 -12 118 5T66 50T35 117T24 198Q24 256 46 307T105 398T188 459T284 482ZM284 452Q252 452 227 434T181 387T146 322T121 249T107 180T102 126Q102 75 125 47T188 18Q220 18 246 36T293 83T327 150T351 224T365 294T370 352Q370 400 349 426T284 452ZM384 671Q396 682 403 689T414 699T423 704T432 706Q447 706 457 697T468 669Q468 657 464 652T450 640L280 534H245L384 671Z"  />
<glyph unicode="&#xF4;" horiz-adv-x="500" d="M284 482Q324 482 354 465T406 420T437 353T448 272Q448 222 427 171T369 80T286 14T188 -12Q148 -12 118 5T66 50T35 117T24 198Q24 256 46 307T105 398T188 459T284 482ZM284 452Q252 452 227 434T181 387T146 322T121 249T107 180T102 126Q102 75 125 47T188 18Q220 18 246 36T293 83T327 150T351 224T365 294T370 352Q370 400 349 426T284 452ZM356 702L444 534H408L326 638L188 534H150L307 702H356Z"  />
<glyph unicode="&#xF5;" horiz-adv-x="500" d="M284 482Q324 482 354 465T406 420T437 353T448 272Q448 222 427 171T369 80T286 14T188 -12Q148 -12 118 5T66 50T35 117T24 198Q24 256 46 307T105 398T188 459T284 482ZM284 452Q252 452 227 434T181 387T146 322T121 249T107 180T102 126Q102 75 125 47T188 18Q220 18 246 36T293 83T327 150T351 224T365 294T370 352Q370 400 349 426T284 452ZM165 558Q188 664 263 664Q287 664 308 658T346 643Q363 635 378 628T406 621Q432 621 444 630T464 666H493Q482 614 456 587T394 560Q377 560 359 567T321 583Q302 592 283 599T245 606Q206 606 194 558H165Z"  />
<glyph unicode="&#xF6;" horiz-adv-x="500" d="M284 482Q324 482 354 465T406 420T437 353T448 272Q448 222 427 171T369 80T286 14T188 -12Q148 -12 118 5T66 50T35 117T24 198Q24 256 46 307T105 398T188 459T284 482ZM284 452Q252 452 227 434T181 387T146 322T121 249T107 180T102 126Q102 75 125 47T188 18Q220 18 246 36T293 83T327 150T351 224T365 294T370 352Q370 400 349 426T284 452ZM172 600Q172 620 187 634T222 648Q241 648 255 634T270 600Q270 580 256 565T222 550Q200 550 186 564T172 600ZM373 600Q373 620 388 634T423 648Q442 648 456 634T471 600Q471 580 457 565T423 550Q401 550 387 564T373 600Z"  />
<glyph unicode="&#xF7;" horiz-adv-x="600" d="M44 208V262H514V208H44ZM223 44Q223 67 239 83T279 100Q302 100 318 84T335 44Q335 21 319 5T279 -12Q256 -12 240 4T223 44ZM223 426Q223 449 239 465T279 482Q302 482 318 466T335 426Q335 403 319 387T279 370Q256 370 240 386T223 426Z"  />
<glyph unicode="&#xF8;" horiz-adv-x="500" d="M335 437Q314 452 284 452Q252 452 227 434T181 387T146 322T121 249T107 180T102 126Q102 90 114 65L335 437ZM138 35Q156 18 188 18Q220 18 246 36T293 83T327 150T351 224T365 294T370 352Q370 387 359 409L138 35ZM90 24Q58 53 41 98T24 198Q24 256 46 307T105 398T188 459T284 482Q322 482 352 466L412 566H452L381 447Q414 418 431 372T448 272Q448 222 427 171T369 80T286 14T188 -12Q149 -12 120 5L60 -96H18L90 24Z"  />
<glyph unicode="&#xF9;" horiz-adv-x="611" d="M80 101Q80 135 96 178T131 266Q151 310 166 347T182 406Q182 452 147 452Q115 452 88 416T28 301L3 313Q32 391 66 436T152 482Q178 482 196 473T227 448T244 411T250 368Q251 333 237 290T207 203T176 123T162 66Q162 46 173 35T207 24Q229 24 255 48T306 109T351 189T382 268L440 470H528L448 195Q435 150 425 113T415 58Q415 43 421 34T444 24Q461 24 475 34T503 64T532 113T565 181L588 168Q571 134 555 102T520 45T480 4T428 -12Q395 -12 374 11T353 66Q353 95 356 115T362 151L360 153Q351 134 335 106T298 52T249 7T188 -12Q137 -12 109 18T80 101ZM402 534L319 597Q298 613 284 623T260 640T246 654T242 668Q242 686 252 696T277 706Q284 706 289 705T301 698T315 685T334 661L432 534H402Z"  />
<glyph unicode="&#xFA;" horiz-adv-x="611" d="M80 101Q80 135 96 178T131 266Q151 310 166 347T182 406Q182 452 147 452Q115 452 88 416T28 301L3 313Q32 391 66 436T152 482Q178 482 196 473T227 448T244 411T250 368Q251 333 237 290T207 203T176 123T162 66Q162 46 173 35T207 24Q229 24 255 48T306 109T351 189T382 268L440 470H528L448 195Q435 150 425 113T415 58Q415 43 421 34T444 24Q461 24 475 34T503 64T532 113T565 181L588 168Q571 134 555 102T520 45T480 4T428 -12Q395 -12 374 11T353 66Q353 95 356 115T362 151L360 153Q351 134 335 106T298 52T249 7T188 -12Q137 -12 109 18T80 101ZM440 671Q452 682 459 689T470 699T479 704T488 706Q503 706 513 697T524 669Q524 657 520 652T506 640L336 534H301L440 671Z"  />
<glyph unicode="&#xFB;" horiz-adv-x="611" d="M80 101Q80 135 96 178T131 266Q151 310 166 347T182 406Q182 452 147 452Q115 452 88 416T28 301L3 313Q32 391 66 436T152 482Q178 482 196 473T227 448T244 411T250 368Q251 333 237 290T207 203T176 123T162 66Q162 46 173 35T207 24Q229 24 255 48T306 109T351 189T382 268L440 470H528L448 195Q435 150 425 113T415 58Q415 43 421 34T444 24Q461 24 475 34T503 64T532 113T565 181L588 168Q571 134 555 102T520 45T480 4T428 -12Q395 -12 374 11T353 66Q353 95 356 115T362 151L360 153Q351 134 335 106T298 52T249 7T188 -12Q137 -12 109 18T80 101ZM412 702L500 534H464L382 638L244 534H206L363 702H412Z"  />
<glyph unicode="&#xFC;" horiz-adv-x="611" d="M80 101Q80 135 96 178T131 266Q151 310 166 347T182 406Q182 452 147 452Q115 452 88 416T28 301L3 313Q32 391 66 436T152 482Q178 482 196 473T227 448T244 411T250 368Q251 333 237 290T207 203T176 123T162 66Q162 46 173 35T207 24Q229 24 255 48T306 109T351 189T382 268L440 470H528L448 195Q435 150 425 113T415 58Q415 43 421 34T444 24Q461 24 475 34T503 64T532 113T565 181L588 168Q571 134 555 102T520 45T480 4T428 -12Q395 -12 374 11T353 66Q353 95 356 115T362 151L360 153Q351 134 335 106T298 52T249 7T188 -12Q137 -12 109 18T80 101ZM228 600Q228 620 243 634T278 648Q297 648 311 634T326 600Q326 580 312 565T278 550Q256 550 242 564T228 600ZM429 600Q429 620 444 634T479 648Q498 648 512 634T527 600Q527 580 513 565T479 550Q457 550 443 564T429 600Z"  />
<glyph unicode="&#xFD;" horiz-adv-x="556" d="M544 470L419 23Q406 -22 386 -61T334 -128T257 -173T148 -190Q122 -190 97 -184T52 -166T20 -139T8 -104Q8 -81 22 -66T58 -50Q78 -50 92 -62T106 -94Q106 -116 97 -128T87 -149Q87 -154 97 -157T130 -160Q171 -160 204 -150T264 -112T312 -34T350 95L348 97Q339 80 324 61T287 26T241 -1T189 -12Q146 -12 118 18T90 101Q90 147 107 188T143 267Q163 305 178 342T194 406Q194 452 159 452Q125 452 100 415T38 301L11 310Q27 344 42 375T76 430T117 468T170 482Q193 482 210 472T239 445T256 408T262 366Q262 331 247 287T215 199Q197 155 183 120T168 67Q168 44 182 34T218 24Q241 24 269 47T323 107T372 188T405 275L458 470H544ZM424 671Q436 682 443 689T454 699T463 704T472 706Q487 706 497 697T508 669Q508 657 504 652T490 640L320 534H285L424 671Z"  />
<glyph unicode="&#xFE;" horiz-adv-x="556" d="M-78 -178L-73 -148Q-38 -147 -18 -143T14 -127T35 -89T54 -19L189 535Q197 569 202 585T208 614Q208 632 195 638T136 646L142 672L313 676L222 342L224 340Q233 364 246 389T278 435T320 469T373 482Q402 482 427 468T472 428T503 366T515 284Q515 231 492 178T433 83T351 15T261 -12Q219 -12 195 16T168 88H166Q149 10 136 -40T122 -121Q122 -129 124 -134T135 -142T160 -146T206 -148L200 -178H-78ZM363 452Q334 452 304 419T249 336T208 229T192 124Q192 65 210 42T260 18Q289 18 313 37T356 86T388 153T411 227T424 297T429 351Q429 405 414 428T363 452Z"  />
<glyph unicode="&#xFF;" horiz-adv-x="556" d="M544 470L419 23Q406 -22 386 -61T334 -128T257 -173T148 -190Q122 -190 97 -184T52 -166T20 -139T8 -104Q8 -81 22 -66T58 -50Q78 -50 92 -62T106 -94Q106 -116 97 -128T87 -149Q87 -154 97 -157T130 -160Q171 -160 204 -150T264 -112T312 -34T350 95L348 97Q339 80 324 61T287 26T241 -1T189 -12Q146 -12 118 18T90 101Q90 147 107 188T143 267Q163 305 178 342T194 406Q194 452 159 452Q125 452 100 415T38 301L11 310Q27 344 42 375T76 430T117 468T170 482Q193 482 210 472T239 445T256 408T262 366Q262 331 247 287T215 199Q197 155 183 120T168 67Q168 44 182 34T218 24Q241 24 269 47T323 107T372 188T405 275L458 470H544ZM212 600Q212 620 227 634T262 648Q281 648 295 634T310 600Q310 580 296 565T262 550Q240 550 226 564T212 600ZM413 600Q413 620 428 634T463 648Q482 648 496 634T511 600Q511 580 497 565T463 550Q441 550 427 564T413 600Z"  />
<glyph unicode="&#x131;" horiz-adv-x="389" d="M362 168Q345 131 326 99T284 42T238 3T188 -12Q166 -12 149 -3T119 21T100 55T93 94Q93 142 109 182T145 259Q164 296 179 331T194 404Q194 452 159 452Q142 452 127 441T97 409T68 362T38 301L14 309Q28 343 44 374T80 430T123 468T174 482Q196 482 213 472T242 445T260 408T266 366Q266 327 251 283T219 197T186 118T171 57Q171 39 178 29T206 18Q232 18 264 56T338 178L362 168Z"  />
<glyph unicode="&#x152;" horiz-adv-x="944" d="M309 0Q240 0 189 22T105 85T55 178T38 293Q38 381 72 454T164 579T302 659T474 688H979L920 444H890Q890 456 891 470T892 496Q892 579 859 618T758 658Q669 658 651 589L600 384Q633 384 657 389T699 407T730 444T755 502H788L720 224H692Q692 264 688 288T673 326T642 344T591 348L556 208Q552 192 547 171T536 129T527 91T523 66Q523 46 538 38T592 30Q681 30 744 85T852 256L883 252L811 0H309ZM526 492Q531 513 537 539T543 583Q543 618 515 635T424 652Q370 652 327 629T252 567T196 479T159 379T137 277T130 188Q130 113 174 75T293 36Q360 36 392 62T435 126L526 492Z"  />
<glyph unicode="&#x153;" horiz-adv-x="778" d="M692 394Q692 418 678 435T635 452Q612 452 585 437T531 391T484 318T451 217Q496 223 539 237T616 272T671 324T692 394ZM284 452Q252 452 226 434T179 385T145 319T121 245T107 176T102 122Q102 69 126 44T188 18Q220 18 246 36T293 83T327 150T351 224T365 294T370 352Q370 400 349 426T284 452ZM739 146Q713 115 690 87T641 36T585 1T515 -12Q471 -12 432 13T372 85Q336 42 291 15T184 -12Q149 -12 120 4T70 47T36 109T24 184Q24 250 46 305T105 399T188 460T284 482Q338 482 374 452T428 374Q451 400 478 420T533 454T588 475T640 482Q703 482 731 457T760 388Q760 361 746 332T696 276T599 227T445 190Q441 172 439 154T436 117Q436 69 459 44T524 18Q554 18 581 32T633 69T679 117T718 167L739 146Z"  />
<glyph unicode="&#x160;" horiz-adv-x="556" d="M-25 0L42 251H70V191Q70 140 83 107T118 54T169 26T230 18Q261 18 292 26T348 52T390 98T406 166Q406 205 384 231T328 277T255 315T183 355T127 408T104 483Q104 528 121 568T172 637T251 683T355 700Q397 700 426 690T473 668T501 646T516 636Q522 636 527 643T538 659T548 676T554 688H586L526 438H498V494Q498 579 461 624T343 670Q316 670 291 662T246 637T214 598T202 543Q202 506 224 481T280 436T353 398T425 355T481 297T504 214Q504 166 484 125T427 53T341 6T233 -12Q185 -12 154 -3T102 17T69 38T49 47Q44 47 38 41T26 27T15 11T9 0H-25ZM368 716L272 884H309L399 779L542 884H577L414 716H368Z"  />
<glyph unicode="&#x161;" horiz-adv-x="444" d="M374 150Q374 115 357 85T311 34T243 0T162 -12Q124 -12 94 -2T44 25T12 63T1 106Q1 131 15 148T58 166Q83 166 97 153T111 116Q111 96 104 86T89 71T73 62T66 53Q66 49 73 43T92 32T119 22T151 18Q188 18 215 26T260 47T287 77T296 111Q296 134 280 150T240 181T187 209T135 241T94 283T78 342Q78 376 93 402T134 446T193 473T264 482Q302 482 329 474T375 453T401 424T410 392Q410 367 393 353T356 339Q336 339 322 351T308 384Q308 395 312 402T323 414T333 423T338 433Q338 437 331 440T314 446T291 450T267 452Q221 452 189 430T156 372Q156 348 172 331T212 301T265 275T317 246T358 206T374 150ZM266 534L170 702H207L297 597L440 702H475L312 534H266Z"  />
<glyph unicode="&#x178;" horiz-adv-x="611" d="M76 0L82 30Q112 32 131 36T164 48T184 68T196 100L244 290L163 624Q161 633 157 639T146 650T126 656T93 658L97 688H361L355 658Q313 661 289 647T265 612Q265 599 269 587T276 562L333 336L506 543Q510 549 518 557T533 576T546 599T552 622Q552 641 538 649T479 658L484 688H711L705 658Q672 654 647 637T593 585L346 288L307 146Q300 122 297 107T293 78Q293 65 296 56T309 42T336 34T382 30L374 0H76ZM286 782Q286 802 301 816T336 830Q355 830 369 816T384 782Q384 762 370 747T336 732Q314 732 300 746T286 782ZM487 782Q487 802 502 816T537 830Q556 830 570 816T585 782Q585 762 571 747T537 732Q515 732 501 746T487 782Z"  />
<glyph unicode="&#x17D;" horiz-adv-x="611" d="M-10 0L-5 22L509 652H454Q390 652 346 641T268 605T210 541T158 444H128L196 688H650L645 670L130 36H163Q241 36 297 47T395 84T468 150T526 249H555L482 0H-10ZM396 716L300 884H337L427 779L570 884H605L442 716H396Z"  />
<glyph unicode="&#x17E;" horiz-adv-x="500" d="M50 311Q60 343 77 373T118 428T169 467T227 482Q259 482 281 467T320 432Q337 413 352 398T386 382Q404 382 414 394T424 414Q424 425 419 433T414 455Q414 466 421 474T446 482Q463 482 470 470T478 440Q478 390 425 336T253 221Q209 199 177 182T121 150T78 124T45 101L47 99Q68 110 96 117T146 124Q175 124 198 117T243 99Q264 90 284 82T324 74Q346 74 361 85T387 112T405 148T419 185L448 182Q438 141 420 106T379 44T328 3T269 -12Q231 -12 205 3T159 38Q139 57 122 72T85 88Q50 88 50 69Q50 64 51 61T55 53T58 44T60 30Q60 15 51 6T27 -4Q12 -4 2 7T-8 40Q-8 60 5 80T43 124Q86 166 144 201T258 267T358 322T419 370L417 372Q400 362 381 357T326 352Q296 352 273 360T231 378Q212 388 197 396T166 404Q151 404 138 395T113 372T92 340T75 305L50 311ZM294 534L198 702H235L325 597L468 702H503L340 534H294Z"  />
<glyph unicode="&#x192;" horiz-adv-x="556" d="M439 388H321L238 24Q222 -45 196 -87T141 -152T83 -182T33 -190Q-7 -190 -30 -170T-54 -118Q-54 -106 -50 -95T-37 -74T-17 -58T11 -52Q25 -52 38 -63T52 -93Q52 -107 47 -117T34 -135T22 -146T16 -153Q16 -160 42 -160Q57 -160 72 -152T102 -121T131 -57T160 53L231 388H122L131 418H237Q253 503 277 558T330 644T391 688T456 700Q509 700 531 678T553 630Q553 598 533 580T487 562Q467 562 455 573T443 606Q443 619 449 628T461 644T474 653T480 659Q480 663 473 666T451 670Q432 670 417 659T387 619T358 541T328 418H447L439 388Z"  />
<glyph unicode="&#x2C6;" horiz-adv-x="352" d="M294 702L382 534H346L264 638L126 534H88L245 702H294Z"  />
<glyph unicode="&#x2C7;" horiz-adv-x="352" d="M220 534L124 702H161L251 597L394 702H429L266 534H220Z"  />
<glyph unicode="&#x2DA;" horiz-adv-x="352" d="M164 633Q164 654 171 672T192 703T224 725T264 733Q285 733 303 725T334 704T355 672T363 633Q363 612 355 594T334 563T302 542T264 534Q243 534 225 541T194 562T172 594T164 633ZM200 634Q200 607 218 589T263 570Q289 570 308 588T327 634Q327 660 308 678T263 697Q236 697 218 679T200 634Z"  />
<glyph unicode="&#x2DC;" horiz-adv-x="352" d="M103 558Q126 664 201 664Q225 664 246 658T284 643Q301 635 316 628T344 621Q370 621 382 630T402 666H431Q420 614 394 587T332 560Q315 560 297 567T259 583Q240 592 221 599T183 606Q144 606 132 558H103Z"  />
<glyph unicode="&#x2013;" horiz-adv-x="500" d="M-9 262H503L491 208H-21L-9 262Z"  />
<glyph unicode="&#x2014;" horiz-adv-x="1000" d="M-9 262H1003L991 208H-21L-9 262Z"  />
<glyph unicode="&#x2018;" horiz-adv-x="222" d="M234 688Q221 674 207 658T181 626T162 596T154 571Q154 563 164 559T187 549T209 532T220 500Q220 473 204 455T159 436Q135 436 116 456T96 519Q96 546 106 573T133 625T170 673T210 712L234 688Z"  />
<glyph unicode="&#x2019;" horiz-adv-x="222" d="M104 448Q117 462 131 478T157 510T176 540T184 565Q184 573 174 577T151 587T129 604T118 636Q118 663 133 681T179 700Q203 700 222 680T242 617Q242 590 232 563T205 511T168 463T128 424L104 448Z"  />
<glyph unicode="&#x201A;" horiz-adv-x="222" d="M-17 -140Q-4 -126 10 -110T36 -78T55 -48T63 -23Q63 -15 53 -11T30 -1T8 16T-3 48Q-3 75 12 93T58 112Q82 112 101 92T121 29Q121 2 111 -25T84 -77T47 -125T7 -164L-17 -140Z"  />
<glyph unicode="&#x201C;" horiz-adv-x="389" d="M431 688Q418 674 404 658T378 626T359 596T351 571Q351 563 361 559T384 549T406 532T417 500Q417 473 402 455T356 436Q332 436 313 456T293 519Q293 546 303 573T330 625T367 673T407 712L431 688ZM227 688Q214 674 200 658T174 626T155 596T147 571Q147 563 157 559T180 549T202 532T213 500Q213 473 198 455T152 436Q128 436 109 456T89 519Q89 546 99 573T126 625T163 673T203 712L227 688Z"  />
<glyph unicode="&#x201D;" horiz-adv-x="389" d="M94 448Q107 462 121 478T147 510T166 540T174 565Q174 573 164 577T141 587T119 604T108 636Q108 663 123 681T169 700Q193 700 212 680T232 617Q232 590 222 563T195 511T158 463T118 424L94 448ZM298 448Q311 462 325 478T351 510T370 540T378 565Q378 573 368 577T345 587T323 604T312 636Q312 663 327 681T373 700Q397 700 416 680T436 617Q436 590 426 563T399 511T362 463T322 424L298 448Z"  />
<glyph unicode="&#x201E;" horiz-adv-x="389" d="M-39 -140Q-26 -126 -12 -110T14 -78T33 -48T41 -23Q41 -15 31 -11T8 -1T-14 16T-25 48Q-25 75 -10 93T36 112Q60 112 79 92T99 29Q99 2 89 -25T62 -77T25 -125T-15 -164L-39 -140ZM165 -140Q178 -126 192 -110T218 -78T237 -48T245 -23Q245 -15 235 -11T212 -1T190 16T179 48Q179 75 194 93T240 112Q264 112 283 92T303 29Q303 2 293 -25T266 -77T229 -125T189 -164L165 -140Z"  />
<glyph unicode="&#x2020;" horiz-adv-x="500" d="M150 -124H128L160 -2Q170 37 178 75T191 144T198 200T201 235Q201 254 201 269T200 298Q227 324 249 367T281 460Q248 460 229 455T195 444T170 433T141 428Q124 428 113 439T102 468Q102 488 116 498T148 508Q164 508 175 504T199 493T232 483T286 478Q288 491 290 501T295 520T299 539T301 564Q301 586 298 604T295 643Q295 668 310 684T351 700Q365 700 376 689T387 659Q387 638 377 621T353 583T326 538T307 478Q337 478 357 482T393 493T420 503T446 508Q466 508 478 500T491 473Q491 457 479 443T445 428Q428 428 416 433T390 444T356 455T302 460Q299 450 297 437T292 412T288 388T287 368Q287 353 289 336T300 293Q287 277 273 248T245 185T220 119T203 65L150 -124Z"  />
<glyph unicode="&#x2021;" horiz-adv-x="500" d="M491 473Q491 457 479 443T445 428Q428 428 416 433T390 444T356 455T302 460Q297 437 293 414T288 368Q288 347 291 330T300 293Q273 267 251 224T219 131Q252 131 271 136T305 147T330 158T359 163Q376 163 387 152T398 123Q398 103 384 93T352 83Q336 83 325 87T301 98T268 108T214 113Q212 99 209 90T204 71T201 52T199 27Q199 5 202 -13T205 -52Q205 -77 190 -93T149 -109Q135 -109 124 -98T113 -68Q113 -47 123 -30T146 8T173 53T193 113Q163 113 143 109T107 98T80 88T54 83Q34 83 22 91T9 118Q9 134 21 148T55 163Q72 163 84 158T110 147T144 136T198 131Q203 150 207 176T212 223Q212 244 209 261T200 298Q227 324 249 367T281 460Q248 460 229 455T195 444T170 433T141 428Q124 428 113 439T102 468Q102 488 116 498T148 508Q164 508 175 504T199 493T232 483T286 478Q288 491 290 501T295 520T299 539T301 564Q301 586 298 604T295 643Q295 668 310 684T351 700Q365 700 376 689T387 659Q387 638 377 621T353 583T326 538T307 478Q337 478 357 482T393 493T420 503T446 508Q466 508 478 500T491 473Z"  />
<glyph unicode="&#x2022;" horiz-adv-x="500" d="M418 344Q418 308 405 277T368 223T313 186T246 172Q210 172 179 185T125 222T88 276T74 344Q74 380 87 411T123 465T178 502T246 516Q282 516 313 503T367 466T404 411T418 344Z"  />
<glyph unicode="&#x2026;" horiz-adv-x="1000" d="M52 50Q52 74 69 90T110 106Q133 106 150 90T168 50Q168 26 151 10T110 -6Q85 -6 69 9T52 50ZM385 50Q385 74 402 90T443 106Q466 106 483 90T501 50Q501 26 484 10T443 -6Q418 -6 402 9T385 50ZM718 50Q718 74 735 90T776 106Q799 106 816 90T834 50Q834 26 817 10T776 -6Q751 -6 735 9T718 50Z"  />
<glyph unicode="&#x2030;" horiz-adv-x="944" d="M135 317Q160 317 183 345T224 415T252 505T263 594Q263 627 252 644T220 662Q203 662 187 648T156 612T130 560T110 501T96 443T91 392Q91 350 103 334T135 317ZM134 291Q91 291 64 326T37 427Q37 480 54 527T97 610T156 667T220 688Q262 688 289 652T317 545Q317 503 304 458T266 376T208 315T134 291ZM437 26Q462 26 485 54T526 124T554 214T565 303Q565 336 554 353T522 371Q505 371 489 357T458 321T432 269T412 210T398 152T393 101Q393 59 405 43T437 26ZM436 0Q393 0 366 35T339 136Q339 189 356 236T399 319T458 376T522 397Q564 397 591 361T619 254Q619 212 606 167T568 85T510 24T436 0ZM741 26Q766 26 789 54T830 124T858 214T869 303Q869 336 858 353T826 371Q809 371 793 357T762 321T736 269T716 210T702 152T697 101Q697 59 709 43T741 26ZM740 0Q697 0 670 35T643 136Q643 189 660 236T703 319T762 376T826 397Q868 397 895 361T923 254Q923 212 910 167T872 85T814 24T740 0ZM502 700H543L159 -12H118L502 700Z"  />
<glyph unicode="&#x2039;" horiz-adv-x="333" d="M44 241Q92 275 130 307T196 363T240 401T262 416Q272 416 272 409Q272 405 262 392T237 360T203 322T167 284T135 251T115 230Q128 202 142 174T169 123T188 84T196 64Q196 54 184 54Q180 54 168 71T138 113T95 170T44 229V241Z"  />
<glyph unicode="&#x203A;" horiz-adv-x="333" d="M270 229Q222 194 184 163T118 107T74 69T52 54Q42 54 42 61Q42 65 52 78T77 110T111 148T147 186T179 219T199 240Q186 268 172 296T145 347T126 386T118 406Q118 416 130 416Q134 416 146 399T176 357T219 300T270 241V229Z"  />
<glyph unicode="&#x20AC;" horiz-adv-x="556" d="M400 278H184Q182 258 181 240T180 204Q180 151 191 116T220 60T261 31T308 22Q376 22 422 75T500 216L534 213Q517 162 494 121T441 50T376 4T301 -12Q254 -12 214 9T145 69T98 160T79 278H2L14 308H80Q82 329 85 350T93 392H23L35 422H103Q123 480 157 530T234 618T326 678T425 700Q462 700 487 690T529 666T553 643T566 632Q572 632 580 648T599 684H622L582 482H556Q556 511 551 543T531 603T490 649T421 667Q378 667 344 647T284 592T239 514T208 422H444L432 392H201Q196 371 193 350T187 308H412L400 278Z"  />
<glyph unicode="&#x2122;" horiz-adv-x="990" d="M170 284V304Q203 307 211 314T220 343V668H172Q145 668 129 654T100 598H82V688H421V598H403Q391 640 375 654T331 668H282V343Q282 322 290 315T332 304V284H170ZM562 592H558V368Q558 334 569 321T612 304V284H482V304Q513 307 524 320T536 368V617Q527 640 508 653T466 667V688H581L738 373L902 688H1000V667Q967 665 955 651T942 610V343Q942 322 951 315T993 304V284H830V304Q863 307 871 314T880 343V595H878L723 284H714L562 592Z"  />

</font>
</defs>
</svg>
