<?xml  version="1.0" encoding="UTF-8"?>
<!DOCTYPE svg PUBLIC "-//W3C//DTD SVG 1.0//EN" "http://www.w3.org/TR/2001/REC-SVG-20010904/DTD/svg10.dtd" >
<svg xmlns="http://www.w3.org/2000/svg" >
<metadata>
<version>1.0</version>
<id><![CDATA[ITC Century W01 Light Italic]]></id>
<vendor>Monotype Imaging Inc.</vendor>
<credits>
<name>Fonts.com WebFonts</name>
<URL>http://webfonts.fonts.com</URL>
<role>Home of the Web fonts</role>
</credits>
<license>
<URL>http://webfonts.fonts.com/Legal</URL>
</license>
<copyright><![CDATA[Font software Copyright 1988, 1994, 2001 Adobe Systems Incorporated. Typeface designs Copyright 2008 International Typeface Corporation. All rights reserved.]]></copyright>
<trademark><![CDATA[ITC Century is a trademark of International Typeface Corporation.]]></trademark>
<licensee>
<name></name>
</licensee>
</metadata>
<defs >
<font horiz-adv-x="542" id="7417d887-60a6-46e0-9787-065efa743735">
<font-face font-family="" panose-1="0 0 4 0 0 0 0 0 0 0" ascent="688" descent="-312" units-per-em="1000" alphabetic="0">
</font-face>
<missing-glyph horiz-adv-x="278" />

<glyph unicode="&#xA;" />
<glyph unicode="&#xD;" />
<glyph unicode=" " horiz-adv-x="278" />
<glyph unicode="!" horiz-adv-x="333" d="M110 174Q132 277 153 378T192 593Q196 624 202 643T217 672T235 685T255 688Q275 688 283 677T291 646Q290 630 284 606T267 554T246 496T224 439Q199 373 178 308T134 174H110ZM126 33Q126 15 114 2T82 -12Q63 -12 51 1T38 33Q38 51 50 64T82 78Q101 78 113 65T126 33Z"  />
<glyph unicode="&quot;" horiz-adv-x="333" d="M330 415Q330 412 330 407T328 397T324 388T315 384Q309 384 307 387T303 396T301 407T300 415L284 619Q283 628 283 642T284 669T294 691T315 700Q329 700 336 691T345 669T348 642T346 619L330 415ZM193 415Q193 412 193 407T191 397T187 388T178 384Q172 384 170 387T166 396T164 407T163 415L147 619Q146 628 146 642T147 669T157 691T178 700Q192 700 199 691T208 669T211 642T209 619L193 415Z"  />
<glyph unicode="#" horiz-adv-x="556" d="M261 688L230 466H367L398 688H445L414 466H520V420H407L386 268H494V222H380L349 0H302L333 222H195L164 0H117L148 222H36V268H155L176 420H62V466H182L213 688H261ZM223 420L202 268H339L360 420H223Z"  />
<glyph unicode="$" horiz-adv-x="556" d="M147 -64L171 15Q145 15 117 24T66 51T28 92T13 145Q13 171 26 193T66 216Q85 216 98 207T112 177Q112 159 99 150T72 140Q65 140 61 140T52 141Q43 141 43 133Q43 109 56 92T90 62T133 44T177 38L257 337Q203 377 179 414T154 503Q154 542 170 574T214 630T277 665T351 678L368 735H395L378 676Q436 662 469 635T502 573Q502 554 492 540T461 526Q442 526 431 536T420 561Q420 572 425 579T437 591T448 598T454 604Q454 619 430 633T373 652L304 399Q330 377 354 360T398 324T428 281T440 220Q440 172 419 134T364 70T287 29T201 14L177 -64H147ZM207 38Q240 38 272 48T330 79T370 127T386 192Q386 216 376 234T351 268T317 297T283 323L207 38ZM344 652Q317 652 293 642T249 615T219 575T208 523Q208 488 229 462T277 416L344 652Z"  />
<glyph unicode="%" horiz-adv-x="833" d="M380 535Q380 492 364 448T318 367T250 307T164 283Q135 283 115 295T83 326T65 369T59 419Q59 459 75 504T119 588T186 651T270 676Q299 676 320 664T354 631T374 586T380 535ZM109 378Q109 349 122 326T168 303Q206 303 236 334T287 410T319 500T330 577Q330 610 317 633T265 656Q229 656 200 624T151 546T120 454T109 378ZM414 134Q414 175 430 220T474 303T541 365T625 390Q655 390 675 378T709 346T729 301T735 250Q735 206 719 162T674 81T605 23T519 0Q490 0 470 11T438 41T420 84T414 134ZM523 20Q562 20 592 51T643 127T674 217T685 293Q685 328 672 349T620 370Q596 370 575 355T537 316T506 261T483 200T469 141T464 94Q464 65 477 43T523 20ZM600 688H640L194 -12H155L600 688Z"  />
<glyph unicode="&amp;" horiz-adv-x="722" d="M685 124Q677 96 664 71T631 28T587 -1T531 -12Q486 -12 460 6T411 47Q368 16 327 2T238 -12Q194 -12 155 -1T87 34T40 93T22 176Q22 224 44 257T99 313T173 350T248 375Q237 404 233 434T228 506Q228 551 244 587T288 648T349 686T420 700Q459 700 487 689T534 661T561 621T570 576Q570 526 546 494T484 440T403 403T321 370Q326 348 340 314T371 243T405 173T436 119Q457 147 486 200T554 328Q569 357 586 369T623 382Q640 382 651 373T663 347Q663 329 654 321T627 312Q612 312 605 318T592 325Q583 325 572 304Q543 251 515 199T455 95Q472 69 497 50T554 30Q576 30 593 39T623 62T645 95T662 132L685 124ZM88 172Q88 141 99 114T132 65T183 32T253 20Q295 20 330 34T392 71Q346 136 312 205T253 349Q230 340 202 330T148 300T105 251T88 172ZM290 510Q290 480 295 450T310 396Q341 408 376 422T440 457T489 506T508 576Q508 674 410 674Q378 674 355 659T318 621T297 568T290 510Z"  />
<glyph unicode="&apos;" horiz-adv-x="222" d="M211 415Q211 412 211 407T209 397T205 388T196 384Q190 384 188 387T184 396T182 407T181 415L165 619Q164 628 164 642T165 669T175 691T196 700Q210 700 217 691T226 669T229 642T227 619L211 415Z"  />
<glyph unicode="(" horiz-adv-x="444" d="M465 670Q407 669 357 644T264 576T188 478T132 360T96 234T84 109Q84 69 89 22T110 -65T154 -131T227 -158L223 -184Q168 -184 131 -156T71 -84T38 10T28 108Q28 175 40 244T76 379T136 502T221 603T331 671T466 696L465 670Z"  />
<glyph unicode=")" horiz-adv-x="444" d="M-72 -158Q-14 -157 36 -132T129 -64T205 34T261 152T297 278T309 403Q309 443 304 490T283 577T239 643T166 670L170 696Q225 696 262 668T322 596T355 502T365 404Q365 337 353 268T317 133T257 10T172 -91T62 -159T-73 -184L-72 -158Z"  />
<glyph unicode="*" horiz-adv-x="463" d="M309 700Q326 700 334 690T342 666Q342 647 335 635T318 608T296 571T275 511Q308 522 331 534T370 558T399 576T422 583Q437 583 449 574T462 545Q462 526 448 516T417 505Q404 505 389 506T351 508Q331 508 313 506T276 498Q301 472 326 457T372 431T405 409T418 380Q418 367 408 356T384 345Q366 345 356 357T336 390T311 435T267 485Q262 466 258 442T254 398Q254 387 256 376T258 352Q258 334 248 318T217 302Q200 302 192 313T184 337Q184 356 191 368T208 395T229 432T250 492Q217 481 195 469T156 445T127 427T104 420Q90 420 77 429T64 458Q64 477 79 487T110 498Q121 498 136 496T175 494Q194 494 212 497T249 505Q224 531 199 546T153 572T120 594T107 622Q107 636 117 646T142 657Q160 657 170 645T190 613T214 568T258 518Q264 537 267 561T271 605Q271 616 270 627T268 651Q268 669 278 684T309 700Z"  />
<glyph unicode="+" horiz-adv-x="600" d="M277 470H323V258H535V212H323V0H277V212H65V258H277V470Z"  />
<glyph unicode="&#x2c;" horiz-adv-x="278" d="M-52 -166Q-39 -155 -22 -140T10 -105T36 -65T47 -21Q47 -15 46 -10T40 -4Q15 -4 2 11T-12 49Q-12 64 1 77T35 90Q51 90 62 84T80 68T90 46T93 20Q93 -16 82 -45T54 -99T14 -144T-30 -184L-52 -166Z"  />
<glyph unicode="-" horiz-adv-x="333" d="M282 257L269 211H2L16 257H282Z"  />
<glyph unicode="." horiz-adv-x="278" d="M96 33Q96 15 84 2T52 -12Q33 -12 21 1T8 33Q8 51 20 64T52 78Q71 78 83 65T96 33Z"  />
<glyph unicode="/" horiz-adv-x="278" d="M315 700H368L-36 -12H-89L315 700Z"  />
<glyph unicode="0" horiz-adv-x="556" d="M359 700Q434 700 478 640T523 450Q523 364 497 282T425 134T321 28T198 -12Q123 -12 79 48T34 238Q34 295 46 351T80 459T132 554T199 631T275 681T359 700ZM358 674Q320 674 286 649T222 581T170 485T130 375T105 264T96 166Q96 85 122 50T199 14Q237 14 271 39T335 107T387 203T427 313T452 424T461 522Q461 603 435 638T358 674Z"  />
<glyph unicode="1" horiz-adv-x="556" d="M52 0L59 26Q92 29 114 32T150 42T172 60T186 92L329 596H212L219 622Q240 622 264 627T311 641T356 662T395 688H420L295 229Q283 185 275 156T262 109T254 79T252 58Q252 26 362 26L355 0H52Z"  />
<glyph unicode="2" horiz-adv-x="556" d="M465 207Q455 174 438 136T396 64T338 10T262 -12Q226 -12 198 6T147 45T103 84T60 102Q48 102 40 94T32 70Q32 32 26 16T2 0Q-13 0 -17 14T-22 40Q-22 74 0 105T60 166T150 229T264 299Q315 331 350 362T408 423T439 485T449 550Q449 618 418 646T331 674Q297 674 262 658T198 614T151 552T132 479Q132 453 144 437T185 420Q211 420 232 433T270 466T297 510T312 558L336 552Q332 521 320 493T287 442T239 407T179 394Q137 394 119 420T100 486Q100 517 117 554T167 624T245 678T348 700Q386 700 418 689T473 656T510 603T523 532Q523 481 506 445T459 382T391 333T309 289Q266 267 225 243T150 196T91 155T53 128L55 126Q66 128 80 131T116 134Q148 134 170 121T211 92T248 63T290 50Q321 50 345 66T387 107T418 161T440 216L465 207Z"  />
<glyph unicode="3" horiz-adv-x="556" d="M341 551Q332 511 315 485T279 444T239 422T202 416Q167 416 142 439T116 504Q116 543 134 578T182 641T253 684T336 700Q383 700 416 687T471 651T502 600T512 544Q512 494 491 458T442 398T383 362T333 346V344Q384 319 412 289T441 207Q441 154 417 113T354 44T266 2T168 -12Q137 -12 105 -5T48 18T6 60T-11 123Q-11 140 -6 156T8 186T32 208T65 217Q84 217 97 206T110 173Q110 154 97 144T70 133Q55 133 46 138T31 143Q25 142 23 134T21 117Q21 89 34 70T67 38T112 20T158 14Q202 14 239 31T304 77T347 144T363 226Q363 246 357 265T340 298T314 321T281 330Q267 330 254 325T227 319Q197 319 197 340Q197 356 209 358T233 361Q247 361 262 359T304 356Q329 356 353 375T396 425T426 490T438 558Q438 581 433 602T415 639T384 664T336 674Q292 674 258 658T199 617T161 562T148 504Q148 475 162 459T203 442Q231 442 263 468T315 557L341 551Z"  />
<glyph unicode="4" horiz-adv-x="556" d="M350 688Q348 647 330 593T283 478T214 357T131 240Q154 238 172 231T208 214T244 195T288 178L382 520H437L348 178Q368 179 385 186T417 205T445 230T470 258L484 245Q476 226 460 206T424 169T379 139T330 122L281 -40H227L270 122Q245 123 221 139T177 173T139 207T112 222Q106 222 91 217T59 204T27 192T5 186Q-8 186 -8 205Q-8 212 -4 217T13 227T47 237T104 249Q178 357 221 463T284 688H350Z"  />
<glyph unicode="5" horiz-adv-x="556" d="M89 340L221 688Q241 683 260 679T300 671Q320 668 340 666T381 664Q419 664 462 670T540 694L550 670Q504 632 451 614T338 596Q303 596 277 600T226 609L152 415L154 413Q176 430 204 442T270 454Q310 454 344 440T404 401T443 340T457 264Q457 202 435 152T375 65T285 8T176 -12Q140 -12 109 -2T56 26T22 68T9 122Q9 164 30 189T77 214Q100 214 112 205T125 175Q125 156 114 147T89 138Q76 138 69 140T55 142Q39 142 39 122Q39 67 78 41T176 14Q225 14 263 39T326 101T365 182T379 262Q379 334 350 378T252 422Q227 422 208 415T174 396T145 367T117 333L89 340Z"  />
<glyph unicode="6" horiz-adv-x="556" d="M230 -12Q184 -12 151 6T97 57T66 132T56 224Q56 320 84 406T160 558T266 661T387 700Q412 700 435 695T477 679T506 649T517 603Q517 583 505 567T469 551Q454 551 442 559T429 591Q429 611 439 619T465 627Q479 627 479 637Q479 648 458 661T398 674Q353 674 316 654T250 597T198 510T162 402L164 400Q175 410 188 422T218 443T256 459T306 466Q339 466 369 452T423 413T460 351T474 270Q474 225 456 175T404 84T327 15T230 -12ZM217 14Q266 14 301 41T360 112T393 206T404 305Q404 365 378 402T294 440Q256 440 224 418T169 358T132 269T118 159Q118 130 123 104T141 58T172 26T217 14Z"  />
<glyph unicode="7" horiz-adv-x="556" d="M153 674H181L153 589L155 587Q169 605 184 623T218 655T257 679T304 688Q337 688 362 675T410 645Q433 628 455 615T505 602Q522 602 527 606T533 617Q533 628 531 634T529 649Q529 664 535 670T550 676Q562 676 571 670T580 646Q580 628 570 612T535 570T469 500T364 384Q292 301 260 213T217 37Q214 10 207 -1T178 -12Q163 -12 153 1T143 49Q143 101 160 151T206 248T272 339T349 424T428 502T500 574L498 576Q490 571 480 571T458 570Q429 570 406 579T359 600Q336 611 314 620T266 630Q219 630 181 581T104 447H79L153 674Z"  />
<glyph unicode="8" horiz-adv-x="556" d="M184 537Q184 513 197 491T229 451T270 418T312 395Q335 405 360 419T407 453T442 502T456 569Q456 595 446 614T420 647T381 667T334 674Q304 674 277 665T229 637T196 594T184 537ZM454 194Q454 147 431 109T372 44T293 3T207 -12Q166 -12 129 -1T63 32T17 85T0 155Q0 208 18 242T67 299T138 336T223 364Q205 379 188 395T157 429T135 468T126 514Q126 556 144 590T191 649T256 687T330 700Q369 700 403 689T461 659T500 613T514 556Q514 520 498 491T455 440T398 403T338 378Q392 349 423 303T454 194ZM384 186Q384 216 373 239T344 280T304 314T259 343Q220 335 183 322T118 286T72 231T54 152Q54 118 65 92T97 49T143 23T198 14Q286 14 335 60T384 186Z"  />
<glyph unicode="9" horiz-adv-x="556" d="M132 -12Q109 -12 86 -6T44 13T14 45T2 90Q2 102 5 114T16 137T33 153T58 160Q76 160 89 150T102 122Q102 99 87 91T56 82Q51 82 47 81T40 74Q40 61 48 50T69 31T99 19T135 14Q194 14 236 41T309 111T358 204T390 302L388 304Q329 230 244 230Q203 230 172 246T120 288T89 349T78 422Q78 475 97 525T150 614T229 676T324 700Q372 700 405 681T459 630T489 558T498 476Q498 422 487 365T455 253T402 150T329 66T239 9T132 -12ZM244 256Q288 256 323 281T384 346T422 431T436 518Q436 549 429 577T409 626T374 661T324 674Q281 674 249 647T194 578T160 486T148 390Q148 327 171 292T244 256Z"  />
<glyph unicode=":" horiz-adv-x="278" d="M112 33Q112 15 100 2T68 -12Q49 -12 37 1T24 33Q24 51 36 64T68 78Q87 78 99 65T112 33ZM194 397Q194 379 182 366T150 352Q131 352 119 365T106 397Q106 415 118 428T150 442Q169 442 181 429T194 397Z"  />
<glyph unicode=";" horiz-adv-x="278" d="M-20 -166Q-7 -155 10 -140T42 -105T68 -65T79 -21Q79 -15 78 -10T72 -4Q47 -4 34 11T20 49Q20 64 33 77T67 90Q83 90 94 84T112 68T122 46T125 20Q125 -16 114 -45T86 -99T46 -144T2 -184L-20 -166ZM194 397Q194 379 182 366T150 352Q131 352 119 365T106 397Q106 415 118 428T150 442Q169 442 181 429T194 397Z"  />
<glyph unicode="&lt;" horiz-adv-x="600" d="M121 235L535 44V-7L65 210V260L535 477V426L121 235Z"  />
<glyph unicode="=" horiz-adv-x="600" d="M535 302H65V348H535V302ZM535 122H65V168H535V122Z"  />
<glyph unicode="&gt;" horiz-adv-x="600" d="M479 235L65 426V477L535 260V210L65 -7V44L479 235Z"  />
<glyph unicode="?" horiz-adv-x="463" d="M272 262Q260 226 235 202T178 178Q149 178 132 198T114 247Q114 280 131 304T172 347T225 380T275 407Q331 440 353 478T376 562Q376 609 344 635T267 662Q240 662 216 654T172 630T142 590T131 532Q131 521 136 507T148 482L128 471Q119 485 112 502T105 537Q105 573 119 601T156 648T207 678T266 688Q300 688 331 679T386 652T424 606T438 540Q438 505 427 481T396 438T351 406T297 382Q272 372 245 359T195 329T157 293T142 252Q142 227 152 216T178 204Q191 204 202 211T223 228T239 249T250 270L272 262ZM144 33Q144 15 132 2T100 -12Q81 -12 69 1T56 33Q56 51 68 64T100 78Q119 78 131 65T144 33Z"  />
<glyph unicode="@" horiz-adv-x="800" d="M317 271Q317 235 331 215T371 194Q401 194 427 218T474 276T507 350T519 420Q519 450 506 467T460 485Q443 485 419 471T372 430T333 363T317 271ZM545 513H612L552 284Q548 270 545 256T541 227Q541 208 551 196T584 184Q621 184 648 204T695 255T723 323T733 395Q733 440 712 489T651 579T553 647T418 674Q352 674 296 651T199 582T134 471T111 318Q111 262 132 209T195 113T294 46T428 20Q463 20 491 24T544 34T591 50T635 69L649 45Q598 24 545 6T429 -12Q326 -12 252 21T130 106T60 216T37 328Q37 412 67 480T150 597T271 673T418 700Q491 700 554 677T663 614T736 517T763 396Q763 357 750 314T713 235T652 176T568 152Q547 152 531 159T502 176T483 199T475 223H472Q467 216 456 204T429 181T393 161T349 152Q329 152 312 158T281 180T259 219T251 278Q251 324 268 368T314 448T378 505T449 527Q476 527 496 516T533 471L545 513Z"  />
<glyph unicode="A" horiz-adv-x="648" d="M-102 0L-94 26Q-55 26 -28 36T20 78L410 700H434L506 82Q510 47 528 37T588 26L581 0H326L333 26Q358 27 377 28T408 34T426 47T432 69Q432 83 431 96T428 123L416 240H160L79 106Q74 98 66 82T57 56Q57 46 61 40T76 31T108 27T160 26L154 0H-102ZM412 270L377 589H375L176 270H412Z"  />
<glyph unicode="B" horiz-adv-x="648" d="M178 531Q186 560 193 583T200 624Q200 644 181 651T119 662L126 688H398Q505 688 558 651T612 544Q612 500 596 469T552 416T490 384T418 366V364Q450 356 476 344T522 313T551 268T562 206Q562 150 540 111T475 47T373 11T238 0H-58L-51 26Q-35 26 -20 26T9 30T33 42T48 67L178 531ZM162 217Q153 184 147 161T136 122T130 93T128 70Q128 49 147 38T218 26Q261 26 303 29T379 46Q438 71 463 120T488 229Q488 294 447 322T329 350H199L162 217ZM204 376H336Q373 376 409 385T474 415T520 469T538 549Q538 583 527 605T496 639T450 657T394 662Q373 662 353 661T315 654T284 634T264 596L204 376Z"  />
<glyph unicode="C" horiz-adv-x="667" d="M578 445Q580 465 580 485T580 525Q580 549 573 574T547 620T500 654T428 668Q355 668 298 629T200 527T138 386T116 230Q116 116 161 68T289 20Q384 20 445 81T543 252L574 242Q556 183 530 136T469 56T387 6T282 -12Q226 -12 181 9T103 70T54 163T36 281Q36 361 71 436T163 570T290 664T431 700Q485 700 528 678T596 626L633 680H665L608 445H578Z"  />
<glyph unicode="D" horiz-adv-x="704" d="M170 512Q178 544 187 572T197 624Q197 639 180 649T120 662L127 688H384Q468 688 523 663T611 596T657 503T670 398Q670 330 644 260T568 132T445 37T276 0H-59L-52 26Q-33 26 -16 27T14 34T37 50T52 78L170 512ZM138 122Q135 110 131 92T126 62Q126 42 142 34T187 26H245Q268 26 292 28T337 35T376 44T406 57Q460 88 496 137T555 241T586 350T596 445Q596 557 542 609T378 662Q350 662 331 659T299 647T278 625T265 593L138 122Z"  />
<glyph unicode="E" horiz-adv-x="667" d="M509 0H-59L-52 26Q-7 27 17 35T49 71L189 598Q194 616 194 630Q194 644 179 651T116 662L123 688H665L614 450H587Q591 472 592 494T594 539Q594 575 584 598T553 636T499 656T419 662Q372 662 344 659T300 648T275 625T260 585L206 380H295Q317 380 336 390T371 417T397 455T414 500H440L367 222H347Q347 263 344 288T331 326T303 344T257 348H196L154 189Q145 155 135 121T124 70Q124 52 148 39T221 26Q290 26 341 34T431 66T497 136T547 254L575 248L509 0Z"  />
<glyph unicode="F" horiz-adv-x="630" d="M659 688L602 450H578Q580 467 581 482T582 512Q582 555 573 584T545 630T496 655T423 662Q395 662 369 661T323 654T288 638T269 610L205 374H294Q316 374 335 384T370 411T396 449T413 494H439L366 216H346Q346 257 343 282T330 320T302 338T256 342H195L129 90Q124 72 124 58Q124 51 127 46T141 37T171 31T221 26L215 0H-55L-48 26Q-3 27 21 35T53 71L193 598Q198 616 198 630Q198 644 183 651T120 662L127 688H659Z"  />
<glyph unicode="G" horiz-adv-x="704" d="M577 445Q580 475 580 505Q580 583 540 625T438 668Q371 668 313 632T212 535T145 396T120 234Q120 175 132 135T166 69T220 32T290 20Q327 20 362 36T423 81T465 153T481 248Q481 264 477 273T462 287T430 294T378 298L385 330H676L669 298Q628 299 599 289T559 238L495 10H473L454 56Q438 45 421 33T384 11T340 -5T288 -12Q232 -12 187 7T109 64T58 156T40 280Q40 334 55 386T99 485T164 571T246 639T338 684T436 700Q470 700 495 693T539 674T572 651T597 629L633 680H665L610 445H577Z"  />
<glyph unicode="H" horiz-adv-x="722" d="M200 345L132 90Q127 72 127 58Q127 51 130 46T143 37T168 31T210 26L204 0H-52L-45 26Q0 27 24 35T56 71L196 598Q201 616 201 630Q201 644 186 651T123 662L130 688H380L373 662Q328 661 304 653T272 617L208 375H523L582 598Q587 616 587 630Q587 644 572 651T509 662L516 688H766L759 662Q714 661 690 653T658 617L518 90Q513 72 513 58Q513 51 516 46T529 37T554 31T596 26L590 0H334L341 26Q386 27 410 35T442 71L515 345H200Z"  />
<glyph unicode="I" horiz-adv-x="333" d="M-45 26Q0 27 24 35T56 71L196 598Q201 616 201 630Q201 644 186 651T123 662L130 688H380L373 662Q328 661 304 653T272 617L132 90Q127 72 127 58Q127 51 130 46T143 37T168 31T210 26L204 0H-52L-45 26Z"  />
<glyph unicode="J" horiz-adv-x="519" d="M580 688L573 662Q528 661 504 653T472 617L342 135Q330 90 307 62T256 17T196 -6T134 -12Q93 -12 63 -1T14 29T-15 74T-24 130Q-24 173 -1 198T52 224Q73 224 86 213T100 179Q100 159 87 148T53 136Q42 136 35 141T19 146Q6 146 6 123Q6 72 36 46T121 20Q183 20 219 54T272 147L396 598Q401 616 401 630Q401 644 386 651T323 662L330 688H580Z"  />
<glyph unicode="K" horiz-adv-x="667" d="M498 76Q509 48 533 37T602 26L595 0H308L315 26Q347 27 367 29T400 36T417 48T422 66Q422 79 419 89T410 111L304 364L183 261L137 90Q132 72 132 58Q132 51 135 46T148 37T173 31T215 26L209 0H-47L-40 26Q5 27 29 35T61 71L201 598Q206 616 206 630Q206 644 191 651T128 662L135 688H385L378 662Q333 661 309 653T277 617L197 316L199 314L554 605Q561 610 568 619T576 637Q576 652 552 656T486 662L493 688H756L748 662Q709 660 677 651T613 616L363 409L498 76Z"  />
<glyph unicode="L" horiz-adv-x="611" d="M490 0H-46L-39 26Q6 27 30 35T62 71L202 598Q207 616 207 630Q207 644 192 651T129 662L136 688H386L379 662Q334 661 310 653T278 617L138 90Q133 72 133 58Q133 51 136 45T149 35T174 29T216 26Q288 24 338 34T426 71T490 141T542 252L566 248L490 0Z"  />
<glyph unicode="M" horiz-adv-x="815" d="M-58 0L-51 26Q-36 26 -21 28T6 35T27 49T40 73L169 530Q180 566 187 591T194 633Q194 642 188 648T171 657T147 661T120 662L127 688H296L338 116H340L685 688H859L852 662Q832 662 817 661T789 655T767 638T753 608L655 232Q638 166 625 121T612 60Q612 42 633 34T684 26L677 0H433L440 26Q456 26 472 27T502 34T526 49T542 76L684 628H682L307 0H279L233 642H230L150 341Q139 302 127 257T104 171T86 100T78 60Q78 45 96 37T167 26L160 0H-58Z"  />
<glyph unicode="N" horiz-adv-x="722" d="M-66 0L-59 26Q-23 26 3 32T38 66L163 506Q176 551 185 582T194 627Q194 643 174 648T112 662L119 688H251L503 122H505L626 574Q629 585 630 594T632 620Q632 631 625 638T606 649T580 656T550 662L555 688H780L773 662Q724 654 699 639T664 587L509 0H479L221 580H219L145 305Q119 210 100 145T81 61Q81 41 109 34T180 26L173 0H-66Z"  />
<glyph unicode="O" horiz-adv-x="722" d="M677 398Q677 318 646 244T562 113T443 22T304 -12Q233 -12 184 13T103 82T58 183T44 304Q44 377 76 448T163 575T287 665T433 700Q493 700 539 673T615 602T661 504T677 398ZM603 450Q603 515 587 557T545 624T485 658T419 668Q372 668 332 649T258 597T198 519T154 423T127 318T118 210Q118 124 164 72T294 20Q354 20 400 43T481 104T539 189T576 284T597 375T603 450Z"  />
<glyph unicode="P" horiz-adv-x="630" d="M197 598Q202 616 202 630Q202 644 187 651T124 662L131 688H416Q527 688 577 644T628 525Q628 477 606 437T544 369T447 324T322 308H197L139 90Q134 72 134 58Q134 51 137 46T150 37T178 31T225 26L219 0H-51L-44 26Q1 27 25 35T57 71L197 598ZM205 340H342Q387 340 425 354T492 394T537 458T554 541Q554 560 549 579T531 614T499 642T449 659Q434 661 420 661T388 662Q357 662 337 660T305 651T285 633T274 605L205 340Z"  />
<glyph unicode="Q" horiz-adv-x="722" d="M585 19Q577 -10 563 -40T529 -94T481 -134T418 -150Q388 -150 371 -137T344 -104T331 -58T328 -10Q323 -12 317 -12T305 -12Q248 -12 201 6T119 61T65 153T45 284Q45 351 62 408T110 511T179 592T262 652T349 688T434 700Q494 700 539 673T615 603T661 506T677 398Q677 324 651 258T584 140T493 52T396 4Q398 -11 401 -27T410 -57T428 -79T459 -88Q479 -88 494 -76T522 -47T543 -10T558 25L585 19ZM166 121Q166 163 193 187T261 212Q297 212 320 197T358 156T381 101T394 42Q448 63 487 111T552 221T590 348T603 472Q603 517 590 553T553 614T495 654T420 668Q358 668 311 642T231 573T176 480T142 380T124 290T119 228Q119 182 125 153T140 104T159 75T177 56L179 58Q170 73 168 88T166 121ZM257 180Q228 180 214 161T200 113Q200 92 208 75T229 45T260 25T296 18Q304 18 312 18T328 20Q330 31 330 46T330 73Q330 132 311 156T257 180Z"  />
<glyph unicode="R" horiz-adv-x="648" d="M191 598Q196 616 196 630Q196 644 181 651T118 662L125 688H376Q486 688 547 649T608 520Q608 470 584 436T521 381T436 349T345 338V336Q378 318 397 300T427 259T440 208T443 142Q443 84 448 60T473 36Q491 36 505 49T529 80T547 117T560 149L587 142Q580 119 568 93T539 43T500 4T449 -12Q433 -12 419 -8T393 9T376 42T369 96V211Q369 246 363 269T341 307T302 328T243 334H194L133 90Q128 72 128 58Q128 51 131 46T144 37T169 31T211 26L205 0H-57L-50 26Q-5 27 19 35T51 71L191 598ZM334 364Q373 364 409 373T473 404T517 459T534 544Q534 578 522 601T488 637T440 656T385 662Q334 662 305 649T266 601L203 364H334Z"  />
<glyph unicode="S" horiz-adv-x="574" d="M486 510Q486 534 480 562T458 616T414 657T341 674Q311 674 284 664T235 636T202 592T190 534Q190 494 210 469T262 423T329 385T397 342T448 284T469 197Q469 151 449 113T394 47T314 4T219 -12Q189 -12 165 -8T121 5T81 27T43 61L2 4H-21L39 247H63Q61 226 60 205T59 163Q59 92 98 53T209 14Q293 14 344 56T395 182Q395 224 375 252T323 301T256 340T188 380T137 431T116 504Q116 556 139 593T196 654T270 689T343 700Q389 700 427 679T494 623L528 680H553L506 444H486V510Z"  />
<glyph unicode="T" horiz-adv-x="630" d="M589 441Q592 468 596 495T600 550Q600 609 574 632T485 656H428L281 90Q276 72 276 58Q276 51 279 46T292 37T317 31T359 26L353 0H72L79 26Q99 26 118 27T153 35T183 54T202 91L356 656H292Q254 656 225 643T172 603T127 537T82 445H56L127 688H676L618 441H589Z"  />
<glyph unicode="U" horiz-adv-x="704" d="M753 688L747 662Q729 662 713 659T684 648T660 625T644 585L540 192Q511 85 445 37T284 -12Q183 -12 126 29T68 154Q68 192 81 235T107 319L152 475Q167 526 177 565T188 622Q188 631 186 638T176 650T153 659T113 662L120 688H365L358 662Q338 662 322 661T293 654T271 637T257 606L183 335Q163 261 151 214T138 134Q138 108 150 86T183 48T232 23T292 14Q377 14 430 58T512 205L593 497Q602 530 611 565T620 621Q620 630 614 638T596 651T571 659T542 662L549 688H753Z"  />
<glyph unicode="V" horiz-adv-x="630" d="M144 612Q143 629 137 639T120 654T97 660T68 662L75 688H325L318 662Q301 662 284 661T252 656T228 645T218 624Q218 610 219 590T221 548T223 504T226 464L250 111H252L504 487Q518 508 531 528T556 567T573 600T580 626Q580 638 571 645T547 655T516 660T485 662L490 688H724L717 662Q694 659 678 653T650 637T628 614T606 582L213 -8H189L144 612Z"  />
<glyph unicode="W" horiz-adv-x="870" d="M75 688H312L305 662Q278 660 260 658T231 650T216 633T211 600V141H213L458 568V626Q458 643 441 650T383 662L390 688H625L618 662Q575 662 554 655T532 616Q532 605 532 574T533 501T535 409T536 310T537 217T539 141H541L747 498Q775 546 794 578T813 628Q813 645 793 650T728 662L735 688H956L949 662Q926 659 910 655T880 642T855 620T832 586L493 -8H471L461 514H459L166 -8H141V594Q141 617 136 630T121 651T98 660T68 662L75 688Z"  />
<glyph unicode="X" horiz-adv-x="667" d="M470 86Q482 54 502 40T569 26L563 0H301L308 26Q360 28 380 38T400 71Q400 82 396 94T388 116L306 318L96 101Q87 92 78 81T68 55Q68 47 72 42T88 33T122 29T183 26L176 0H-83L-77 26Q-59 26 -45 29T-16 43T17 70T62 114L295 355L189 616Q184 629 178 637T162 651T138 659T104 662L111 688H367L360 662Q309 660 287 655T264 626Q264 616 269 601T277 577L346 410L519 581Q530 592 538 603T546 629Q546 649 525 655T456 662L463 688H723L716 662Q669 662 632 640T564 587L359 375L470 86Z"  />
<glyph unicode="Y" horiz-adv-x="611" d="M354 688L347 662L275 658Q244 657 244 630Q244 617 247 605T254 580L323 332L548 586Q556 595 566 608T576 635Q576 652 554 655T481 662L488 688H712L705 662Q676 662 645 640T577 574L325 278L276 90Q271 72 271 58Q271 51 274 46T288 37T318 31T370 26L364 0H82L89 26Q142 27 167 35T200 71L261 299L171 614Q163 642 144 650T80 662L87 688H354Z"  />
<glyph unicode="Z" horiz-adv-x="593" d="M447 0H-22L-18 30L511 662H415Q357 662 313 651T236 615T179 548T135 445L109 450L176 688H604L596 656L71 26H222Q277 26 317 39T389 80T445 148T493 244L517 239L447 0Z"  />
<glyph unicode="[" horiz-adv-x="407" d="M0 -172L245 688H400L393 662H332Q306 662 297 648T280 609L78 -98Q73 -118 76 -132T108 -146H160L153 -172H0Z"  />
<glyph unicode="\" horiz-adv-x="278" d="M-19 700L349 -12H297L-71 700H-19Z"  />
<glyph unicode="]" horiz-adv-x="407" d="M362 688L117 -172H-38L-31 -146H30Q43 -146 51 -143T65 -133T74 -116T82 -93L284 614Q289 634 286 648T254 662H202L209 688H362Z"  />
<glyph unicode="^" horiz-adv-x="600" d="M93 323L277 688H323L507 323H452L300 624L148 323H93Z"  />
<glyph unicode="_" horiz-adv-x="500" d="M0 -125V-75H500V-125H0Z"  />
<glyph unicode="`" horiz-adv-x="333" d="M261 532L129 639Q116 649 111 657T106 674Q106 683 114 691T132 700Q144 700 152 692T173 668L282 532H261Z"  />
<glyph unicode="a" horiz-adv-x="574" d="M415 470H476L402 173Q391 128 383 99T375 54Q375 38 383 26T410 14Q436 14 467 59T527 181L549 171Q540 147 527 115T496 55T455 8T400 -12Q355 -12 340 20T325 100L322 102Q307 81 290 61T252 24T207 -2T152 -12Q113 -12 87 3T44 43T20 101T12 170Q12 242 40 299T109 397T195 460T276 482Q302 482 320 472T352 446T373 409T386 367H388L415 470ZM276 456Q237 456 201 424T136 342T91 233T74 120Q74 78 94 46T157 14Q206 14 244 47T308 129T348 228T362 316Q362 343 358 368T344 412T318 444T276 456Z"  />
<glyph unicode="b" horiz-adv-x="519" d="M159 374L158 370L160 368Q171 386 187 406T224 443T266 471T312 482Q348 482 376 468T422 428T450 367T460 288Q460 227 439 173T380 77T293 12T185 -12Q113 -12 76 23T38 122Q38 145 45 178T66 264L125 487Q138 535 147 568T156 622Q156 632 149 637T130 646T106 649T82 650L91 676H239L159 374ZM309 456Q273 456 236 421T169 332T120 217T100 103Q100 59 126 37T195 14Q243 14 281 42T345 117T384 220T398 334Q398 396 373 426T309 456Z"  />
<glyph unicode="c" horiz-adv-x="463" d="M394 169Q379 130 357 97T306 39T244 2T173 -12Q103 -12 61 39T18 184Q18 239 40 292T101 388T190 456T295 482Q353 482 385 458T418 391Q418 367 405 353T368 338Q352 338 340 348T328 375Q328 391 333 399T345 411T356 417T362 426Q362 436 348 446T304 456Q255 456 214 427T143 353T97 254T80 150Q80 121 84 97T101 54T132 25T182 14Q218 14 247 29T299 68T339 122T370 182L394 169Z"  />
<glyph unicode="d" horiz-adv-x="593" d="M542 676L418 208Q414 192 408 170T397 126T388 83T384 50Q384 36 390 26T414 16Q428 16 444 29T477 64T510 117T541 181L563 171Q552 143 537 111T502 52T458 6T406 -12Q374 -12 352 12T330 81Q330 87 330 93T332 107L330 109Q322 93 306 72T266 33T215 1T157 -12Q121 -12 95 4T52 45T27 103T18 167Q18 230 41 287T102 388T188 456T288 482Q314 482 333 474T364 453T384 422T396 386H398L429 497Q432 507 436 523T446 558T454 592T458 619Q458 635 445 642T389 650L396 676H542ZM374 335Q374 390 354 423T286 456Q253 456 226 439T175 394T135 332T105 262T86 195T80 142Q80 84 98 49T164 14Q194 14 221 30T271 72T314 132T346 201T367 272T374 335Z"  />
<glyph unicode="e" horiz-adv-x="481" d="M440 388Q440 352 423 325T378 278T314 245T238 222T160 209T88 204Q83 187 80 168T76 121Q76 70 102 42T177 14Q213 14 243 28T299 66T345 120T380 183L400 172Q387 136 365 103T313 45T250 4T179 -12Q100 -12 59 38T14 170Q12 234 39 290T111 388T212 456T325 482Q348 482 369 477T405 461T430 432T440 388ZM378 382Q379 418 364 437T311 456Q271 456 236 438T172 388T123 315T92 230Q156 231 208 241T297 271T356 319T378 382Z"  />
<glyph unicode="f" horiz-adv-x="296" d="M28 444L35 470H130Q141 507 162 546T213 616T279 668T354 688Q380 688 401 675T422 632Q422 613 413 601T383 588Q352 588 352 619Q352 627 355 632T361 641T367 646T370 650Q370 654 364 658T342 662Q308 662 281 639T236 583T207 519T194 470H306L299 444H188L127 88Q114 14 89 -37T30 -121T-40 -169T-112 -184Q-156 -184 -181 -165T-206 -118Q-206 -95 -195 -85T-166 -74Q-152 -74 -142 -82T-132 -108Q-132 -117 -135 -123T-143 -133T-151 -141T-155 -147Q-155 -152 -140 -155T-106 -158Q-80 -158 -58 -147T-17 -116T14 -74T36 -26Q44 -3 52 33T69 113T85 203T100 294T114 378T125 444H28Z"  />
<glyph unicode="g" horiz-adv-x="519" d="M484 470L349 -26Q326 -109 260 -146T87 -184Q60 -184 36 -178T-5 -162T-32 -137T-42 -107Q-42 -89 -31 -76T3 -63Q23 -63 32 -72T42 -97Q42 -102 39 -105T33 -112T27 -120T24 -130Q24 -142 42 -150T94 -158Q166 -158 219 -125T294 -14L322 90L320 92Q306 77 290 59T255 26T210 -1T153 -12Q124 -12 99 -1T55 33T25 90T14 172Q14 238 40 294T105 393T191 458T277 482Q329 482 356 450T391 367H393L421 470H484ZM369 325Q369 349 365 372T350 414T321 444T276 456Q242 456 207 427T142 350T95 243T76 122Q76 76 93 45T159 14Q191 14 219 29T270 70T312 129T343 196T362 264T369 325Z"  />
<glyph unicode="h" horiz-adv-x="593" d="M263 676L156 303L158 301Q215 398 264 440T367 482Q418 482 445 450T473 369Q473 348 465 319T444 259T417 196T390 136T370 87T361 54Q361 35 374 25T404 14Q433 14 472 53T547 184L567 175Q536 89 493 39T391 -12Q361 -12 336 15T311 90Q311 124 328 167T367 253T405 335T423 399Q423 429 408 442T360 456Q331 456 303 438T247 390T195 319T149 236T112 148T84 65L66 0H4L133 451Q151 514 164 563T178 626Q178 637 163 643T103 650L110 676H263Z"  />
<glyph unicode="i" horiz-adv-x="370" d="M340 175Q309 89 266 39T164 -12Q134 -12 109 15T84 90Q84 124 102 170T143 261T183 348T202 414Q202 437 194 446T164 456Q150 456 135 449T104 424T69 375T30 296L7 303Q21 341 38 373T76 430T121 468T175 482Q213 482 232 457T252 391Q252 370 244 341T222 278T193 211T165 147T143 92T134 56Q134 36 147 25T177 14Q206 14 245 53T320 184L340 175ZM221 643Q221 663 233 675T266 688Q285 688 298 675T311 643Q311 624 298 611T266 598Q247 598 234 610T221 643Z"  />
<glyph unicode="j" horiz-adv-x="333" d="M25 302Q35 329 49 360T83 419T129 464T188 482Q229 482 246 459T264 406Q264 383 256 353T235 274L161 -2Q135 -98 82 -141T-40 -184Q-84 -184 -113 -163T-143 -112Q-143 -89 -130 -74T-97 -58Q-80 -58 -70 -68T-59 -94Q-59 -109 -69 -116T-90 -126Q-102 -129 -102 -135Q-102 -143 -86 -150T-42 -158Q-21 -158 -2 -151T35 -128T67 -84T93 -17L186 316Q189 327 192 340T199 367T204 392T206 412Q206 419 205 426T201 440T190 451T172 456Q153 456 134 438T99 395T69 342T49 295L25 302ZM233 644Q233 664 245 676T278 689Q297 689 310 676T323 644Q323 625 310 612T278 599Q259 599 246 611T233 644Z"  />
<glyph unicode="k" horiz-adv-x="537" d="M8 0L149 520Q154 540 163 569T172 618Q172 634 158 642T97 650L104 676H250L146 276H178Q222 276 248 294T298 350Q321 387 336 412T366 453T394 475T430 482Q459 482 476 465T493 428Q493 411 484 398T458 384Q423 384 423 414Q423 426 428 435T433 446Q433 456 420 456Q409 456 400 448T379 424T352 381T313 319Q297 294 273 281T225 262V260Q255 255 275 242T307 210T323 169T328 122Q328 108 327 95T326 72Q326 57 331 44T355 30Q372 30 390 49T423 94T451 145T468 184L488 175Q481 154 466 123T430 61T384 10T330 -12Q296 -12 280 12T264 67Q264 89 265 117T266 172Q266 193 257 207T234 230T204 242T174 246Q169 246 155 246T137 244L69 0H8Z"  />
<glyph unicode="l" horiz-adv-x="296" d="M242 676L137 254Q114 161 101 113T88 47Q88 31 97 23T119 14Q132 14 148 24T181 55T213 106T241 174L262 168Q247 117 229 83T191 27T148 -3T104 -12Q77 -12 58 11T38 76Q38 103 42 129T55 187L137 510Q140 524 144 540T151 572T157 599T160 618Q160 635 147 642T93 650L100 676H242Z"  />
<glyph unicode="m" horiz-adv-x="889" d="M160 315Q167 339 172 361T177 410Q177 432 171 444T145 456Q132 456 118 449T88 425T55 378T18 304L-5 312Q7 346 23 377T60 431T103 468T153 482Q174 482 188 473T209 449T220 415T223 374Q223 362 221 339T215 297L217 295Q230 314 248 345T290 407T343 460T406 482Q430 482 446 474T474 450T490 415T495 371Q495 332 487 294L489 292Q504 318 523 351T568 413T626 462T697 482Q724 482 741 473T769 448T784 413T789 374Q789 351 780 322T758 261T729 199T700 139T678 87T669 49Q669 34 682 24T712 14Q741 14 780 53T855 184L875 175Q844 89 801 39T699 -12Q684 -12 670 -6T644 13T626 41T619 75Q619 97 628 124T650 182T679 244T708 305T730 361T739 407Q739 456 690 456Q662 456 635 437T582 387T533 316T491 234T457 152T433 80L410 0H347L433 310Q439 331 444 352T449 397Q449 423 441 439T403 456Q373 456 341 426T280 352T228 256T189 162L134 0H73L160 315Z"  />
<glyph unicode="n" horiz-adv-x="648" d="M-15 310Q-5 338 10 368T45 424T91 466T146 482Q188 482 206 456T224 381Q224 353 221 327T212 274L214 272Q232 303 254 339T305 407T366 460T439 482Q491 482 512 457T534 391Q534 370 526 341T504 278T475 211T447 147T425 92T416 56Q416 36 429 25T459 14Q488 14 527 53T602 184L622 175Q591 89 548 39T446 -12Q416 -12 391 15T366 90Q366 124 384 170T425 261T465 348T484 414Q484 437 474 446T432 456Q403 456 375 438T319 390T267 319T221 236T184 148T156 65L138 0H76L174 363Q177 374 179 387T182 412Q182 456 142 456Q118 456 98 442T61 405T32 356T10 304L-15 310Z"  />
<glyph unicode="o" horiz-adv-x="519" d="M398 316Q398 343 393 368T376 412T342 444T289 456Q235 456 196 426T131 351T93 258T80 172Q80 135 85 106T103 57T137 25T190 14Q242 14 281 44T346 121T385 219T398 316ZM460 283Q460 231 439 179T381 84T295 15T188 -12Q146 -12 114 5T61 50T29 113T18 184Q18 245 40 299T98 393T183 458T284 482Q325 482 358 466T413 422T448 358T460 283Z"  />
<glyph unicode="p" horiz-adv-x="593" d="M-73 -172L-66 -146Q-43 -145 -25 -143T6 -135T27 -120T41 -92L152 307Q164 349 170 371T176 412Q176 435 167 445T143 456Q128 456 113 444T82 412T54 364T28 306L7 314Q17 340 30 369T62 424T102 465T152 482Q188 482 206 456T224 387Q224 376 223 364T219 340H221Q232 359 247 383T283 430T331 467T393 482Q425 482 452 468T498 429T529 369T540 293Q540 233 516 178T453 80T370 13T282 -12Q251 -12 230 -2T196 25T175 61T163 99H161L147 46Q143 31 137 7T124 -42T113 -87T108 -116Q108 -134 129 -140T199 -146L192 -172H-73ZM478 336Q478 357 475 378T461 417T435 445T391 456Q364 456 339 441T291 400T249 341T215 274T193 205T185 144Q185 120 190 97T206 55T234 26T276 14Q317 14 354 39T418 109T462 211T478 336Z"  />
<glyph unicode="q" horiz-adv-x="519" d="M134 -172L141 -146Q157 -146 175 -145T211 -137T242 -118T262 -83L311 80L309 82Q279 43 241 16T149 -12Q122 -12 97 -1T52 32T20 89T8 170Q8 223 32 278T96 379T186 453T288 482Q313 482 330 478T361 464T384 439T407 403L467 470H487L375 72Q356 6 342 -39T328 -106Q328 -120 335 -127T354 -139T380 -145T410 -146L403 -172H134ZM376 350Q376 400 356 428T282 456Q253 456 226 438T176 392T133 327T99 254T78 183T70 124Q70 67 88 41T152 14Q189 14 220 32T277 80T320 147T351 222T370 293T376 350Z"  />
<glyph unicode="r" horiz-adv-x="463" d="M67 0L125 203Q149 287 165 339T182 412Q182 430 176 443T148 456Q127 456 109 438T75 396T49 346T31 306L12 317Q24 342 36 371T65 424T104 465T157 482Q174 482 186 475T205 454T216 425T220 392Q220 377 219 360T216 326T212 292T208 264L210 262Q228 293 249 331T294 403T346 459T404 482Q439 482 455 464T472 418Q472 396 460 381T426 365Q409 365 399 375T388 402Q388 417 393 423T403 432T414 437T419 445Q419 453 413 454T397 456Q379 456 356 436T308 382T258 305T211 216T170 126T141 45L128 0H67Z"  />
<glyph unicode="s" horiz-adv-x="426" d="M67 344Q67 377 80 402T117 446T174 473T248 482Q285 482 310 473T350 451T371 424T378 399Q378 379 367 364T333 349Q318 349 306 356T294 381Q294 395 300 401T313 411T326 415T332 419Q332 429 322 436T297 448T269 454T248 456Q228 456 207 451T168 435T140 407T129 364Q129 337 145 320T185 289T237 263T290 236T330 198T346 141Q346 99 325 70T272 22T205 -4T141 -12Q116 -12 90 -7T43 11T8 44T-6 94Q-6 117 6 132T43 148Q59 148 71 140T83 114Q83 97 76 91T59 82T42 77T34 67Q34 60 40 51T59 34T93 20T142 14Q169 14 194 21T238 41T268 75T280 121Q280 146 264 163T225 195T174 222T123 251T83 289T67 344Z"  />
<glyph unicode="t" horiz-adv-x="315" d="M35 444L42 470H131L167 606H228L194 470H292L285 444H188L127 212Q113 156 102 118T90 56Q90 32 99 23T120 14Q152 14 186 54T253 180L275 173Q243 88 205 38T112 -12Q73 -12 55 11T36 71Q36 99 43 133T61 207L123 444H35Z"  />
<glyph unicode="u" horiz-adv-x="648" d="M547 470L457 132Q453 117 447 94T440 54Q440 37 446 26T472 14Q487 14 504 27T539 64T571 117T598 183L620 176Q606 131 588 96T548 37T505 1T462 -12Q442 -12 429 -4T407 17T394 48T390 82Q390 99 392 117T396 152L394 154Q369 116 347 86T300 34T249 0T189 -12Q138 -12 113 19T87 98Q87 135 103 179T138 266T174 346T190 407Q190 432 179 444T148 456Q129 456 114 446T85 417T56 370T24 307L2 317Q15 344 29 373T60 427T101 466T155 482Q197 482 218 454T240 378Q240 341 224 297T189 211T153 131T137 72Q137 41 152 28T193 14Q220 14 246 28T295 64T339 113T374 167T400 217T416 256L484 470H547Z"  />
<glyph unicode="v" horiz-adv-x="537" d="M468 374Q468 303 447 234T388 111T300 22T194 -12Q141 -12 112 24T82 113Q82 133 89 159T107 215T131 274T154 331T172 379T180 414Q180 437 172 446T142 456Q128 456 113 449T82 426T49 381T14 310L-9 322Q3 353 18 381T54 432T99 468T151 482Q186 482 204 454T222 387Q222 352 208 310T177 225T146 143T132 76Q132 47 147 31T202 14Q259 14 302 48T375 134T419 242T434 346Q434 373 429 390T412 409Q386 414 376 422T366 445Q366 482 409 482Q432 482 450 458T468 374Z"  />
<glyph unicode="w" horiz-adv-x="778" d="M506 470L436 212Q433 199 429 183T421 149T415 115T412 85Q412 46 426 30T467 14Q499 14 527 30T580 73T625 134T659 205T680 277T688 341Q688 367 684 385T667 404Q651 404 640 414T629 439Q629 456 639 466T665 476Q681 476 691 467T708 443T717 409T720 371Q720 328 710 283T683 196T642 116T591 50T532 5T469 -12Q443 -12 423 -3T390 23T369 61T362 107Q362 121 363 134T368 158L367 159Q361 150 344 123T301 65T240 12T165 -12Q125 -12 102 18T78 92Q78 133 94 181T131 274T168 357T185 419Q185 439 174 447T144 456Q121 456 101 439T66 397T38 347T18 304L-2 315Q11 340 24 369T55 424T95 465T148 482Q186 482 206 457T227 394Q227 357 212 312T178 221T144 135T128 66Q128 36 144 25T178 14Q201 14 229 34T285 87T336 158T372 236L448 470H506Z"  />
<glyph unicode="x" horiz-adv-x="574" d="M41 311Q52 339 66 369T101 424T147 465T209 482Q242 482 262 466T294 426T310 372T314 315H317Q330 340 348 369T388 423T436 465T494 482Q524 482 543 466T562 421Q562 400 552 388T522 376Q508 376 498 382T488 405Q488 414 491 419T497 426T504 431T507 436Q507 442 499 446T480 450Q452 450 426 429T378 374T338 298T308 214T288 136T281 76Q281 50 295 33T335 16Q361 16 383 31T424 71T458 125T484 183L505 175Q493 140 476 106T436 46T386 4T328 -12Q302 -12 285 -2T256 26T240 65T235 110Q235 116 235 122T236 134L234 135Q222 111 205 85T165 38T115 2T54 -12Q40 -12 25 -8T-2 7T-22 31T-30 66Q-30 94 -15 111T22 128Q39 128 48 118T58 91Q58 77 50 68T34 58Q16 58 10 54T4 39Q4 32 16 23T60 14Q94 14 123 34T175 87T215 160T244 239T262 313T268 370Q268 420 250 438T204 456Q176 456 154 440T115 401T85 351T63 303L41 311Z"  />
<glyph unicode="y" horiz-adv-x="556" d="M512 470L390 7Q374 -54 342 -91T274 -149T200 -177T138 -184Q77 -184 42 -157T6 -92Q6 -70 20 -57T56 -44Q72 -44 83 -52T95 -77Q95 -92 89 -98T74 -108T59 -114T52 -125Q52 -144 73 -151T124 -158Q184 -158 222 -140T285 -89T325 -12T355 85L377 167L375 169Q360 142 341 111T298 52T244 6T178 -12Q160 -12 144 -5T114 17T92 54T84 108Q84 140 100 182T137 267T174 349T191 417Q191 434 181 445T153 456Q130 456 110 439T74 397T47 347T29 305L8 312Q15 333 28 362T61 418T104 463T155 482Q169 482 183 478T208 462T226 432T233 386Q233 351 218 309T184 223T150 140T134 70Q134 45 147 30T187 14Q218 14 246 35T298 88T342 157T377 227Q391 257 403 292T426 362T443 424T456 470H512Z"  />
<glyph unicode="z" horiz-adv-x="500" d="M50 315Q59 344 73 374T108 428T154 467T208 482Q238 482 258 468T295 436T330 405T374 390Q400 390 411 399T422 425Q422 432 420 437T418 451Q418 463 424 469T441 476Q454 476 461 468T468 440Q468 413 453 389T411 340T344 291T257 239Q179 194 122 161T30 110L32 108Q50 116 65 121T102 126Q135 126 158 113T201 84T239 55T281 42Q308 42 329 56T365 91T390 138T407 185L428 181Q421 147 406 113T366 51T311 6T241 -12Q206 -12 182 4T139 39T102 74T63 90Q44 90 33 83T22 62Q22 54 26 46T30 29Q30 18 24 9T3 0Q-14 0 -19 12T-24 41Q-24 62 -11 90T40 142Q88 173 143 205T251 267T347 324T413 373L411 375Q394 369 376 364T332 358Q309 358 288 369T248 393T211 417T178 428Q155 428 139 416T109 386T87 346T71 307L50 315Z"  />
<glyph unicode="{" horiz-adv-x="444" d="M93 140Q98 157 100 170T103 199Q103 218 91 232T51 256Q102 270 124 296T161 372L215 553Q228 599 246 627T287 670T335 691T390 696L382 670Q358 670 340 662T309 638T287 603T271 559L221 387Q213 360 203 339T179 302T145 275T97 257L96 255Q128 246 141 232T155 196Q155 176 152 160T144 125L93 -47Q87 -67 84 -84T80 -115Q80 -158 138 -158L131 -184Q108 -184 89 -181T57 -170T36 -148T28 -110Q28 -92 31 -76T40 -41L93 140Z"  />
<glyph unicode="|" horiz-adv-x="222" d="M88 688H134V0H88V688Z"  />
<glyph unicode="}" horiz-adv-x="444" d="M329 372Q324 355 322 342T319 313Q319 294 331 280T371 256Q320 242 298 216T261 140L207 -41Q193 -87 175 -115T135 -158T87 -179T32 -184L40 -158Q64 -158 82 -150T113 -126T135 -91T151 -47L201 125Q209 152 219 173T243 210T277 237T325 255L326 257Q294 266 281 280T267 316Q267 336 270 352T278 387L329 559Q335 579 338 596T342 627Q342 670 284 670L291 696Q314 696 333 693T365 682T386 660T394 622Q394 604 391 588T382 553L329 372Z"  />
<glyph unicode="~" horiz-adv-x="600" d="M494 260Q476 221 449 201T378 180Q350 180 328 190T282 212Q259 224 235 234T176 244Q146 244 127 227T98 178L64 210Q78 252 106 271T181 290Q209 290 236 280T289 258Q315 246 338 236T379 226Q407 226 427 246T461 294L494 260Z"  />
<glyph unicode="&#xA0;" horiz-adv-x="278" />
<glyph unicode="&#xA1;" horiz-adv-x="333" d="M170 330Q148 227 127 126T88 -89Q83 -120 77 -139T63 -168T45 -181T25 -184Q5 -184 -3 -173T-11 -142Q-10 -126 -4 -102T13 -50T34 8T56 65Q81 131 102 196T146 330H170ZM154 471Q154 489 166 502T198 516Q217 516 229 503T242 471Q242 453 230 440T198 426Q179 426 167 439T154 471Z"  />
<glyph unicode="&#xA2;" horiz-adv-x="556" d="M326 535Q284 527 250 497T192 427T155 339T142 250Q142 204 163 179T215 145L326 535ZM240 142Q274 142 300 153T348 184T386 230T418 286L437 277Q400 197 352 157T232 116L197 -8H171L207 119Q184 123 163 136T125 170T98 219T88 282Q88 351 114 401T179 485T259 536T332 558L372 698H398L359 560Q384 559 404 552T438 534T460 509T468 480Q468 459 458 446T426 433Q409 433 400 441T390 466Q390 477 395 483T406 494T417 501T422 508Q422 517 409 527T356 538H353L240 142Z"  />
<glyph unicode="&#xA3;" horiz-adv-x="556" d="M45 336L52 366H184Q174 382 163 401T143 439T127 479T120 519Q120 558 135 591T177 648T237 686T309 700Q331 700 354 694T398 675T431 642T444 593Q444 572 434 556T400 539Q383 539 374 549T365 575Q365 588 371 594T384 604T398 610T404 618Q404 627 397 636T377 654T348 668T312 674Q280 674 255 663T211 632T184 588T174 536Q174 508 181 490T203 449L257 366H430L423 336H275Q289 309 297 282T305 226Q305 183 287 146T245 77Q266 57 287 47T338 36Q368 36 391 46T434 73T468 112T496 160L516 149Q503 117 484 88T439 37T384 2T317 -12Q288 -12 256 0T203 33Q167 10 130 -1T50 -12Q29 -12 7 -6T-35 14T-66 47T-78 92Q-78 115 -69 132T-45 161T-9 178T33 184Q62 184 86 177T131 158T173 131T217 99Q236 122 243 149T251 205Q251 225 248 241T238 273T222 303T203 336H45ZM-48 90Q-48 68 -37 54T-9 30T24 18T54 14Q69 14 85 16T118 24T149 37T175 56Q156 72 140 89T108 120T74 143T35 154Q-6 156 -27 138T-48 90Z"  />
<glyph unicode="&#xA4;" horiz-adv-x="556" d="M80 141Q26 208 26 294Q26 335 38 375T82 447L26 504L64 542L120 487Q153 515 193 528T274 542Q316 542 355 529T428 487L484 542L522 504L468 450Q497 417 509 377T522 294Q522 253 510 214T469 140L522 84L484 46L431 104Q397 74 357 60T274 46Q232 46 192 59T117 104L64 46L26 84L80 141ZM468 294Q468 334 453 370T412 433T351 476T274 492Q234 492 199 477T137 434T96 371T80 294Q80 253 95 217T137 154T199 112T274 96Q315 96 350 112T412 155T453 218T468 294Z"  />
<glyph unicode="&#xA5;" horiz-adv-x="556" d="M20 226L28 256H191L202 299L186 355H54L62 385H177L112 614Q104 642 85 650T21 662L28 688H295L288 662L216 658Q185 657 185 630Q185 617 188 605T195 580L264 332L489 586Q497 595 507 608T517 635Q517 652 495 655T422 662L429 688H653L646 662Q617 662 586 640T518 574L358 385H482L474 355H332L266 278L260 256H462L454 226H252L217 90Q212 72 212 58Q212 51 215 46T229 37T259 31T311 26L305 0H23L30 26Q83 27 108 35T141 71L183 226H20Z"  />
<glyph unicode="&#xA6;" horiz-adv-x="222" d="M88 258H134V0H88V258ZM88 688H134V430H88V688Z"  />
<glyph unicode="&#xA7;" horiz-adv-x="500" d="M440 610Q440 578 427 562T392 545Q375 545 365 556T354 585Q354 600 359 609T370 625T381 638T386 652Q386 661 379 666T363 675T343 680T327 682Q279 682 249 657T218 586Q218 569 224 553T239 523T260 495T281 468L342 393Q376 350 386 320T396 261Q396 236 387 213T361 173T323 145T278 134Q267 134 258 135T237 139Q251 118 261 102T278 72T288 44T292 13Q292 -21 280 -47T246 -92T196 -120T135 -130Q109 -130 87 -124T47 -105T20 -73T10 -26Q10 -4 25 13T61 30Q78 30 90 21T102 -3Q102 -18 95 -30T79 -50T63 -64T56 -73Q56 -85 76 -98T135 -112Q180 -112 211 -85T242 -9Q242 12 232 33T211 70L104 217Q87 240 76 263T65 315Q65 346 74 370T99 411T135 435T178 444Q202 444 226 438L228 440Q206 466 189 498T172 566Q172 598 185 623T220 665T268 691T322 700Q346 700 367 693T405 674T430 646T440 610ZM111 354Q111 328 128 295T175 224Q183 213 193 202T216 180T243 163T272 156Q287 156 301 163T326 181T343 206T350 236Q350 269 336 294T300 349Q277 380 253 401T187 422Q155 422 133 405T111 354Z"  />
<glyph unicode="&#xA8;" horiz-adv-x="333" d="M180 589Q180 573 168 562T140 550Q123 550 112 561T100 589Q100 606 111 618T140 630Q157 630 168 618T180 589ZM336 630Q353 630 364 618T376 589Q376 573 364 562T336 550Q319 550 308 561T296 589Q296 606 307 618T336 630Z"  />
<glyph unicode="&#xA9;" horiz-adv-x="800" d="M400 -12Q328 -12 265 16T154 92T80 205T52 343Q52 416 79 481T154 595T264 672T400 700Q472 700 535 672T646 596T721 482T748 343Q748 270 721 206T647 93T536 16T400 -12ZM400 26Q461 26 515 52T611 122T676 223T700 343Q700 406 676 463T612 565T516 636T400 662Q339 662 285 636T189 565T124 464T100 343Q100 281 124 224T189 122T284 52T400 26ZM577 254L558 175Q557 172 546 167T516 157T473 149T423 145Q379 145 339 156T267 191T217 252T198 343Q198 378 212 415T256 482T329 531T429 551Q452 551 476 548T519 539T551 527T563 514V438H543Q542 455 536 471T517 499T481 519T424 527Q344 527 306 479T268 349Q268 310 277 277T307 220T359 183T433 169Q461 169 482 176T519 194T545 221T562 254H577Z"  />
<glyph unicode="&#xAA;" horiz-adv-x="344" d="M314 694H351L303 515Q293 478 290 465T286 443Q286 426 307 426Q322 426 333 434T354 455T371 486T385 520L399 514Q393 499 385 480T365 444T338 416T303 404Q274 404 264 423T254 471L252 472Q232 446 207 425T141 404Q116 404 99 413T71 437T55 471T50 513Q50 553 66 587T107 647T163 686T224 700Q257 700 272 679T295 631H297L314 694ZM90 487Q90 458 103 442T144 426Q176 426 200 445T241 492T266 550T275 604Q275 632 264 655T220 678Q193 678 170 659T129 611T101 549T90 487Z"  />
<glyph unicode="&#xAB;" horiz-adv-x="500" d="M202 104Q207 94 211 87T215 74Q215 66 205 66Q198 66 193 72T180 87L58 243L245 404Q259 416 266 423T280 430Q290 430 290 421Q290 414 284 407T264 385L129 243L202 104ZM356 104Q361 94 365 87T369 74Q369 66 359 66Q352 66 347 72T334 87L212 243L399 404Q413 416 420 423T434 430Q444 430 444 421Q444 414 438 407T418 385L283 243L356 104Z"  />
<glyph unicode="&#xAC;" horiz-adv-x="600" d="M489 302H65V348H535V122H489V302Z"  />
<glyph unicode="&#xAD;" horiz-adv-x="333" d="M282 257L269 211H2L16 257H282Z"  />
<glyph unicode="&#xAE;" horiz-adv-x="800" d="M232 161V179Q255 179 270 189T286 230V479Q286 511 269 522T232 534V548H410Q433 548 455 543T495 526T523 496T534 454Q534 411 509 383T448 342L509 259Q515 250 525 237T548 212T572 188T595 173V161H537Q521 161 508 176T481 212L402 332H344V230Q344 201 358 190T397 179V161H232ZM344 350H395Q441 350 458 372T476 449Q476 494 455 512T391 530H344V350ZM400 -12Q328 -12 265 16T154 92T80 205T52 343Q52 416 79 481T154 595T264 672T400 700Q472 700 535 672T646 596T721 482T748 343Q748 270 721 206T647 93T536 16T400 -12ZM400 26Q461 26 515 52T611 122T676 223T700 343Q700 406 676 463T612 565T516 636T400 662Q339 662 285 636T189 565T124 464T100 343Q100 281 124 224T189 122T284 52T400 26Z"  />
<glyph unicode="&#xAF;" horiz-adv-x="333" d="M376 573H89L97 615H384L376 573Z"  />
<glyph unicode="&#xB0;" horiz-adv-x="400" d="M200 444Q222 444 242 453T276 478T299 514T308 557Q308 579 300 599T277 636T242 661T200 670Q177 670 158 661T124 636T101 600T92 557Q92 534 100 514T123 478T157 453T200 444ZM200 414Q170 414 144 425T99 455T69 501T58 557Q58 587 69 613T99 658T144 689T200 700Q230 700 256 689T301 659T331 613T342 557Q342 527 331 501T301 456T256 425T200 414Z"  />
<glyph unicode="&#xB1;" horiz-adv-x="600" d="M277 470H323V300H535V254H323V84H277V254H65V300H277V470ZM65 46H535V0H65V46Z"  />
<glyph unicode="&#xB2;" horiz-adv-x="333" d="M231 615Q228 594 218 576T194 545T163 524T130 516Q108 516 94 533T79 574Q79 594 91 616T124 657T175 688T240 700Q294 700 324 675T354 605Q354 553 329 525T260 476T162 429T48 357L50 356Q57 358 65 359T88 361Q111 361 125 354T152 336Q164 326 175 319T202 311Q221 311 235 320T261 344T281 376T296 410L320 404Q314 384 303 361T275 319T237 286T188 273Q163 273 144 283T110 306Q94 319 82 329T57 339Q44 339 40 336T35 323Q35 300 31 290T15 280Q4 280 2 288T-1 304Q-1 334 21 358T78 403T152 446T226 492T283 545T306 613Q306 645 287 661T233 678Q206 678 184 670T145 646T119 612T109 571Q109 554 117 546T136 538Q145 538 157 544T179 561T199 586T211 618L231 615Z"  />
<glyph unicode="&#xB3;" horiz-adv-x="333" d="M259 614Q255 598 247 583T227 556T199 537T163 530Q137 530 123 547T109 587Q109 608 120 628T150 664T196 690T253 700Q307 700 337 677T367 606Q367 585 356 566T327 531T290 504T250 488V486Q281 478 301 457T321 404Q321 372 305 348T262 307T205 282T143 273Q121 273 100 277T61 291T34 316T23 354Q23 378 37 396T76 414Q90 414 98 407T106 387Q106 376 98 369T79 362Q74 362 68 364T57 366Q53 366 52 361T51 350Q51 333 59 323T79 306T107 298T137 295Q165 295 189 304T231 329T259 368T269 416Q269 439 257 458T217 477Q210 477 199 474T182 471Q176 471 169 473T162 485Q162 497 169 499T185 502Q194 502 202 501T220 499Q242 499 260 510T292 538T312 575T319 615Q319 649 302 663T246 678Q220 678 200 669T165 645T144 615T137 585Q137 571 144 562T164 552Q180 552 191 558T211 573T226 594T236 618L259 614Z"  />
<glyph unicode="&#xB4;" horiz-adv-x="333" d="M169 532L306 663Q323 679 332 685T352 692Q364 692 372 686T380 664Q380 648 360 636L193 532H169Z"  />
<glyph unicode="&#xB5;" horiz-adv-x="648" d="M547 470L457 132Q453 117 447 94T440 54Q440 37 446 26T472 14Q487 14 504 27T539 64T571 117T598 183L620 176Q606 131 588 96T548 37T505 1T462 -12Q442 -12 429 -4T407 17T394 48T390 82Q390 99 392 117T396 152L394 154Q369 116 347 86T300 34T249 0T189 -12Q133 -12 108 26L90 -53Q84 -80 78 -105T63 -148T39 -178T3 -190Q-18 -190 -26 -177T-34 -144Q-34 -131 -28 -112T-14 -73T2 -34T17 -4Q24 9 39 41T73 113T113 200T151 287T179 360T190 407Q190 432 179 444T148 456Q129 456 114 446T85 417T56 370T24 307L2 317Q15 344 29 373T60 427T101 466T155 482Q197 482 218 454T240 378Q240 341 224 297T189 211T153 131T137 72Q137 41 152 28T193 14Q220 14 246 28T295 64T339 113T374 167T400 217T416 256L484 470H547Z"  />
<glyph unicode="&#xB6;" horiz-adv-x="620" d="M626 660Q610 660 595 659T566 652T543 638T529 612L312 -158H262L492 660H433L203 -158H153L277 284Q233 284 203 294T154 323T127 366T118 420Q118 480 136 529T190 614T277 668T395 688H634L626 660Z"  />
<glyph unicode="&#xB7;" horiz-adv-x="278" d="M83 235Q83 258 99 274T139 291Q162 291 178 275T195 235Q195 214 179 197T140 179Q117 179 100 195T83 235Z"  />
<glyph unicode="&#xB8;" horiz-adv-x="333" d="M63 1H94L54 -65Q64 -63 73 -63T92 -64Q113 -64 133 -81T154 -133Q154 -154 144 -169T117 -193T79 -208T37 -213Q16 -213 -5 -208T-46 -193L-30 -166Q-15 -173 0 -178T33 -183Q56 -183 73 -171T90 -133Q90 -114 76 -104T45 -94Q34 -94 25 -96T6 -101L2 -96L63 1Z"  />
<glyph unicode="&#xB9;" horiz-adv-x="333" d="M35 280L39 302Q82 305 98 311T118 328L214 634H138L142 656Q170 656 202 666T257 693H273L173 353Q170 342 167 334T164 318Q164 302 235 302L231 280H35Z"  />
<glyph unicode="&#xBA;" horiz-adv-x="311" d="M299 601Q299 633 281 655T228 678Q193 678 168 661T125 619T100 563T92 507Q92 465 110 446T164 426Q198 426 223 443T265 487T290 543T299 601ZM167 404Q137 404 115 414T79 442T59 483T52 532Q52 563 66 593T104 647T159 685T225 700Q252 700 273 690T308 664T331 626T339 581Q339 549 326 518T289 461T234 420T167 404Z"  />
<glyph unicode="&#xBB;" horiz-adv-x="500" d="M112 392Q107 402 103 409T99 422Q99 430 109 430Q116 430 121 424T134 409L256 253L69 92Q55 80 48 73T34 66Q24 66 24 75Q24 82 30 89T50 111L185 253L112 392ZM266 392Q261 402 257 409T253 422Q253 430 263 430Q270 430 275 424T288 409L410 253L223 92Q209 80 202 73T188 66Q178 66 178 75Q178 82 184 89T204 111L339 253L266 392Z"  />
<glyph unicode="&#xBC;" horiz-adv-x="834" d="M36 280L40 302Q83 305 99 311T119 328L215 634H139L143 656Q171 656 203 666T258 693H274L174 353Q171 342 168 334T165 318Q165 302 236 302L232 280H36ZM673 413Q673 389 662 357T631 289T587 217T534 151Q549 149 560 144T582 132T605 119T633 108L692 312H728L671 108Q698 108 716 123T751 155L760 147Q755 135 745 123T721 101T692 83T660 72L628 -24H593L621 72Q603 72 588 81T559 102T536 122T517 132Q507 132 489 122T453 112Q445 112 443 116T440 125Q440 132 446 137T463 147T487 152T514 154Q562 215 589 278T630 413H673ZM622 724H664L206 12H163L622 724Z"  />
<glyph unicode="&#xBD;" horiz-adv-x="834" d="M35 280L39 302Q82 305 98 311T118 328L214 634H138L142 656Q170 656 202 666T257 693H273L173 353Q170 342 167 334T164 318Q164 302 235 302L231 280H35ZM593 700H635L177 -12H134L593 700ZM643 330Q640 309 630 291T606 260T575 239T542 231Q520 231 506 248T491 289Q491 309 503 331T536 372T587 403T652 415Q706 415 736 390T766 320Q766 268 741 240T672 191T574 144T460 72L462 71Q469 73 477 74T500 76Q523 76 537 69T564 51Q576 41 587 34T614 26Q633 26 647 35T673 59T693 91T708 125L732 119Q726 99 715 76T687 34T649 1T600 -12Q575 -12 556 -2T522 21Q506 34 494 44T469 54Q456 54 452 51T447 38Q447 15 443 5T427 -5Q416 -5 414 3T411 19Q411 49 433 73T490 118T564 161T638 207T695 260T718 328Q718 360 699 376T645 393Q618 393 596 385T557 361T531 327T521 286Q521 269 529 261T548 253Q557 253 569 259T591 276T611 301T623 333L643 330Z"  />
<glyph unicode="&#xBE;" horiz-adv-x="834" d="M275 614Q271 598 263 583T243 556T215 537T179 530Q153 530 139 547T125 587Q125 608 136 628T166 664T212 690T269 700Q323 700 353 677T383 606Q383 585 372 566T343 531T306 504T266 488V486Q297 478 317 457T337 404Q337 372 321 348T278 307T221 282T159 273Q137 273 116 277T77 291T50 316T39 354Q39 378 53 396T92 414Q106 414 114 407T122 387Q122 376 114 369T95 362Q90 362 84 364T73 366Q69 366 68 361T67 350Q67 333 75 323T95 306T123 298T153 295Q181 295 205 304T247 329T275 368T285 416Q285 439 273 458T233 477Q226 477 215 474T198 471Q192 471 185 473T178 485Q178 497 185 499T201 502Q210 502 218 501T236 499Q258 499 276 510T308 538T328 575T335 615Q335 649 318 663T262 678Q236 678 216 669T181 645T160 615T153 585Q153 571 160 562T180 552Q196 552 207 558T227 573T242 594T252 618L275 614ZM697 413Q697 389 686 357T655 289T611 217T558 151Q573 149 584 144T606 132T629 119T657 108L716 312H752L695 108Q722 108 740 123T775 155L784 147Q779 135 769 123T745 101T716 83T684 72L652 -24H617L645 72Q627 72 612 81T583 102T560 122T541 132Q531 132 513 122T477 112Q469 112 467 116T464 125Q464 132 470 137T487 147T511 152T538 154Q586 215 613 278T654 413H697ZM652 700H694L236 -12H193L652 700Z"  />
<glyph unicode="&#xBF;" horiz-adv-x="463" d="M148 242Q160 278 185 302T242 326Q271 326 288 306T306 257Q306 224 289 200T248 157T195 124T145 97Q89 64 67 26T44 -58Q44 -105 76 -131T153 -158Q180 -158 204 -150T248 -126T278 -86T289 -28Q289 -17 284 -3T272 22L292 33Q301 19 308 2T315 -33Q315 -69 301 -97T264 -144T213 -174T154 -184Q120 -184 89 -175T34 -148T-4 -102T-18 -36Q-18 -2 -7 23T24 66T69 98T123 122Q148 132 175 145T225 174T263 210T278 252Q278 277 268 288T242 300Q229 300 218 293T197 276T181 255T170 234L148 242ZM276 471Q276 489 288 502T320 516Q339 516 351 503T364 471Q364 453 352 440T320 426Q301 426 289 439T276 471Z"  />
<glyph unicode="&#xC0;" horiz-adv-x="648" d="M-102 0L-94 26Q-55 26 -28 36T20 78L410 700H434L506 82Q510 47 528 37T588 26L581 0H326L333 26Q358 27 377 28T408 34T426 47T432 69Q432 83 431 96T428 123L416 240H160L79 106Q74 98 66 82T57 56Q57 46 61 40T76 31T108 27T160 26L154 0H-102ZM412 270L377 589H375L176 270H412ZM465 716L333 823Q320 833 315 841T310 858Q310 867 318 875T336 884Q348 884 356 876T377 852L486 716H465Z"  />
<glyph unicode="&#xC1;" horiz-adv-x="648" d="M-102 0L-94 26Q-55 26 -28 36T20 78L410 700H434L506 82Q510 47 528 37T588 26L581 0H326L333 26Q358 27 377 28T408 34T426 47T432 69Q432 83 431 96T428 123L416 240H160L79 106Q74 98 66 82T57 56Q57 46 61 40T76 31T108 27T160 26L154 0H-102ZM412 270L377 589H375L176 270H412ZM373 716L510 847Q527 863 536 869T556 876Q568 876 576 870T584 848Q584 832 564 820L397 716H373Z"  />
<glyph unicode="&#xC2;" horiz-adv-x="648" d="M-102 0L-94 26Q-55 26 -28 36T20 78L410 700H434L506 82Q510 47 528 37T588 26L581 0H326L333 26Q358 27 377 28T408 34T426 47T432 69Q432 83 431 96T428 123L416 240H160L79 106Q74 98 66 82T57 56Q57 46 61 40T76 31T108 27T160 26L154 0H-102ZM412 270L377 589H375L176 270H412ZM557 716H532L452 826L314 716H285L444 880H469L557 716Z"  />
<glyph unicode="&#xC3;" horiz-adv-x="648" d="M-102 0L-94 26Q-55 26 -28 36T20 78L410 700H434L506 82Q510 47 528 37T588 26L581 0H326L333 26Q358 27 377 28T408 34T426 47T432 69Q432 83 431 96T428 123L416 240H160L79 106Q74 98 66 82T57 56Q57 46 61 40T76 31T108 27T160 26L154 0H-102ZM412 270L377 589H375L176 270H412ZM292 740Q293 756 299 773T317 805T343 829T376 838Q396 838 416 831T456 815Q475 807 493 800T527 792Q550 792 560 806T576 840H598Q593 822 587 805T571 774T546 752T510 744Q496 744 477 751T438 767Q418 776 399 783T364 790Q344 790 330 774T314 740H292Z"  />
<glyph unicode="&#xC4;" horiz-adv-x="648" d="M-102 0L-94 26Q-55 26 -28 36T20 78L410 700H434L506 82Q510 47 528 37T588 26L581 0H326L333 26Q358 27 377 28T408 34T426 47T432 69Q432 83 431 96T428 123L416 240H160L79 106Q74 98 66 82T57 56Q57 46 61 40T76 31T108 27T160 26L154 0H-102ZM412 270L377 589H375L176 270H412ZM384 773Q384 757 372 746T344 734Q327 734 316 745T304 773Q304 790 315 802T344 814Q361 814 372 802T384 773ZM540 814Q557 814 568 802T580 773Q580 757 568 746T540 734Q523 734 512 745T500 773Q500 790 511 802T540 814Z"  />
<glyph unicode="&#xC5;" horiz-adv-x="648" d="M-102 0L-94 26Q-55 26 -28 36T20 78L410 700H434L506 82Q510 47 528 37T588 26L581 0H326L333 26Q358 27 377 28T408 34T426 47T432 69Q432 83 431 96T428 123L416 240H160L79 106Q74 98 66 82T57 56Q57 46 61 40T76 31T108 27T160 26L154 0H-102ZM412 270L377 589H375L176 270H412ZM437 713Q396 713 368 741T340 810Q340 830 347 847T368 878T399 899T437 907Q457 907 474 900T505 879T526 848T534 810Q534 790 527 772T506 741T475 721T437 713ZM437 877Q408 877 389 858T370 810Q370 781 389 762T437 743Q465 743 484 762T504 810Q504 838 485 857T437 877Z"  />
<glyph unicode="&#xC6;" horiz-adv-x="889" d="M726 0H250L252 26Q268 26 284 27T313 33T335 46T349 70L416 324H229L48 84Q34 66 34 53Q34 44 41 39T60 30T86 27T116 26L109 0H-112L-105 26Q-85 26 -70 29T-42 39T-16 58T10 88L374 560Q393 584 401 600T410 630Q410 639 404 645T388 655T366 660T343 662L350 688H877L834 450H810Q812 467 813 482T814 512Q814 555 805 584T777 630T728 655T655 662Q637 662 621 661T591 653T568 633T552 598L493 374H523Q555 374 577 381T615 404T642 443T662 500H684L617 219H597V263Q597 304 584 323T531 342H486L434 128Q427 99 425 85T422 62Q422 51 425 45T438 34T463 28T504 26Q567 26 608 38T678 78T725 147T760 249H786L726 0ZM422 356L480 589Q482 599 484 609T487 631Q487 636 486 641T478 646Q473 646 468 643T460 634L252 356H422Z"  />
<glyph unicode="&#xC7;" horiz-adv-x="667" d="M578 445Q580 465 580 485T580 525Q580 549 573 574T547 620T500 654T428 668Q355 668 298 629T200 527T138 386T116 230Q116 116 161 68T289 20Q384 20 445 81T543 252L574 242Q557 187 534 142T478 65T405 13T312 -11L279 -65Q289 -63 298 -63T317 -64Q338 -64 358 -81T379 -133Q379 -154 369 -169T342 -193T304 -208T262 -213Q241 -213 220 -208T179 -193L195 -166Q210 -173 225 -178T258 -183Q281 -183 298 -171T315 -133Q315 -114 301 -104T270 -94Q259 -94 250 -96T231 -101L227 -96L280 -12Q224 -12 179 10T102 71T53 163T36 281Q36 361 71 436T163 570T290 664T431 700Q485 700 528 678T596 626L633 680H665L608 445H578Z"  />
<glyph unicode="&#xC8;" horiz-adv-x="667" d="M509 0H-59L-52 26Q-7 27 17 35T49 71L189 598Q194 616 194 630Q194 644 179 651T116 662L123 688H665L614 450H587Q591 472 592 494T594 539Q594 575 584 598T553 636T499 656T419 662Q372 662 344 659T300 648T275 625T260 585L206 380H295Q317 380 336 390T371 417T397 455T414 500H440L367 222H347Q347 263 344 288T331 326T303 344T257 348H196L154 189Q145 155 135 121T124 70Q124 52 148 39T221 26Q290 26 341 34T431 66T497 136T547 254L575 248L509 0ZM474 716L342 823Q329 833 324 841T319 858Q319 867 327 875T345 884Q357 884 365 876T386 852L495 716H474Z"  />
<glyph unicode="&#xC9;" horiz-adv-x="667" d="M509 0H-59L-52 26Q-7 27 17 35T49 71L189 598Q194 616 194 630Q194 644 179 651T116 662L123 688H665L614 450H587Q591 472 592 494T594 539Q594 575 584 598T553 636T499 656T419 662Q372 662 344 659T300 648T275 625T260 585L206 380H295Q317 380 336 390T371 417T397 455T414 500H440L367 222H347Q347 263 344 288T331 326T303 344T257 348H196L154 189Q145 155 135 121T124 70Q124 52 148 39T221 26Q290 26 341 34T431 66T497 136T547 254L575 248L509 0ZM382 716L519 847Q536 863 545 869T565 876Q577 876 585 870T593 848Q593 832 573 820L406 716H382Z"  />
<glyph unicode="&#xCA;" horiz-adv-x="667" d="M509 0H-59L-52 26Q-7 27 17 35T49 71L189 598Q194 616 194 630Q194 644 179 651T116 662L123 688H665L614 450H587Q591 472 592 494T594 539Q594 575 584 598T553 636T499 656T419 662Q372 662 344 659T300 648T275 625T260 585L206 380H295Q317 380 336 390T371 417T397 455T414 500H440L367 222H347Q347 263 344 288T331 326T303 344T257 348H196L154 189Q145 155 135 121T124 70Q124 52 148 39T221 26Q290 26 341 34T431 66T497 136T547 254L575 248L509 0ZM566 716H541L461 826L323 716H294L453 880H478L566 716Z"  />
<glyph unicode="&#xCB;" horiz-adv-x="667" d="M509 0H-59L-52 26Q-7 27 17 35T49 71L189 598Q194 616 194 630Q194 644 179 651T116 662L123 688H665L614 450H587Q591 472 592 494T594 539Q594 575 584 598T553 636T499 656T419 662Q372 662 344 659T300 648T275 625T260 585L206 380H295Q317 380 336 390T371 417T397 455T414 500H440L367 222H347Q347 263 344 288T331 326T303 344T257 348H196L154 189Q145 155 135 121T124 70Q124 52 148 39T221 26Q290 26 341 34T431 66T497 136T547 254L575 248L509 0ZM393 773Q393 757 381 746T353 734Q336 734 325 745T313 773Q313 790 324 802T353 814Q370 814 381 802T393 773ZM549 814Q566 814 577 802T589 773Q589 757 577 746T549 734Q532 734 521 745T509 773Q509 790 520 802T549 814Z"  />
<glyph unicode="&#xCC;" horiz-adv-x="333" d="M-45 26Q0 27 24 35T56 71L196 598Q201 616 201 630Q201 644 186 651T123 662L130 688H380L373 662Q328 661 304 653T272 617L132 90Q127 72 127 58Q127 51 130 46T143 37T168 31T210 26L204 0H-52L-45 26ZM307 716L175 823Q162 833 157 841T152 858Q152 867 160 875T178 884Q190 884 198 876T219 852L328 716H307Z"  />
<glyph unicode="&#xCD;" horiz-adv-x="333" d="M-45 26Q0 27 24 35T56 71L196 598Q201 616 201 630Q201 644 186 651T123 662L130 688H380L373 662Q328 661 304 653T272 617L132 90Q127 72 127 58Q127 51 130 46T143 37T168 31T210 26L204 0H-52L-45 26ZM215 716L352 847Q369 863 378 869T398 876Q410 876 418 870T426 848Q426 832 406 820L239 716H215Z"  />
<glyph unicode="&#xCE;" horiz-adv-x="333" d="M-45 26Q0 27 24 35T56 71L196 598Q201 616 201 630Q201 644 186 651T123 662L130 688H380L373 662Q328 661 304 653T272 617L132 90Q127 72 127 58Q127 51 130 46T143 37T168 31T210 26L204 0H-52L-45 26ZM399 716H374L294 826L156 716H127L286 880H311L399 716Z"  />
<glyph unicode="&#xCF;" horiz-adv-x="333" d="M-45 26Q0 27 24 35T56 71L196 598Q201 616 201 630Q201 644 186 651T123 662L130 688H380L373 662Q328 661 304 653T272 617L132 90Q127 72 127 58Q127 51 130 46T143 37T168 31T210 26L204 0H-52L-45 26ZM226 773Q226 757 214 746T186 734Q169 734 158 745T146 773Q146 790 157 802T186 814Q203 814 214 802T226 773ZM382 814Q399 814 410 802T422 773Q422 757 410 746T382 734Q365 734 354 745T342 773Q342 790 353 802T382 814Z"  />
<glyph unicode="&#xD0;" horiz-adv-x="704" d="M50 362L64 396H138L170 512Q179 544 188 572T197 624Q197 639 180 649T120 662L127 688H384Q468 688 523 663T611 596T657 503T670 398Q670 330 644 260T568 132T445 37T276 0H-59L-52 26Q-33 26 -16 27T14 34T37 50T52 78L129 362H50ZM203 362L138 122Q135 110 131 92T126 62Q126 42 142 34T187 26H245Q268 26 292 28T337 35T376 44T406 57Q460 88 496 137T555 241T586 350T596 445Q596 557 542 609T378 662Q350 662 331 659T299 647T278 625T265 593L212 396H426L412 362H203Z"  />
<glyph unicode="&#xD1;" horiz-adv-x="722" d="M-66 0L-59 26Q-23 26 3 32T38 66L163 506Q176 551 185 582T194 627Q194 643 174 648T112 662L119 688H251L503 122H505L626 574Q629 585 630 594T632 620Q632 631 625 638T606 649T580 656T550 662L555 688H780L773 662Q724 654 699 639T664 587L509 0H479L221 580H219L145 305Q119 210 100 145T81 61Q81 41 109 34T180 26L173 0H-66ZM329 740Q330 756 336 773T354 805T380 829T413 838Q433 838 453 831T493 815Q512 807 530 800T564 792Q587 792 597 806T613 840H635Q630 822 624 805T608 774T583 752T547 744Q533 744 514 751T475 767Q455 776 436 783T401 790Q381 790 367 774T351 740H329Z"  />
<glyph unicode="&#xD2;" horiz-adv-x="722" d="M677 398Q677 318 646 244T562 113T443 22T304 -12Q233 -12 184 13T103 82T58 183T44 304Q44 377 76 448T163 575T287 665T433 700Q493 700 539 673T615 602T661 504T677 398ZM603 450Q603 515 587 557T545 624T485 658T419 668Q372 668 332 649T258 597T198 519T154 423T127 318T118 210Q118 124 164 72T294 20Q354 20 400 43T481 104T539 189T576 284T597 375T603 450ZM502 716L370 823Q357 833 352 841T347 858Q347 867 355 875T373 884Q385 884 393 876T414 852L523 716H502Z"  />
<glyph unicode="&#xD3;" horiz-adv-x="722" d="M677 398Q677 318 646 244T562 113T443 22T304 -12Q233 -12 184 13T103 82T58 183T44 304Q44 377 76 448T163 575T287 665T433 700Q493 700 539 673T615 602T661 504T677 398ZM603 450Q603 515 587 557T545 624T485 658T419 668Q372 668 332 649T258 597T198 519T154 423T127 318T118 210Q118 124 164 72T294 20Q354 20 400 43T481 104T539 189T576 284T597 375T603 450ZM410 716L547 847Q564 863 573 869T593 876Q605 876 613 870T621 848Q621 832 601 820L434 716H410Z"  />
<glyph unicode="&#xD4;" horiz-adv-x="722" d="M677 398Q677 318 646 244T562 113T443 22T304 -12Q233 -12 184 13T103 82T58 183T44 304Q44 377 76 448T163 575T287 665T433 700Q493 700 539 673T615 602T661 504T677 398ZM603 450Q603 515 587 557T545 624T485 658T419 668Q372 668 332 649T258 597T198 519T154 423T127 318T118 210Q118 124 164 72T294 20Q354 20 400 43T481 104T539 189T576 284T597 375T603 450ZM594 716H569L489 826L351 716H322L481 880H506L594 716Z"  />
<glyph unicode="&#xD5;" horiz-adv-x="722" d="M677 398Q677 318 646 244T562 113T443 22T304 -12Q233 -12 184 13T103 82T58 183T44 304Q44 377 76 448T163 575T287 665T433 700Q493 700 539 673T615 602T661 504T677 398ZM603 450Q603 515 587 557T545 624T485 658T419 668Q372 668 332 649T258 597T198 519T154 423T127 318T118 210Q118 124 164 72T294 20Q354 20 400 43T481 104T539 189T576 284T597 375T603 450ZM329 740Q330 756 336 773T354 805T380 829T413 838Q433 838 453 831T493 815Q512 807 530 800T564 792Q587 792 597 806T613 840H635Q630 822 624 805T608 774T583 752T547 744Q533 744 514 751T475 767Q455 776 436 783T401 790Q381 790 367 774T351 740H329Z"  />
<glyph unicode="&#xD6;" horiz-adv-x="722" d="M677 398Q677 318 646 244T562 113T443 22T304 -12Q233 -12 184 13T103 82T58 183T44 304Q44 377 76 448T163 575T287 665T433 700Q493 700 539 673T615 602T661 504T677 398ZM603 450Q603 515 587 557T545 624T485 658T419 668Q372 668 332 649T258 597T198 519T154 423T127 318T118 210Q118 124 164 72T294 20Q354 20 400 43T481 104T539 189T576 284T597 375T603 450ZM421 773Q421 757 409 746T381 734Q364 734 353 745T341 773Q341 790 352 802T381 814Q398 814 409 802T421 773ZM577 814Q594 814 605 802T617 773Q617 757 605 746T577 734Q560 734 549 745T537 773Q537 790 548 802T577 814Z"  />
<glyph unicode="&#xD7;" horiz-adv-x="600" d="M65 438L97 470L300 268L503 470L535 438L332 235L535 32L503 0L300 203L97 0L65 32L267 235L65 438Z"  />
<glyph unicode="&#xD8;" horiz-adv-x="722" d="M210 37Q227 28 248 24T294 20Q354 20 400 43T481 104T539 189T576 284T597 375T603 450Q603 514 588 555T546 622L210 37ZM517 644Q494 658 469 663T419 668Q348 668 293 627T198 521T139 376T118 216Q118 104 179 57L517 644ZM565 655Q593 634 614 604T649 540T670 470T677 398Q677 318 646 244T562 113T443 22T304 -12Q272 -12 245 -7T194 10L128 -104H86L162 28Q151 37 131 54T92 102T58 175T44 280Q44 368 76 444T163 578T287 667T433 700Q490 700 535 675L586 764H628L565 655Z"  />
<glyph unicode="&#xD9;" horiz-adv-x="704" d="M753 688L747 662Q729 662 713 659T684 648T660 625T644 585L540 192Q511 85 445 37T284 -12Q183 -12 126 29T68 154Q68 192 81 235T107 319L152 475Q167 526 177 565T188 622Q188 631 186 638T176 650T153 659T113 662L120 688H365L358 662Q338 662 322 661T293 654T271 637T257 606L183 335Q163 261 151 214T138 134Q138 108 150 86T183 48T232 23T292 14Q377 14 430 58T512 205L593 497Q602 530 611 565T620 621Q620 630 614 638T596 651T571 659T542 662L549 688H753ZM499 716L367 823Q354 833 349 841T344 858Q344 867 352 875T370 884Q382 884 390 876T411 852L520 716H499Z"  />
<glyph unicode="&#xDA;" horiz-adv-x="704" d="M753 688L747 662Q729 662 713 659T684 648T660 625T644 585L540 192Q511 85 445 37T284 -12Q183 -12 126 29T68 154Q68 192 81 235T107 319L152 475Q167 526 177 565T188 622Q188 631 186 638T176 650T153 659T113 662L120 688H365L358 662Q338 662 322 661T293 654T271 637T257 606L183 335Q163 261 151 214T138 134Q138 108 150 86T183 48T232 23T292 14Q377 14 430 58T512 205L593 497Q602 530 611 565T620 621Q620 630 614 638T596 651T571 659T542 662L549 688H753ZM407 716L544 847Q561 863 570 869T590 876Q602 876 610 870T618 848Q618 832 598 820L431 716H407Z"  />
<glyph unicode="&#xDB;" horiz-adv-x="704" d="M753 688L747 662Q729 662 713 659T684 648T660 625T644 585L540 192Q511 85 445 37T284 -12Q183 -12 126 29T68 154Q68 192 81 235T107 319L152 475Q167 526 177 565T188 622Q188 631 186 638T176 650T153 659T113 662L120 688H365L358 662Q338 662 322 661T293 654T271 637T257 606L183 335Q163 261 151 214T138 134Q138 108 150 86T183 48T232 23T292 14Q377 14 430 58T512 205L593 497Q602 530 611 565T620 621Q620 630 614 638T596 651T571 659T542 662L549 688H753ZM591 716H566L486 826L348 716H319L478 880H503L591 716Z"  />
<glyph unicode="&#xDC;" horiz-adv-x="704" d="M753 688L747 662Q729 662 713 659T684 648T660 625T644 585L540 192Q511 85 445 37T284 -12Q183 -12 126 29T68 154Q68 192 81 235T107 319L152 475Q167 526 177 565T188 622Q188 631 186 638T176 650T153 659T113 662L120 688H365L358 662Q338 662 322 661T293 654T271 637T257 606L183 335Q163 261 151 214T138 134Q138 108 150 86T183 48T232 23T292 14Q377 14 430 58T512 205L593 497Q602 530 611 565T620 621Q620 630 614 638T596 651T571 659T542 662L549 688H753ZM418 773Q418 757 406 746T378 734Q361 734 350 745T338 773Q338 790 349 802T378 814Q395 814 406 802T418 773ZM574 814Q591 814 602 802T614 773Q614 757 602 746T574 734Q557 734 546 745T534 773Q534 790 545 802T574 814Z"  />
<glyph unicode="&#xDD;" horiz-adv-x="611" d="M354 688L347 662L275 658Q244 657 244 630Q244 617 247 605T254 580L323 332L548 586Q556 595 566 608T576 635Q576 652 554 655T481 662L488 688H712L705 662Q676 662 645 640T577 574L325 278L276 90Q271 72 271 58Q271 51 274 46T288 37T318 31T370 26L364 0H82L89 26Q142 27 167 35T200 71L261 299L171 614Q163 642 144 650T80 662L87 688H354ZM343 716L480 847Q497 863 506 869T526 876Q538 876 546 870T554 848Q554 832 534 820L367 716H343Z"  />
<glyph unicode="&#xDE;" horiz-adv-x="630" d="M196 598Q201 616 201 630Q201 644 186 651T123 662L130 688H380L373 662Q328 661 304 653T272 617L258 562Q291 564 317 564T370 564Q481 564 532 521T584 401Q584 350 563 310T501 242T405 199T278 184Q248 184 218 185T157 186L132 90Q127 72 127 58Q127 51 130 46T143 37T168 31T210 26L204 0H-52L-45 26Q0 27 24 35T56 71L196 598ZM166 218Q196 218 226 217T286 216Q389 216 449 267T510 411Q510 478 472 508T372 538Q340 538 309 535T247 521L166 218Z"  />
<glyph unicode="&#xDF;" horiz-adv-x="593" d="M32 444L39 470H113Q125 517 152 557T216 626T298 671T390 688Q412 688 442 681T499 657T545 613T564 548Q564 508 546 484T500 446T440 423T381 408T335 390T316 361Q316 343 331 330T368 303T416 276T464 244T501 203T516 147Q516 105 498 75T452 26T389 -3T319 -12Q292 -12 267 -5T222 15T192 47T180 92Q180 115 193 130T229 145Q251 145 260 134T270 108Q270 91 263 84T247 74T231 69T224 57Q224 46 232 38T254 24T284 17T314 14Q342 14 367 20T412 41T443 77T454 131Q454 159 440 178T404 213T357 241T311 268T275 301T260 347Q260 375 277 390T321 414T379 431T436 452T480 488T498 552Q498 581 487 601T459 635T419 655T374 662Q333 662 298 645T236 598T192 527T168 437L129 147Q123 98 105 41T55 -67T-22 -150T-128 -184Q-144 -184 -161 -181T-191 -169T-213 -149T-222 -118Q-222 -97 -210 -81T-172 -64Q-155 -64 -145 -73T-134 -103Q-134 -114 -139 -120T-152 -130T-164 -138T-170 -147Q-170 -153 -163 -157T-126 -162Q-92 -162 -62 -145T-9 -96T31 -21T54 74L106 444H32Z"  />
<glyph unicode="&#xE0;" horiz-adv-x="574" d="M415 470H476L402 173Q391 128 383 99T375 54Q375 38 383 26T410 14Q436 14 467 59T527 181L549 171Q540 147 527 115T496 55T455 8T400 -12Q355 -12 340 20T325 100L322 102Q307 81 290 61T252 24T207 -2T152 -12Q113 -12 87 3T44 43T20 101T12 170Q12 242 40 299T109 397T195 460T276 482Q302 482 320 472T352 446T373 409T386 367H388L415 470ZM276 456Q237 456 201 424T136 342T91 233T74 120Q74 78 94 46T157 14Q206 14 244 47T308 129T348 228T362 316Q362 343 358 368T344 412T318 444T276 456ZM370 532L238 639Q225 649 220 657T215 674Q215 683 223 691T241 700Q253 700 261 692T282 668L391 532H370Z"  />
<glyph unicode="&#xE1;" horiz-adv-x="574" d="M415 470H476L402 173Q391 128 383 99T375 54Q375 38 383 26T410 14Q436 14 467 59T527 181L549 171Q540 147 527 115T496 55T455 8T400 -12Q355 -12 340 20T325 100L322 102Q307 81 290 61T252 24T207 -2T152 -12Q113 -12 87 3T44 43T20 101T12 170Q12 242 40 299T109 397T195 460T276 482Q302 482 320 472T352 446T373 409T386 367H388L415 470ZM276 456Q237 456 201 424T136 342T91 233T74 120Q74 78 94 46T157 14Q206 14 244 47T308 129T348 228T362 316Q362 343 358 368T344 412T318 444T276 456ZM278 532L415 663Q432 679 441 685T461 692Q473 692 481 686T489 664Q489 648 469 636L302 532H278Z"  />
<glyph unicode="&#xE2;" horiz-adv-x="574" d="M415 470H476L402 173Q391 128 383 99T375 54Q375 38 383 26T410 14Q436 14 467 59T527 181L549 171Q540 147 527 115T496 55T455 8T400 -12Q355 -12 340 20T325 100L322 102Q307 81 290 61T252 24T207 -2T152 -12Q113 -12 87 3T44 43T20 101T12 170Q12 242 40 299T109 397T195 460T276 482Q302 482 320 472T352 446T373 409T386 367H388L415 470ZM276 456Q237 456 201 424T136 342T91 233T74 120Q74 78 94 46T157 14Q206 14 244 47T308 129T348 228T362 316Q362 343 358 368T344 412T318 444T276 456ZM462 532H437L357 642L219 532H190L349 696H374L462 532Z"  />
<glyph unicode="&#xE3;" horiz-adv-x="574" d="M415 470H476L402 173Q391 128 383 99T375 54Q375 38 383 26T410 14Q436 14 467 59T527 181L549 171Q540 147 527 115T496 55T455 8T400 -12Q355 -12 340 20T325 100L322 102Q307 81 290 61T252 24T207 -2T152 -12Q113 -12 87 3T44 43T20 101T12 170Q12 242 40 299T109 397T195 460T276 482Q302 482 320 472T352 446T373 409T386 367H388L415 470ZM276 456Q237 456 201 424T136 342T91 233T74 120Q74 78 94 46T157 14Q206 14 244 47T308 129T348 228T362 316Q362 343 358 368T344 412T318 444T276 456ZM197 556Q198 572 204 589T222 621T248 645T281 654Q301 654 321 647T361 631Q380 623 398 616T432 608Q455 608 465 622T481 656H503Q498 638 492 621T476 590T451 568T415 560Q401 560 382 567T343 583Q323 592 304 599T269 606Q249 606 235 590T219 556H197Z"  />
<glyph unicode="&#xE4;" horiz-adv-x="574" d="M415 470H476L402 173Q391 128 383 99T375 54Q375 38 383 26T410 14Q436 14 467 59T527 181L549 171Q540 147 527 115T496 55T455 8T400 -12Q355 -12 340 20T325 100L322 102Q307 81 290 61T252 24T207 -2T152 -12Q113 -12 87 3T44 43T20 101T12 170Q12 242 40 299T109 397T195 460T276 482Q302 482 320 472T352 446T373 409T386 367H388L415 470ZM276 456Q237 456 201 424T136 342T91 233T74 120Q74 78 94 46T157 14Q206 14 244 47T308 129T348 228T362 316Q362 343 358 368T344 412T318 444T276 456ZM289 589Q289 573 277 562T249 550Q232 550 221 561T209 589Q209 606 220 618T249 630Q266 630 277 618T289 589ZM445 630Q462 630 473 618T485 589Q485 573 473 562T445 550Q428 550 417 561T405 589Q405 606 416 618T445 630Z"  />
<glyph unicode="&#xE5;" horiz-adv-x="574" d="M415 470H476L402 173Q391 128 383 99T375 54Q375 38 383 26T410 14Q436 14 467 59T527 181L549 171Q540 147 527 115T496 55T455 8T400 -12Q355 -12 340 20T325 100L322 102Q307 81 290 61T252 24T207 -2T152 -12Q113 -12 87 3T44 43T20 101T12 170Q12 242 40 299T109 397T195 460T276 482Q302 482 320 472T352 446T373 409T386 367H388L415 470ZM276 456Q237 456 201 424T136 342T91 233T74 120Q74 78 94 46T157 14Q206 14 244 47T308 129T348 228T362 316Q362 343 358 368T344 412T318 444T276 456ZM342 529Q301 529 273 557T245 626Q245 646 252 663T273 694T304 715T342 723Q362 723 379 716T410 695T431 664T439 626Q439 606 432 588T411 557T380 537T342 529ZM342 693Q313 693 294 674T275 626Q275 597 294 578T342 559Q370 559 389 578T409 626Q409 654 390 673T342 693Z"  />
<glyph unicode="&#xE6;" horiz-adv-x="778" d="M684 394Q684 421 668 438T612 456Q569 456 535 434T474 379T428 305T397 228Q415 228 443 230T504 237T568 253T626 282T668 328T684 394ZM746 384Q746 348 727 321T678 273T610 240T532 218T456 206T393 202Q390 181 388 165T385 121Q385 101 391 82T409 48T439 24T482 14Q547 14 597 56T689 185L710 173Q675 88 618 38T482 -12Q441 -12 414 3T370 37T343 75T331 100Q325 95 310 77T270 39T215 4T146 -12Q116 -12 92 1T49 39T22 97T12 173Q12 235 36 291T100 389T186 457T280 482Q302 482 319 474T349 454T368 426T379 395H381L403 470H453L433 403L435 401Q477 435 525 458T630 482Q653 482 674 477T711 459T736 429T746 384ZM362 323Q362 346 358 370T344 413T318 444T278 456Q237 456 200 423T135 340T91 235T74 134Q74 76 91 45T150 14Q199 14 238 48T304 131T347 232T362 323Z"  />
<glyph unicode="&#xE7;" horiz-adv-x="463" d="M395 170Q380 131 358 98T307 40T245 2T174 -12L142 -65Q152 -63 161 -63T180 -64Q201 -64 221 -81T242 -133Q242 -154 232 -169T205 -193T167 -208T125 -213Q104 -213 83 -208T42 -193L58 -166Q73 -173 88 -178T121 -183Q144 -183 161 -171T178 -133Q178 -114 164 -104T133 -94Q122 -94 113 -96T94 -101L90 -96L144 -10Q86 1 52 51T18 184Q18 239 40 292T101 388T190 456T295 482Q353 482 385 458T418 391Q418 367 405 353T368 338Q352 338 340 348T328 375Q328 391 333 399T345 411T356 417T362 426Q362 436 348 446T304 456Q255 456 214 427T143 353T97 254T80 150Q80 121 84 97T101 54T132 25T182 14Q218 14 247 29T299 68T339 122T370 182L395 170Z"  />
<glyph unicode="&#xE8;" horiz-adv-x="481" d="M440 388Q440 352 423 325T378 278T314 245T238 222T160 209T88 204Q83 187 80 168T76 121Q76 70 102 42T177 14Q213 14 243 28T299 66T345 120T380 183L400 172Q387 136 365 103T313 45T250 4T179 -12Q100 -12 59 38T14 170Q12 234 39 290T111 388T212 456T325 482Q348 482 369 477T405 461T430 432T440 388ZM378 382Q379 418 364 437T311 456Q271 456 236 438T172 388T123 315T92 230Q156 231 208 241T297 271T356 319T378 382ZM370 532L238 639Q225 649 220 657T215 674Q215 683 223 691T241 700Q253 700 261 692T282 668L391 532H370Z"  />
<glyph unicode="&#xE9;" horiz-adv-x="481" d="M440 388Q440 352 423 325T378 278T314 245T238 222T160 209T88 204Q83 187 80 168T76 121Q76 70 102 42T177 14Q213 14 243 28T299 66T345 120T380 183L400 172Q387 136 365 103T313 45T250 4T179 -12Q100 -12 59 38T14 170Q12 234 39 290T111 388T212 456T325 482Q348 482 369 477T405 461T430 432T440 388ZM378 382Q379 418 364 437T311 456Q271 456 236 438T172 388T123 315T92 230Q156 231 208 241T297 271T356 319T378 382ZM278 532L415 663Q432 679 441 685T461 692Q473 692 481 686T489 664Q489 648 469 636L302 532H278Z"  />
<glyph unicode="&#xEA;" horiz-adv-x="481" d="M440 388Q440 352 423 325T378 278T314 245T238 222T160 209T88 204Q83 187 80 168T76 121Q76 70 102 42T177 14Q213 14 243 28T299 66T345 120T380 183L400 172Q387 136 365 103T313 45T250 4T179 -12Q100 -12 59 38T14 170Q12 234 39 290T111 388T212 456T325 482Q348 482 369 477T405 461T430 432T440 388ZM378 382Q379 418 364 437T311 456Q271 456 236 438T172 388T123 315T92 230Q156 231 208 241T297 271T356 319T378 382ZM462 532H437L357 642L219 532H190L349 696H374L462 532Z"  />
<glyph unicode="&#xEB;" horiz-adv-x="481" d="M440 388Q440 352 423 325T378 278T314 245T238 222T160 209T88 204Q83 187 80 168T76 121Q76 70 102 42T177 14Q213 14 243 28T299 66T345 120T380 183L400 172Q387 136 365 103T313 45T250 4T179 -12Q100 -12 59 38T14 170Q12 234 39 290T111 388T212 456T325 482Q348 482 369 477T405 461T430 432T440 388ZM378 382Q379 418 364 437T311 456Q271 456 236 438T172 388T123 315T92 230Q156 231 208 241T297 271T356 319T378 382ZM289 589Q289 573 277 562T249 550Q232 550 221 561T209 589Q209 606 220 618T249 630Q266 630 277 618T289 589ZM445 630Q462 630 473 618T485 589Q485 573 473 562T445 550Q428 550 417 561T405 589Q405 606 416 618T445 630Z"  />
<glyph unicode="&#xEC;" horiz-adv-x="370" d="M340 175Q323 130 306 96T268 37T222 1T164 -12Q132 -12 108 15T84 90Q84 113 92 142T114 202T143 266T171 326T193 377T202 414Q202 431 195 443T164 456Q132 456 98 419T30 296L7 303Q21 341 37 373T73 430T116 468T168 482Q213 482 232 457T252 391Q252 370 244 341T222 278T193 211T165 147T143 92T134 56Q134 32 147 23T178 14Q213 14 248 53T320 184L340 175ZM257 532L125 639Q112 649 107 657T102 674Q102 683 110 691T128 700Q140 700 148 692T169 668L278 532H257Z"  />
<glyph unicode="&#xED;" horiz-adv-x="370" d="M340 175Q323 130 306 96T268 37T222 1T164 -12Q132 -12 108 15T84 90Q84 113 92 142T114 202T143 266T171 326T193 377T202 414Q202 431 195 443T164 456Q132 456 98 419T30 296L7 303Q21 341 37 373T73 430T116 468T168 482Q213 482 232 457T252 391Q252 370 244 341T222 278T193 211T165 147T143 92T134 56Q134 32 147 23T178 14Q213 14 248 53T320 184L340 175ZM165 532L302 663Q319 679 328 685T348 692Q360 692 368 686T376 664Q376 648 356 636L189 532H165Z"  />
<glyph unicode="&#xEE;" horiz-adv-x="370" d="M340 175Q323 130 306 96T268 37T222 1T164 -12Q132 -12 108 15T84 90Q84 113 92 142T114 202T143 266T171 326T193 377T202 414Q202 431 195 443T164 456Q132 456 98 419T30 296L7 303Q21 341 37 373T73 430T116 468T168 482Q213 482 232 457T252 391Q252 370 244 341T222 278T193 211T165 147T143 92T134 56Q134 32 147 23T178 14Q213 14 248 53T320 184L340 175ZM349 532H324L244 642L106 532H77L236 696H261L349 532Z"  />
<glyph unicode="&#xEF;" horiz-adv-x="370" d="M340 175Q323 130 306 96T268 37T222 1T164 -12Q132 -12 108 15T84 90Q84 113 92 142T114 202T143 266T171 326T193 377T202 414Q202 431 195 443T164 456Q132 456 98 419T30 296L7 303Q21 341 37 373T73 430T116 468T168 482Q213 482 232 457T252 391Q252 370 244 341T222 278T193 211T165 147T143 92T134 56Q134 32 147 23T178 14Q213 14 248 53T320 184L340 175ZM176 589Q176 573 164 562T136 550Q119 550 108 561T96 589Q96 606 107 618T136 630Q153 630 164 618T176 589ZM332 630Q349 630 360 618T372 589Q372 573 360 562T332 550Q315 550 304 561T292 589Q292 606 303 618T332 630Z"  />
<glyph unicode="&#xF0;" horiz-adv-x="519" d="M398 316Q398 343 393 368T376 412T342 444T289 456Q235 456 196 426T131 349T93 250T80 152Q80 124 85 99T103 55T137 25T190 14Q242 14 281 44T346 121T385 219T398 316ZM293 618Q250 646 190 654L202 680Q239 676 269 666T326 638L430 700L449 681L349 620Q379 594 400 560T435 486T454 401T460 312Q460 253 442 195T389 91T305 17T195 -12Q148 -12 115 5T60 52T28 120T18 201Q18 252 40 302T98 393T183 457T284 482Q311 482 340 474T386 450L388 452Q383 500 365 537T316 600L210 536L191 556L293 618Z"  />
<glyph unicode="&#xF1;" horiz-adv-x="648" d="M-15 310Q-5 338 10 368T45 424T91 466T146 482Q188 482 206 456T224 381Q224 353 221 327T212 274L214 272Q232 303 254 339T305 407T366 460T439 482Q491 482 512 457T534 391Q534 370 526 341T504 278T475 211T447 147T425 92T416 56Q416 36 429 25T459 14Q488 14 527 53T602 184L622 175Q591 89 548 39T446 -12Q416 -12 391 15T366 90Q366 124 384 170T425 261T465 348T484 414Q484 437 474 446T432 456Q403 456 375 438T319 390T267 319T221 236T184 148T156 65L138 0H76L174 363Q177 374 179 387T182 412Q182 456 142 456Q118 456 98 442T61 405T32 356T10 304L-15 310ZM234 556Q235 572 241 589T259 621T285 645T318 654Q338 654 358 647T398 631Q417 623 435 616T469 608Q492 608 502 622T518 656H540Q535 638 529 621T513 590T488 568T452 560Q438 560 419 567T380 583Q360 592 341 599T306 606Q286 606 272 590T256 556H234Z"  />
<glyph unicode="&#xF2;" horiz-adv-x="519" d="M398 316Q398 343 393 368T376 412T342 444T289 456Q235 456 196 426T131 351T93 258T80 172Q80 135 85 106T103 57T137 25T190 14Q242 14 281 44T346 121T385 219T398 316ZM460 283Q460 231 439 179T381 84T295 15T188 -12Q146 -12 114 5T61 50T29 113T18 184Q18 245 40 299T98 393T183 458T284 482Q325 482 358 466T413 422T448 358T460 283ZM354 532L222 639Q209 649 204 657T199 674Q199 683 207 691T225 700Q237 700 245 692T266 668L375 532H354Z"  />
<glyph unicode="&#xF3;" horiz-adv-x="519" d="M398 316Q398 343 393 368T376 412T342 444T289 456Q235 456 196 426T131 351T93 258T80 172Q80 135 85 106T103 57T137 25T190 14Q242 14 281 44T346 121T385 219T398 316ZM460 283Q460 231 439 179T381 84T295 15T188 -12Q146 -12 114 5T61 50T29 113T18 184Q18 245 40 299T98 393T183 458T284 482Q325 482 358 466T413 422T448 358T460 283ZM262 532L399 663Q416 679 425 685T445 692Q457 692 465 686T473 664Q473 648 453 636L286 532H262Z"  />
<glyph unicode="&#xF4;" horiz-adv-x="519" d="M398 316Q398 343 393 368T376 412T342 444T289 456Q235 456 196 426T131 351T93 258T80 172Q80 135 85 106T103 57T137 25T190 14Q242 14 281 44T346 121T385 219T398 316ZM460 283Q460 231 439 179T381 84T295 15T188 -12Q146 -12 114 5T61 50T29 113T18 184Q18 245 40 299T98 393T183 458T284 482Q325 482 358 466T413 422T448 358T460 283ZM446 532H421L341 642L203 532H174L333 696H358L446 532Z"  />
<glyph unicode="&#xF5;" horiz-adv-x="519" d="M398 316Q398 343 393 368T376 412T342 444T289 456Q235 456 196 426T131 351T93 258T80 172Q80 135 85 106T103 57T137 25T190 14Q242 14 281 44T346 121T385 219T398 316ZM460 283Q460 231 439 179T381 84T295 15T188 -12Q146 -12 114 5T61 50T29 113T18 184Q18 245 40 299T98 393T183 458T284 482Q325 482 358 466T413 422T448 358T460 283ZM181 556Q182 572 188 589T206 621T232 645T265 654Q285 654 305 647T345 631Q364 623 382 616T416 608Q439 608 449 622T465 656H487Q482 638 476 621T460 590T435 568T399 560Q385 560 366 567T327 583Q307 592 288 599T253 606Q233 606 219 590T203 556H181Z"  />
<glyph unicode="&#xF6;" horiz-adv-x="519" d="M398 316Q398 343 393 368T376 412T342 444T289 456Q235 456 196 426T131 351T93 258T80 172Q80 135 85 106T103 57T137 25T190 14Q242 14 281 44T346 121T385 219T398 316ZM460 283Q460 231 439 179T381 84T295 15T188 -12Q146 -12 114 5T61 50T29 113T18 184Q18 245 40 299T98 393T183 458T284 482Q325 482 358 466T413 422T448 358T460 283ZM273 589Q273 573 261 562T233 550Q216 550 205 561T193 589Q193 606 204 618T233 630Q250 630 261 618T273 589ZM429 630Q446 630 457 618T469 589Q469 573 457 562T429 550Q412 550 401 561T389 589Q389 606 400 618T429 630Z"  />
<glyph unicode="&#xF7;" horiz-adv-x="600" d="M65 212V258H535V212H65ZM249 426Q249 447 264 462T301 478Q322 478 337 462T353 426Q353 406 338 390T302 374Q280 374 265 389T249 426ZM249 42Q249 64 264 79T301 94Q322 94 337 79T353 42Q353 22 338 6T302 -10Q280 -10 265 5T249 42Z"  />
<glyph unicode="&#xF8;" horiz-adv-x="519" d="M134 29Q156 14 196 14Q248 14 287 44T352 121T391 219T404 316Q404 345 398 372T377 418L134 29ZM18 -100L94 23Q57 52 41 99T24 201Q24 252 46 302T104 393T189 457T290 482Q331 482 369 463L427 556H463L395 446Q429 418 447 375T466 283Q466 231 445 179T388 84T304 15T201 -12Q155 -12 120 7L53 -100H18ZM354 440Q332 456 295 456Q241 456 202 426T137 352T99 255T86 160Q86 124 91 96T111 50L354 440Z"  />
<glyph unicode="&#xF9;" horiz-adv-x="648" d="M547 470L457 132Q453 117 447 94T440 54Q440 37 446 26T472 14Q487 14 504 27T539 64T571 117T598 183L620 176Q606 131 588 96T548 37T505 1T462 -12Q442 -12 429 -4T407 17T394 48T390 82Q390 99 392 117T396 152L394 154Q369 116 347 86T300 34T249 0T189 -12Q138 -12 113 19T87 98Q87 135 103 179T138 266T174 346T190 407Q190 432 179 444T148 456Q129 456 114 446T85 417T56 370T24 307L2 317Q15 344 29 373T60 427T101 466T155 482Q197 482 218 454T240 378Q240 341 224 297T189 211T153 131T137 72Q137 41 152 28T193 14Q220 14 246 28T295 64T339 113T374 167T400 217T416 256L484 470H547ZM419 532L287 639Q274 649 269 657T264 674Q264 683 272 691T290 700Q302 700 310 692T331 668L440 532H419Z"  />
<glyph unicode="&#xFA;" horiz-adv-x="648" d="M547 470L457 132Q453 117 447 94T440 54Q440 37 446 26T472 14Q487 14 504 27T539 64T571 117T598 183L620 176Q606 131 588 96T548 37T505 1T462 -12Q442 -12 429 -4T407 17T394 48T390 82Q390 99 392 117T396 152L394 154Q369 116 347 86T300 34T249 0T189 -12Q138 -12 113 19T87 98Q87 135 103 179T138 266T174 346T190 407Q190 432 179 444T148 456Q129 456 114 446T85 417T56 370T24 307L2 317Q15 344 29 373T60 427T101 466T155 482Q197 482 218 454T240 378Q240 341 224 297T189 211T153 131T137 72Q137 41 152 28T193 14Q220 14 246 28T295 64T339 113T374 167T400 217T416 256L484 470H547ZM327 532L464 663Q481 679 490 685T510 692Q522 692 530 686T538 664Q538 648 518 636L351 532H327Z"  />
<glyph unicode="&#xFB;" horiz-adv-x="648" d="M547 470L457 132Q453 117 447 94T440 54Q440 37 446 26T472 14Q487 14 504 27T539 64T571 117T598 183L620 176Q606 131 588 96T548 37T505 1T462 -12Q442 -12 429 -4T407 17T394 48T390 82Q390 99 392 117T396 152L394 154Q369 116 347 86T300 34T249 0T189 -12Q138 -12 113 19T87 98Q87 135 103 179T138 266T174 346T190 407Q190 432 179 444T148 456Q129 456 114 446T85 417T56 370T24 307L2 317Q15 344 29 373T60 427T101 466T155 482Q197 482 218 454T240 378Q240 341 224 297T189 211T153 131T137 72Q137 41 152 28T193 14Q220 14 246 28T295 64T339 113T374 167T400 217T416 256L484 470H547ZM511 532H486L406 642L268 532H239L398 696H423L511 532Z"  />
<glyph unicode="&#xFC;" horiz-adv-x="648" d="M547 470L457 132Q453 117 447 94T440 54Q440 37 446 26T472 14Q487 14 504 27T539 64T571 117T598 183L620 176Q606 131 588 96T548 37T505 1T462 -12Q442 -12 429 -4T407 17T394 48T390 82Q390 99 392 117T396 152L394 154Q369 116 347 86T300 34T249 0T189 -12Q138 -12 113 19T87 98Q87 135 103 179T138 266T174 346T190 407Q190 432 179 444T148 456Q129 456 114 446T85 417T56 370T24 307L2 317Q15 344 29 373T60 427T101 466T155 482Q197 482 218 454T240 378Q240 341 224 297T189 211T153 131T137 72Q137 41 152 28T193 14Q220 14 246 28T295 64T339 113T374 167T400 217T416 256L484 470H547ZM338 589Q338 573 326 562T298 550Q281 550 270 561T258 589Q258 606 269 618T298 630Q315 630 326 618T338 589ZM494 630Q511 630 522 618T534 589Q534 573 522 562T494 550Q477 550 466 561T454 589Q454 606 465 618T494 630Z"  />
<glyph unicode="&#xFD;" horiz-adv-x="556" d="M512 470L390 7Q374 -54 342 -91T274 -149T200 -177T138 -184Q77 -184 42 -157T6 -92Q6 -70 20 -57T56 -44Q72 -44 83 -52T95 -77Q95 -92 89 -98T74 -108T59 -114T52 -125Q52 -144 73 -151T124 -158Q184 -158 222 -140T285 -89T325 -12T355 85L377 167L375 169Q360 142 341 111T298 52T244 6T178 -12Q160 -12 144 -5T114 17T92 54T84 108Q84 140 100 182T137 267T174 349T191 417Q191 434 181 445T153 456Q130 456 110 439T74 397T47 347T29 305L8 312Q15 333 28 362T61 418T104 463T155 482Q169 482 183 478T208 462T226 432T233 386Q233 351 218 309T184 223T150 140T134 70Q134 45 147 30T187 14Q218 14 246 35T298 88T342 157T377 227Q391 257 403 292T426 362T443 424T456 470H512ZM281 532L418 663Q435 679 444 685T464 692Q476 692 484 686T492 664Q492 648 472 636L305 532H281Z"  />
<glyph unicode="&#xFE;" horiz-adv-x="593" d="M-56 -172L-49 -146Q-31 -146 -14 -144T19 -135T45 -117T60 -88L201 502Q204 517 209 534T218 569T225 600T228 622Q228 632 222 637T205 646T184 649T162 650L170 676H312L238 378H240Q249 391 264 409T299 443T343 470T393 482Q425 482 452 468T498 429T529 369T540 293Q540 233 516 178T453 80T370 13T282 -12Q251 -12 230 -2T196 25T175 61T163 99H161L120 -77Q118 -86 116 -95T114 -115Q114 -133 134 -138T199 -146L192 -172H-56ZM478 336Q478 357 475 378T461 417T435 445T391 456Q364 456 339 441T291 400T249 341T215 274T193 205T185 144Q185 120 190 97T206 55T234 26T276 14Q317 14 354 39T418 109T462 211T478 336Z"  />
<glyph unicode="&#xFF;" horiz-adv-x="556" d="M512 470L390 7Q374 -54 342 -91T274 -149T200 -177T138 -184Q77 -184 42 -157T6 -92Q6 -70 20 -57T56 -44Q72 -44 83 -52T95 -77Q95 -92 89 -98T74 -108T59 -114T52 -125Q52 -144 73 -151T124 -158Q184 -158 222 -140T285 -89T325 -12T355 85L377 167L375 169Q360 142 341 111T298 52T244 6T178 -12Q160 -12 144 -5T114 17T92 54T84 108Q84 140 100 182T137 267T174 349T191 417Q191 434 181 445T153 456Q130 456 110 439T74 397T47 347T29 305L8 312Q15 333 28 362T61 418T104 463T155 482Q169 482 183 478T208 462T226 432T233 386Q233 351 218 309T184 223T150 140T134 70Q134 45 147 30T187 14Q218 14 246 35T298 88T342 157T377 227Q391 257 403 292T426 362T443 424T456 470H512ZM292 589Q292 573 280 562T252 550Q235 550 224 561T212 589Q212 606 223 618T252 630Q269 630 280 618T292 589ZM448 630Q465 630 476 618T488 589Q488 573 476 562T448 550Q431 550 420 561T408 589Q408 606 419 618T448 630Z"  />
<glyph unicode="&#x131;" horiz-adv-x="370" d="M340 175Q323 130 306 96T268 37T222 1T164 -12Q132 -12 108 15T84 90Q84 113 92 142T114 202T143 266T171 326T193 377T202 414Q202 431 195 443T164 456Q132 456 98 419T30 296L7 303Q21 341 37 373T73 430T116 468T168 482Q213 482 232 457T252 391Q252 370 244 341T222 278T193 211T165 147T143 92T134 56Q134 32 147 23T178 14Q213 14 248 53T320 184L340 175Z"  />
<glyph unicode="&#x152;" horiz-adv-x="944" d="M796 0H456Q432 0 409 -2T362 -6Q342 -7 326 -9T288 -12Q236 -12 192 4T116 57T65 151T46 292Q46 383 78 458T160 587T272 670T391 700Q415 700 437 698T480 694Q501 692 521 690T562 688H943L900 450H876Q878 467 879 482T880 512Q880 555 871 584T843 630T794 655T721 662Q692 662 671 660T634 649T608 622T589 570L542 374H579Q611 374 633 381T671 404T698 443T718 500H740L673 219H653V263Q653 304 640 323T587 342H533L480 135Q475 118 473 101T470 66Q470 52 474 44T490 32T519 27T565 26Q631 26 674 38T747 78T794 147T830 249H856L796 0ZM515 548Q524 584 515 608T488 647T444 668T394 674Q346 674 306 654T235 599T179 520T140 424T116 323T108 224Q108 127 148 74T262 20Q334 20 368 54T420 161L515 548Z"  />
<glyph unicode="&#x153;" horiz-adv-x="796" d="M716 383Q717 403 711 417T696 440T674 453T648 458Q603 458 568 436T507 379T463 305T433 228Q452 228 479 231T538 241T600 259T657 288T699 328T716 383ZM742 174Q730 139 708 106T657 46T592 4T517 -12Q472 -12 431 12T375 82Q337 40 287 14T189 -12Q144 -12 111 3T56 45T23 108T12 188Q12 250 34 304T92 397T177 459T278 482Q332 482 375 455T436 374V373Q436 372 437 371Q484 418 539 450T663 482Q686 482 707 477T743 459T768 429T778 384Q778 349 760 322T711 275T642 241T564 219T489 206T426 202Q423 181 421 165T418 121Q418 101 424 82T442 48T472 24T515 14Q553 14 584 29T640 68T686 122T722 185L742 174ZM74 160Q74 89 97 52T184 14Q236 14 275 44T340 121T379 219T392 316Q392 343 387 368T370 412T336 444T283 456Q229 456 190 426T125 352T87 255T74 160Z"  />
<glyph unicode="&#x160;" horiz-adv-x="574" d="M486 510Q486 534 480 562T458 616T414 657T341 674Q311 674 284 664T235 636T202 592T190 534Q190 494 210 469T262 423T329 385T397 342T448 284T469 197Q469 151 449 113T394 47T314 4T219 -12Q189 -12 165 -8T121 5T81 27T43 61L2 4H-21L39 247H63Q61 226 60 205T59 163Q59 92 98 53T209 14Q293 14 344 56T395 182Q395 224 375 252T323 301T256 340T188 380T137 431T116 504Q116 556 139 593T196 654T270 689T343 700Q389 700 427 679T494 623L528 680H553L506 444H486V510ZM266 872H291L371 762L509 872H538L379 708H354L266 872Z"  />
<glyph unicode="&#x161;" horiz-adv-x="426" d="M67 344Q67 377 80 402T117 446T174 473T248 482Q285 482 310 473T350 451T371 424T378 399Q378 379 367 364T333 349Q318 349 306 356T294 381Q294 395 300 401T313 411T326 415T332 419Q332 429 322 436T297 448T269 454T248 456Q228 456 207 451T168 435T140 407T129 364Q129 337 145 320T185 289T237 263T290 236T330 198T346 141Q346 99 325 70T272 22T205 -4T141 -12Q116 -12 90 -7T43 11T8 44T-6 94Q-6 117 6 132T43 148Q59 148 71 140T83 114Q83 97 76 91T59 82T42 77T34 67Q34 60 40 51T59 34T93 20T142 14Q169 14 194 21T238 41T268 75T280 121Q280 146 264 163T225 195T174 222T123 251T83 289T67 344ZM157 688H182L262 578L400 688H429L270 524H245L157 688Z"  />
<glyph unicode="&#x178;" horiz-adv-x="611" d="M354 688L347 662L275 658Q244 657 244 630Q244 617 247 605T254 580L323 332L548 586Q556 595 566 608T576 635Q576 652 554 655T481 662L488 688H712L705 662Q676 662 645 640T577 574L325 278L276 90Q271 72 271 58Q271 51 274 46T288 37T318 31T370 26L364 0H82L89 26Q142 27 167 35T200 71L261 299L171 614Q163 642 144 650T80 662L87 688H354ZM354 773Q354 757 342 746T314 734Q297 734 286 745T274 773Q274 790 285 802T314 814Q331 814 342 802T354 773ZM510 814Q527 814 538 802T550 773Q550 757 538 746T510 734Q493 734 482 745T470 773Q470 790 481 802T510 814Z"  />
<glyph unicode="&#x17D;" horiz-adv-x="593" d="M447 0H-22L-18 30L511 662H415Q357 662 313 651T236 615T179 548T135 445L109 450L176 688H604L596 656L71 26H222Q277 26 317 39T389 80T445 148T493 244L517 239L447 0ZM275 872H300L380 762L518 872H547L388 708H363L275 872Z"  />
<glyph unicode="&#x17E;" horiz-adv-x="500" d="M50 315Q59 344 73 374T108 428T154 467T208 482Q238 482 258 468T295 436T330 405T374 390Q400 390 411 399T422 425Q422 432 420 437T418 451Q418 463 424 469T441 476Q454 476 461 468T468 440Q468 413 453 389T411 340T344 291T257 239Q179 194 122 161T30 110L32 108Q50 116 65 121T102 126Q135 126 158 113T201 84T239 55T281 42Q308 42 329 56T365 91T390 138T407 185L428 181Q421 147 406 113T366 51T311 6T241 -12Q206 -12 182 4T139 39T102 74T63 90Q44 90 33 83T22 62Q22 54 26 46T30 29Q30 18 24 9T3 0Q-14 0 -19 12T-24 41Q-24 62 -11 90T40 142Q88 173 143 205T251 267T347 324T413 373L411 375Q394 369 376 364T332 358Q309 358 288 369T248 393T211 417T178 428Q155 428 139 416T109 386T87 346T71 307L50 315ZM194 688H219L299 578L437 688H466L307 524H282L194 688Z"  />
<glyph unicode="&#x192;" horiz-adv-x="556" d="M142 430L153 460H263L275 510Q284 549 300 583T339 644T393 685T465 700Q500 700 525 683T550 635Q550 607 534 591T496 574Q479 574 468 585T456 614Q456 629 464 641T485 661Q480 669 471 671T454 674Q433 674 417 662T388 630T367 586T352 538L333 460H447L436 430H323L227 34Q211 -32 189 -74T141 -141T85 -174T23 -184Q9 -184 -5 -179T-31 -166T-50 -147T-58 -121Q-58 -98 -45 -81T-6 -64Q14 -64 25 -75T36 -107Q36 -136 10 -148Q23 -158 37 -158Q60 -158 78 -146T110 -113T134 -63T153 -1L253 430H142Z"  />
<glyph unicode="&#x2C6;" horiz-adv-x="333" d="M353 532H328L248 642L110 532H81L240 696H265L353 532Z"  />
<glyph unicode="&#x2C7;" horiz-adv-x="333" d="M110 688H135L215 578L353 688H382L223 524H198L110 688Z"  />
<glyph unicode="&#x2DA;" horiz-adv-x="333" d="M233 529Q192 529 164 557T136 626Q136 646 143 663T164 694T195 715T233 723Q253 723 270 716T301 695T322 664T330 626Q330 606 323 588T302 557T271 537T233 529ZM233 693Q204 693 185 674T166 626Q166 597 185 578T233 559Q261 559 280 578T300 626Q300 654 281 673T233 693Z"  />
<glyph unicode="&#x2DC;" horiz-adv-x="333" d="M88 556Q89 572 95 589T113 621T139 645T172 654Q192 654 212 647T252 631Q271 623 289 616T323 608Q346 608 356 622T372 656H394Q389 638 383 621T367 590T342 568T306 560Q292 560 273 567T234 583Q214 592 195 599T160 606Q140 606 126 590T110 556H88Z"  />
<glyph unicode="&#x2013;" horiz-adv-x="500" d="M7 257H507L493 211H-7L7 257Z"  />
<glyph unicode="&#x2014;" horiz-adv-x="1000" d="M14 257H1007L986 211H-7L14 257Z"  />
<glyph unicode="&#x2018;" horiz-adv-x="241" d="M261 696Q248 685 231 670T199 635T173 595T162 551Q162 545 163 540T169 534Q194 534 207 519T221 481Q221 466 208 453T174 440Q158 440 147 446T129 462T119 484T116 510Q116 546 127 575T155 629T195 674T239 714L261 696Z"  />
<glyph unicode="&#x2019;" horiz-adv-x="241" d="M74 432Q87 443 104 458T136 493T162 533T173 577Q173 583 172 588T166 594Q141 594 128 609T114 647Q114 662 127 675T161 688Q177 688 188 682T206 666T216 644T219 618Q219 582 208 553T180 499T140 454T96 414L74 432Z"  />
<glyph unicode="&#x201A;" horiz-adv-x="241" d="M-66 -164Q-53 -153 -36 -138T-4 -103T22 -63T33 -19Q33 -13 32 -8T26 -2Q1 -2 -12 13T-26 51Q-26 66 -13 79T21 92Q37 92 48 86T66 70T76 48T79 22Q79 -14 68 -43T40 -97T0 -142T-44 -182L-66 -164Z"  />
<glyph unicode="&#x201C;" horiz-adv-x="426" d="M446 694Q433 683 416 668T384 633T358 593T347 549Q347 543 348 538T354 532Q379 532 392 517T406 479Q406 464 393 451T359 438Q343 438 332 444T314 460T304 482T301 508Q301 544 312 573T340 627T380 672T424 712L446 694ZM242 694Q229 683 212 668T180 633T154 593T143 549Q143 543 144 538T150 532Q175 532 188 517T202 479Q202 464 189 451T155 438Q139 438 128 444T110 460T100 482T97 508Q97 544 108 573T136 627T176 672T220 712L242 694Z"  />
<glyph unicode="&#x201D;" horiz-adv-x="426" d="M74 432Q87 443 104 458T136 493T162 533T173 577Q173 583 172 588T166 594Q141 594 128 609T114 647Q114 662 127 675T161 688Q177 688 188 682T206 666T216 644T219 618Q219 582 208 553T180 499T140 454T96 414L74 432ZM278 432Q291 443 308 458T340 493T366 533T377 577Q377 583 376 588T370 594Q345 594 332 609T318 647Q318 662 331 675T365 688Q381 688 392 682T410 666T420 644T423 618Q423 582 412 553T384 499T344 454T300 414L278 432Z"  />
<glyph unicode="&#x201E;" horiz-adv-x="426" d="M-66 -164Q-53 -153 -36 -138T-4 -103T22 -63T33 -19Q33 -13 32 -8T26 -2Q1 -2 -12 13T-26 51Q-26 66 -13 79T21 92Q37 92 48 86T66 70T76 48T79 22Q79 -14 68 -43T40 -97T0 -142T-44 -182L-66 -164ZM138 -164Q151 -153 168 -138T200 -103T226 -63T237 -19Q237 -13 236 -8T230 -2Q205 -2 192 13T178 51Q178 66 191 79T225 92Q241 92 252 86T270 70T280 48T283 22Q283 -14 272 -43T244 -97T204 -142T160 -182L138 -164Z"  />
<glyph unicode="&#x2020;" horiz-adv-x="500" d="M111 -126Q132 -51 146 6T170 111T184 204T194 298Q224 338 239 376T266 460H243Q224 460 210 455T184 444T158 433T126 428Q106 428 95 440T83 468Q83 489 97 497T131 506Q145 506 156 502T179 492T206 483T244 478H271Q274 494 279 516T285 552Q285 581 282 605T279 648Q279 671 293 685T328 700Q347 700 356 688T365 658Q365 643 356 626T334 589T311 552T297 517L289 478Q329 478 352 482T391 492T416 501T438 506Q457 506 464 495T472 466Q472 448 460 438T432 428Q418 428 408 432T384 443T347 454T285 460Q279 431 273 403T266 345Q266 331 267 315T269 289Q249 260 231 210T195 102T163 -16T133 -126H111Z"  />
<glyph unicode="&#x2021;" horiz-adv-x="500" d="M472 466Q472 448 460 438T432 428Q418 428 408 432T384 443T347 454T285 460Q277 428 272 398T266 345Q266 331 267 315T269 289Q252 272 239 250T217 202T201 152T191 104H214Q233 104 247 109T273 120T299 131T331 136Q351 136 362 124T374 96Q374 75 360 67T326 58Q312 58 301 62T278 72T251 81T213 86H186Q183 70 178 48T172 12Q172 -17 175 -41T178 -84Q178 -107 164 -121T129 -136Q110 -136 101 -124T92 -94Q92 -79 101 -62T123 -25T146 12T160 47L168 86Q128 86 105 82T66 72T41 63T19 58Q0 58 -7 69T-15 98Q-15 116 -3 126T25 136Q39 136 49 132T73 121T110 110T172 104Q178 124 182 148T189 199T193 251T194 298Q224 338 239 376T266 460H243Q224 460 210 455T184 444T158 433T126 428Q106 428 95 440T83 468Q83 489 97 497T131 506Q145 506 156 502T179 492T206 483T244 478H271Q274 494 279 516T285 552Q285 581 282 605T279 648Q279 671 293 685T328 700Q347 700 356 688T365 658Q365 643 356 626T334 589T311 552T297 517L289 478Q329 478 352 482T391 492T416 501T438 506Q457 506 464 495T472 466Z"  />
<glyph unicode="&#x2022;" horiz-adv-x="500" d="M425 350Q425 314 412 282T374 226T318 189T250 175Q214 175 182 188T127 225T89 281T75 350Q75 386 88 418T125 474T181 511T250 525Q286 525 318 512T374 474T411 418T425 350Z"  />
<glyph unicode="&#x2026;" horiz-adv-x="1000" d="M136 35Q136 17 124 4T92 -10Q73 -10 61 3T48 35Q48 53 60 66T92 80Q111 80 123 67T136 35ZM469 35Q469 17 457 4T425 -10Q406 -10 394 3T381 35Q381 53 393 66T425 80Q444 80 456 67T469 35ZM802 35Q802 17 790 4T758 -10Q739 -10 727 3T714 35Q714 53 726 66T758 80Q777 80 789 67T802 35Z"  />
<glyph unicode="&#x2030;" horiz-adv-x="1000" d="M325 535Q325 496 311 452T271 370T209 308T128 283Q101 283 83 296T53 328T37 372T32 419Q32 456 46 501T85 585T146 650T224 676Q252 676 271 663T303 630T320 584T325 535ZM131 303Q155 303 175 318T212 357T242 412T263 473T276 531T281 577Q281 607 269 631T221 656Q199 656 180 640T144 599T115 543T94 480T81 422T76 378Q76 365 79 352T88 328T105 310T131 303ZM357 134Q357 172 371 217T410 300T470 365T550 391Q578 391 597 378T628 344T645 298T650 250Q650 211 637 168T598 87T538 25T458 0Q429 0 410 11T379 40T362 83T357 134ZM457 20Q493 20 521 52T567 128T596 219T606 293Q606 324 594 347T546 371Q523 371 504 355T468 314T440 258T419 196T406 138T401 94Q401 80 404 67T413 44T430 27T457 20ZM682 134Q682 171 695 216T734 300T794 365T874 391Q903 391 922 378T953 345T969 299T974 250Q974 211 961 168T922 87T862 25T782 0Q752 0 733 11T703 41T687 84T682 134ZM781 20Q817 20 845 52T891 128T920 219T930 293Q930 324 918 347T870 371Q847 371 828 355T792 314T764 258T744 196T731 138T726 94Q726 80 728 67T737 44T754 27T781 20ZM526 688H564L156 -12H120L526 688Z"  />
<glyph unicode="&#x2039;" horiz-adv-x="333" d="M192 104Q197 94 201 87T205 74Q205 66 195 66Q188 66 183 72T170 87L48 243L235 404Q249 416 256 423T270 430Q280 430 280 421Q280 414 274 407T254 385L119 243L192 104Z"  />
<glyph unicode="&#x203A;" horiz-adv-x="333" d="M112 392Q107 402 103 409T99 422Q99 430 109 430Q116 430 121 424T134 409L256 253L69 92Q55 80 48 73T34 66Q24 66 24 75Q24 82 30 89T50 111L185 253L112 392Z"  />
<glyph unicode="&#x20AC;" horiz-adv-x="556" d="M370 278H139Q138 265 138 253T137 230Q137 193 141 156T160 88T201 38T274 18Q315 18 346 36T402 82T443 144T472 212L503 200Q488 158 468 120T421 52T357 5T273 -12Q214 -12 175 14T113 83T79 176T69 277V278H-4L4 308H70Q74 351 90 403H19L27 433H100Q119 484 148 532T215 617T299 677T396 700Q437 700 473 680T533 626L563 680H590L550 482H522Q522 487 522 491T523 501Q523 532 516 563T494 618T453 658T391 673Q347 673 312 653T249 600T201 523T167 433H411L403 403H159Q153 379 149 355T142 308H378L370 278Z"  />
<glyph unicode="&#x2122;" horiz-adv-x="1000" d="M279 363Q279 331 291 318T329 304V284H173V304Q199 304 211 317T223 363V668H171Q139 668 122 655T104 600H84V688H418V600H398Q398 641 381 654T331 668H279V363ZM558 596H556V365Q556 334 566 319T609 304V284H479V304Q511 304 521 319T532 365V621Q532 636 526 645T509 659T486 666T464 668V688H573L734 366L901 688H993V668Q962 668 949 656T936 626V360Q936 331 945 318T986 304V284H831V304Q857 304 868 315T880 360V599H878L722 281H713L558 596Z"  />

</font>
</defs>
</svg>
