<?xml  version="1.0" encoding="UTF-8"?>
<!DOCTYPE svg PUBLIC "-//W3C//DTD SVG 1.0//EN" "http://www.w3.org/TR/2001/REC-SVG-20010904/DTD/svg10.dtd" >
<svg xmlns="http://www.w3.org/2000/svg" >
<metadata>
<version>1.0</version>
<id><![CDATA[ITC Century W01 Bold Italic]]></id>
<vendor>Monotype Imaging Inc.</vendor>
<credits>
<name>Fonts.com WebFonts</name>
<URL>http://webfonts.fonts.com</URL>
<role>Home of the Web fonts</role>
</credits>
<license>
<URL>http://webfonts.fonts.com/Legal</URL>
</license>
<copyright><![CDATA[Font software Copyright 1990, 2001 Adobe Systems Incorporated. Typeface designs Copyright 2007 International Typeface Corporation. All rights reserved.]]></copyright>
<trademark><![CDATA[ITC Century is a trademark of International Typeface Corporation.]]></trademark>
<licensee>
<name></name>
</licensee>
</metadata>
<defs >
<font horiz-adv-x="580" id="86fd7821-ff2b-4e62-934a-6df2c3ec7c18">
<font-face font-family="" panose-1="0 0 8 0 0 0 0 0 0 0" ascent="688" descent="-312" units-per-em="1000" alphabetic="0">
</font-face>
<missing-glyph horiz-adv-x="287" />

<glyph unicode="&#xA;" />
<glyph unicode="&#xD;" />
<glyph unicode=" " horiz-adv-x="287" />
<glyph unicode="!" horiz-adv-x="370" d="M118 206Q125 235 130 265T140 332T146 416T148 525Q148 561 157 593T182 648T218 686T260 700Q298 700 316 682T334 620Q334 582 314 537T267 441T212 331T166 206H118ZM30 62Q30 94 51 115T104 136Q135 136 156 115T178 62Q178 30 157 9T104 -12Q73 -12 52 9T30 62Z"  />
<glyph unicode="&quot;" horiz-adv-x="333" d="M132 428Q130 408 122 398T102 388Q91 388 83 398T72 428L56 596Q54 611 53 622T52 642Q52 671 65 685T102 700Q125 700 138 686T152 642Q152 633 151 622T148 596L132 428ZM312 428Q310 408 302 398T282 388Q271 388 263 398T252 428L236 596Q234 611 233 622T232 642Q232 671 245 685T282 700Q305 700 318 686T332 642Q332 633 331 622T328 596L312 428Z"  />
<glyph unicode="#" horiz-adv-x="574" d="M500 197H410L383 0H291L318 197H222L195 0H103L130 197H44V285H143L159 403H74V491H172L199 688H291L264 491H360L387 688H479L452 491H530V403H439L423 285H500V197ZM251 403L235 285H331L347 403H251Z"  />
<glyph unicode="$" horiz-adv-x="574" d="M173 9Q142 11 114 24T64 59T29 107T16 166Q16 205 38 234T100 264Q129 264 147 246T166 198Q166 178 159 165T140 144T116 133T92 130Q88 130 84 131T75 133Q68 133 68 125Q68 115 79 103T107 79T144 60T184 52L248 299Q223 317 200 335T159 375T131 421T120 480Q120 525 141 561T195 624T269 666T350 684L372 766H418L396 682Q421 678 448 668T496 642T532 602T546 548Q546 516 528 491T476 466Q444 466 426 484T408 535Q408 554 413 566T428 585T447 597T466 605Q461 615 452 622T431 633T407 638T384 640L332 444Q360 426 386 406T432 362T464 309T476 243Q476 189 454 147T396 75T314 28T218 6L196 -68H150L173 9ZM230 54Q253 55 274 65T311 92T338 130T348 175Q348 209 330 229T286 270L230 54ZM338 638Q301 633 275 608T248 545Q248 517 258 500T292 469L338 638Z"  />
<glyph unicode="%" horiz-adv-x="889" d="M118 362Q118 322 150 322Q172 322 191 342T226 394T255 463T276 536T289 599T294 638Q294 678 262 678Q240 678 221 658T186 606T157 537T136 464T123 401T118 362ZM184 -12H124L612 700H672L184 -12ZM504 50Q504 10 536 10Q558 10 577 30T612 82T641 151T662 224T675 287T680 326Q680 366 648 366Q626 366 607 346T572 294T543 225T522 152T509 89T504 50ZM38 442Q38 487 56 533T105 616T176 676T262 700Q309 700 341 665T374 558Q374 513 356 467T307 384T236 324T150 300Q103 300 71 335T38 442ZM424 130Q424 175 442 221T491 304T562 364T648 388Q695 388 727 353T760 246Q760 201 742 155T693 72T622 12T536 -12Q489 -12 457 23T424 130Z"  />
<glyph unicode="&amp;" horiz-adv-x="833" d="M188 189Q188 153 200 126T231 79T274 50T322 40Q348 40 369 49T410 74Q365 132 328 195T266 330Q230 305 209 270T188 189ZM374 507Q374 484 377 463T388 418Q416 427 446 441T500 475T540 523T556 584Q556 619 539 638T484 658Q430 658 402 622T374 507ZM522 378H776L766 336Q736 335 716 330T680 314T652 288T627 251Q613 229 604 212T585 179T567 151T546 124Q560 110 576 96T613 82Q641 82 660 104T706 172L738 150Q724 119 707 91T667 42T616 7T554 -6Q525 -6 493 7T441 41Q400 12 361 0T273 -12Q229 -12 188 2T113 42T60 102T40 176Q40 221 59 253T109 308T177 346T252 372Q248 390 242 414T236 457Q236 517 255 562T307 638T386 684T485 700Q514 700 542 692T593 669T630 631T644 578Q644 530 619 499T557 445T478 408T400 380Q423 321 451 266T518 162Q527 173 538 189T559 222T576 257T583 290Q583 316 568 325T512 336L522 378Z"  />
<glyph unicode="&apos;" horiz-adv-x="222" d="M174 428Q172 408 164 398T144 388Q133 388 125 398T114 428L98 596Q96 611 95 622T94 642Q94 671 107 685T144 700Q167 700 180 686T194 642Q194 633 193 622T190 596L174 428Z"  />
<glyph unicode="(" horiz-adv-x="463" d="M488 658Q408 648 343 594T231 461T158 285T132 96Q132 36 143 -7T174 -80T222 -124T284 -144L278 -182Q223 -177 176 -150T95 -78T40 27T20 161Q20 266 57 360T159 528T310 646T494 700L488 658Z"  />
<glyph unicode=")" horiz-adv-x="463" d="M-98 -140Q-45 -133 2 -106T88 -38T159 57T213 171T246 296T258 422Q258 482 247 525T216 598T168 642T106 662L112 700Q167 695 214 668T295 596T350 491T370 357Q370 287 353 222T305 98T231 -10T135 -95T22 -154T-104 -182L-98 -140Z"  />
<glyph unicode="*" horiz-adv-x="519" d="M338 700Q356 700 370 687T384 656Q384 635 374 620T350 590T325 557T310 510L316 502Q343 509 361 522T393 549T421 572T453 582Q474 582 489 567T504 531Q504 505 486 493T444 480Q429 480 414 484T382 490T350 492T318 482L316 476Q340 454 366 444T414 426T450 407T464 372Q464 356 452 339T422 322Q390 322 377 338T356 376T339 423T304 464L294 460Q289 438 290 422T294 391T300 363T304 334Q304 308 289 292T248 276Q230 276 216 289T202 320Q202 341 212 356T236 386T261 419T276 466L270 474Q243 467 225 454T193 427T165 404T133 394Q112 394 97 409T82 445Q82 471 100 483T142 496Q157 496 172 492T204 486T236 484T268 494L270 500Q246 522 220 533T172 553T136 572T122 602Q122 622 133 638T168 654Q197 654 209 638T230 599T248 552T282 512L292 516Q297 538 296 554T292 585T286 613T282 642Q282 668 297 684T338 700Z"  />
<glyph unicode="+" horiz-adv-x="600" d="M249 470H351V286H535V184H351V0H249V184H65V286H249V470Z"  />
<glyph unicode="&#x2c;" horiz-adv-x="287" d="M-30 -184Q-17 -176 4 -160T46 -121T82 -69T98 -6Q14 -6 14 68Q14 99 35 122T89 146Q104 146 119 139T146 119T165 86T172 41Q172 7 157 -30T118 -103T62 -170T0 -222L-30 -184Z"  />
<glyph unicode="-" horiz-adv-x="333" d="M248 190H-2L18 280H268L248 190Z"  />
<glyph unicode="." horiz-adv-x="287" d="M14 67Q14 100 35 123T93 146Q129 146 150 123T172 67Q172 34 151 11T93 -12Q57 -12 36 11T14 67Z"  />
<glyph unicode="/" horiz-adv-x="278" d="M-138 -12L296 700H416L-18 -12H-138Z"  />
<glyph unicode="0" horiz-adv-x="574" d="M22 240Q22 288 34 340T67 444T120 542T189 623T271 679T364 700Q402 700 434 684T490 636T527 557T540 448Q540 400 528 348T495 244T442 146T373 65T291 9T198 -12Q160 -12 128 4T72 52T35 131T22 240ZM418 582Q418 623 404 640T366 658Q335 658 307 625T254 541T209 426T175 301T152 187T144 106Q144 65 158 48T196 30Q227 30 255 63T308 147T353 262T387 387T410 501T418 582Z"  />
<glyph unicode="1" horiz-adv-x="574" d="M-14 0L-4 42Q37 43 65 49T111 65T138 88T152 117L278 582L156 586L166 626Q234 631 294 646T408 688H460Q456 674 448 642T427 567T401 472T373 370T345 270T322 182T306 118T300 87Q300 76 304 68T319 55T350 46T402 42L392 0H-14Z"  />
<glyph unicode="2" horiz-adv-x="574" d="M319 550Q308 529 294 505T262 459T222 424T171 410Q158 410 144 416T117 433T98 461T90 497Q90 537 109 574T161 639T238 683T332 700Q376 700 414 688T481 654T526 601T542 531Q542 480 522 445T466 384T385 335T287 289T183 233T80 156L82 154Q101 158 118 162T156 166Q178 166 197 162T232 154T265 146T297 142Q330 142 353 151T394 177T423 217T446 268L480 250Q458 178 436 128T389 47T335 2T270 -12Q221 -12 191 6T140 45T100 84T58 102Q49 102 47 100T44 92Q44 81 45 72T46 51Q46 -6 5 -6Q-11 -6 -21 6T-32 41Q-32 89 -1 130T77 209T178 285T279 363T357 448T388 546Q388 603 365 625T298 648Q263 648 233 634T180 597T145 549T132 501Q132 484 144 471T174 458Q193 458 210 470T241 501T265 538T284 571L319 550Z"  />
<glyph unicode="3" horiz-adv-x="574" d="M316 553Q286 481 247 448T162 414Q129 414 107 435T84 499Q84 529 100 564T147 630T224 680T330 700Q385 700 425 686T493 650T533 600T546 544Q546 505 528 474T482 420T419 382T351 358V356Q378 348 402 338T443 312T470 274T480 219Q480 177 456 136T390 61T293 8T176 -12Q132 -12 96 -2T35 27T-4 72T-18 130Q-18 160 -10 182T12 220T43 242T80 250Q112 250 133 229T154 176Q154 144 135 123T83 102Q69 102 57 108T34 124Q35 101 45 85T70 58T105 42T143 36Q184 36 217 55T275 105T312 171T326 241Q326 328 268 328Q247 328 231 323T194 318Q175 318 162 326T148 345Q148 356 153 363T167 373T185 378T204 380Q218 380 231 377T258 374Q280 374 304 390T350 432T384 491T398 559Q398 609 372 630T301 652Q273 652 243 639T189 604T148 556T132 502Q132 483 141 473T166 462Q185 462 200 469T229 490T256 526T285 575L316 553Z"  />
<glyph unicode="4" horiz-adv-x="574" d="M374 688Q362 622 337 556T278 429T207 318T132 230Q177 224 213 209T280 182L366 510H500L412 170Q437 179 458 194T500 226L522 202Q496 173 465 149T398 112L344 -90H210L262 112Q238 119 214 134T167 163T127 189T96 200Q76 200 59 192T26 184Q11 184 2 191T-8 214Q-8 231 6 239T37 248Q50 248 60 247T80 244Q114 293 138 346T179 456T205 571T220 688H374Z"  />
<glyph unicode="5" horiz-adv-x="574" d="M82 336L192 688Q219 682 239 677T279 668T318 662T364 660Q423 660 469 668T554 700L578 676Q519 605 453 570T302 534Q275 534 248 537T194 544L150 404L152 402Q167 417 196 431T281 446Q323 446 360 431T424 390T466 332T482 266Q482 206 456 155T385 67T283 9T164 -12Q92 -12 46 25T0 132Q0 177 27 205T94 234Q126 234 145 214T164 162Q164 136 145 118T95 100Q73 100 66 107T56 114Q48 114 48 96Q48 87 54 76T73 54T105 37T149 30Q190 30 223 52T279 111T315 191T328 277Q328 329 307 361T235 394Q200 394 169 374T118 324L82 336Z"  />
<glyph unicode="6" horiz-adv-x="574" d="M36 225Q36 321 67 407T151 558T272 661T416 700Q449 700 473 691T514 667T539 633T548 592Q548 570 541 553T524 524T500 506T474 500Q441 500 421 518T400 568Q400 594 410 609T432 631T454 641T464 644Q464 649 449 653T410 658Q366 658 336 633T283 568T247 482T221 392L223 390Q245 412 269 425T338 438Q366 438 394 426T444 389T481 330T496 250Q496 200 475 153T417 69T331 10T226 -12Q191 -12 157 3T96 49T53 123T36 225ZM305 390Q274 390 248 362T204 290T175 198T164 107Q164 58 181 42T222 26Q243 26 261 43T295 88T322 149T342 217T354 279T358 327Q358 355 347 372T305 390Z"  />
<glyph unicode="7" horiz-adv-x="574" d="M74 420L154 688H194L164 590L166 588Q186 612 205 632T245 668T289 691T342 700Q373 700 399 690T447 667T486 645T515 634Q530 634 530 667Q530 677 535 688T560 700Q594 700 594 666Q594 648 571 616T512 542T435 451T359 351T300 247T276 148Q276 100 272 69T258 20T233 -5T198 -12Q122 -12 122 82Q122 132 146 183T208 284T292 380T381 466T460 538T514 594L512 596Q481 573 448 563T377 552Q351 552 334 554T304 559T281 564T257 566Q235 566 216 561T180 539T146 492T112 410L74 420Z"  />
<glyph unicode="8" horiz-adv-x="574" d="M10 161Q10 200 26 229T68 280T126 315T190 340Q152 363 126 403T100 490Q100 537 118 576T170 642T247 685T342 700Q394 700 432 687T495 651T532 598T544 535Q544 501 530 476T494 433T444 403T388 382V380Q402 368 420 353T454 317T481 270T492 211Q492 155 468 113T406 44T321 2T225 -12Q184 -12 145 -2T76 29T28 83T10 161ZM108 151Q108 98 138 64T223 30Q283 30 320 64T358 159Q358 183 344 204T310 245T267 282T230 312Q176 288 142 250T108 151ZM228 555Q228 524 239 503T269 465T308 435T348 408Q371 418 391 431T426 460T449 498T458 546Q458 597 431 627T342 658Q294 658 261 631T228 555Z"  />
<glyph unicode="9" horiz-adv-x="574" d="M214 380Q214 341 227 325T264 308Q298 308 323 335T365 406T390 503T398 606Q398 662 351 662Q328 662 309 646T274 604T248 547T229 484T218 425T214 380ZM83 210Q118 210 136 189T154 139Q154 120 147 107T128 86T105 73T81 69Q72 69 67 71Q67 63 75 56T94 43T118 34T144 30Q179 30 207 43T259 88T303 170T344 296L342 298Q316 281 288 269T226 256Q187 256 158 271T110 311T80 368T70 437Q70 492 93 540T154 623T239 679T336 700Q382 700 418 684T479 639T518 569T532 476Q532 374 501 285T419 130T299 26T158 -12Q126 -12 97 -3T47 24T13 65T0 119Q0 161 23 185T83 210Z"  />
<glyph unicode=":" horiz-adv-x="287" d="M14 67Q14 100 35 123T93 146Q129 146 150 123T172 67Q172 34 151 11T93 -12Q57 -12 36 11T14 67ZM90 371Q90 404 111 427T169 450Q205 450 226 427T248 371Q248 338 227 315T169 292Q133 292 112 315T90 371Z"  />
<glyph unicode=";" horiz-adv-x="287" d="M-30 -184Q-17 -176 4 -160T46 -121T82 -69T98 -6Q14 -6 14 68Q14 99 35 122T89 146Q104 146 119 139T146 119T165 86T172 41Q172 7 157 -30T118 -103T62 -170T0 -222L-30 -184ZM90 371Q90 404 111 427T169 450Q205 450 226 427T248 371Q248 338 227 315T169 292Q133 292 112 315T90 371Z"  />
<glyph unicode="&lt;" horiz-adv-x="600" d="M535 -8L65 192V278L535 478V376L199 235L535 94V-8Z"  />
<glyph unicode="=" horiz-adv-x="600" d="M535 284H65V386H535V284ZM535 84H65V186H535V84Z"  />
<glyph unicode="&gt;" horiz-adv-x="600" d="M65 478L535 278V192L65 -8V94L401 235L65 376V478Z"  />
<glyph unicode="?" horiz-adv-x="519" d="M306 257Q300 240 289 225T262 199T230 181T194 174Q180 174 166 180T141 197T123 225T116 264Q116 304 133 327T177 365T235 393T292 425T336 474T354 555Q354 597 326 622T258 648Q234 648 213 639T176 614T151 575T142 528Q142 511 147 498T162 468L122 445Q105 465 100 488T94 537Q94 572 109 602T151 653T212 687T288 700Q330 700 368 688T436 654T484 600T502 532Q502 478 477 447T415 398T333 370T252 348T189 318T164 264Q164 248 173 235T204 222Q215 222 225 228T243 244T259 263T271 281L306 257ZM74 67Q74 100 95 123T153 146Q189 146 210 123T232 67Q232 34 211 11T153 -12Q117 -12 96 11T74 67Z"  />
<glyph unicode="@" horiz-adv-x="800" d="M504 410Q504 445 492 457T460 470Q441 470 422 456T386 417T359 358T348 285Q348 246 361 229T397 212Q419 212 438 231T472 279T495 343T504 410ZM538 516H617L559 280Q553 256 553 238Q553 222 559 210T582 198Q600 198 618 217T650 265T673 328T682 395Q682 437 664 478T612 552T529 605T419 626Q377 626 332 610T250 558T188 462T164 318Q164 262 186 216T246 135T330 81T429 62Q497 62 543 75T633 112L643 52Q595 26 543 7T430 -12Q329 -12 256 21T135 106T65 216T42 328Q42 412 72 480T154 597T274 673T419 700Q491 700 552 677T660 614T732 517T758 396Q758 357 746 314T709 234T648 174T566 150Q542 150 525 158T497 179T479 203T473 225H471Q468 219 458 207T433 182T397 160T353 150Q313 150 284 180T254 277Q254 310 266 354T302 437T364 504T450 532Q479 532 497 520T528 482L538 516Z"  />
<glyph unicode="A" horiz-adv-x="704" d="M-100 0L-90 42Q-58 46 -37 54T-1 75T28 108T60 154L422 694H474L556 94Q558 80 562 70T574 54T598 46T636 42L626 0H292L302 42Q354 40 375 54T396 87Q396 113 392 138T385 188L382 224H168L103 128Q96 118 86 102T76 71Q76 63 79 58T91 49T119 44T166 42L156 0H-100ZM202 276H374L346 486L202 276Z"  />
<glyph unicode="B" horiz-adv-x="741" d="M124 688H468Q577 688 637 649T698 537Q698 499 682 469T636 417T564 382T470 366V364Q517 358 551 343T607 306T639 258T650 203Q650 159 631 122T575 58T487 16T370 0H-64L-54 42Q3 44 26 56T57 94L181 551Q185 566 190 582T195 607Q195 616 192 623T181 635T156 643T114 646L124 688ZM288 340L237 158Q232 142 228 126T224 89Q224 66 238 52T287 38Q325 38 359 50T418 86T459 145T474 229Q474 286 446 313T356 340H288ZM366 382Q401 382 431 395T483 433T517 489T530 558Q530 603 507 624T441 646Q403 646 382 628T350 574L299 382H366Z"  />
<glyph unicode="C" horiz-adv-x="741" d="M734 682L674 438H628Q630 452 632 465T634 492Q634 529 627 559T604 612T559 646T490 658Q444 658 405 636T333 576T276 491T234 390T209 286T200 188Q200 148 211 119T240 70T284 40T338 30Q390 30 433 51T509 107T566 185T602 272H650Q630 208 602 156T535 66T446 9T334 -12Q263 -12 208 12T114 75T56 165T36 270Q36 358 75 436T179 572T324 665T488 700Q525 700 552 693T598 677T630 661T652 654Q669 654 675 663T688 682H734Z"  />
<glyph unicode="D" horiz-adv-x="796" d="M124 688H446Q521 688 578 665T675 602T734 512T754 406Q754 320 719 246T626 117T491 31T332 0H-58L-48 42Q7 43 30 53T59 87L68 123Q94 227 113 302T147 429T171 513T185 565T193 593T196 608Q196 626 181 635T114 646L124 688ZM242 157Q235 131 232 117T228 90Q228 80 231 72T242 57T265 46T304 42Q352 42 391 62T462 117T516 196T554 289T576 384T584 473Q584 521 574 554T545 608T503 637T451 646Q425 646 408 642T381 630T365 610T355 583L242 157Z"  />
<glyph unicode="E" horiz-adv-x="759" d="M564 0H-58L-48 42Q-19 43 0 46T31 56T50 74T62 104L171 506Q175 519 178 533T185 561T190 586T192 605Q192 614 190 621T179 634T155 642T114 646L124 688H728L664 436H622Q624 452 625 467T626 499Q626 578 588 612T472 646Q439 646 418 643T383 633T361 612T348 578L298 384Q335 385 362 391T409 410T443 446T468 504H516L440 222H402Q401 257 397 280T381 316T347 335T288 342L244 183Q237 159 231 136T224 89Q224 77 227 69T239 54T265 45T310 42Q419 42 490 101T590 264H638L564 0Z"  />
<glyph unicode="F" horiz-adv-x="685" d="M-58 0L-48 42Q-20 43 -1 46T31 57T51 77T64 109L178 527Q185 551 190 574T194 610Q194 620 191 626T179 637T155 643T114 646L124 688H724L660 436H618Q620 452 621 467T622 499Q622 578 584 612T468 646Q435 646 414 643T379 633T357 612T344 578L294 384Q331 385 358 391T405 410T439 446T464 504H512L436 222H398Q397 257 393 280T377 316T343 335T284 342L240 183Q233 159 227 136T220 89Q220 77 223 69T236 54T265 45T316 42L306 0H-58Z"  />
<glyph unicode="G" horiz-adv-x="778" d="M684 432H638Q640 450 641 469T642 507Q642 658 501 658Q450 658 408 634T333 570T274 480T233 378T208 279T200 196Q200 149 212 117T244 66T289 38T340 30Q376 30 400 45T434 91L457 171Q462 190 466 208T470 238Q470 248 466 256T451 271T422 281T376 286L386 328H746L736 286Q716 285 699 283T668 272T643 248T624 202L572 6H532L510 46Q491 30 468 19T419 1T367 -9T316 -12Q253 -12 202 11T113 73T56 164T36 274Q36 355 74 431T176 568T323 664T497 700Q535 700 565 692T617 675T654 658T676 650Q686 650 692 658T708 676H750L684 432Z"  />
<glyph unicode="H" horiz-adv-x="815" d="M-66 0L-56 42Q-26 43 -6 46T27 58T50 84T68 132L171 508Q180 541 186 562T192 610Q192 629 175 636T108 646L118 688H466L456 646Q425 645 406 640T375 624T357 600T346 568L296 388H530L565 515Q574 549 580 572T586 612Q586 627 572 635T512 646L522 688H866L856 646Q827 645 807 641T773 627T750 599T733 552L635 183Q627 154 620 130T612 80Q612 59 631 52T698 42L688 0H338L348 42Q377 43 396 46T427 58T445 79T458 114L516 336H284L235 161Q229 139 223 115T216 80Q216 71 218 64T229 53T253 46T294 42L284 0H-66Z"  />
<glyph unicode="I" horiz-adv-x="444" d="M128 688H494L484 646Q452 644 432 640T398 629T378 608T365 574L249 153Q241 127 236 107T230 74Q230 67 233 62T245 52T271 46T318 42L308 0H-58L-48 42Q-16 44 4 47T37 57T56 72T66 95L182 515Q185 527 189 541T197 568T203 593T206 610Q206 620 203 627T191 638T165 643T118 646L128 688Z"  />
<glyph unicode="J" horiz-adv-x="630" d="M678 688L668 646Q636 643 617 639T586 626T569 604T558 573L456 174Q445 132 422 98T364 40T284 2T184 -12Q135 -12 99 0T39 34T4 84T-8 144Q-8 200 23 233T102 266Q138 266 158 242T178 189Q178 154 159 132T108 110Q90 110 79 114T62 124T53 133T48 138Q45 138 42 134T38 117Q38 102 45 87T67 59T101 38T146 30Q171 30 194 37T237 61T272 108T299 182Q324 281 344 355T378 482T400 564T408 606Q408 630 390 637T330 646L340 688H678Z"  />
<glyph unicode="K" horiz-adv-x="778" d="M-52 0L-42 42Q13 43 37 57T70 104L194 560Q199 579 201 591T204 614Q204 621 201 627T188 637T163 643T120 646L130 688H476L466 646Q440 644 422 640T392 628T373 610T362 586L304 384L306 382L530 554Q558 575 579 592T600 623Q600 633 585 638T522 646L532 688H814L804 646Q760 644 731 635T668 598L482 454L614 100Q621 81 627 70T642 53T664 45T700 42L690 0H356L366 42Q448 45 448 78Q448 91 443 106T430 141L352 354L288 310L244 157Q238 135 233 114T228 85Q228 63 241 54T300 42L290 0H-52Z"  />
<glyph unicode="L" horiz-adv-x="685" d="M-58 0L-48 42Q-17 43 3 46T35 55T55 71T66 96L188 541Q193 559 197 578T202 608Q202 618 199 624T186 635T160 642T116 646L126 688H484L474 646Q420 644 394 628T358 570L254 175Q251 165 248 153T241 129T235 107T232 90Q232 66 249 54T314 42Q371 42 416 58T495 103T555 174T598 268L640 260L566 0H-58Z"  />
<glyph unicode="M" horiz-adv-x="889" d="M130 688H398V224H400L662 688H930L920 646Q870 643 847 625T814 571L698 146Q693 129 689 109T684 77Q684 58 698 51T756 42L746 0H428L438 42Q466 43 483 47T512 59T530 80T542 113L678 622L676 624L326 0H256L252 620H250L128 176Q119 144 114 123T108 91Q108 79 110 71T121 56T146 47T188 42L178 0H-50L-40 42Q-15 45 3 52T34 72T58 108T77 163L180 533Q187 558 191 574T196 604Q196 627 180 635T120 646L130 688Z"  />
<glyph unicode="N" horiz-adv-x="778" d="M-66 0L-55 42Q-31 44 -12 47T20 56T43 74T58 106L178 537Q179 543 182 551T187 569T192 588T194 604Q194 612 191 619T178 632T153 641T110 646L120 688H330L560 186H562L651 527Q654 539 659 560T664 601Q664 610 661 617T648 631T620 641T574 646L586 688H834L824 646Q795 642 776 636T744 621T723 597T710 562L556 -12H482L230 544H228L125 168Q118 142 114 126T110 92Q110 80 113 72T126 57T155 48T205 42L196 0H-66Z"  />
<glyph unicode="O" horiz-adv-x="778" d="M36 274Q36 325 52 377T99 476T169 564T257 635T358 683T466 700Q521 700 571 678T659 618T719 527T742 414Q742 363 726 311T679 212T609 124T521 53T420 5T312 -12Q256 -12 206 10T119 70T59 161T36 274ZM196 166Q196 95 223 61T310 26Q363 26 404 57T475 136T526 244T559 358T576 457T582 522Q582 593 555 627T468 662Q414 662 374 631T303 552T252 444T219 330T202 231T196 166Z"  />
<glyph unicode="P" horiz-adv-x="685" d="M-58 0L-48 42Q-21 43 -3 45T27 54T45 69T56 92L179 539Q185 562 189 581T194 612Q194 629 179 636T116 646L126 688H430Q551 688 613 646T676 522Q676 481 657 446T599 386T502 346T366 332H280L232 160Q220 119 220 90Q220 75 223 66T238 52T269 45T322 42L312 0H-58ZM431 646Q397 646 377 629T347 574L294 374H331Q376 374 412 385T473 432Q492 460 502 490T512 554Q512 598 491 622T431 646Z"  />
<glyph unicode="Q" horiz-adv-x="778" d="M322 186Q302 186 285 166T268 107Q268 94 271 81T281 56T300 38T330 30Q338 69 348 97T358 145Q358 162 349 174T322 186ZM652 36Q643 -2 627 -35T585 -94T528 -135T453 -150Q426 -150 403 -140T362 -111T336 -70T326 -19V-11Q322 -12 312 -12Q256 -12 206 10T119 70T59 161T36 274Q36 325 52 377T99 476T169 564T257 635T358 683T466 700Q521 700 571 678T659 618T719 527T742 414Q742 355 720 296T659 184T568 88T456 20Q462 -22 480 -38T524 -54Q542 -54 557 -44T583 -17T602 17T614 50L652 36ZM468 662Q414 662 374 631T303 552T252 444T219 330T202 231T196 166Q196 81 239 45L241 47Q232 64 226 82T220 121Q220 142 226 161T246 195T280 219T327 228Q354 228 373 219T405 192T428 151T444 95Q470 125 491 164T527 246T552 332T569 412T579 478T582 522Q582 593 555 627T468 662Z"  />
<glyph unicode="R" horiz-adv-x="741" d="M-66 0L-56 42Q-22 43 -2 46T31 57T50 79T63 114L180 541Q185 557 190 573T196 604Q196 614 193 622T181 635T156 642T112 646L122 688H478Q528 688 568 676T637 642T681 593T696 534Q696 493 681 458T631 396T537 354T390 338V336Q423 324 450 311T498 280T529 236T540 175Q540 146 542 128T548 101T556 88T566 84Q575 84 585 94T603 117T618 143T628 162L668 146Q659 119 643 91T606 40T558 3T500 -12Q443 -12 410 24T376 124Q376 156 378 180T380 228Q380 255 377 273T363 303T336 320T290 326L239 147Q234 128 229 112T224 81Q224 71 226 64T238 53T264 46T310 42L300 0H-66ZM348 368Q437 368 481 422T526 571Q526 607 503 626T445 646Q376 646 357 578L300 368H348Z"  />
<glyph unicode="S" horiz-adv-x="667" d="M46 260H88V204Q88 164 95 132T120 78T169 43T250 30Q287 30 318 42T371 74T407 116T420 160Q420 194 398 216T341 257T267 292T193 333T137 391T114 477Q114 519 136 559T197 630T288 681T402 700Q442 700 470 692T517 673T550 655T574 646Q588 646 596 658T610 682H658L600 452H558V492Q558 568 520 613T398 658Q364 658 338 649T294 624T267 587T258 544Q258 507 280 484T337 443T411 410T485 372T541 319T564 238Q564 180 537 134T466 56T364 6T245 -12Q209 -12 181 -4T131 13T95 30T71 38Q52 38 43 29T22 6H-20L46 260Z"  />
<glyph unicode="T" horiz-adv-x="704" d="M84 0L94 42Q125 43 144 45T176 55T196 76T209 113L348 645Q343 645 338 645T327 646Q285 646 251 631T190 590T143 527T108 446H66L132 688H740L684 446H641Q644 467 644 490Q644 519 639 547T620 597T586 632T531 646Q523 646 517 646T505 645L378 162Q372 140 366 116T360 77Q360 55 377 49T444 42L434 0H84Z"  />
<glyph unicode="U" horiz-adv-x="778" d="M464 688L454 646Q425 645 406 642T374 630T353 604T336 558L254 255Q243 217 236 185T228 132Q228 104 239 85T270 53T312 36T360 30Q431 30 481 67T551 175L642 514Q645 526 648 539T655 566T660 591T662 610Q662 627 647 635T580 646L590 688H836L826 646Q797 645 778 642T745 629T723 605T708 568L608 188Q595 140 574 103T519 40T441 1T334 -12Q273 -12 226 2T145 40T95 96T78 166Q78 185 86 223T107 309T134 405T161 497T181 569T190 606Q190 632 173 639T110 646L120 688H464Z"  />
<glyph unicode="V" horiz-adv-x="685" d="M408 646Q376 645 356 643T326 634T312 616T308 588Q308 567 308 556T308 536T309 521T311 500L334 186H336L572 543Q606 595 606 620Q606 627 604 632T592 640T567 644T522 646L532 688H772L762 646Q724 644 705 633T668 598L266 0H194L160 564Q158 590 154 606T139 630T113 642T72 646L82 688H418L408 646Z"  />
<glyph unicode="W" horiz-adv-x="907" d="M248 0H178L136 588Q134 608 131 619T119 637T97 644T62 646L72 688H368L358 646Q317 646 301 638T284 607Q284 586 285 559T289 498L310 220H312L456 506L448 616Q447 624 445 629T437 639T420 644T390 646L400 688H696L686 646Q661 646 645 645T620 638T606 623T602 597Q602 578 604 558T607 523L626 210H628L789 530Q808 567 817 587T826 619Q826 626 824 631T813 639T789 644T746 646L756 688H976L966 646Q943 646 928 644T904 636T887 620T872 595L566 0H494L464 422H462L248 0Z"  />
<glyph unicode="X" horiz-adv-x="741" d="M-72 0L-62 42Q-13 49 17 63T73 103L300 324L188 612Q182 627 170 635T118 646L128 688H456L446 646Q395 646 376 638T356 606Q356 594 362 575T376 538L418 436Q464 483 493 513T540 563T563 593T570 612Q570 629 557 637T504 646L514 688H786L776 646Q746 644 725 640T687 626T654 603T615 568L434 390L547 90Q553 74 558 65T573 51T596 45T634 42L624 0H284L294 42Q323 43 341 45T369 53T382 64T386 79Q386 90 381 105T366 147L319 274L167 128Q152 113 140 98T128 74Q128 59 145 52T216 42L206 0H-72Z"  />
<glyph unicode="Y" horiz-adv-x="667" d="M42 0L52 42Q90 43 113 47T149 61T167 82T178 112L232 308L147 610Q145 618 142 624T131 635T110 642T76 646L86 688H414L404 646Q356 644 336 638T316 608Q316 586 322 565T336 518L384 358L526 540Q545 564 559 586T574 620Q574 626 572 630T561 638T537 643T496 646L506 688H756L746 646Q704 644 677 631T622 583L396 296L359 162Q352 137 346 115T340 83Q340 73 343 66T355 53T382 46T430 42L420 0H42Z"  />
<glyph unicode="Z" horiz-adv-x="685" d="M514 0H-20L-2 68L504 640H424Q321 640 254 594T162 450L116 458L182 688H686L680 632L166 48H220Q293 48 346 63T438 106T503 175T546 268L588 260L514 0Z"  />
<glyph unicode="[" horiz-adv-x="426" d="M242 688H452L442 646Q407 645 385 640T348 622T323 584T304 520Q291 466 274 403T240 277T206 153T176 44T154 -40T146 -85Q146 -102 165 -114T236 -128L226 -170H8L242 688Z"  />
<glyph unicode="\" horiz-adv-x="278" d="M192 -12L-26 700H86L304 -12H192Z"  />
<glyph unicode="]" horiz-adv-x="426" d="M128 -170H-82L-72 -128Q-37 -127 -15 -122T22 -104T47 -66T66 -2Q79 52 96 115T130 241T164 365T194 474T216 558T224 603Q224 620 205 632T134 646L144 688H362L128 -170Z"  />
<glyph unicode="^" horiz-adv-x="600" d="M79 329L251 688H349L521 329H413L300 580L187 329H79Z"  />
<glyph unicode="_" horiz-adv-x="500" d="M0 -125V-75H500V-125H0Z"  />
<glyph unicode="`" horiz-adv-x="333" d="M262 542L125 634Q112 643 104 654T96 679Q96 695 108 708T142 722Q158 722 171 714T208 675L308 542H262Z"  />
<glyph unicode="a" horiz-adv-x="648" d="M556 472L468 116Q464 99 461 82T458 58Q458 52 460 46T472 40Q486 40 501 55T531 90T555 130T569 163L602 145Q590 117 575 89T539 39T493 2T432 -12Q390 -12 365 15T332 94H330Q315 71 300 52T266 18T227 -4T178 -12Q146 -12 114 -2T57 32T16 92T0 181Q0 238 24 292T88 389T178 456T282 482Q329 482 353 460T390 402H392L408 472H556ZM366 343Q366 430 304 430Q281 430 261 413T225 369T195 307T172 237T159 169T154 112Q154 74 166 57T204 40Q237 40 266 72T318 152T353 251T366 343Z"  />
<glyph unicode="b" horiz-adv-x="611" d="M239 408L241 406Q271 437 305 459T384 482Q421 482 451 468T502 429T534 372T545 304Q545 235 516 177T439 77T327 12T196 -12Q113 -12 67 28T21 130Q21 145 21 157T24 182T29 209T38 242L112 506Q121 538 130 565T139 605Q139 622 125 629T69 638L79 674L313 678L239 408ZM397 356Q397 389 386 409T346 430Q317 430 285 401T227 323T183 213T165 86Q165 57 175 42T214 26Q239 26 262 43T306 87T343 150T372 222T390 294T397 356Z"  />
<glyph unicode="c" horiz-adv-x="500" d="M411 150Q397 115 378 86T333 35T275 1T203 -12Q163 -12 126 1T60 41T14 104T-4 189Q-4 253 23 307T95 400T195 460T307 482Q340 482 365 474T406 452T431 421T440 385Q440 350 419 326T360 302Q336 302 314 317T292 368Q292 389 300 400T319 418T337 426T346 431Q346 440 323 440Q293 440 269 425T224 386T189 331T164 267T149 202T144 145Q144 113 151 91T171 56T198 36T228 30Q253 30 276 44T319 80T354 127T378 172L411 150Z"  />
<glyph unicode="d" horiz-adv-x="630" d="M190 36Q214 36 241 62T293 133T332 234T348 352Q348 399 332 416T291 434Q265 434 238 401T190 318T154 210T140 100Q140 68 154 52T190 36ZM370 674L598 678L456 124Q448 93 446 80T443 56Q443 49 446 43T458 36Q471 36 486 52T514 89T538 130T553 160L586 139Q575 112 560 85T524 37T478 2T419 -12Q378 -12 351 14T316 94H314Q297 51 260 20T171 -12Q134 -12 102 1T47 39T10 101T-4 184Q-4 249 21 304T86 398T174 460T268 482Q311 482 337 463T376 410H378Q385 438 393 469T408 526T421 572T426 597Q426 616 412 626T360 638L370 674Z"  />
<glyph unicode="e" horiz-adv-x="519" d="M430 134Q409 101 387 75T339 29T281 -1T208 -12Q167 -12 129 0T62 38T14 102T-4 192Q-4 260 28 313T107 404T210 462T312 482Q382 482 420 453T458 379Q458 342 443 316T404 271T348 241T283 224T217 215T157 212Q155 204 153 193T149 169T146 146T144 126Q144 74 164 52T226 30Q253 30 278 41T326 71T366 112T399 156L430 134ZM336 395Q336 414 329 427T302 440Q276 440 253 419T212 367T183 306T168 254Q198 254 228 263T282 291T321 335T336 395Z"  />
<glyph unicode="f" horiz-adv-x="370" d="M26 428L36 470H124Q137 515 161 555T218 624T293 671T385 688Q441 688 473 662T506 600Q506 568 485 546T426 523Q398 523 380 540T362 588Q362 601 368 610T381 626T395 636T401 642Q401 647 397 648T387 650Q341 650 308 602T260 470H374L364 428H252L191 138Q173 54 137 -6T58 -106T-32 -163T-118 -182Q-164 -182 -195 -163T-226 -103Q-226 -75 -205 -55T-147 -34Q-116 -34 -99 -51T-82 -94Q-82 -104 -86 -112T-95 -125T-104 -134T-108 -139Q-108 -143 -103 -143T-92 -144Q-83 -144 -70 -139T-44 -118T-17 -77T6 -11L112 428H26Z"  />
<glyph unicode="g" horiz-adv-x="611" d="M552 470L432 26Q416 -34 385 -74T314 -138T228 -172T136 -182Q89 -182 52 -174T-10 -151T-49 -119T-62 -81Q-62 -44 -39 -26T20 -8Q53 -8 72 -28T92 -72Q92 -90 81 -103T56 -121Q67 -144 123 -144Q154 -144 179 -136T225 -105T262 -46T292 50L290 52Q267 22 233 5T160 -12Q131 -12 102 1T49 39T11 99T-4 178Q-4 239 22 294T88 391T179 457T280 482Q325 482 349 461T386 400H388L404 470H552ZM306 430Q282 430 261 413T223 367T192 304T169 234T155 168T150 116Q150 75 162 58T191 40Q215 40 236 55T276 96T309 153T334 218T350 281T356 335Q356 390 342 410T306 430Z"  />
<glyph unicode="h" horiz-adv-x="630" d="M90 674L314 678L234 379L236 377Q251 397 266 416T300 449T342 473T394 482Q422 482 445 471T485 441T511 395T520 338Q520 305 507 266T477 188T448 117T434 63Q434 58 439 55T452 52Q463 52 476 64T503 93T526 125T541 149L573 130Q560 104 543 79T505 34T457 1T398 -12Q350 -12 324 16T298 97Q298 127 311 166T341 244T370 320T384 382Q384 405 376 414T353 424Q330 424 304 402T248 329T189 197T130 0H-12L139 551Q144 568 147 582T150 610Q150 624 136 631T80 638L90 674Z"  />
<glyph unicode="i" horiz-adv-x="352" d="M40 468L266 472Q264 465 255 436T235 366T210 279T186 191T167 120T160 81Q160 52 177 52Q189 52 202 65T228 96T250 131T265 156L297 138Q285 111 268 85T229 37T180 2T120 -12Q75 -12 46 13T16 90Q16 124 28 169T54 259T80 341T92 398Q92 416 80 423T30 432L40 468ZM144 611Q144 627 151 641T169 666T194 682T224 688Q239 688 253 682T279 666T297 642T304 611Q304 594 297 580T279 556T254 540T224 534Q209 534 195 540T169 556T151 580T144 611Z"  />
<glyph unicode="j" horiz-adv-x="333" d="M266 472L156 10Q145 -35 125 -70T78 -130T16 -168T-58 -182Q-93 -182 -118 -173T-160 -150T-184 -117T-192 -79Q-192 -44 -173 -26T-124 -8Q-91 -8 -74 -24T-56 -64Q-56 -88 -74 -104T-118 -124Q-110 -134 -102 -139T-78 -144Q-53 -144 -39 -132T-16 -98T-1 -47T13 15L85 327Q91 352 96 374T102 408Q102 424 84 429T44 432L54 468L266 472ZM146 611Q146 627 153 641T171 666T196 682T226 688Q241 688 255 682T281 666T299 642T306 611Q306 594 299 580T281 556T256 540T226 534Q211 534 197 540T171 556T153 580T146 611Z"  />
<glyph unicode="k" horiz-adv-x="611" d="M102 674L330 678L212 268H232Q261 268 282 284T321 323T353 375T387 426T429 466T485 482Q503 482 516 476T539 461T553 439T558 416Q558 384 537 362T485 340Q461 340 447 354T432 385Q432 394 430 397T424 400Q419 400 410 382T384 339T347 291T296 254V252Q323 249 341 240T373 219T396 193T411 166Q420 147 422 129T425 95T427 71T436 62Q451 62 469 88T510 150L544 132Q505 61 465 25T372 -12Q325 -12 302 10T278 80Q278 126 275 154T264 198T240 219T200 226L138 0H-16L132 512Q137 531 146 558T156 606Q156 624 142 630T92 638L102 674Z"  />
<glyph unicode="l" horiz-adv-x="333" d="M174 177Q160 126 152 95T144 54Q144 40 160 40Q169 40 179 48T201 71T225 103T251 143L279 124Q267 100 251 76T215 32T169 0T114 -12Q63 -12 39 17T14 89Q14 114 17 136T25 182T39 233T56 294L130 565Q132 574 135 585T139 605Q139 622 125 629T69 638L79 674L313 678L174 177Z"  />
<glyph unicode="m" horiz-adv-x="889" d="M-4 0L78 311Q91 358 94 377T98 404Q98 418 88 424T42 432L52 468L248 472Q243 455 238 427T224 366L226 364Q262 421 299 451T390 482Q446 482 470 449T495 362H497Q532 418 571 450T664 482Q686 482 707 472T743 444T768 402T778 347Q778 317 766 279T738 201T711 127T698 71Q698 52 713 52Q723 52 736 65T762 94T785 127T798 152L830 132Q816 107 800 82T762 35T714 1T656 -12Q639 -12 623 -6T594 12T572 45T564 94Q564 127 577 168T606 251T635 329T648 388Q648 403 640 413T615 424Q594 424 569 398T519 325T469 212T423 68L405 0H267L349 306Q358 339 364 364T370 397Q370 424 342 424Q320 424 294 398T240 319T184 186T130 0H-4Z"  />
<glyph unicode="n" horiz-adv-x="630" d="M54 468L256 472Q251 454 246 428T234 374L236 372Q252 393 269 413T305 448T348 473T400 482Q429 482 452 471T491 442T515 400T524 348Q524 318 511 278T482 198T453 124T440 72Q440 64 443 58T458 52Q468 52 481 66T508 97T531 131T546 154L576 132Q562 107 545 82T506 35T458 1T399 -12Q382 -12 365 -7T334 11T311 43T302 91Q302 111 308 136T325 188T346 243T367 297T383 346T390 386Q390 403 381 413T352 424Q329 424 304 401T253 335T203 233T160 101L134 0H-8L75 302Q79 317 84 333T93 363T99 388T102 404Q102 418 92 424T44 432L54 468Z"  />
<glyph unicode="o" horiz-adv-x="574" d="M-4 194Q-4 253 22 305T92 397T189 459T298 482Q341 482 379 466T446 422T491 357T508 276Q508 217 484 165T418 73T322 11T206 -12Q163 -12 125 4T58 48T13 113T-4 194ZM204 26Q227 26 248 42T286 86T318 149T343 223T358 298T364 366Q364 408 349 426T300 444Q276 444 255 426T216 379T184 312T160 237T145 164T140 104Q140 62 155 44T204 26Z"  />
<glyph unicode="p" horiz-adv-x="611" d="M-139 -170L-129 -132Q-104 -131 -88 -130T-60 -124T-42 -112T-32 -91L79 318Q86 344 91 365T97 399Q97 416 83 423T27 432L37 468L263 472L247 404L249 402Q263 417 277 431T307 457T342 475T384 482Q423 482 453 467T503 426T534 366T545 293Q545 233 518 178T447 81T347 14T234 -12Q222 -12 209 -10T183 -1T162 15T148 42H146L132 -14Q126 -37 120 -59T113 -99Q113 -107 117 -113T132 -123T164 -129T219 -132L209 -170H-139ZM178 90Q178 71 183 60T196 42T212 33T228 30Q259 30 289 62T343 143T382 245T397 343Q397 390 388 410T356 430Q324 430 293 397T236 314T194 204T178 90Z"  />
<glyph unicode="q" horiz-adv-x="611" d="M144 105Q144 63 155 47T184 30Q207 30 228 47T269 92T304 156T331 229T349 303T356 368Q356 404 343 422T308 440Q273 440 243 405T191 319T157 209T144 105ZM545 470Q540 452 527 405T498 296T465 168T433 43T409 -56T399 -105Q399 -112 401 -117T412 -125T436 -129T477 -132L467 -170H122L132 -132Q164 -131 185 -129T218 -121T237 -109T248 -92Q269 -37 278 -2T298 62L296 64Q269 28 238 8T160 -12Q129 -12 100 1T47 39T10 100T-4 185Q-4 239 17 292T76 387T167 455T284 482Q309 482 331 475T370 458T400 433T420 406L498 470H545Z"  />
<glyph unicode="r" horiz-adv-x="481" d="M0 0L85 345Q89 359 91 372T94 399Q94 416 82 423T38 432L48 468L246 472L222 348L224 346Q253 409 298 445T389 482Q422 482 446 460T470 404Q470 371 449 349T392 326Q362 326 348 341T334 382Q334 401 338 409T344 422L342 424Q322 416 299 391T254 326T210 236T173 129L135 0H0Z"  />
<glyph unicode="s" horiz-adv-x="519" d="M46 326Q46 360 63 389T111 438T182 470T268 482Q320 482 355 472T410 447T439 415T448 384Q448 318 378 318Q349 318 331 333T312 374Q312 391 318 401T333 416T347 423T354 426Q354 430 334 437T276 444Q257 444 239 439T208 424T186 401T178 373Q178 351 196 337T241 311T300 287T359 257T404 214T422 152Q422 118 404 89T352 37T269 1T156 -12Q121 -12 88 -4T30 19T-12 58T-28 113Q-28 145 -7 163T50 182Q79 182 97 164T116 122Q116 102 108 90T91 71T74 61T66 57Q66 46 90 36T162 26Q193 26 216 32T254 49T278 71T286 94Q286 120 268 136T224 166T166 191T109 220T64 262T46 326Z"  />
<glyph unicode="t" horiz-adv-x="389" d="M254 470H362L352 428H242L165 147Q160 129 154 106T148 63Q148 52 153 44T170 36Q189 36 205 49T235 82T259 121T277 155L310 137Q299 110 284 84T248 36T202 2T144 -12Q117 -12 95 -2T58 26T34 67T26 117Q26 143 30 167T42 217L100 428H18L28 470H112L150 608L293 612L254 470Z"  />
<glyph unicode="u" horiz-adv-x="630" d="M50 468L270 472Q255 422 236 360T200 242T172 142T160 85Q160 70 168 58T192 46Q210 46 234 66T285 128T338 236T385 394L402 468L546 472L464 159Q457 134 453 113T448 78Q448 63 453 58T465 52Q475 52 488 65T513 95T534 128T548 152L580 136Q568 112 552 86T516 38T470 2T413 -12Q365 -12 344 18T322 89Q322 95 322 101T324 114L322 116Q304 89 286 66T247 25T202 -2T147 -12Q126 -12 106 -4T69 20T44 61T34 120Q34 160 44 204T68 286T91 354T102 396Q102 417 87 424T40 432L50 468Z"  />
<glyph unicode="v" horiz-adv-x="537" d="M50 468L264 472L182 198Q174 172 166 144T158 86Q158 57 169 44T200 30Q228 30 254 46T305 89T349 150T383 218T406 285T414 342Q414 364 408 364Q406 364 399 361T380 358Q354 358 338 376T322 421Q322 482 384 482Q399 482 412 477T435 460T450 426T456 370Q456 307 434 240T374 116T284 24T174 -12Q144 -12 118 -1T71 31T40 80T28 142Q28 168 38 206T62 282T85 352T96 400Q96 415 86 423T40 434L50 468Z"  />
<glyph unicode="w" horiz-adv-x="815" d="M46 468L270 472L221 301Q215 281 206 251T186 187T169 122T162 68Q162 40 188 40Q206 40 224 53T259 89T290 137T316 190Q329 221 341 257T363 330T382 404T400 470H548Q544 454 535 421T514 346T490 259T468 174T451 105T444 65Q444 46 453 38T478 30Q521 30 558 62T624 143T669 247T686 350Q686 368 678 368Q673 368 666 365T646 362Q620 362 605 378T590 420Q590 450 608 466T656 482Q691 482 709 453T728 366Q728 301 708 234T651 112T559 23T437 -12Q379 -12 349 22T318 114H316Q301 93 285 71T249 30T204 0T145 -12Q91 -12 59 26T26 122Q26 150 37 190T61 271T86 346T98 395Q98 409 83 419T36 432L46 468Z"  />
<glyph unicode="x" horiz-adv-x="593" d="M78 482H274L312 322Q334 344 353 371T394 423T439 465T492 482Q518 482 536 465T554 418Q554 389 536 366T487 342Q461 342 448 359T432 392Q424 392 412 380T386 350T357 311T326 270L360 122Q364 105 372 89T391 72Q401 72 411 81T431 104T447 130T460 150L488 127Q479 106 463 82T427 37T383 2T332 -12Q308 -12 292 -6T263 13T242 48T223 99L208 144L158 80Q150 71 138 56T110 25T73 -1T28 -12Q-6 -12 -29 5T-52 59Q-52 73 -47 86T-31 110T-9 126T19 132Q44 132 59 119T74 80Q74 68 71 65T68 57Q68 52 73 52Q78 52 87 60T106 78T125 99T138 116L194 194L174 277Q162 327 155 363T133 421Q125 434 111 438T68 444L78 482Z"  />
<glyph unicode="y" horiz-adv-x="611" d="M46 468L274 472Q239 358 218 289T184 179T168 119T164 86Q164 68 172 58T191 48Q211 48 234 67T280 114T320 177T347 243L414 470H556L435 24Q406 -85 327 -133T132 -182Q88 -182 58 -174T9 -153T-19 -122T-28 -86Q-28 -57 -10 -37T47 -16Q89 -16 107 -36T126 -80Q126 -97 117 -109T96 -129Q96 -134 106 -139T138 -144Q177 -144 209 -125T255 -75Q271 -40 282 3T302 78L300 80Q283 59 267 44T232 18T193 2T144 -4Q121 -4 100 5T63 31T38 73T28 132Q28 163 39 201T63 277T88 345T100 393Q100 410 88 420T36 432L46 468Z"  />
<glyph unicode="z" horiz-adv-x="574" d="M472 166Q459 129 442 97T400 40T345 2T271 -12Q244 -12 223 -5T180 12T135 28T80 36Q63 36 51 34T30 26T11 11T-10 -12L-42 4Q-20 53 15 93T93 167T180 227T267 275Q327 304 370 330T432 382L430 384Q399 367 364 356T294 344Q272 344 254 347T218 355T184 362T149 366Q130 366 114 350T80 286L50 304Q61 340 81 372T126 429T182 467T244 482Q266 482 290 476T337 462T380 448T416 442Q445 442 465 451T506 482L534 460Q504 406 469 366T390 295T295 236T180 180Q158 169 142 159T113 139T89 119T66 96L68 94Q89 105 105 114T137 129T169 138T206 142Q233 142 252 136T287 123T318 110T352 104Q386 104 407 127T440 180L472 166Z"  />
<glyph unicode="{" horiz-adv-x="426" d="M420 686Q378 675 355 646T317 563L270 391Q262 364 254 343T232 305T201 278T156 260V258Q185 250 197 234T210 194Q210 180 206 164T197 127L150 -44Q140 -78 140 -105Q140 -131 150 -145T184 -168L180 -182Q107 -182 71 -167T34 -100Q34 -77 45 -39L95 142Q100 160 102 175T104 202Q104 223 94 237T58 260Q105 273 125 300T160 377L210 558Q222 603 240 631T283 674T343 695T424 700L420 686Z"  />
<glyph unicode="|" horiz-adv-x="222" d="M60 700H162V0H60V700Z"  />
<glyph unicode="}" horiz-adv-x="426" d="M-49 -168Q-7 -157 16 -128T54 -45L101 127Q108 154 117 175T139 213T170 240T215 258V260Q186 268 174 284T161 324Q161 338 165 354T174 391L221 562Q231 596 231 623Q231 649 221 663T187 686L191 700Q264 700 300 685T337 618Q337 595 326 557L276 376Q271 358 269 343T267 316Q267 295 277 281T313 258Q289 251 273 242T246 218T226 185T211 141L161 -40Q149 -85 131 -113T88 -156T28 -177T-53 -182L-49 -168Z"  />
<glyph unicode="~" horiz-adv-x="600" d="M522 236Q511 220 499 205T473 177T440 158T399 150Q372 150 348 159T299 183Q275 196 248 207T186 218Q170 218 157 212T134 195T117 172T103 146L68 234Q76 250 87 265T113 293T147 312T191 320Q216 320 243 310T300 288Q327 276 353 264T400 252Q415 252 427 258T449 275T469 298T487 324L522 236Z"  />
<glyph unicode="&#xA0;" horiz-adv-x="287" />
<glyph unicode="&#xA1;" horiz-adv-x="370" d="M202 312Q195 283 190 253T180 186T174 102T172 -7Q172 -43 163 -75T138 -130T102 -168T60 -182Q22 -182 4 -164T-14 -102Q-14 -64 6 -20T53 77T108 187T154 312H202ZM290 456Q290 424 269 403T216 382Q185 382 164 403T142 456Q142 488 163 509T216 530Q247 530 268 509T290 456Z"  />
<glyph unicode="&#xA2;" horiz-adv-x="574" d="M446 568Q475 554 490 531T506 480Q506 451 486 429T435 406Q420 406 409 412T384 424L272 160Q285 157 297 157Q323 157 345 168T385 196T418 236T443 281L475 267Q457 223 435 194T387 148T335 123T279 115Q271 115 265 115T254 116L200 -12H158L216 124Q189 133 163 147T117 182T85 233T72 304Q72 363 97 413T164 500T257 557T363 578Q373 578 384 577T406 574L450 680H495L446 568ZM370 477Q374 486 379 491T388 502T396 512T400 523Q400 531 394 533T382 536Q353 536 321 514T260 454T213 369T194 270Q194 243 204 216T240 174L370 477Z"  />
<glyph unicode="&#xA3;" horiz-adv-x="574" d="M32 296L40 338H214Q196 360 179 379T147 420T125 465T116 519Q116 560 137 593T192 650T265 687T345 700Q386 700 416 692T465 670T494 638T504 600Q504 558 484 539T438 520Q408 520 389 535T370 581Q370 602 375 613T387 630T398 638T404 643Q404 650 390 656T354 662Q332 662 313 654T280 630T258 596T250 554Q250 526 269 497T312 440T359 386T392 338H546L538 296H406Q407 289 407 283T407 270Q407 236 398 208T372 156T333 111T285 70Q299 61 312 54T342 46Q359 46 378 55T417 79T453 111T482 146L514 122Q496 97 478 74T437 33T389 5T328 -6Q302 -6 273 4T222 30Q187 13 149 1T72 -12Q-3 -12 -42 16T-82 89Q-82 132 -51 162T39 192Q64 192 88 185T136 165T182 139T224 110Q234 118 242 131T258 159T269 189T273 218Q273 239 266 259T244 296H32ZM10 75Q10 59 27 45T76 30Q102 30 125 39T170 62Q147 78 119 93T54 108Q10 108 10 75Z"  />
<glyph unicode="&#xA4;" horiz-adv-x="574" d="M27 146L82 202Q62 225 51 263T39 344Q39 386 50 424T82 486L27 542L91 606L149 549Q170 568 207 580T287 592Q329 592 366 580T425 549L483 606L547 542L492 486Q512 463 523 425T535 344Q535 302 524 264T492 202L547 146L483 82L425 139Q404 120 367 108T287 96Q245 96 208 108T149 139L91 82L27 146ZM147 344Q147 315 157 289T186 242T231 210T287 198Q317 198 343 210T387 242T416 288T427 344Q427 373 417 399T388 446T343 478T287 490Q257 490 231 478T187 446T158 400T147 344Z"  />
<glyph unicode="&#xA5;" horiz-adv-x="574" d="M34 288H177L182 308L172 350H52L64 392H161L106 610Q104 618 101 624T91 635T73 642T42 646L51 688H345L336 646Q293 644 275 638T257 608Q257 586 262 565T275 518L319 358L446 540Q463 564 476 586T489 620Q489 626 487 630T477 638T456 643T419 646L428 688H653L644 646Q606 644 582 631T532 583L397 392H524L512 350H367L329 296L327 288H478L468 246H317L296 162Q290 137 285 115T279 83Q279 73 281 66T292 53T317 46T360 42L351 0H11L20 42Q54 43 74 47T106 61T123 82T133 112L167 246H24L34 288Z"  />
<glyph unicode="&#xA6;" horiz-adv-x="222" d="M60 262H162V0H60V262ZM60 700H162V438H60V700Z"  />
<glyph unicode="&#xA7;" horiz-adv-x="500" d="M216 438Q190 466 177 494T164 556Q164 589 176 615T210 661T259 690T320 700Q384 700 419 672T454 602Q454 578 438 560T392 542Q371 542 357 557T342 590Q342 610 354 622T377 641Q369 653 359 659T320 666Q280 666 256 647T232 596Q232 576 246 553T280 503T325 449T369 392T404 334T418 278Q418 247 407 221T378 175T335 145T286 134Q279 134 272 134T256 136Q281 104 295 77T310 24Q310 -5 298 -32T264 -80T208 -113T133 -126Q101 -126 77 -117T35 -94T9 -62T0 -28Q0 4 16 20T61 36Q83 36 97 23T112 -14Q112 -28 107 -37T94 -52T82 -61T76 -68Q76 -76 93 -84T140 -92Q182 -92 206 -73T230 -24Q230 -1 217 24T183 76T138 131T94 188T60 248T46 310Q46 375 82 411T171 448Q180 448 191 446T214 436L216 438ZM338 230Q338 250 332 266T307 308Q269 359 239 388T185 418Q161 418 141 402T120 354Q120 328 134 301T172 244Q207 198 232 181T275 164Q304 164 321 184T338 230Z"  />
<glyph unicode="&#xA8;" horiz-adv-x="333" d="M280 617Q280 643 299 662T345 682Q372 682 391 663T410 617Q410 591 391 572T345 552Q318 552 299 571T280 617ZM66 617Q66 643 85 662T131 682Q158 682 177 663T196 617Q196 591 177 572T131 552Q104 552 85 571T66 617Z"  />
<glyph unicode="&#xA9;" horiz-adv-x="800" d="M52 344Q52 420 78 485T150 598T261 673T400 700Q475 700 539 673T649 598T722 485T748 344Q748 268 722 203T650 90T539 15T400 -12Q325 -12 261 15T151 90T78 203T52 344ZM138 344Q138 282 157 229T211 136T294 73T400 50Q458 50 506 73T588 135T642 228T662 344Q662 405 643 459T589 552T506 615T400 638Q342 638 294 615T212 553T158 459T138 344ZM569 268L555 190Q554 183 538 176T499 163T455 154T419 150Q316 150 259 202T201 356Q201 388 211 423T248 487T318 535T428 554Q449 554 471 551T512 542T541 531T553 518V442H531Q525 457 517 472T497 500T469 520T430 528Q376 528 352 482T327 361Q327 322 331 289T347 230T378 191T428 176Q467 176 497 201T547 268H569Z"  />
<glyph unicode="&#xAA;" horiz-adv-x="389" d="M410 694Q408 687 403 667T390 620T375 565T361 511T350 468T346 446Q346 441 349 438T357 434Q366 434 375 442T394 462T409 486T419 505L440 496Q432 481 423 465T400 435T371 413T333 404Q300 404 284 421T264 466H263Q243 439 221 422T159 404Q136 404 116 413T80 437T57 474T48 520Q48 554 63 586T104 643T164 684T235 700Q261 700 277 687T302 652H304L314 694H410ZM148 478Q148 434 181 434Q203 434 222 453T255 501T278 561T286 617Q286 670 248 670Q228 670 210 651T178 603T156 540T148 478Z"  />
<glyph unicode="&#xAB;" horiz-adv-x="500" d="M6 237Q51 272 89 305T155 363T200 404T223 419Q228 419 231 416T234 403Q234 395 222 376T190 331T146 279T98 227Q111 206 123 181T145 132T160 90T166 65Q166 51 153 51Q147 51 137 65T109 103T67 158T6 225V237ZM192 237Q237 272 275 305T341 363T386 404T409 419Q414 419 417 416T420 403Q420 395 408 376T376 331T332 279T284 227Q297 206 309 181T331 132T346 90T352 65Q352 51 339 51Q333 51 323 65T295 103T253 158T192 225V237Z"  />
<glyph unicode="&#xAC;" horiz-adv-x="600" d="M433 284H65V386H535V84H433V284Z"  />
<glyph unicode="&#xAD;" horiz-adv-x="333" d="M248 190H-2L18 280H268L248 190Z"  />
<glyph unicode="&#xAE;" horiz-adv-x="800" d="M410 162H232V184Q246 185 254 186T267 192T273 203T274 224V482Q274 495 273 502T268 514T255 519T232 522V544H438Q485 544 516 519T548 442Q548 410 528 381T471 341L528 258Q544 235 559 215T588 176V162H494Q483 162 471 179T447 221T421 275T392 328H368V224Q368 211 369 204T374 192T387 187T410 184V162ZM368 354H394Q424 354 435 378T446 436Q446 484 434 501T395 518H368V354ZM52 344Q52 420 78 485T150 598T261 673T400 700Q475 700 539 673T649 598T722 485T748 344Q748 268 722 203T650 90T539 15T400 -12Q325 -12 261 15T151 90T78 203T52 344ZM138 344Q138 282 157 229T211 136T294 73T400 50Q458 50 506 73T588 135T642 228T662 344Q662 405 643 459T589 552T506 615T400 638Q342 638 294 615T212 553T158 459T138 344Z"  />
<glyph unicode="&#xAF;" horiz-adv-x="333" d="M390 580H64L80 648H406L390 580Z"  />
<glyph unicode="&#xB0;" horiz-adv-x="400" d="M109 558Q109 539 116 522T135 491T164 470T200 462Q219 462 235 470T264 491T284 521T291 558Q291 577 284 594T265 625T236 646T200 654Q181 654 165 646T136 625T116 595T109 558ZM59 558Q59 587 70 613T100 658T145 689T200 700Q230 700 255 689T300 659T330 614T341 558Q341 529 330 503T300 458T255 427T200 416Q171 416 145 427T100 457T70 503T59 558Z"  />
<glyph unicode="&#xB1;" horiz-adv-x="600" d="M249 470H351V354H535V252H351V136H249V252H65V354H249V470ZM65 102H535V0H65V102Z"  />
<glyph unicode="&#xB2;" horiz-adv-x="344" d="M234 610Q227 597 218 582T198 555T171 534T138 525Q116 525 98 539T80 578Q80 602 92 624T127 663T178 690T239 700Q268 700 293 693T338 673T368 641T379 599Q379 567 366 545T329 507T275 477T210 449T142 417T75 374L76 372Q89 374 100 377T124 380Q153 380 174 372T216 363Q259 363 279 385T313 441L343 430Q329 387 315 357T284 309T248 282T203 273Q170 273 148 284T110 307T83 331T61 342Q55 342 54 341T52 337Q52 329 53 323T54 310Q54 275 26 275Q16 275 9 282T2 305Q2 338 22 364T72 413T138 457T204 501T255 549T275 606Q275 638 260 650T217 662Q195 662 176 654T144 633T122 607T114 580Q114 570 121 563T140 555Q151 555 161 562T180 580T196 603T208 623L234 610Z"  />
<glyph unicode="&#xB3;" horiz-adv-x="344" d="M229 611Q214 573 185 551T129 528Q106 528 91 543T76 579Q76 595 86 615T117 655T168 687T238 700Q274 700 300 692T343 670T369 640T378 606Q378 583 367 565T337 532T297 509T252 495V493Q287 484 311 467T336 411Q336 386 320 361T278 317T216 285T142 273Q77 273 45 297T12 358Q12 394 31 412T76 430Q96 430 110 418T124 386Q124 366 112 354T79 342Q62 342 48 354Q48 327 69 317T116 307Q144 307 166 318T204 345T228 382T236 422Q236 449 223 460T196 471Q186 471 174 468T152 464Q138 464 129 470T120 487Q120 497 128 502T157 508Q165 508 171 507T186 505Q204 505 221 515T251 542T273 578T282 614Q282 666 215 666Q197 666 179 659T145 640T121 614T112 584Q112 557 136 557Q153 557 171 574T208 623L229 611Z"  />
<glyph unicode="&#xB4;" horiz-adv-x="333" d="M152 542L256 655Q275 675 288 688T310 708T327 719T343 722Q363 722 376 709T390 678Q390 659 382 650T350 627L200 542H152Z"  />
<glyph unicode="&#xB5;" horiz-adv-x="630" d="M546 472L464 159Q457 134 453 113T448 78Q448 63 453 58T465 52Q475 52 488 65T513 95T534 128T548 152L580 136Q568 112 552 86T516 38T470 2T413 -12Q365 -12 344 18T322 89Q322 95 322 101T324 114L322 116Q304 89 286 66T247 25T202 -2T147 -12Q144 -12 141 -12T133 -10Q129 -36 124 -66T109 -122T80 -165T30 -182Q11 -182 0 -176T-18 -160T-27 -135T-30 -104Q-30 -83 -20 -42T4 49T36 154T67 257T92 343T102 396Q102 417 87 424T40 432L50 468L270 472Q255 422 236 360T200 242T172 142T160 85Q160 70 168 58T192 46Q210 46 234 66T285 128T338 236T385 394L402 468L546 472Z"  />
<glyph unicode="&#xB6;" horiz-adv-x="620" d="M642 650Q598 648 580 638T556 605L372 -158H260L454 648H398L204 -158H92L198 284Q141 284 112 320T82 424Q82 486 100 535T150 618T225 670T320 688H648L642 650Z"  />
<glyph unicode="&#xB7;" horiz-adv-x="287" d="M37 235Q37 267 59 292T120 318Q158 318 180 293T203 235Q203 203 181 178T120 152Q82 152 60 177T37 235Z"  />
<glyph unicode="&#xB8;" horiz-adv-x="333" d="M-26 -162Q-10 -170 6 -174T43 -178Q96 -178 96 -139Q96 -124 84 -113T51 -102Q43 -102 35 -103T18 -108L6 -94L72 2H116L72 -64Q78 -62 84 -61T97 -60Q139 -60 163 -81T188 -130Q188 -174 154 -197T62 -220Q30 -220 4 -214T-48 -196L-26 -162Z"  />
<glyph unicode="&#xB9;" horiz-adv-x="344" d="M14 280L20 306Q47 307 65 310T94 317T111 328T119 340Q125 358 135 392T158 468T182 551T204 628L126 632L132 656Q176 658 215 667T290 692H324Q320 681 311 651T291 582T267 501T244 422T227 360T220 331Q220 320 232 314T286 306L280 280H14Z"  />
<glyph unicode="&#xBA;" horiz-adv-x="344" d="M46 527Q46 563 62 594T105 649T169 686T244 700Q272 700 296 691T339 664T369 625T380 577Q380 541 364 510T321 455T257 418T182 404Q154 404 130 413T87 440T57 479T46 527ZM140 473Q140 448 150 438T182 428Q209 428 228 454T260 516T279 584T286 631Q286 656 276 666T244 676Q226 676 212 664T186 632T166 588T152 542T143 501T140 473Z"  />
<glyph unicode="&#xBB;" horiz-adv-x="500" d="M420 233Q375 198 337 165T271 107T225 66T203 51Q198 51 195 54T192 67Q192 74 204 94T236 139T280 191T328 243Q314 264 302 289T281 338T266 380T260 405Q260 419 273 419Q279 419 289 405T317 367T359 312T420 245V233ZM234 233Q189 198 151 165T85 107T39 66T17 51Q12 51 9 54T6 67Q6 74 18 94T50 139T94 191T142 243Q128 264 116 289T95 338T80 380T74 405Q74 419 87 419Q93 419 103 405T131 367T173 312T234 245V233Z"  />
<glyph unicode="&#xBC;" horiz-adv-x="861" d="M712 413Q704 373 688 334T651 258T605 191T556 138Q585 134 608 125T652 110L708 306H794L738 102Q754 107 768 116T796 136L810 122Q793 104 773 90T728 68L694 -54H608L640 68Q625 72 610 80T580 96T554 111T532 117Q521 117 509 112T487 107Q478 107 471 112T464 126Q464 140 471 145T497 151Q503 151 509 150T524 147Q567 205 587 273T614 413H712ZM252 -12H196L641 700H697L252 -12ZM6 280L12 306Q39 307 57 310T86 317T103 328T111 340Q117 358 127 392T150 468T174 551T196 628L118 632L124 656Q168 658 207 667T282 692H316Q313 681 304 651T283 582T259 501T236 422T219 360T212 331Q212 320 224 314T278 306L272 280H6Z"  />
<glyph unicode="&#xBD;" horiz-adv-x="861" d="M230 -12H174L619 700H675L230 -12ZM-2 280L4 306Q31 307 49 310T78 317T95 328T103 340Q109 358 119 392T142 468T166 551T188 628L110 632L116 656Q160 658 199 667T274 692H308Q304 681 295 651T275 582T251 501T228 422T211 360T204 331Q204 320 216 314T270 306L264 280H-2ZM692 325Q685 312 676 297T656 270T629 249T596 240Q574 240 556 254T538 293Q538 317 550 339T585 378T636 405T697 415Q726 415 751 408T796 388T826 356T837 314Q837 282 824 260T787 222T733 192T668 164T600 132T533 89L534 87Q547 89 558 92T582 95Q611 95 632 87T674 78Q717 78 737 100T771 156L801 145Q787 102 773 72T742 24T706 -3T661 -12Q628 -12 606 -1T568 22T541 46T519 57Q513 57 512 56T510 52Q510 44 511 38T512 25Q512 -10 484 -10Q474 -10 467 -3T460 20Q460 53 480 79T530 128T596 172T662 216T713 264T733 321Q733 353 718 365T675 377Q653 377 634 369T602 348T580 322T572 295Q572 285 579 278T598 270Q609 270 619 277T638 295T654 318T666 338L692 325Z"  />
<glyph unicode="&#xBE;" horiz-adv-x="861" d="M710 413Q702 373 686 334T649 258T603 191T554 138Q583 134 606 125T650 110L706 306H792L736 102Q752 107 766 116T794 136L808 122Q791 104 771 90T726 68L692 -54H606L638 68Q623 72 608 80T578 96T552 111T530 117Q519 117 507 112T485 107Q476 107 469 112T462 126Q462 140 469 145T495 151Q501 151 507 150T522 147Q565 205 585 273T612 413H710ZM260 -12H204L649 700H705L260 -12ZM245 611Q230 573 201 551T145 528Q122 528 107 543T92 579Q92 595 102 615T133 655T184 687T254 700Q290 700 316 692T359 670T385 640T394 606Q394 583 383 565T353 532T313 509T268 495V493Q303 484 327 467T352 411Q352 386 336 361T294 317T232 285T158 273Q93 273 61 297T28 358Q28 394 47 412T92 430Q112 430 126 418T140 386Q140 366 128 354T95 342Q78 342 64 354Q64 327 85 317T132 307Q160 307 182 318T220 345T244 382T252 422Q252 449 239 460T212 471Q202 471 190 468T168 464Q154 464 145 470T136 487Q136 497 144 502T173 508Q181 508 187 507T202 505Q220 505 237 515T267 542T289 578T298 614Q298 666 231 666Q213 666 195 659T161 640T137 614T128 584Q128 557 152 557Q169 557 187 574T224 623L245 611Z"  />
<glyph unicode="&#xBF;" horiz-adv-x="519" d="M168 261Q174 278 185 293T212 319T244 337T280 344Q294 344 308 338T333 321T351 293T358 254Q358 214 341 191T297 153T239 125T182 93T138 44T120 -37Q120 -79 148 -104T216 -130Q240 -130 261 -121T298 -96T323 -58T332 -10Q332 7 327 20T312 50L352 73Q369 53 374 30T380 -19Q380 -54 365 -84T323 -135T262 -169T186 -182Q144 -182 106 -170T38 -136T-10 -83T-28 -14Q-28 40 -3 71T59 120T141 148T222 170T285 200T310 254Q310 270 301 283T270 296Q259 296 249 290T231 274T215 255T203 237L168 261ZM400 451Q400 418 379 395T321 372Q285 372 264 395T242 451Q242 484 263 507T321 530Q357 530 378 507T400 451Z"  />
<glyph unicode="&#xC0;" horiz-adv-x="704" d="M-100 0L-90 42Q-58 46 -37 54T-1 75T28 108T60 154L422 694H474L556 94Q558 80 562 70T574 54T598 46T636 42L626 0H292L302 42Q354 40 375 54T396 87Q396 113 392 138T385 188L382 224H168L103 128Q96 118 86 102T76 71Q76 63 79 58T91 49T119 44T166 42L156 0H-100ZM202 276H374L346 486L202 276ZM500 717L363 809Q350 818 342 829T334 854Q334 870 346 883T380 897Q396 897 409 889T446 850L546 717H500Z"  />
<glyph unicode="&#xC1;" horiz-adv-x="704" d="M-100 0L-90 42Q-58 46 -37 54T-1 75T28 108T60 154L422 694H474L556 94Q558 80 562 70T574 54T598 46T636 42L626 0H292L302 42Q354 40 375 54T396 87Q396 113 392 138T385 188L382 224H168L103 128Q96 118 86 102T76 71Q76 63 79 58T91 49T119 44T166 42L156 0H-100ZM202 276H374L346 486L202 276ZM390 717L494 830Q513 850 526 863T548 883T565 894T581 897Q601 897 614 884T628 853Q628 834 620 825T588 802L438 717H390Z"  />
<glyph unicode="&#xC2;" horiz-adv-x="704" d="M-100 0L-90 42Q-58 46 -37 54T-1 75T28 108T60 154L422 694H474L556 94Q558 80 562 70T574 54T598 46T636 42L626 0H292L302 42Q354 40 375 54T396 87Q396 113 392 138T385 188L382 224H168L103 128Q96 118 86 102T76 71Q76 63 79 58T91 49T119 44T166 42L156 0H-100ZM202 276H374L346 486L202 276ZM532 891L618 717H568L480 813L342 717H290L450 891H532Z"  />
<glyph unicode="&#xC3;" horiz-adv-x="704" d="M-100 0L-90 42Q-58 46 -37 54T-1 75T28 108T60 154L422 694H474L556 94Q558 80 562 70T574 54T598 46T636 42L626 0H292L302 42Q354 40 375 54T396 87Q396 113 392 138T385 188L382 224H168L103 128Q96 118 86 102T76 71Q76 63 79 58T91 49T119 44T166 42L156 0H-100ZM202 276H374L346 486L202 276ZM298 739Q302 761 311 782T335 821T370 848T414 859Q429 859 450 852T492 837T533 822T566 815Q586 815 597 827T616 857H658Q653 833 644 811T619 773T583 747T535 737Q520 737 501 744T462 759T422 774T387 781Q367 781 356 769T340 739H298Z"  />
<glyph unicode="&#xC4;" horiz-adv-x="704" d="M-100 0L-90 42Q-58 46 -37 54T-1 75T28 108T60 154L422 694H474L556 94Q558 80 562 70T574 54T598 46T636 42L626 0H292L302 42Q354 40 375 54T396 87Q396 113 392 138T385 188L382 224H168L103 128Q96 118 86 102T76 71Q76 63 79 58T91 49T119 44T166 42L156 0H-100ZM202 276H374L346 486L202 276ZM518 792Q518 818 537 837T583 857Q610 857 629 838T648 792Q648 766 629 747T583 727Q556 727 537 746T518 792ZM304 792Q304 818 323 837T369 857Q396 857 415 838T434 792Q434 766 415 747T369 727Q342 727 323 746T304 792Z"  />
<glyph unicode="&#xC5;" horiz-adv-x="704" d="M-100 0L-90 42Q-58 46 -37 54T-1 75T28 108T60 154L422 694H474L556 94Q558 80 562 70T574 54T598 46T636 42L626 0H292L302 42Q354 40 375 54T396 87Q396 113 392 138T385 188L382 224H168L103 128Q96 118 86 102T76 71Q76 63 79 58T91 49T119 44T166 42L156 0H-100ZM202 276H374L346 486L202 276ZM366 820Q366 841 374 860T396 893T428 915T469 923Q491 923 509 915T542 893T564 860T572 820Q572 799 564 780T542 747T510 725T469 717Q447 717 429 725T396 747T374 780T366 820ZM410 820Q410 795 427 778T469 761Q494 761 511 778T528 820Q528 845 511 862T469 879Q444 879 427 862T410 820Z"  />
<glyph unicode="&#xC6;" horiz-adv-x="944" d="M774 0H242L252 42Q277 43 293 46T320 55T335 70T344 92L390 272H204L98 121Q90 110 81 96T72 68Q72 63 74 59T84 51T105 45T140 42L130 0H-64L-54 42Q-34 44 -14 58T18 89L367 590Q373 599 378 608T384 628Q384 638 366 642T298 646L308 688H924L866 442H822Q824 460 825 480T826 530Q826 591 790 618T696 646Q671 646 656 644T631 635T617 618T608 591L556 378Q607 380 637 406T684 498H726L660 222H622Q621 259 617 281T604 315T581 331T546 336L497 142Q492 121 488 105T484 75Q484 56 496 49T544 42Q599 42 637 57T704 101T751 168T788 256H834L774 0ZM402 324L468 596Q473 619 476 630T479 647Q479 654 475 654Q470 654 466 649T451 629L236 324H402Z"  />
<glyph unicode="&#xC7;" horiz-adv-x="741" d="M734 682L674 438H628Q630 452 632 465T634 492Q634 529 627 559T604 612T559 646T490 658Q444 658 405 636T333 576T276 491T234 390T209 286T200 188Q200 148 211 119T240 70T284 40T338 30Q390 30 433 51T509 107T566 185T602 272H650Q632 213 607 165T548 80T472 20T376 -9L340 -64Q346 -62 352 -61T365 -60Q407 -60 431 -81T456 -130Q456 -174 422 -197T330 -220Q298 -220 272 -214T220 -196L242 -162Q258 -170 274 -174T311 -178Q364 -178 364 -139Q364 -124 352 -113T319 -102Q311 -102 303 -103T286 -108L274 -94L331 -12Q260 -11 206 13T113 76T56 165T36 270Q36 358 75 436T179 572T324 665T488 700Q525 700 552 693T598 677T630 661T652 654Q669 654 675 663T688 682H734Z"  />
<glyph unicode="&#xC8;" horiz-adv-x="759" d="M564 0H-58L-48 42Q-19 43 0 46T31 56T50 74T62 104L171 506Q175 519 178 533T185 561T190 586T192 605Q192 614 190 621T179 634T155 642T114 646L124 688H728L664 436H622Q624 452 625 467T626 499Q626 578 588 612T472 646Q439 646 418 643T383 633T361 612T348 578L298 384Q335 385 362 391T409 410T443 446T468 504H516L440 222H402Q401 257 397 280T381 316T347 335T288 342L244 183Q237 159 231 136T224 89Q224 77 227 69T239 54T265 45T310 42Q419 42 490 101T590 264H638L564 0ZM516 717L379 809Q366 818 358 829T350 854Q350 870 362 883T396 897Q412 897 425 889T462 850L562 717H516Z"  />
<glyph unicode="&#xC9;" horiz-adv-x="759" d="M564 0H-58L-48 42Q-19 43 0 46T31 56T50 74T62 104L171 506Q175 519 178 533T185 561T190 586T192 605Q192 614 190 621T179 634T155 642T114 646L124 688H728L664 436H622Q624 452 625 467T626 499Q626 578 588 612T472 646Q439 646 418 643T383 633T361 612T348 578L298 384Q335 385 362 391T409 410T443 446T468 504H516L440 222H402Q401 257 397 280T381 316T347 335T288 342L244 183Q237 159 231 136T224 89Q224 77 227 69T239 54T265 45T310 42Q419 42 490 101T590 264H638L564 0ZM406 717L510 830Q529 850 542 863T564 883T581 894T597 897Q617 897 630 884T644 853Q644 834 636 825T604 802L454 717H406Z"  />
<glyph unicode="&#xCA;" horiz-adv-x="759" d="M564 0H-58L-48 42Q-19 43 0 46T31 56T50 74T62 104L171 506Q175 519 178 533T185 561T190 586T192 605Q192 614 190 621T179 634T155 642T114 646L124 688H728L664 436H622Q624 452 625 467T626 499Q626 578 588 612T472 646Q439 646 418 643T383 633T361 612T348 578L298 384Q335 385 362 391T409 410T443 446T468 504H516L440 222H402Q401 257 397 280T381 316T347 335T288 342L244 183Q237 159 231 136T224 89Q224 77 227 69T239 54T265 45T310 42Q419 42 490 101T590 264H638L564 0ZM548 891L634 717H584L496 813L358 717H306L466 891H548Z"  />
<glyph unicode="&#xCB;" horiz-adv-x="759" d="M564 0H-58L-48 42Q-19 43 0 46T31 56T50 74T62 104L171 506Q175 519 178 533T185 561T190 586T192 605Q192 614 190 621T179 634T155 642T114 646L124 688H728L664 436H622Q624 452 625 467T626 499Q626 578 588 612T472 646Q439 646 418 643T383 633T361 612T348 578L298 384Q335 385 362 391T409 410T443 446T468 504H516L440 222H402Q401 257 397 280T381 316T347 335T288 342L244 183Q237 159 231 136T224 89Q224 77 227 69T239 54T265 45T310 42Q419 42 490 101T590 264H638L564 0ZM534 792Q534 818 553 837T599 857Q626 857 645 838T664 792Q664 766 645 747T599 727Q572 727 553 746T534 792ZM320 792Q320 818 339 837T385 857Q412 857 431 838T450 792Q450 766 431 747T385 727Q358 727 339 746T320 792Z"  />
<glyph unicode="&#xCC;" horiz-adv-x="444" d="M128 688H494L484 646Q452 644 432 640T398 629T378 608T365 574L249 153Q241 127 236 107T230 74Q230 67 233 62T245 52T271 46T318 42L308 0H-58L-48 42Q-16 44 4 47T37 57T56 72T66 95L182 515Q185 527 189 541T197 568T203 593T206 610Q206 620 203 627T191 638T165 643T118 646L128 688ZM359 717L222 809Q209 818 201 829T193 854Q193 870 205 883T239 897Q255 897 268 889T305 850L405 717H359Z"  />
<glyph unicode="&#xCD;" horiz-adv-x="444" d="M128 688H494L484 646Q452 644 432 640T398 629T378 608T365 574L249 153Q241 127 236 107T230 74Q230 67 233 62T245 52T271 46T318 42L308 0H-58L-48 42Q-16 44 4 47T37 57T56 72T66 95L182 515Q185 527 189 541T197 568T203 593T206 610Q206 620 203 627T191 638T165 643T118 646L128 688ZM249 717L353 830Q372 850 385 863T407 883T424 894T440 897Q460 897 473 884T487 853Q487 834 479 825T447 802L297 717H249Z"  />
<glyph unicode="&#xCE;" horiz-adv-x="444" d="M128 688H494L484 646Q452 644 432 640T398 629T378 608T365 574L249 153Q241 127 236 107T230 74Q230 67 233 62T245 52T271 46T318 42L308 0H-58L-48 42Q-16 44 4 47T37 57T56 72T66 95L182 515Q185 527 189 541T197 568T203 593T206 610Q206 620 203 627T191 638T165 643T118 646L128 688ZM391 891L477 717H427L339 813L201 717H149L309 891H391Z"  />
<glyph unicode="&#xCF;" horiz-adv-x="444" d="M128 688H494L484 646Q452 644 432 640T398 629T378 608T365 574L249 153Q241 127 236 107T230 74Q230 67 233 62T245 52T271 46T318 42L308 0H-58L-48 42Q-16 44 4 47T37 57T56 72T66 95L182 515Q185 527 189 541T197 568T203 593T206 610Q206 620 203 627T191 638T165 643T118 646L128 688ZM377 792Q377 818 396 837T442 857Q469 857 488 838T507 792Q507 766 488 747T442 727Q415 727 396 746T377 792ZM163 792Q163 818 182 837T228 857Q255 857 274 838T293 792Q293 766 274 747T228 727Q201 727 182 746T163 792Z"  />
<glyph unicode="&#xD0;" horiz-adv-x="796" d="M39 352L54 408H146Q163 469 173 506T188 564T194 594T196 608Q196 626 181 635T114 646L124 688H446Q521 688 578 665T675 602T734 512T754 406Q754 320 719 246T626 117T491 31T332 0H-58L-48 42Q7 43 30 53T59 87L68 123L131 352H39ZM294 352L242 157Q235 131 232 117T228 90Q228 80 231 72T242 57T265 46T304 42Q352 42 391 62T462 117T516 196T554 289T576 384T584 473Q584 521 574 554T545 608T503 637T451 646Q425 646 408 642T381 630T365 610T355 583L309 408H468L453 352H294Z"  />
<glyph unicode="&#xD1;" horiz-adv-x="778" d="M-66 0L-55 42Q-31 44 -12 47T20 56T43 74T58 106L178 537Q179 543 182 551T187 569T192 588T194 604Q194 612 191 619T178 632T153 641T110 646L120 688H330L560 186H562L651 527Q654 539 659 560T664 601Q664 610 661 617T648 631T620 641T574 646L586 688H834L824 646Q795 642 776 636T744 621T723 597T710 562L556 -12H482L230 544H228L125 168Q118 142 114 126T110 92Q110 80 113 72T126 57T155 48T205 42L196 0H-66ZM324 739Q328 761 337 782T361 821T396 848T440 859Q455 859 476 852T518 837T559 822T592 815Q612 815 623 827T642 857H684Q679 833 670 811T645 773T609 747T561 737Q546 737 527 744T488 759T448 774T413 781Q393 781 382 769T366 739H324Z"  />
<glyph unicode="&#xD2;" horiz-adv-x="778" d="M36 274Q36 325 52 377T99 476T169 564T257 635T358 683T466 700Q521 700 571 678T659 618T719 527T742 414Q742 363 726 311T679 212T609 124T521 53T420 5T312 -12Q256 -12 206 10T119 70T59 161T36 274ZM196 166Q196 95 223 61T310 26Q363 26 404 57T475 136T526 244T559 358T576 457T582 522Q582 593 555 627T468 662Q414 662 374 631T303 552T252 444T219 330T202 231T196 166ZM526 717L389 809Q376 818 368 829T360 854Q360 870 372 883T406 897Q422 897 435 889T472 850L572 717H526Z"  />
<glyph unicode="&#xD3;" horiz-adv-x="778" d="M36 274Q36 325 52 377T99 476T169 564T257 635T358 683T466 700Q521 700 571 678T659 618T719 527T742 414Q742 363 726 311T679 212T609 124T521 53T420 5T312 -12Q256 -12 206 10T119 70T59 161T36 274ZM196 166Q196 95 223 61T310 26Q363 26 404 57T475 136T526 244T559 358T576 457T582 522Q582 593 555 627T468 662Q414 662 374 631T303 552T252 444T219 330T202 231T196 166ZM416 717L520 830Q539 850 552 863T574 883T591 894T607 897Q627 897 640 884T654 853Q654 834 646 825T614 802L464 717H416Z"  />
<glyph unicode="&#xD4;" horiz-adv-x="778" d="M36 274Q36 325 52 377T99 476T169 564T257 635T358 683T466 700Q521 700 571 678T659 618T719 527T742 414Q742 363 726 311T679 212T609 124T521 53T420 5T312 -12Q256 -12 206 10T119 70T59 161T36 274ZM196 166Q196 95 223 61T310 26Q363 26 404 57T475 136T526 244T559 358T576 457T582 522Q582 593 555 627T468 662Q414 662 374 631T303 552T252 444T219 330T202 231T196 166ZM558 891L644 717H594L506 813L368 717H316L476 891H558Z"  />
<glyph unicode="&#xD5;" horiz-adv-x="778" d="M36 274Q36 325 52 377T99 476T169 564T257 635T358 683T466 700Q521 700 571 678T659 618T719 527T742 414Q742 363 726 311T679 212T609 124T521 53T420 5T312 -12Q256 -12 206 10T119 70T59 161T36 274ZM196 166Q196 95 223 61T310 26Q363 26 404 57T475 136T526 244T559 358T576 457T582 522Q582 593 555 627T468 662Q414 662 374 631T303 552T252 444T219 330T202 231T196 166ZM324 739Q328 761 337 782T361 821T396 848T440 859Q455 859 476 852T518 837T559 822T592 815Q612 815 623 827T642 857H684Q679 833 670 811T645 773T609 747T561 737Q546 737 527 744T488 759T448 774T413 781Q393 781 382 769T366 739H324Z"  />
<glyph unicode="&#xD6;" horiz-adv-x="778" d="M36 274Q36 325 52 377T99 476T169 564T257 635T358 683T466 700Q521 700 571 678T659 618T719 527T742 414Q742 363 726 311T679 212T609 124T521 53T420 5T312 -12Q256 -12 206 10T119 70T59 161T36 274ZM196 166Q196 95 223 61T310 26Q363 26 404 57T475 136T526 244T559 358T576 457T582 522Q582 593 555 627T468 662Q414 662 374 631T303 552T252 444T219 330T202 231T196 166ZM544 792Q544 818 563 837T609 857Q636 857 655 838T674 792Q674 766 655 747T609 727Q582 727 563 746T544 792ZM330 792Q330 818 349 837T395 857Q422 857 441 838T460 792Q460 766 441 747T395 727Q368 727 349 746T330 792Z"  />
<glyph unicode="&#xD7;" horiz-adv-x="600" d="M65 398L137 470L300 307L463 470L535 398L372 235L535 72L463 0L300 163L137 0L65 72L228 235L65 398Z"  />
<glyph unicode="&#xD8;" horiz-adv-x="778" d="M573 589Q569 618 540 640T468 662Q414 662 374 631T303 552T252 444T219 330T202 230T196 165L573 589ZM205 97Q228 26 310 26Q363 26 404 57T475 136T526 244T559 358T576 457T582 521L205 97ZM115 74Q78 112 57 163T36 274Q36 325 52 377T99 476T169 564T257 635T358 683T466 700Q510 700 550 687T625 647L698 730H768L664 613Q700 575 721 525T742 414Q742 363 726 311T679 212T609 124T521 53T420 5T312 -12Q268 -12 229 1T155 40L68 -58H-2L115 74Z"  />
<glyph unicode="&#xD9;" horiz-adv-x="778" d="M464 688L454 646Q425 645 406 642T374 630T353 604T336 558L254 255Q243 217 236 185T228 132Q228 104 239 85T270 53T312 36T360 30Q431 30 481 67T551 175L642 514Q645 526 648 539T655 566T660 591T662 610Q662 627 647 635T580 646L590 688H836L826 646Q797 645 778 642T745 629T723 605T708 568L608 188Q595 140 574 103T519 40T441 1T334 -12Q273 -12 226 2T145 40T95 96T78 166Q78 185 86 223T107 309T134 405T161 497T181 569T190 606Q190 632 173 639T110 646L120 688H464ZM531 717L394 809Q381 818 373 829T365 854Q365 870 377 883T411 897Q427 897 440 889T477 850L577 717H531Z"  />
<glyph unicode="&#xDA;" horiz-adv-x="778" d="M464 688L454 646Q425 645 406 642T374 630T353 604T336 558L254 255Q243 217 236 185T228 132Q228 104 239 85T270 53T312 36T360 30Q431 30 481 67T551 175L642 514Q645 526 648 539T655 566T660 591T662 610Q662 627 647 635T580 646L590 688H836L826 646Q797 645 778 642T745 629T723 605T708 568L608 188Q595 140 574 103T519 40T441 1T334 -12Q273 -12 226 2T145 40T95 96T78 166Q78 185 86 223T107 309T134 405T161 497T181 569T190 606Q190 632 173 639T110 646L120 688H464ZM421 717L525 830Q544 850 557 863T579 883T596 894T612 897Q632 897 645 884T659 853Q659 834 651 825T619 802L469 717H421Z"  />
<glyph unicode="&#xDB;" horiz-adv-x="778" d="M464 688L454 646Q425 645 406 642T374 630T353 604T336 558L254 255Q243 217 236 185T228 132Q228 104 239 85T270 53T312 36T360 30Q431 30 481 67T551 175L642 514Q645 526 648 539T655 566T660 591T662 610Q662 627 647 635T580 646L590 688H836L826 646Q797 645 778 642T745 629T723 605T708 568L608 188Q595 140 574 103T519 40T441 1T334 -12Q273 -12 226 2T145 40T95 96T78 166Q78 185 86 223T107 309T134 405T161 497T181 569T190 606Q190 632 173 639T110 646L120 688H464ZM563 891L649 717H599L511 813L373 717H321L481 891H563Z"  />
<glyph unicode="&#xDC;" horiz-adv-x="778" d="M464 688L454 646Q425 645 406 642T374 630T353 604T336 558L254 255Q243 217 236 185T228 132Q228 104 239 85T270 53T312 36T360 30Q431 30 481 67T551 175L642 514Q645 526 648 539T655 566T660 591T662 610Q662 627 647 635T580 646L590 688H836L826 646Q797 645 778 642T745 629T723 605T708 568L608 188Q595 140 574 103T519 40T441 1T334 -12Q273 -12 226 2T145 40T95 96T78 166Q78 185 86 223T107 309T134 405T161 497T181 569T190 606Q190 632 173 639T110 646L120 688H464ZM549 792Q549 818 568 837T614 857Q641 857 660 838T679 792Q679 766 660 747T614 727Q587 727 568 746T549 792ZM335 792Q335 818 354 837T400 857Q427 857 446 838T465 792Q465 766 446 747T400 727Q373 727 354 746T335 792Z"  />
<glyph unicode="&#xDD;" horiz-adv-x="667" d="M42 0L52 42Q90 43 113 47T149 61T167 82T178 112L232 308L147 610Q145 618 142 624T131 635T110 642T76 646L86 688H414L404 646Q356 644 336 638T316 608Q316 586 322 565T336 518L384 358L526 540Q545 564 559 586T574 620Q574 626 572 630T561 638T537 643T496 646L506 688H756L746 646Q704 644 677 631T622 583L396 296L359 162Q352 137 346 115T340 83Q340 73 343 66T355 53T382 46T430 42L420 0H42ZM383 717L487 830Q506 850 519 863T541 883T558 894T574 897Q594 897 607 884T621 853Q621 834 613 825T581 802L431 717H383Z"  />
<glyph unicode="&#xDE;" horiz-adv-x="685" d="M332 208Q366 208 394 223T442 263T473 322T484 392Q484 433 464 456T409 480Q371 480 350 463T317 408L262 208H332ZM-58 0L-48 42Q-16 44 4 47T37 57T56 72T66 95L193 550Q198 570 202 586T206 614Q206 622 203 628T191 637T165 643T118 646L128 688H492L482 646Q450 645 429 641T395 629T376 611T366 588L349 522H402Q523 522 585 480T648 356Q648 315 629 280T571 220T474 180T338 166H252Q242 131 237 108T232 70Q232 63 235 58T247 50T274 45T320 42L310 0H-58Z"  />
<glyph unicode="&#xDF;" horiz-adv-x="648" d="M20 428L30 470H116Q131 520 156 560T217 629T297 673T398 688Q431 688 467 680T533 653T583 606T603 534Q603 495 586 472T544 435T490 415T435 404T393 393T376 372Q376 362 390 354T427 335T475 311T523 277T559 230T574 164Q574 126 558 93T513 35T445 -5T362 -20Q326 -20 297 -10T248 16T217 54T206 96Q206 134 228 152T280 170Q309 170 325 153T342 112Q342 86 328 70T290 54Q285 54 280 55T268 58Q281 36 300 27T343 18Q367 18 387 24T424 43T449 71T458 109Q458 135 445 154T411 187T368 215T325 242T292 275T278 320Q278 355 292 373T327 403T372 422T418 445T453 485T467 556Q467 600 446 625T388 650Q338 650 304 606T252 477L180 134Q168 79 140 23T71 -79T-23 -153T-134 -182Q-151 -182 -169 -177T-203 -162T-228 -138T-238 -103Q-238 -71 -216 -51T-162 -30Q-135 -30 -115 -46T-94 -92Q-94 -106 -98 -114T-106 -128T-114 -135T-118 -139Q-118 -144 -102 -144Q-92 -144 -79 -137T-54 -116T-30 -83T-12 -39Q10 36 26 100T56 220T81 327T105 428H20Z"  />
<glyph unicode="&#xE0;" horiz-adv-x="648" d="M556 472L468 116Q464 99 461 82T458 58Q458 52 460 46T472 40Q486 40 501 55T531 90T555 130T569 163L602 145Q590 117 575 89T539 39T493 2T432 -12Q390 -12 365 15T332 94H330Q315 71 300 52T266 18T227 -4T178 -12Q146 -12 114 -2T57 32T16 92T0 181Q0 238 24 292T88 389T178 456T282 482Q329 482 353 460T390 402H392L408 472H556ZM366 343Q366 430 304 430Q281 430 261 413T225 369T195 307T172 237T159 169T154 112Q154 74 166 57T204 40Q237 40 266 72T318 152T353 251T366 343ZM420 542L283 634Q270 643 262 654T254 679Q254 695 266 708T300 722Q316 722 329 714T366 675L466 542H420Z"  />
<glyph unicode="&#xE1;" horiz-adv-x="648" d="M556 472L468 116Q464 99 461 82T458 58Q458 52 460 46T472 40Q486 40 501 55T531 90T555 130T569 163L602 145Q590 117 575 89T539 39T493 2T432 -12Q390 -12 365 15T332 94H330Q315 71 300 52T266 18T227 -4T178 -12Q146 -12 114 -2T57 32T16 92T0 181Q0 238 24 292T88 389T178 456T282 482Q329 482 353 460T390 402H392L408 472H556ZM366 343Q366 430 304 430Q281 430 261 413T225 369T195 307T172 237T159 169T154 112Q154 74 166 57T204 40Q237 40 266 72T318 152T353 251T366 343ZM310 542L414 655Q433 675 446 688T468 708T485 719T501 722Q521 722 534 709T548 678Q548 659 540 650T508 627L358 542H310Z"  />
<glyph unicode="&#xE2;" horiz-adv-x="648" d="M556 472L468 116Q464 99 461 82T458 58Q458 52 460 46T472 40Q486 40 501 55T531 90T555 130T569 163L602 145Q590 117 575 89T539 39T493 2T432 -12Q390 -12 365 15T332 94H330Q315 71 300 52T266 18T227 -4T178 -12Q146 -12 114 -2T57 32T16 92T0 181Q0 238 24 292T88 389T178 456T282 482Q329 482 353 460T390 402H392L408 472H556ZM366 343Q366 430 304 430Q281 430 261 413T225 369T195 307T172 237T159 169T154 112Q154 74 166 57T204 40Q237 40 266 72T318 152T353 251T366 343ZM452 716L538 542H488L400 638L262 542H210L370 716H452Z"  />
<glyph unicode="&#xE3;" horiz-adv-x="648" d="M556 472L468 116Q464 99 461 82T458 58Q458 52 460 46T472 40Q486 40 501 55T531 90T555 130T569 163L602 145Q590 117 575 89T539 39T493 2T432 -12Q390 -12 365 15T332 94H330Q315 71 300 52T266 18T227 -4T178 -12Q146 -12 114 -2T57 32T16 92T0 181Q0 238 24 292T88 389T178 456T282 482Q329 482 353 460T390 402H392L408 472H556ZM366 343Q366 430 304 430Q281 430 261 413T225 369T195 307T172 237T159 169T154 112Q154 74 166 57T204 40Q237 40 266 72T318 152T353 251T366 343ZM218 564Q222 586 231 607T255 646T290 673T334 684Q349 684 370 677T412 662T453 647T486 640Q506 640 517 652T536 682H578Q573 658 564 636T539 598T503 572T455 562Q440 562 421 569T382 584T342 599T307 606Q287 606 276 594T260 564H218Z"  />
<glyph unicode="&#xE4;" horiz-adv-x="648" d="M556 472L468 116Q464 99 461 82T458 58Q458 52 460 46T472 40Q486 40 501 55T531 90T555 130T569 163L602 145Q590 117 575 89T539 39T493 2T432 -12Q390 -12 365 15T332 94H330Q315 71 300 52T266 18T227 -4T178 -12Q146 -12 114 -2T57 32T16 92T0 181Q0 238 24 292T88 389T178 456T282 482Q329 482 353 460T390 402H392L408 472H556ZM366 343Q366 430 304 430Q281 430 261 413T225 369T195 307T172 237T159 169T154 112Q154 74 166 57T204 40Q237 40 266 72T318 152T353 251T366 343ZM438 617Q438 643 457 662T503 682Q530 682 549 663T568 617Q568 591 549 572T503 552Q476 552 457 571T438 617ZM224 617Q224 643 243 662T289 682Q316 682 335 663T354 617Q354 591 335 572T289 552Q262 552 243 571T224 617Z"  />
<glyph unicode="&#xE5;" horiz-adv-x="648" d="M556 472L468 116Q464 99 461 82T458 58Q458 52 460 46T472 40Q486 40 501 55T531 90T555 130T569 163L602 145Q590 117 575 89T539 39T493 2T432 -12Q390 -12 365 15T332 94H330Q315 71 300 52T266 18T227 -4T178 -12Q146 -12 114 -2T57 32T16 92T0 181Q0 238 24 292T88 389T178 456T282 482Q329 482 353 460T390 402H392L408 472H556ZM366 343Q366 430 304 430Q281 430 261 413T225 369T195 307T172 237T159 169T154 112Q154 74 166 57T204 40Q237 40 266 72T318 152T353 251T366 343ZM286 645Q286 666 294 685T316 718T348 740T389 748Q411 748 429 740T462 718T484 685T492 645Q492 624 484 605T462 572T430 550T389 542Q367 542 349 550T316 572T294 605T286 645ZM330 645Q330 620 347 603T389 586Q414 586 431 603T448 645Q448 670 431 687T389 704Q364 704 347 687T330 645Z"  />
<glyph unicode="&#xE6;" horiz-adv-x="833" d="M476 476L442 352L444 350Q458 378 479 402T525 444T579 472T636 482Q669 482 694 473T737 449T764 412T774 368Q774 329 754 299T698 247T615 215T511 204Q494 204 485 204T468 205Q465 188 464 174T462 142Q462 83 486 57T550 30Q579 30 602 41T644 70T679 110T712 156L740 140Q730 123 714 97T672 47T612 6T531 -12Q455 -12 406 28T354 158H352Q336 111 317 79T274 26T222 -3T160 -12Q128 -12 98 -1T46 33T10 89T-4 166Q-4 231 18 288T76 389T156 457T243 482Q276 482 300 472T341 444T366 403T374 354H376L386 476H476ZM128 146Q128 93 142 62T196 30Q230 30 257 61T304 137T334 235T344 330Q344 387 325 413T276 440Q243 440 216 408T169 329T139 232T128 146ZM476 242Q567 242 620 278T674 386Q674 413 662 426T632 440Q600 440 574 417T527 363T493 297T476 242Z"  />
<glyph unicode="&#xE7;" horiz-adv-x="500" d="M411 150Q397 115 378 86T333 35T275 1T203 -12H191L156 -64Q162 -62 168 -61T181 -60Q223 -60 247 -81T272 -130Q272 -174 238 -197T146 -220Q114 -220 88 -214T36 -196L58 -162Q74 -170 90 -174T127 -178Q180 -178 180 -139Q180 -124 168 -113T135 -102Q127 -102 119 -103T102 -108L90 -94L150 -6Q118 1 90 18T41 59T8 117T-4 189Q-4 253 23 307T95 400T195 460T307 482Q340 482 365 474T406 452T431 421T440 385Q440 350 419 326T360 302Q336 302 314 317T292 368Q292 389 300 400T319 418T337 426T346 431Q346 440 323 440Q293 440 269 425T224 386T189 331T164 267T149 202T144 145Q144 113 151 91T171 56T198 36T228 30Q253 30 276 44T319 80T354 127T378 172L411 150Z"  />
<glyph unicode="&#xE8;" horiz-adv-x="519" d="M430 134Q409 101 387 75T339 29T281 -1T208 -12Q167 -12 129 0T62 38T14 102T-4 192Q-4 260 28 313T107 404T210 462T312 482Q382 482 420 453T458 379Q458 342 443 316T404 271T348 241T283 224T217 215T157 212Q155 204 153 193T149 169T146 146T144 126Q144 74 164 52T226 30Q253 30 278 41T326 71T366 112T399 156L430 134ZM336 395Q336 414 329 427T302 440Q276 440 253 419T212 367T183 306T168 254Q198 254 228 263T282 291T321 335T336 395ZM367 542L230 634Q217 643 209 654T201 679Q201 695 213 708T247 722Q263 722 276 714T313 675L413 542H367Z"  />
<glyph unicode="&#xE9;" horiz-adv-x="519" d="M430 134Q409 101 387 75T339 29T281 -1T208 -12Q167 -12 129 0T62 38T14 102T-4 192Q-4 260 28 313T107 404T210 462T312 482Q382 482 420 453T458 379Q458 342 443 316T404 271T348 241T283 224T217 215T157 212Q155 204 153 193T149 169T146 146T144 126Q144 74 164 52T226 30Q253 30 278 41T326 71T366 112T399 156L430 134ZM336 395Q336 414 329 427T302 440Q276 440 253 419T212 367T183 306T168 254Q198 254 228 263T282 291T321 335T336 395ZM257 542L361 655Q380 675 393 688T415 708T432 719T448 722Q468 722 481 709T495 678Q495 659 487 650T455 627L305 542H257Z"  />
<glyph unicode="&#xEA;" horiz-adv-x="519" d="M430 134Q409 101 387 75T339 29T281 -1T208 -12Q167 -12 129 0T62 38T14 102T-4 192Q-4 260 28 313T107 404T210 462T312 482Q382 482 420 453T458 379Q458 342 443 316T404 271T348 241T283 224T217 215T157 212Q155 204 153 193T149 169T146 146T144 126Q144 74 164 52T226 30Q253 30 278 41T326 71T366 112T399 156L430 134ZM336 395Q336 414 329 427T302 440Q276 440 253 419T212 367T183 306T168 254Q198 254 228 263T282 291T321 335T336 395ZM399 716L485 542H435L347 638L209 542H157L317 716H399Z"  />
<glyph unicode="&#xEB;" horiz-adv-x="519" d="M430 134Q409 101 387 75T339 29T281 -1T208 -12Q167 -12 129 0T62 38T14 102T-4 192Q-4 260 28 313T107 404T210 462T312 482Q382 482 420 453T458 379Q458 342 443 316T404 271T348 241T283 224T217 215T157 212Q155 204 153 193T149 169T146 146T144 126Q144 74 164 52T226 30Q253 30 278 41T326 71T366 112T399 156L430 134ZM336 395Q336 414 329 427T302 440Q276 440 253 419T212 367T183 306T168 254Q198 254 228 263T282 291T321 335T336 395ZM385 617Q385 643 404 662T450 682Q477 682 496 663T515 617Q515 591 496 572T450 552Q423 552 404 571T385 617ZM171 617Q171 643 190 662T236 682Q263 682 282 663T301 617Q301 591 282 572T236 552Q209 552 190 571T171 617Z"  />
<glyph unicode="&#xEC;" horiz-adv-x="352" d="M40 468L266 472Q264 465 255 436T235 366T210 279T186 191T167 120T160 81Q160 52 177 52Q189 52 202 65T228 96T250 131T265 156L297 138Q285 111 268 85T229 37T180 2T120 -12Q75 -12 46 13T16 90Q16 124 28 169T54 259T80 341T92 398Q92 416 80 423T30 432L40 468ZM249 542L112 634Q99 643 91 654T83 679Q83 695 95 708T129 722Q145 722 158 714T195 675L295 542H249Z"  />
<glyph unicode="&#xED;" horiz-adv-x="352" d="M40 468L266 472Q264 465 255 436T235 366T210 279T186 191T167 120T160 81Q160 52 177 52Q189 52 202 65T228 96T250 131T265 156L297 138Q285 111 268 85T229 37T180 2T120 -12Q75 -12 46 13T16 90Q16 124 28 169T54 259T80 341T92 398Q92 416 80 423T30 432L40 468ZM139 542L243 655Q262 675 275 688T297 708T314 719T330 722Q350 722 363 709T377 678Q377 659 369 650T337 627L187 542H139Z"  />
<glyph unicode="&#xEE;" horiz-adv-x="352" d="M40 468L266 472Q264 465 255 436T235 366T210 279T186 191T167 120T160 81Q160 52 177 52Q189 52 202 65T228 96T250 131T265 156L297 138Q285 111 268 85T229 37T180 2T120 -12Q75 -12 46 13T16 90Q16 124 28 169T54 259T80 341T92 398Q92 416 80 423T30 432L40 468ZM281 716L367 542H317L229 638L91 542H39L199 716H281Z"  />
<glyph unicode="&#xEF;" horiz-adv-x="352" d="M40 468L266 472Q264 465 255 436T235 366T210 279T186 191T167 120T160 81Q160 52 177 52Q189 52 202 65T228 96T250 131T265 156L297 138Q285 111 268 85T229 37T180 2T120 -12Q75 -12 46 13T16 90Q16 124 28 169T54 259T80 341T92 398Q92 416 80 423T30 432L40 468ZM267 617Q267 643 286 662T332 682Q359 682 378 663T397 617Q397 591 378 572T332 552Q305 552 286 571T267 617ZM53 617Q53 643 72 662T118 682Q145 682 164 663T183 617Q183 591 164 572T118 552Q91 552 72 571T53 617Z"  />
<glyph unicode="&#xF0;" horiz-adv-x="574" d="M297 430Q274 430 253 413T215 367T183 302T160 230T145 159T140 101Q140 60 155 43T203 26Q237 26 265 60T315 145T348 253T360 355Q360 396 345 413T297 430ZM171 592L259 639Q239 650 216 657T163 668L179 700Q258 694 314 669L405 718L433 685L360 645Q399 620 427 586T473 510T499 423T508 332Q508 255 489 192T432 83T337 13T205 -12Q162 -12 124 3T58 46T13 109T-4 188Q-4 245 22 296T91 385T187 446T295 468Q333 468 366 456Q358 563 299 612L201 559L171 592Z"  />
<glyph unicode="&#xF1;" horiz-adv-x="630" d="M54 468L256 472Q251 454 246 428T234 374L236 372Q252 393 269 413T305 448T348 473T400 482Q429 482 452 471T491 442T515 400T524 348Q524 318 511 278T482 198T453 124T440 72Q440 64 443 58T458 52Q468 52 481 66T508 97T531 131T546 154L576 132Q562 107 545 82T506 35T458 1T399 -12Q382 -12 365 -7T334 11T311 43T302 91Q302 111 308 136T325 188T346 243T367 297T383 346T390 386Q390 403 381 413T352 424Q329 424 304 401T253 335T203 233T160 101L134 0H-8L75 302Q79 317 84 333T93 363T99 388T102 404Q102 418 92 424T44 432L54 468ZM192 564Q196 586 205 607T229 646T264 673T308 684Q323 684 344 677T386 662T427 647T460 640Q480 640 491 652T510 682H552Q547 658 538 636T513 598T477 572T429 562Q414 562 395 569T356 584T316 599T281 606Q261 606 250 594T234 564H192Z"  />
<glyph unicode="&#xF2;" horiz-adv-x="574" d="M-4 194Q-4 253 22 305T92 397T189 459T298 482Q341 482 379 466T446 422T491 357T508 276Q508 217 484 165T418 73T322 11T206 -12Q163 -12 125 4T58 48T13 113T-4 194ZM204 26Q227 26 248 42T286 86T318 149T343 223T358 298T364 366Q364 408 349 426T300 444Q276 444 255 426T216 379T184 312T160 237T145 164T140 104Q140 62 155 44T204 26ZM383 542L246 634Q233 643 225 654T217 679Q217 695 229 708T263 722Q279 722 292 714T329 675L429 542H383Z"  />
<glyph unicode="&#xF3;" horiz-adv-x="574" d="M-4 194Q-4 253 22 305T92 397T189 459T298 482Q341 482 379 466T446 422T491 357T508 276Q508 217 484 165T418 73T322 11T206 -12Q163 -12 125 4T58 48T13 113T-4 194ZM204 26Q227 26 248 42T286 86T318 149T343 223T358 298T364 366Q364 408 349 426T300 444Q276 444 255 426T216 379T184 312T160 237T145 164T140 104Q140 62 155 44T204 26ZM273 542L377 655Q396 675 409 688T431 708T448 719T464 722Q484 722 497 709T511 678Q511 659 503 650T471 627L321 542H273Z"  />
<glyph unicode="&#xF4;" horiz-adv-x="574" d="M-4 194Q-4 253 22 305T92 397T189 459T298 482Q341 482 379 466T446 422T491 357T508 276Q508 217 484 165T418 73T322 11T206 -12Q163 -12 125 4T58 48T13 113T-4 194ZM204 26Q227 26 248 42T286 86T318 149T343 223T358 298T364 366Q364 408 349 426T300 444Q276 444 255 426T216 379T184 312T160 237T145 164T140 104Q140 62 155 44T204 26ZM415 716L501 542H451L363 638L225 542H173L333 716H415Z"  />
<glyph unicode="&#xF5;" horiz-adv-x="574" d="M-4 194Q-4 253 22 305T92 397T189 459T298 482Q341 482 379 466T446 422T491 357T508 276Q508 217 484 165T418 73T322 11T206 -12Q163 -12 125 4T58 48T13 113T-4 194ZM204 26Q227 26 248 42T286 86T318 149T343 223T358 298T364 366Q364 408 349 426T300 444Q276 444 255 426T216 379T184 312T160 237T145 164T140 104Q140 62 155 44T204 26ZM181 564Q185 586 194 607T218 646T253 673T297 684Q312 684 333 677T375 662T416 647T449 640Q469 640 480 652T499 682H541Q536 658 527 636T502 598T466 572T418 562Q403 562 384 569T345 584T305 599T270 606Q250 606 239 594T223 564H181Z"  />
<glyph unicode="&#xF6;" horiz-adv-x="574" d="M-4 194Q-4 253 22 305T92 397T189 459T298 482Q341 482 379 466T446 422T491 357T508 276Q508 217 484 165T418 73T322 11T206 -12Q163 -12 125 4T58 48T13 113T-4 194ZM204 26Q227 26 248 42T286 86T318 149T343 223T358 298T364 366Q364 408 349 426T300 444Q276 444 255 426T216 379T184 312T160 237T145 164T140 104Q140 62 155 44T204 26ZM401 617Q401 643 420 662T466 682Q493 682 512 663T531 617Q531 591 512 572T466 552Q439 552 420 571T401 617ZM187 617Q187 643 206 662T252 682Q279 682 298 663T317 617Q317 591 298 572T252 552Q225 552 206 571T187 617Z"  />
<glyph unicode="&#xF7;" horiz-adv-x="600" d="M65 184V286H535V184H65ZM218 428Q218 444 224 459T242 485T268 503T300 510Q316 510 331 504T357 486T375 459T382 428Q382 411 376 397T358 371T331 353T300 346Q283 346 269 352T243 370T225 396T218 428ZM218 42Q218 58 224 73T242 99T268 117T300 124Q316 124 331 118T357 100T375 73T382 42Q382 25 376 11T358 -15T331 -33T300 -40Q283 -40 269 -34T243 -16T225 10T218 42Z"  />
<glyph unicode="&#xF8;" horiz-adv-x="574" d="M145 73Q154 26 205 26Q236 26 262 56T309 131T343 230T360 329L358 331L145 73ZM358 401Q353 424 338 434T299 444Q268 444 242 413T196 337T163 241T144 147L146 145L358 401ZM474 536H536L442 425Q473 397 490 359T508 276Q508 217 484 165T418 73T322 11T206 -12Q148 -12 98 19L18 -76H-44L60 47Q31 75 14 112T-4 194Q-4 253 22 305T92 397T189 459T298 482Q327 482 354 475T404 453L474 536Z"  />
<glyph unicode="&#xF9;" horiz-adv-x="630" d="M50 468L270 472Q255 422 236 360T200 242T172 142T160 85Q160 70 168 58T192 46Q210 46 234 66T285 128T338 236T385 394L402 468L546 472L464 159Q457 134 453 113T448 78Q448 63 453 58T465 52Q475 52 488 65T513 95T534 128T548 152L580 136Q568 112 552 86T516 38T470 2T413 -12Q365 -12 344 18T322 89Q322 95 322 101T324 114L322 116Q304 89 286 66T247 25T202 -2T147 -12Q126 -12 106 -4T69 20T44 61T34 120Q34 160 44 204T68 286T91 354T102 396Q102 417 87 424T40 432L50 468ZM411 542L274 634Q261 643 253 654T245 679Q245 695 257 708T291 722Q307 722 320 714T357 675L457 542H411Z"  />
<glyph unicode="&#xFA;" horiz-adv-x="630" d="M50 468L270 472Q255 422 236 360T200 242T172 142T160 85Q160 70 168 58T192 46Q210 46 234 66T285 128T338 236T385 394L402 468L546 472L464 159Q457 134 453 113T448 78Q448 63 453 58T465 52Q475 52 488 65T513 95T534 128T548 152L580 136Q568 112 552 86T516 38T470 2T413 -12Q365 -12 344 18T322 89Q322 95 322 101T324 114L322 116Q304 89 286 66T247 25T202 -2T147 -12Q126 -12 106 -4T69 20T44 61T34 120Q34 160 44 204T68 286T91 354T102 396Q102 417 87 424T40 432L50 468ZM301 542L405 655Q424 675 437 688T459 708T476 719T492 722Q512 722 525 709T539 678Q539 659 531 650T499 627L349 542H301Z"  />
<glyph unicode="&#xFB;" horiz-adv-x="630" d="M50 468L270 472Q255 422 236 360T200 242T172 142T160 85Q160 70 168 58T192 46Q210 46 234 66T285 128T338 236T385 394L402 468L546 472L464 159Q457 134 453 113T448 78Q448 63 453 58T465 52Q475 52 488 65T513 95T534 128T548 152L580 136Q568 112 552 86T516 38T470 2T413 -12Q365 -12 344 18T322 89Q322 95 322 101T324 114L322 116Q304 89 286 66T247 25T202 -2T147 -12Q126 -12 106 -4T69 20T44 61T34 120Q34 160 44 204T68 286T91 354T102 396Q102 417 87 424T40 432L50 468ZM443 716L529 542H479L391 638L253 542H201L361 716H443Z"  />
<glyph unicode="&#xFC;" horiz-adv-x="630" d="M50 468L270 472Q255 422 236 360T200 242T172 142T160 85Q160 70 168 58T192 46Q210 46 234 66T285 128T338 236T385 394L402 468L546 472L464 159Q457 134 453 113T448 78Q448 63 453 58T465 52Q475 52 488 65T513 95T534 128T548 152L580 136Q568 112 552 86T516 38T470 2T413 -12Q365 -12 344 18T322 89Q322 95 322 101T324 114L322 116Q304 89 286 66T247 25T202 -2T147 -12Q126 -12 106 -4T69 20T44 61T34 120Q34 160 44 204T68 286T91 354T102 396Q102 417 87 424T40 432L50 468ZM429 617Q429 643 448 662T494 682Q521 682 540 663T559 617Q559 591 540 572T494 552Q467 552 448 571T429 617ZM215 617Q215 643 234 662T280 682Q307 682 326 663T345 617Q345 591 326 572T280 552Q253 552 234 571T215 617Z"  />
<glyph unicode="&#xFD;" horiz-adv-x="611" d="M46 468L274 472Q239 358 218 289T184 179T168 119T164 86Q164 68 172 58T191 48Q211 48 234 67T280 114T320 177T347 243L414 470H556L435 24Q406 -85 327 -133T132 -182Q88 -182 58 -174T9 -153T-19 -122T-28 -86Q-28 -57 -10 -37T47 -16Q89 -16 107 -36T126 -80Q126 -97 117 -109T96 -129Q96 -134 106 -139T138 -144Q177 -144 209 -125T255 -75Q271 -40 282 3T302 78L300 80Q283 59 267 44T232 18T193 2T144 -4Q121 -4 100 5T63 31T38 73T28 132Q28 163 39 201T63 277T88 345T100 393Q100 410 88 420T36 432L46 468ZM291 542L395 655Q414 675 427 688T449 708T466 719T482 722Q502 722 515 709T529 678Q529 659 521 650T489 627L339 542H291Z"  />
<glyph unicode="&#xFE;" horiz-adv-x="611" d="M247 404L249 402Q263 417 277 431T307 457T342 475T384 482Q423 482 453 467T503 426T534 366T545 293Q545 233 518 178T447 81T347 14T234 -12Q222 -12 209 -10T183 -1T162 15T148 42H146L132 -14Q126 -37 120 -59T113 -99Q113 -107 117 -113T132 -123T164 -129T219 -132L209 -170H-139L-129 -132Q-104 -131 -87 -130T-59 -124T-42 -112T-32 -91L133 526Q140 552 144 573T148 605Q148 622 134 629T78 638L88 674L319 678L247 404ZM178 90Q178 71 183 60T196 42T212 33T228 30Q259 30 289 62T343 143T382 245T397 343Q397 390 388 410T356 430Q324 430 293 397T236 314T194 204T178 90Z"  />
<glyph unicode="&#xFF;" horiz-adv-x="611" d="M46 468L274 472Q239 358 218 289T184 179T168 119T164 86Q164 68 172 58T191 48Q211 48 234 67T280 114T320 177T347 243L414 470H556L435 24Q406 -85 327 -133T132 -182Q88 -182 58 -174T9 -153T-19 -122T-28 -86Q-28 -57 -10 -37T47 -16Q89 -16 107 -36T126 -80Q126 -97 117 -109T96 -129Q96 -134 106 -139T138 -144Q177 -144 209 -125T255 -75Q271 -40 282 3T302 78L300 80Q283 59 267 44T232 18T193 2T144 -4Q121 -4 100 5T63 31T38 73T28 132Q28 163 39 201T63 277T88 345T100 393Q100 410 88 420T36 432L46 468ZM419 617Q419 643 438 662T484 682Q511 682 530 663T549 617Q549 591 530 572T484 552Q457 552 438 571T419 617ZM205 617Q205 643 224 662T270 682Q297 682 316 663T335 617Q335 591 316 572T270 552Q243 552 224 571T205 617Z"  />
<glyph unicode="&#x131;" horiz-adv-x="352" d="M40 468L266 472Q264 465 255 436T235 366T210 279T186 191T167 120T160 81Q160 52 177 52Q189 52 202 65T228 96T250 131T265 156L297 138Q285 111 268 85T229 37T180 2T120 -12Q75 -12 46 13T16 90Q16 124 28 169T54 259T80 341T92 398Q92 416 80 423T30 432L40 468Z"  />
<glyph unicode="&#x152;" horiz-adv-x="1000" d="M844 0H472Q442 0 418 -2T374 -6Q354 -8 337 -10T302 -12Q237 -12 187 11T104 73T53 165T36 278Q36 363 68 440T155 574T278 666T422 700Q451 700 472 698T514 694Q534 692 553 690T598 688H994L936 442H892Q894 460 895 480T896 530Q896 591 860 618T766 646Q741 646 726 644T701 635T687 618T678 591L626 378Q677 380 707 406T754 498H796L730 222H692Q691 259 687 281T674 315T651 331T616 336L567 142Q562 121 558 105T554 75Q554 56 566 49T614 42Q669 42 707 57T774 101T821 168T858 256H904L844 0ZM526 523Q531 540 534 558T538 598Q538 628 510 645T438 662Q396 662 360 640T295 581T242 494T204 392T180 284T172 181Q172 151 179 123T201 74T240 39T299 26Q355 26 385 56T427 130L526 523Z"  />
<glyph unicode="&#x153;" horiz-adv-x="852" d="M764 141Q727 65 676 27T542 -12Q489 -12 444 15T378 91Q350 40 300 14T181 -12Q145 -12 112 2T53 42T12 105T-4 190Q-4 252 20 305T86 398T181 459T293 482Q350 482 391 448T440 356H442Q459 384 483 407T536 447T594 473T654 482Q715 482 755 457T795 375Q795 337 775 306T715 254T620 221T491 212Q489 206 486 196T481 172T477 144T475 118Q475 103 479 88T494 59T522 38T565 30Q600 30 626 42T672 72T706 113T733 155L764 141ZM132 108Q132 67 150 47T202 26Q233 26 262 54T313 130T348 237T361 362Q361 407 343 425T296 444Q267 444 244 425T203 374T172 305T149 230T136 160T132 108ZM503 254Q553 250 588 261T645 293T677 340T687 393Q687 418 675 429T642 440Q618 440 596 422T555 377T523 316T503 254Z"  />
<glyph unicode="&#x160;" horiz-adv-x="667" d="M46 260H88V204Q88 164 95 132T120 78T169 43T250 30Q287 30 318 42T371 74T407 116T420 160Q420 194 398 216T341 257T267 292T193 333T137 391T114 477Q114 519 136 559T197 630T288 681T402 700Q442 700 470 692T517 673T550 655T574 646Q588 646 596 658T610 682H658L600 452H558V492Q558 568 520 613T398 658Q364 658 338 649T294 624T267 587T258 544Q258 507 280 484T337 443T411 410T485 372T541 319T564 238Q564 180 537 134T466 56T364 6T245 -12Q209 -12 181 -4T131 13T95 30T71 38Q52 38 43 29T22 6H-20L46 260ZM305 891H355L447 795L585 891H637L475 717H393L305 891Z"  />
<glyph unicode="&#x161;" horiz-adv-x="519" d="M46 326Q46 360 63 389T111 438T182 470T268 482Q320 482 355 472T410 447T439 415T448 384Q448 318 378 318Q349 318 331 333T312 374Q312 391 318 401T333 416T347 423T354 426Q354 430 334 437T276 444Q257 444 239 439T208 424T186 401T178 373Q178 351 196 337T241 311T300 287T359 257T404 214T422 152Q422 118 404 89T352 37T269 1T156 -12Q121 -12 88 -4T30 19T-12 58T-28 113Q-28 145 -7 163T50 182Q79 182 97 164T116 122Q116 102 108 90T91 71T74 61T66 57Q66 46 90 36T162 26Q193 26 216 32T254 49T278 71T286 94Q286 120 268 136T224 166T166 191T109 220T64 262T46 326ZM185 716H235L327 620L465 716H517L355 542H273L185 716Z"  />
<glyph unicode="&#x178;" horiz-adv-x="667" d="M42 0L52 42Q90 43 113 47T149 61T167 82T178 112L232 308L147 610Q145 618 142 624T131 635T110 642T76 646L86 688H414L404 646Q356 644 336 638T316 608Q316 586 322 565T336 518L384 358L526 540Q545 564 559 586T574 620Q574 626 572 630T561 638T537 643T496 646L506 688H756L746 646Q704 644 677 631T622 583L396 296L359 162Q352 137 346 115T340 83Q340 73 343 66T355 53T382 46T430 42L420 0H42ZM511 792Q511 818 530 837T576 857Q603 857 622 838T641 792Q641 766 622 747T576 727Q549 727 530 746T511 792ZM297 792Q297 818 316 837T362 857Q389 857 408 838T427 792Q427 766 408 747T362 727Q335 727 316 746T297 792Z"  />
<glyph unicode="&#x17D;" horiz-adv-x="685" d="M514 0H-20L-2 68L504 640H424Q321 640 254 594T162 450L116 458L182 688H686L680 632L166 48H220Q293 48 346 63T438 106T503 175T546 268L588 260L514 0ZM314 891H364L456 795L594 891H646L484 717H402L314 891Z"  />
<glyph unicode="&#x17E;" horiz-adv-x="574" d="M472 166Q459 129 442 97T400 40T345 2T271 -12Q244 -12 223 -5T180 12T135 28T80 36Q63 36 51 34T30 26T11 11T-10 -12L-42 4Q-20 53 15 93T93 167T180 227T267 275Q327 304 370 330T432 382L430 384Q399 367 364 356T294 344Q272 344 254 347T218 355T184 362T149 366Q130 366 114 350T80 286L50 304Q61 340 81 372T126 429T182 467T244 482Q266 482 290 476T337 462T380 448T416 442Q445 442 465 451T506 482L534 460Q504 406 469 366T390 295T295 236T180 180Q158 169 142 159T113 139T89 119T66 96L68 94Q89 105 105 114T137 129T169 138T206 142Q233 142 252 136T287 123T318 110T352 104Q386 104 407 127T440 180L472 166ZM213 716H263L355 620L493 716H545L383 542H301L213 716Z"  />
<glyph unicode="&#x192;" horiz-adv-x="574" d="M126 396L136 438H244Q259 507 285 556T343 638T411 685T484 700Q512 700 533 693T567 673T587 646T594 614Q594 599 588 585T572 560T548 543T518 536Q494 536 477 550T460 592Q460 613 474 628T508 650Q502 655 495 656T482 658Q447 658 428 633T399 547L383 438H492L482 396H376L350 255Q344 225 337 189T319 116T297 43T270 -22Q251 -61 226 -91T171 -141T111 -171T50 -182Q-1 -182 -33 -157T-66 -89Q-66 -49 -44 -28T9 -6Q39 -6 55 -22T72 -69Q72 -79 67 -89T54 -107T35 -121T16 -128Q24 -136 35 -138T58 -140Q81 -140 97 -129T125 -100T143 -57T154 -7Q168 96 189 195T231 396H126Z"  />
<glyph unicode="&#x2C6;" horiz-adv-x="333" d="M294 716L380 542H330L242 638L104 542H52L212 716H294Z"  />
<glyph unicode="&#x2C7;" horiz-adv-x="333" d="M92 716H142L234 620L372 716H424L262 542H180L92 716Z"  />
<glyph unicode="&#x2DA;" horiz-adv-x="333" d="M128 645Q128 666 136 685T158 718T190 740T231 748Q253 748 271 740T304 718T326 685T334 645Q334 624 326 605T304 572T272 550T231 542Q209 542 191 550T158 572T136 605T128 645ZM172 645Q172 620 189 603T231 586Q256 586 273 603T290 645Q290 670 273 687T231 704Q206 704 189 687T172 645Z"  />
<glyph unicode="&#x2DC;" horiz-adv-x="333" d="M60 564Q64 586 73 607T97 646T132 673T176 684Q191 684 212 677T254 662T295 647T328 640Q348 640 359 652T378 682H420Q415 658 406 636T381 598T345 572T297 562Q282 562 263 569T224 584T184 599T149 606Q129 606 118 594T102 564H60Z"  />
<glyph unicode="&#x2013;" horiz-adv-x="500" d="M510 272L490 198H-10L10 272H510Z"  />
<glyph unicode="&#x2014;" horiz-adv-x="1000" d="M1010 272L990 198H-10L10 272H1010Z"  />
<glyph unicode="&#x2018;" horiz-adv-x="278" d="M312 666Q290 651 268 634T228 598T199 558T186 512Q274 509 274 440Q274 407 253 387T206 366Q165 366 141 391T116 467Q116 503 130 537T169 602T223 658T286 700L312 666Z"  />
<glyph unicode="&#x2019;" horiz-adv-x="278" d="M74 400Q96 415 118 432T158 468T187 508T200 554Q112 557 112 626Q112 659 133 679T180 700Q221 700 245 675T270 599Q270 563 255 529T216 464T162 408T100 366L74 400Z"  />
<glyph unicode="&#x201A;" horiz-adv-x="278" d="M-66 -154Q-44 -139 -22 -122T18 -86T47 -46T60 0Q-28 3 -28 72Q-28 105 -7 125T40 146Q81 146 105 121T130 45Q130 9 115 -25T76 -90T22 -146T-40 -188L-66 -154Z"  />
<glyph unicode="&#x201C;" horiz-adv-x="537" d="M548 666Q526 651 504 634T464 598T435 558T422 512Q510 509 510 440Q510 407 489 387T442 366Q401 366 377 391T352 467Q352 503 366 537T405 602T459 658T522 700L548 666ZM288 666Q266 651 244 634T204 598T175 558T162 512Q250 509 250 440Q250 407 229 387T182 366Q141 366 117 391T92 467Q92 503 106 537T145 602T199 658T262 700L288 666Z"  />
<glyph unicode="&#x201D;" horiz-adv-x="537" d="M96 400Q118 415 140 432T180 468T209 508T222 554Q134 557 134 626Q134 659 155 679T202 700Q243 700 267 675T292 599Q292 563 277 529T238 464T184 408T122 366L96 400ZM356 400Q378 415 400 432T440 468T469 508T482 554Q394 557 394 626Q394 659 415 679T462 700Q503 700 527 675T552 599Q552 563 537 529T498 464T444 408T382 366L356 400Z"  />
<glyph unicode="&#x201E;" horiz-adv-x="537" d="M-66 -154Q-44 -139 -22 -122T18 -86T47 -46T60 0Q-28 3 -28 72Q-28 105 -7 125T40 146Q81 146 105 121T130 45Q130 9 115 -25T76 -90T22 -146T-40 -188L-66 -154ZM194 -154Q216 -139 238 -122T278 -86T307 -46T320 0Q232 3 232 72Q232 105 253 125T300 146Q341 146 365 121T390 45Q390 9 375 -25T336 -90T282 -146T220 -188L194 -154Z"  />
<glyph unicode="&#x2020;" horiz-adv-x="500" d="M106 -124Q116 -76 127 -31T147 59T163 150T170 246Q170 260 169 270T166 296Q201 328 223 368T256 454Q232 454 215 449T183 437T154 426T119 420Q102 420 88 433T74 470Q74 492 88 508T126 524Q141 524 155 519T185 507T220 494T264 488Q270 509 272 526T274 558Q274 576 273 588T269 609T266 625T264 641Q264 667 280 683T324 700Q378 700 378 650Q378 627 369 614T346 585T320 549T300 488Q323 488 339 493T370 505T399 516T434 522Q451 522 464 510T478 474Q478 451 464 435T426 418Q411 418 397 423T368 435T334 448T292 454Q287 436 284 419T280 386Q280 363 284 341T298 292Q279 267 260 232T220 146T180 30T138 -124H106Z"  />
<glyph unicode="&#x2021;" horiz-adv-x="500" d="M-14 100Q-14 123 0 139T38 156Q53 156 67 151T96 139T130 126T172 120Q179 144 182 164T184 204T179 244T168 288Q200 314 223 357T254 454Q230 454 213 449T181 437T152 426T117 420Q100 420 86 433T72 470Q72 492 86 508T124 524Q139 524 153 519T183 507T218 494T262 488Q268 509 270 526T272 558Q272 576 271 588T267 609T264 625T262 641Q262 667 278 683T322 700Q376 700 376 650Q376 627 367 614T344 585T318 549T298 488Q321 488 337 493T368 505T397 516T432 522Q449 522 462 510T476 474Q476 451 462 435T424 418Q409 418 395 423T366 435T332 448T290 454Q279 416 279 369T296 284Q281 272 267 254T240 215T220 169T208 120Q232 120 249 125T281 137T310 148T345 154Q362 154 376 141T390 104Q390 82 376 66T338 50Q323 50 309 55T279 67T244 80T200 86Q194 65 192 48T190 16Q190 -2 191 -14T195 -35T198 -51T200 -67Q200 -93 184 -109T140 -126Q86 -126 86 -76Q86 -54 95 -40T118 -11T144 25T164 86Q141 86 125 81T94 69T65 58T30 52Q13 52 0 64T-14 100Z"  />
<glyph unicode="&#x2022;" horiz-adv-x="500" d="M422 344Q422 308 409 277T372 223T317 186T250 172Q214 172 183 185T129 222T92 276T78 344Q78 380 91 411T127 465T182 502T250 516Q286 516 317 503T371 466T408 411T422 344Z"  />
<glyph unicode="&#x2026;" horiz-adv-x="1000" d="M20 67Q20 100 41 123T99 146Q135 146 156 123T178 67Q178 34 157 11T99 -12Q63 -12 42 11T20 67ZM353 67Q353 100 374 123T432 146Q468 146 489 123T511 67Q511 34 490 11T432 -12Q396 -12 375 11T353 67ZM686 67Q686 100 707 123T765 146Q801 146 822 123T844 67Q844 34 823 11T765 -12Q729 -12 708 11T686 67Z"  />
<glyph unicode="&#x2030;" horiz-adv-x="1111" d="M836 48Q836 10 868 10Q888 10 906 30T939 83T966 153T986 227T999 289T1004 328Q1004 366 972 366Q952 366 934 346T901 293T874 223T854 149T841 86T836 48ZM176 -12H120L584 700H640L176 -12ZM112 360Q112 322 144 322Q164 322 182 342T215 395T242 465T262 539T275 601T280 640Q280 678 248 678Q228 678 210 658T177 605T150 535T130 461T117 398T112 360ZM760 130Q760 167 776 212T819 296T885 361T968 388Q1021 388 1050 351T1080 246Q1080 209 1064 164T1021 80T955 15T872 -12Q819 -12 790 25T760 130ZM36 442Q36 479 52 524T95 608T161 673T244 700Q297 700 326 663T356 558Q356 521 340 476T297 392T231 327T148 300Q95 300 66 337T36 442ZM404 130Q404 167 420 212T463 296T529 361T612 388Q665 388 694 351T724 246Q724 209 708 164T665 80T599 15T516 -12Q463 -12 434 25T404 130ZM480 48Q480 10 512 10Q532 10 550 30T583 83T610 153T630 227T643 289T648 328Q648 366 616 366Q596 366 578 346T545 293T518 223T498 149T485 86T480 48Z"  />
<glyph unicode="&#x2039;" horiz-adv-x="333" d="M16 237Q61 272 99 305T165 363T210 404T233 419Q238 419 241 416T244 403Q244 395 232 376T200 331T156 279T108 227Q121 206 133 181T155 132T170 90T176 65Q176 51 163 51Q157 51 147 65T119 103T77 158T16 225V237Z"  />
<glyph unicode="&#x203A;" horiz-adv-x="333" d="M244 233Q199 198 161 165T95 107T49 66T27 51Q22 51 19 54T16 67Q16 74 28 94T60 139T104 191T152 243Q138 264 126 289T105 338T90 380T84 405Q84 419 97 419Q103 419 113 405T141 367T183 312T244 245V233Z"  />
<glyph unicode="&#x20AC;" horiz-adv-x="574" d="M395 276H216Q212 250 210 229T208 190Q208 110 235 70T301 30Q338 30 368 49T422 98T460 163T482 229H530Q521 183 500 140T449 63T381 9T298 -12Q241 -12 199 13T128 80T85 171T71 273V276H-9L1 318H74Q76 336 80 354T90 392H6L16 434H104Q124 485 154 533T224 618T312 677T415 700Q443 700 463 693T498 677T523 661T539 654Q552 654 557 663T567 682H602L564 478H520Q531 562 506 610T416 658Q390 658 367 640T323 590T285 519T253 434H429L419 392H241Q236 373 232 355T224 318H405L395 276Z"  />
<glyph unicode="&#x2122;" horiz-adv-x="1000" d="M260 358Q260 344 261 337T267 325T282 319T312 316V290H96V316Q115 317 125 319T141 325T147 336T148 358V662H105Q77 662 63 644T44 602H18V688H390V602H364Q359 626 346 644T303 662H260V358ZM532 564H530V380Q530 359 532 347T540 328T556 319T582 316V290H450V316Q464 317 473 319T488 328T496 347T498 380V610Q476 662 430 662V688H583L712 423L850 688H982V662Q963 660 953 659T937 653T931 641T930 620V358Q930 344 931 337T937 325T952 319T982 316V290H770V316Q787 317 797 319T811 325T817 336T818 358V564H816L677 290H662L532 564Z"  />

</font>
</defs>
</svg>
