<?xml  version="1.0" encoding="UTF-8"?>
<!DOCTYPE svg PUBLIC "-//W3C//DTD SVG 1.0//EN" "http://www.w3.org/TR/2001/REC-SVG-20010904/DTD/svg10.dtd" >
<svg xmlns="http://www.w3.org/2000/svg" >
<metadata>
<version>1.0</version>
<id><![CDATA[ITC Century W01 Bold]]></id>
<vendor>Monotype Imaging Inc.</vendor>
<credits>
<name>Fonts.com WebFonts</name>
<URL>http://webfonts.fonts.com</URL>
<role>Home of the Web fonts</role>
</credits>
<license>
<URL>http://webfonts.fonts.com/Legal</URL>
</license>
<copyright><![CDATA[Font software Copyright 1990, 2001 Adobe Systems Incorporated. Typeface designs Copyright 2008 International Typeface Corporation. All rights reserved.]]></copyright>
<trademark><![CDATA[ITC Century is a trademark of International Typeface Corporation.]]></trademark>
<licensee>
<name></name>
</licensee>
</metadata>
<defs >
<font horiz-adv-x="568" id="e42959cf-e4aa-48b4-9f48-ebdf50829410">
<font-face font-family="" panose-1="0 0 8 0 0 0 0 0 0 0" ascent="688" descent="-312" units-per-em="1000" alphabetic="0">
</font-face>
<missing-glyph horiz-adv-x="287" />

<glyph unicode="&#xA;" />
<glyph unicode="&#xD;" />
<glyph unicode=" " horiz-adv-x="287" />
<glyph unicode="!" horiz-adv-x="333" d="M136 220L91 509Q87 535 85 554T83 592Q83 645 103 672T166 700Q208 700 228 673T249 592Q249 573 247 554T241 509L196 220H136ZM83 75Q83 110 107 134T166 158Q201 158 225 134T249 75Q249 40 225 16T166 -8Q131 -8 107 16T83 75Z"  />
<glyph unicode="&quot;" horiz-adv-x="333" d="M124 642Q124 635 124 625T121 591T115 528T105 423Q102 384 74 384Q46 384 43 423Q37 488 34 528T28 591T25 624T24 642Q24 673 37 686T74 700Q97 700 110 687T124 642ZM309 642Q309 635 309 625T306 591T300 528T290 423Q287 384 259 384Q231 384 228 423Q222 488 219 528T213 591T210 624T209 642Q209 673 222 686T259 700Q282 700 295 687T309 642Z"  />
<glyph unicode="#" horiz-adv-x="574" d="M501 197H411L383 0H291L317 197H223L195 0H103L130 197H44V285H142L159 403H73V491H171L198 688H291L264 491H359L386 688H478L452 491H530V403H440L423 285H501V197ZM252 403L236 285H330L347 403H252Z"  />
<glyph unicode="$" horiz-adv-x="574" d="M256 286Q220 300 188 317T132 356T94 408T80 479Q80 524 97 558T141 616T198 653T256 672V760H306V676Q337 675 368 667T423 643T463 603T478 545Q478 513 458 492T408 470Q376 470 358 490T340 538Q340 565 357 583T399 602H402Q384 621 358 627T306 636V440Q342 425 377 406T439 362T483 303T500 224Q500 181 484 147T440 86T378 43T306 18V-70H256V14H239Q197 14 162 27T102 63T62 113T48 172Q48 187 52 202T66 229T89 248T123 256Q152 256 173 238T194 190Q194 150 170 136T110 120Q118 102 134 89T171 68T214 57T256 54V286ZM256 628Q244 626 232 619T211 600T196 575T190 545Q190 513 207 493T256 458V628ZM306 62Q335 69 355 98T376 167Q376 208 357 229T306 266V62Z"  />
<glyph unicode="%" horiz-adv-x="889" d="M140 499Q140 448 144 415T157 361T177 333T201 324Q214 324 225 332T244 361T257 414T262 499Q262 550 258 583T245 637T225 665T201 674Q188 674 177 666T158 637T145 584T140 499ZM183 -12H127L612 700H672L183 -12ZM536 189Q536 138 540 105T553 51T573 23T597 14Q610 14 621 22T640 51T653 104T658 189Q658 240 654 273T641 327T621 355T597 364Q584 364 573 356T554 327T541 274T536 189ZM38 499Q38 541 50 578T85 642T137 684T201 700Q235 700 265 685T317 642T351 578T364 499Q364 457 352 420T317 356T265 314T201 298Q167 298 137 313T85 356T51 420T38 499ZM434 189Q434 231 446 268T481 332T533 374T597 390Q631 390 661 375T713 332T747 268T760 189Q760 147 748 110T713 46T661 4T597 -12Q563 -12 533 3T481 46T447 110T434 189Z"  />
<glyph unicode="&amp;" horiz-adv-x="833" d="M774 386V340Q740 340 720 335T688 319T667 288T649 241Q641 217 629 194T603 149Q622 129 647 113T702 96Q730 96 738 113T748 154H788Q788 76 749 32T631 -12Q583 -12 552 2T489 39Q469 27 450 18T408 2T361 -8T305 -12Q262 -12 216 -3T132 28T70 86T45 177Q45 216 60 245T99 297T154 335T217 363Q196 397 181 432T166 509Q166 552 185 587T235 648T306 686T386 700Q416 700 447 692T503 667T545 625T561 564Q561 529 545 502T503 454T448 418T390 390Q434 336 476 281T570 179Q583 199 590 221T598 269Q598 294 590 308T567 328T535 337T496 340V386H774ZM363 46Q385 46 408 52T450 70Q391 123 342 183T250 311Q220 287 210 260T199 195Q199 161 212 134T247 87T299 57T363 46ZM463 563Q463 601 442 627T379 654Q344 654 327 631T310 576Q310 536 325 501T364 427Q381 433 398 446T430 477T454 517T463 563Z"  />
<glyph unicode="&apos;" horiz-adv-x="222" d="M161 642Q161 635 161 625T158 591T152 528T142 423Q139 384 111 384Q83 384 80 423Q74 488 71 528T65 591T62 624T61 642Q61 673 74 686T111 700Q134 700 147 687T161 642Z"  />
<glyph unicode="(" horiz-adv-x="500" d="M415 668Q370 662 328 633T253 553T202 430T182 266Q182 174 201 102T253 -21T327 -101T415 -136V-182Q360 -178 296 -151T178 -69T87 69T50 266Q50 380 86 463T177 600T296 682T415 714V668Z"  />
<glyph unicode=")" horiz-adv-x="500" d="M85 -136Q130 -130 172 -101T247 -21T298 102T318 266Q318 358 299 430T247 553T173 633T85 668V714Q140 710 204 683T322 601T413 463T450 266Q450 152 414 69T323 -68T204 -150T85 -182V-136Z"  />
<glyph unicode="*" horiz-adv-x="519" d="M231 485Q221 498 205 503T170 510T132 513T98 520T74 539T65 577Q66 592 80 605T114 619Q135 619 147 606T170 575T198 537T242 502L249 507Q249 541 243 560T229 592T215 618T208 650Q208 677 225 688T259 700Q276 700 293 689T310 650Q310 630 304 618T290 593T276 560T269 507L276 502Q304 517 320 537T347 575T371 606T404 619Q423 619 437 606T453 577Q454 552 445 539T420 520T386 513T348 510T313 503T287 485V479Q296 466 312 461T348 454T386 451T420 444T444 425T453 387Q452 372 438 358T404 344Q383 344 371 357T348 388T320 427T276 462L269 457Q269 423 275 404T289 372T303 346T310 314Q310 287 293 276T259 264Q242 264 225 275T208 314Q208 334 214 346T228 371T242 404T249 457L242 462Q214 447 198 427T171 389T147 357T114 344Q95 344 81 358T65 387Q64 412 73 425T98 444T132 451T170 454T205 461T231 479V485Z"  />
<glyph unicode="+" horiz-adv-x="600" d="M535 286V184H351V0H249V184H65V286H249V470H351V286H535Z"  />
<glyph unicode="&#x2c;" horiz-adv-x="287" d="M74 -166Q89 -148 104 -130T133 -92T156 -50T168 -4L158 -7Q156 -7 154 -7T149 -8Q114 -8 90 16T66 75Q66 110 90 134T149 158Q171 158 187 149T215 124T231 88T236 48Q236 14 226 -18T199 -81T160 -140T112 -196L74 -166Z"  />
<glyph unicode="-" horiz-adv-x="333" d="M38 284H294V186H38V284Z"  />
<glyph unicode="." horiz-adv-x="287" d="M60 75Q60 110 84 134T143 158Q178 158 202 134T226 75Q226 40 202 16T143 -8Q108 -8 84 16T60 75Z"  />
<glyph unicode="/" horiz-adv-x="278" d="M-52 -12L220 700H330L58 -12H-52Z"  />
<glyph unicode="0" horiz-adv-x="574" d="M540 344Q540 267 523 202T473 89T393 15T287 -12Q228 -12 181 14T102 88T52 201T34 344Q34 421 51 486T101 599T181 673T287 700Q346 700 393 674T472 600T522 487T540 344ZM380 344Q380 415 376 473T360 573T331 637T286 660Q260 660 243 638T214 574T199 474T194 344Q194 273 198 215T212 115T241 51T286 28Q313 28 331 50T360 114T375 214T380 344Z"  />
<glyph unicode="1" horiz-adv-x="574" d="M83 0V40Q128 41 154 46T193 61T210 87T214 128V540Q214 556 211 566T196 582T163 590T104 592V638Q146 639 174 642T225 651T266 668T306 694H368V128Q368 104 371 88T388 61T428 46T498 40V0H83Z"  />
<glyph unicode="2" horiz-adv-x="574" d="M507 264L492 0H36Q36 8 37 21T39 46T43 70T49 86Q90 152 127 200T196 284T254 348T299 402T328 457T338 521Q338 547 331 570T309 610T273 638T223 648Q180 648 145 623T94 560L96 558Q112 568 137 568Q166 568 185 548T204 499Q204 462 183 440T128 418Q88 418 66 446T44 512Q44 558 64 593T118 652T192 688T275 700Q320 700 360 688T431 651T480 591T498 509Q498 462 481 429T436 370T371 321T292 273T209 215T128 138H312Q355 138 383 145T430 167T456 206T470 264H507Z"  />
<glyph unicode="3" horiz-adv-x="574" d="M332 361Q371 359 404 349T461 318T500 268T514 195Q514 153 494 115T437 49T351 5T241 -12Q192 -12 152 0T84 33T40 85T24 151Q24 171 31 189T50 220T78 242T112 250Q150 250 171 228T192 175Q192 137 171 120T120 102Q96 102 80 113Q83 92 96 77T127 53T166 39T209 34Q246 34 272 45T314 78T338 127T346 190Q346 221 339 247T319 294T289 325T251 337Q232 337 217 334T188 330Q171 330 162 336T152 356Q152 364 161 372T191 380Q202 380 212 379T233 377Q255 377 274 387T308 416T331 460T340 515Q340 575 309 611T225 648Q185 648 157 633T106 582Q115 584 125 587T142 590Q171 590 190 571T210 523Q210 489 190 468T129 446Q96 446 73 469T50 533Q50 575 70 606T121 658T190 689T266 700Q315 700 357 687T431 650T481 594T500 523Q500 486 487 458T450 410T397 379T332 363V361H332Z"  />
<glyph unicode="4" horiz-adv-x="574" d="M171 0V40Q207 41 229 46T262 61T276 87T280 128V176H26L30 238L355 700H434V234H548V176H434V128Q434 104 437 88T450 61T479 46T530 40V0H171ZM280 234V508H278L84 234H280Z"  />
<glyph unicode="5" horiz-adv-x="574" d="M102 688Q152 677 201 671T302 664Q344 664 388 669T470 688V668Q470 630 453 602T407 556T339 528T256 518Q221 518 190 521T133 534L122 395Q155 421 189 431T266 442Q317 442 361 425T437 377T487 307T506 220Q506 173 488 131T434 57T346 7T225 -12Q190 -12 157 -2T97 29T54 77T37 140Q37 182 59 210T122 238Q160 238 178 217T197 166Q197 133 176 115T122 96Q110 96 100 100L98 98Q112 69 143 49T209 28Q273 28 305 82T338 235Q338 308 309 349T232 390Q181 390 148 366T109 303Q104 273 85 273Q74 273 69 280T63 300Q63 314 65 324T71 349L102 688Z"  />
<glyph unicode="6" horiz-adv-x="574" d="M343 568Q343 607 363 622T416 638V640Q405 648 386 654T352 660Q271 660 240 590T209 386H211Q231 412 264 426T333 440Q378 440 415 424T478 379T518 313T533 232Q533 181 518 137T472 59T398 7T297 -12Q232 -12 184 13T104 83T57 188T41 318Q41 393 63 462T124 584T218 668T337 700Q408 700 452 667T497 581Q497 546 475 523T416 500Q402 500 389 505T366 520T349 542T343 568ZM365 210Q365 261 362 296T352 353T332 384T301 394Q275 394 257 380T229 343T214 288T209 223Q209 170 212 133T225 73T249 39T288 28Q335 28 350 73T365 210Z"  />
<glyph unicode="7" horiz-adv-x="574" d="M534 682V610Q498 555 466 505T408 398T369 269T354 100Q354 44 337 16T274 -12Q249 -12 234 -3T209 21T197 56T194 99Q194 147 216 203T273 317T354 435T444 550H267Q191 550 149 519T98 414H60L72 688L534 682Z"  />
<glyph unicode="8" horiz-adv-x="574" d="M270 -12Q223 -12 181 0T108 34T57 87T38 157Q38 188 49 214T80 260T125 296T177 320Q117 348 89 388T60 496Q60 542 79 579T131 644T205 685T289 700Q326 700 364 691T434 661T486 609T506 534Q506 477 470 441T383 391Q417 376 445 359T493 319T524 266T536 196Q536 148 516 110T460 44T376 3T270 -12ZM242 281Q236 284 230 288T215 292Q207 292 196 284T173 259T154 221T146 172Q146 104 181 66T277 28Q297 28 317 35T353 56T380 90T390 136Q390 177 371 200T307 247L242 281ZM404 535Q404 590 375 625T288 660Q248 660 219 634T190 566Q190 539 201 518T232 479T281 446T343 414Q373 433 388 466T404 535Z"  />
<glyph unicode="9" horiz-adv-x="574" d="M44 456Q44 507 60 551T108 629T182 681T279 700Q342 700 389 673T468 599T514 494T530 370Q530 296 513 227T457 105T359 20T215 -12Q179 -12 149 -4T98 21T65 59T53 107Q53 142 75 165T134 188Q148 188 161 183T184 168T201 146T207 120Q207 81 187 66T134 50V48Q145 40 165 34T209 28Q252 28 281 42T329 80T354 137T362 209V302H360Q340 276 309 262T244 248Q200 248 163 264T100 309T59 375T44 456ZM212 487Q212 430 216 393T229 334T248 303T275 294Q314 294 338 334T362 442Q362 505 358 547T344 614T319 649T283 660Q240 660 226 616T212 487Z"  />
<glyph unicode=":" horiz-adv-x="287" d="M60 75Q60 110 84 134T143 158Q178 158 202 134T226 75Q226 40 202 16T143 -8Q108 -8 84 16T60 75ZM60 373Q60 408 84 432T143 456Q178 456 202 432T226 373Q226 338 202 314T143 290Q108 290 84 314T60 373Z"  />
<glyph unicode=";" horiz-adv-x="287" d="M74 -166Q89 -148 104 -130T133 -92T156 -50T168 -4L158 -7Q156 -7 154 -7T149 -8Q114 -8 90 16T66 75Q66 110 90 134T149 158Q171 158 187 149T215 124T231 88T236 48Q236 14 226 -18T199 -81T160 -140T112 -196L74 -166ZM66 377Q66 412 90 436T149 460Q184 460 208 436T232 377Q232 342 208 318T149 294Q114 294 90 318T66 377Z"  />
<glyph unicode="&lt;" horiz-adv-x="600" d="M535 -7L65 193V277L535 475V363L210 235L535 105V-7Z"  />
<glyph unicode="=" horiz-adv-x="600" d="M65 76V178H535V76H65ZM65 292V394H535V292H65Z"  />
<glyph unicode="&gt;" horiz-adv-x="600" d="M65 105L390 235L65 363V475L535 277V193L65 -7V105Z"  />
<glyph unicode="?" horiz-adv-x="500" d="M204 198V260Q204 301 218 326T250 374T281 425T296 500Q296 569 272 605T202 642Q186 642 170 638T139 626T115 609T100 590Q105 591 108 591T116 591Q150 591 171 574T192 522Q192 493 169 473T116 453Q84 453 61 477T38 536Q38 570 54 598T98 646T160 677T234 688Q283 688 322 677T390 646T434 598T450 537Q450 498 436 472T400 424T353 386T307 348T271 303T256 242V198H204ZM142 75Q142 110 166 134T225 158Q260 158 284 134T308 75Q308 40 284 16T225 -8Q190 -8 166 16T142 75Z"  />
<glyph unicode="@" horiz-adv-x="800" d="M463 470Q446 470 427 457T391 419T363 361T351 287Q351 246 364 231T392 216Q413 216 433 232T468 275T492 335T502 403Q502 436 494 453T463 470ZM536 516H615L558 278Q553 258 553 242Q553 224 561 212T582 200Q598 200 615 218T646 266T669 329T678 395Q678 437 660 477T608 549T526 600T419 620Q380 620 336 605T255 555T193 461T168 317Q168 262 191 216T251 137T334 86T429 68Q497 68 543 80T633 116L643 53Q595 26 543 7T430 -12Q329 -12 256 21T135 106T65 216T42 328Q42 412 72 480T154 597T274 673T419 700Q491 700 552 677T660 614T732 517T758 396Q758 357 746 314T709 236T649 177T567 154Q526 154 501 174T473 225H471Q455 193 422 174T353 154Q338 154 321 160T288 180T263 217T253 277Q253 311 265 355T303 438T367 505T457 532Q484 532 500 519T526 485L536 516Z"  />
<glyph unicode="A" horiz-adv-x="741" d="M-9 0V40Q19 45 38 54T73 77T100 114T125 167L347 700H400L656 107Q672 71 692 57T751 40V0H390V40H430Q469 40 479 48T490 73Q490 83 487 92T479 113L430 228H210L178 149Q174 139 170 123T166 86Q166 65 180 53T223 40H272V0H-9ZM317 491L232 280H408L317 491Z"  />
<glyph unicode="B" horiz-adv-x="704" d="M268 384H301Q378 384 414 415T451 508Q451 573 420 607T335 642Q305 642 287 626T268 574V384ZM108 582Q108 620 88 634T14 648V688H372Q429 688 475 677T554 644T605 590T623 517Q623 481 611 455T576 410T525 382T463 368V366Q500 361 535 350T598 318T643 268T660 194Q660 162 648 128T606 65T528 18T406 0H14V40Q67 40 87 54T108 106V582ZM268 120Q268 84 284 65T340 46Q415 46 451 80T488 178Q488 208 482 237T458 288T412 324T339 338H268V120Z"  />
<glyph unicode="C" horiz-adv-x="741" d="M668 438H628Q608 491 587 531T540 599T481 640T404 654Q311 654 269 573T226 344Q226 190 276 112T430 34Q530 34 585 94T646 269H690Q690 137 618 63T408 -12Q319 -12 251 16T137 94T66 207T42 344Q42 416 70 480T147 594T258 671T393 700Q450 700 498 682T589 641L628 682H668V438Z"  />
<glyph unicode="D" horiz-adv-x="759" d="M330 688Q423 688 496 663T619 592T695 483T721 344Q721 271 696 209T623 100T508 27T358 0H18V40Q74 40 95 54T116 106V582Q116 620 95 634T18 648V688H330ZM276 116Q276 80 295 63T366 46Q445 46 492 117T539 344Q539 421 527 477T493 570T438 624T366 642Q315 642 296 625T276 572V116Z"  />
<glyph unicode="E" horiz-adv-x="722" d="M643 442H600Q574 541 515 591T367 642Q320 642 302 629T284 578V384Q320 384 345 389T388 407T418 442T440 500H480V222H440Q430 257 418 279T388 315T345 333T284 338V110Q284 73 302 60T367 46Q417 46 458 61T530 105T582 173T616 262H659L653 0H18V40Q74 40 95 54T116 106V582Q116 620 95 634T18 648V688H637L643 442Z"  />
<glyph unicode="F" horiz-adv-x="667" d="M10 0V40Q66 40 87 54T108 106V582Q108 620 87 634T10 648V688H629L635 442H592Q566 541 507 591T359 642Q312 642 294 629T276 578V384Q312 384 337 389T380 407T410 442T432 500H472V222H432Q422 257 410 279T380 315T337 333T276 338V106Q276 87 281 75T298 55T332 44T386 40V0H10Z"  />
<glyph unicode="G" horiz-adv-x="778" d="M368 332H752V286Q717 285 698 282T668 270T655 248T652 211V0H614L569 46Q524 17 475 3T372 -12Q309 -12 250 15T144 88T70 195T42 326Q42 405 70 473T147 591T258 671T393 700Q429 700 458 692T509 674T546 656T569 647Q580 647 588 658T604 678H644V440H604Q592 478 577 516T538 585T481 635T402 654Q361 654 328 637T273 583T238 486T226 344Q226 265 238 207T271 111T320 53T380 34Q414 34 436 44T470 73T487 118T492 176Q492 210 486 231T465 265T426 281T368 286V332Z"  />
<glyph unicode="H" horiz-adv-x="778" d="M501 384V582Q501 620 481 634T413 648V688H764V648Q710 648 690 634T669 582V106Q669 68 689 54T764 40V0H413V40Q461 40 481 54T501 106V338H277V106Q277 68 297 54T365 40V0H14V40Q68 40 88 54T109 106V582Q109 620 89 634T14 648V688H365V648Q317 648 297 634T277 582V384H501Z"  />
<glyph unicode="I" horiz-adv-x="426" d="M31 0V40Q87 40 108 54T129 106V582Q129 620 108 634T31 648V688H395V648Q339 648 318 634T297 582V106Q297 68 318 54T395 40V0H31Z"  />
<glyph unicode="J" horiz-adv-x="574" d="M472 216Q472 157 459 114T415 43T337 2T220 -12Q173 -12 135 0T70 34T29 83T14 145Q14 191 38 222T111 254Q128 254 144 249T173 234T194 207T202 169Q202 137 182 114T127 90Q114 90 103 92T80 102Q85 84 97 72T126 51T159 38T190 34Q242 34 273 60T304 136V582Q304 620 282 634T200 648V688H566V648Q513 648 493 634T472 582V216Z"  />
<glyph unicode="K" horiz-adv-x="759" d="M22 688H370V648Q326 648 307 634T288 582V368L497 573Q518 594 518 618Q518 632 508 640T469 648H434V688H732V648Q703 644 685 641T652 632T626 617T599 594L443 447L664 82Q677 60 699 50T760 40V0H418V40Q474 46 474 63Q474 68 471 76T452 111T407 189T324 332L288 299V106Q288 68 306 54T360 40V0H22V40Q78 40 99 54T120 106V582Q120 620 99 634T22 648V688Z"  />
<glyph unicode="L" horiz-adv-x="630" d="M18 0V40Q74 40 95 54T116 106V582Q116 620 95 634T18 648V688H382V648Q326 648 305 634T284 582V108Q284 72 299 59T352 46Q390 46 423 64T483 112T529 181T558 264H601L595 0H18Z"  />
<glyph unicode="M" horiz-adv-x="907" d="M16 0V40Q36 40 53 45T84 61T106 90T114 134V588Q114 607 108 618T90 636T61 645T22 648V688H313L454 222H456L598 688H891V648Q836 648 815 634T794 582V106Q794 68 815 54T891 40V0H544V40Q594 40 614 54T634 106V614H632L441 0H355L172 614H170V134Q170 82 200 62T275 40V0H16Z"  />
<glyph unicode="N" horiz-adv-x="759" d="M14 688H258L594 220H596V572Q596 591 591 603T574 625T542 639T491 648V688H744V648Q693 640 673 625T652 572V0H558L176 530H172V106Q172 87 177 75T195 55T231 44T289 40V0H18V40Q74 40 95 54T116 106V582Q116 620 95 634T14 648V688Z"  />
<glyph unicode="O" horiz-adv-x="778" d="M38 344Q38 416 66 480T143 594T254 671T389 700Q460 700 523 672T635 594T711 481T740 344Q740 272 712 208T635 94T524 17T389 -12Q318 -12 255 16T143 94T67 207T38 344ZM226 344Q226 272 235 215T263 117T314 56T389 34Q433 34 464 55T514 117T543 214T552 344Q552 416 543 473T515 571T464 632T389 654Q345 654 314 633T264 571T235 474T226 344Z"  />
<glyph unicode="P" horiz-adv-x="648" d="M10 0V40Q66 40 87 54T108 106V582Q108 620 87 634T10 648V688H372Q424 688 468 676T545 641T596 584T616 505Q617 459 599 424T550 364T475 327T381 314H268V114Q268 73 291 57T374 40V0H10ZM268 360H305Q378 360 411 395T444 499Q444 528 437 554T416 599T382 630T334 642Q307 642 288 624T268 568V360Z"  />
<glyph unicode="Q" horiz-adv-x="778" d="M740 44Q740 1 729 -35T696 -97T642 -139T570 -154Q426 -154 420 -10Q412 -12 405 -12T389 -12Q318 -12 255 16T143 94T67 207T38 344Q38 416 66 480T143 594T254 671T389 700Q460 700 523 672T635 594T711 481T740 344Q740 293 726 246T685 157T623 82T544 27Q561 -6 578 -23T624 -40Q662 -40 677 -16T694 44H740ZM389 654Q345 654 314 633T264 571T235 474T226 344Q226 258 238 194T279 90H281V100Q281 152 307 185T388 218Q436 218 467 194T520 130Q537 170 544 223T552 344Q552 416 543 473T515 571T464 632T389 654ZM382 168Q359 168 345 150T331 104Q331 75 348 55T396 34Q410 34 424 39Q425 43 426 51T428 70T431 89T432 104Q432 139 418 153T382 168Z"  />
<glyph unicode="R" horiz-adv-x="704" d="M688 152Q688 78 655 33T542 -12Q465 -12 432 29T393 160Q390 206 387 236T372 285T337 314T274 330V120Q274 99 277 84T291 59T320 45T370 40V0H16V40Q72 40 93 54T114 106V582Q114 620 93 634T16 648V688H366Q494 688 558 640T622 504Q622 455 600 423T543 373T465 347T380 338V336Q426 330 455 316T504 281T534 237T553 186Q565 150 572 129T586 96T599 81T614 78Q623 78 629 85T639 102T645 126T648 152H688ZM274 366Q315 368 347 373T403 393T438 434T450 503Q450 566 421 604T339 642Q313 642 294 630T274 582V366Z"  />
<glyph unicode="S" horiz-adv-x="630" d="M49 264H93Q103 223 121 182T166 108T229 55T314 34Q340 34 363 40T403 60T431 96T442 150Q442 186 414 208T342 247T249 280T155 320T84 380T55 474Q55 528 73 570T124 641T198 685T288 700Q329 700 357 692T404 674T437 656T460 647Q475 647 483 660T499 688H541V450H501Q490 491 473 528T431 593T374 637T303 654Q279 654 258 648T222 628T197 597T187 553Q187 514 216 492T289 454T383 423T478 384T551 320T580 215Q580 159 557 117T499 46T420 3T334 -12Q288 -12 255 -4T199 14T160 32T132 40Q117 40 106 25T89 0H49V264Z"  />
<glyph unicode="T" horiz-adv-x="685" d="M664 688L668 444H622Q612 488 596 524T556 587T500 627T426 642V106Q426 87 431 75T448 55T482 44T536 40V0H146V40Q179 40 200 43T235 54T253 74T258 106V642Q216 642 184 628T129 587T89 525T62 444H16L20 688H664Z"  />
<glyph unicode="U" horiz-adv-x="722" d="M359 688V648Q300 648 279 634T257 582V170Q257 135 270 110T304 68T350 43T400 34Q569 34 569 208V572Q569 591 564 603T547 625T514 639T462 648V688H715V648Q664 640 644 625T623 572V216Q623 97 554 43T360 -12Q318 -12 273 -3T190 29T128 90T103 186V582Q103 620 82 634T6 648V688H359Z"  />
<glyph unicode="V" horiz-adv-x="630" d="M-12 688H328V648Q300 648 283 646T255 639T242 626T238 608Q238 606 239 601T244 581T256 541T278 469T314 356T368 193H370Q403 282 426 345T465 450T490 519T504 559T510 581T511 595Q511 627 490 637T430 648V688H655V648Q623 643 601 631T565 582L351 0H268L81 580Q74 602 66 615T47 636T22 645T-12 648V688Z"  />
<glyph unicode="W" horiz-adv-x="926" d="M669 688V648Q622 648 602 638T582 609Q582 595 588 576T602 528L687 228H689L798 552Q802 564 804 575T806 597Q806 626 779 637T714 648V688H956V648Q914 648 894 628T863 576L663 0H586L466 424H464L319 0H240L86 556Q78 586 69 603T50 629T27 642T-2 648V688H308V648Q266 648 252 640T238 609Q238 601 240 591T247 563L343 228H345L442 513L426 567Q412 614 393 631T342 648V688H669Z"  />
<glyph unicode="X" horiz-adv-x="722" d="M356 0V40Q382 40 398 41T422 46T434 53T437 64Q437 79 431 89T416 115L325 265L225 120Q207 93 207 75Q207 58 226 49T296 40V0H13V40Q55 45 91 63T153 117L297 313L141 570Q132 584 122 598T99 623T68 641T30 648V688H373V648Q349 648 335 647T312 643T302 635T299 620Q299 611 303 602T315 579L390 448L478 574Q486 586 491 597T497 620Q497 635 481 641T426 648V688H692V648Q662 646 641 641T604 626T572 600T540 561L421 402L604 99Q621 72 643 59T708 40V0H356Z"  />
<glyph unicode="Y" horiz-adv-x="630" d="M0 688H332V648Q297 648 276 641T254 617Q254 603 275 564L379 365L471 550Q480 568 485 581T490 606Q490 626 467 637T404 648V688H656V648Q627 644 609 639T580 625T560 605T545 579L401 286V106Q401 87 406 75T424 55T458 44T513 40V0H128V40Q161 40 183 43T218 54T236 74T241 106V290L115 538Q101 564 90 584T66 619T38 640T0 648V688Z"  />
<glyph unicode="Z" horiz-adv-x="611" d="M557 0H25V52L383 642H315Q272 642 233 632T163 598T113 539T91 450H48L54 688H557V618L210 46Q283 46 336 56T427 92T487 160T520 264H563L557 0Z"  />
<glyph unicode="[" horiz-adv-x="370" d="M80 -156V688H296V648Q270 646 252 644T221 634T204 612T198 573V-41Q198 -66 203 -80T221 -101T251 -112T296 -116V-156H80Z"  />
<glyph unicode="\" horiz-adv-x="278" d="M220 -12L-52 700H58L330 -12H220Z"  />
<glyph unicode="]" horiz-adv-x="370" d="M290 688V-156H74V-116Q100 -115 118 -112T149 -102T166 -80T172 -41V573Q172 598 167 612T149 633T119 643T74 648V688H290Z"  />
<glyph unicode="^" horiz-adv-x="600" d="M91 348L254 688H347L509 348H395L300 562L205 348H91Z"  />
<glyph unicode="_" horiz-adv-x="500" d="M0 -125V-75H500V-125H0Z"  />
<glyph unicode="`" horiz-adv-x="333" d="M188 538L39 631Q21 642 15 651T8 681Q8 698 22 710T52 722Q65 722 74 720T91 712T107 697T128 674L246 538H188Z"  />
<glyph unicode="a" horiz-adv-x="556" d="M452 114Q452 83 458 69T483 54Q500 54 508 75T520 126H554V107Q554 57 522 23T428 -12Q390 -12 365 4T323 53Q295 18 260 3T179 -12Q150 -12 122 -6T72 13T37 49T23 105Q23 137 37 161T76 205T130 238T192 262T253 281T306 295V353Q306 398 284 417T216 436Q199 436 182 432T149 420V418Q172 415 188 398T204 353Q204 326 185 305T133 284Q100 284 79 304T58 361Q58 383 71 405T110 444T175 471T267 482Q356 482 404 450T452 343V114ZM306 250Q283 245 260 233T219 204T189 165T177 117Q177 88 191 65T238 42Q270 42 288 67T306 138V250Z"  />
<glyph unicode="b" horiz-adv-x="593" d="M228 682V422Q291 482 349 482Q389 482 427 466T495 418T543 342T561 240Q561 197 543 153T492 72T412 12T308 -12Q279 -12 257 -4T216 13T183 30T156 38Q144 38 134 25T122 0H72Q76 14 79 27T82 54V574Q82 609 70 624T12 640V678L228 682ZM401 245Q401 339 382 387T325 436Q306 436 289 426T258 392T236 328T228 226Q228 132 247 80T314 28Q363 28 382 84T401 245Z"  />
<glyph unicode="c" horiz-adv-x="500" d="M468 99Q434 45 390 17T281 -12Q229 -12 184 6T105 58T52 136T32 235Q32 295 54 341T112 418T195 466T292 482Q328 482 359 474T415 451T452 414T466 364Q466 330 444 306T385 282Q352 282 332 301T312 350Q312 379 328 397T378 422Q364 434 347 438T312 442Q290 442 269 433T230 400T203 337T192 237Q192 146 222 90T315 34Q335 34 353 42T388 64T417 92T441 122L468 99Z"  />
<glyph unicode="d" horiz-adv-x="593" d="M190 248Q190 203 193 164T206 96T230 51T268 34Q293 34 310 50T338 93T353 154T358 225Q358 336 337 386T274 436Q249 436 233 420T208 378T194 318T190 248ZM504 100Q504 83 506 71T516 50T537 38T572 34V-2L365 -6V44H363Q351 32 340 22T315 4T285 -8T244 -12Q201 -12 163 6T95 56T48 135T30 237Q30 291 48 336T97 414T167 464T248 482Q283 482 310 469T358 436V574Q358 591 356 603T345 624T321 636T280 640V678L504 682V100Z"  />
<glyph unicode="e" horiz-adv-x="556" d="M194 233Q194 197 199 162T219 98T258 52T324 34Q348 34 370 42T411 65T447 97T477 134L509 114Q494 86 475 63T431 24T373 -2T296 -12Q232 -12 183 10T101 69T51 149T34 235Q34 277 51 321T101 401T183 459T296 482Q342 482 381 466T450 417T495 339T512 233H194ZM352 279Q352 326 348 358T334 409T312 437T280 446Q245 446 223 406T194 279H352Z"  />
<glyph unicode="f" horiz-adv-x="389" d="M377 424H252V106Q252 89 255 77T268 56T300 44T356 40V0H14V40Q45 40 63 44T90 56T103 76T106 106V424H14V470H106V498Q106 547 122 582T166 638T232 670T314 680Q386 680 428 655T470 588Q470 558 451 540T396 522Q383 522 370 526T347 538T331 558T324 585Q324 599 333 614T356 635V637Q351 638 347 639T336 640Q293 640 273 619T252 542V470H377V424Z"  />
<glyph unicode="g" horiz-adv-x="537" d="M258 482Q284 482 308 477T356 464Q365 499 388 521T450 544Q481 544 505 529T530 478Q530 457 516 442T472 426Q447 426 436 438T424 470Q424 477 425 484T429 498H427Q414 494 406 481T397 444Q405 438 416 429T439 404T458 369T466 322Q466 283 449 254T402 206T334 178T254 168Q237 168 227 169T210 171T195 174T178 176Q166 176 154 173T142 158Q142 145 158 139T199 130T258 126T325 122T393 111T452 89T494 50T510 -12Q510 -48 490 -78T436 -129T356 -162T258 -174Q205 -174 161 -165T84 -140T34 -100T16 -49Q16 -29 29 -14T61 12T102 28T144 34V36Q127 43 110 47T80 60T57 82T48 122Q48 136 56 148T77 169T104 186T132 200Q97 217 72 247T46 319Q46 361 65 391T115 442T184 472T258 482ZM378 -66Q378 -25 341 -10T233 6Q176 6 153 -9T130 -54Q130 -93 166 -113T263 -134Q284 -134 304 -130T341 -118T368 -97T378 -66ZM256 442Q222 442 203 415T184 323Q184 258 203 231T256 204Q290 204 309 231T328 323Q328 388 309 415T256 442Z"  />
<glyph unicode="h" horiz-adv-x="593" d="M361 364Q361 399 351 413T317 428Q302 428 287 417T260 386T241 338T234 276V106Q234 89 236 77T246 56T267 44T302 40V0H8V40Q34 40 50 44T74 56T85 76T88 106V589Q88 621 72 630T14 640V678L234 682V418Q267 452 297 467T359 482Q428 482 467 446T507 338V106Q507 89 509 77T519 56T540 44T575 40V0H361V364Z"  />
<glyph unicode="i" horiz-adv-x="333" d="M14 0V40Q41 40 57 44T82 56T93 76T96 106V364Q96 381 94 393T83 414T58 426T16 430V466L242 470V106Q242 89 244 77T255 56T279 44T319 40V0H14ZM78 618Q78 653 101 676T160 700Q195 700 218 677T242 618Q242 583 219 560T160 536Q125 536 102 559T78 618Z"  />
<glyph unicode="j" horiz-adv-x="352" d="M262 470V-36Q262 -67 251 -94T215 -142T155 -174T70 -186Q4 -186 -34 -159T-72 -83Q-72 -46 -50 -23T4 0Q36 0 51 -20T66 -60Q66 -86 49 -102T6 -118Q1 -118 -3 -118T-13 -116Q-6 -133 8 -139T45 -146Q77 -146 96 -127T116 -71V364Q116 381 114 393T103 414T79 426T38 430V466L262 470ZM98 618Q98 653 121 676T180 700Q215 700 238 677T262 618Q262 583 239 560T180 536Q145 536 122 559T98 618Z"  />
<glyph unicode="k" horiz-adv-x="611" d="M404 0L279 234L252 213V106Q252 89 254 77T265 56T289 44T329 40V0H24V40Q51 40 67 44T92 56T103 76T106 106V574Q106 591 104 603T93 624T69 636T28 640V678L252 682V280Q294 311 321 333T366 370T390 394T397 410Q397 421 382 424T329 430V470H583V430Q556 428 532 419T484 396T438 363T392 324L521 77Q533 54 552 47T609 40V0H404Z"  />
<glyph unicode="l" horiz-adv-x="333" d="M319 0H14V40Q41 40 57 44T82 56T93 76T96 106V574Q96 591 94 603T83 624T59 636T18 640V678L242 682V106Q242 89 244 77T255 56T279 44T319 40V0Z"  />
<glyph unicode="m" horiz-adv-x="852" d="M18 0V40Q43 40 58 44T82 56T93 76T96 106V364Q96 381 94 393T83 414T59 426T18 430V466L226 470V406H228Q247 438 284 460T361 482Q405 482 438 462T490 402Q512 440 547 461T626 482Q654 482 679 474T724 449T755 406T766 346V106Q766 89 768 77T778 56T799 44T834 40V0H628V334Q628 391 619 409T583 428Q569 428 555 419T528 393T508 352T500 300V106Q500 89 502 77T512 56T533 44T568 40V0H362V334Q362 391 353 409T317 428Q303 428 289 419T262 393T242 352T234 300V106Q234 89 236 77T247 56T269 44T308 40V0H18Z"  />
<glyph unicode="n" horiz-adv-x="611" d="M18 0V40Q42 40 56 44T79 56T89 76T92 106V364Q92 381 90 393T80 414T58 426T20 430V466L230 470V397Q246 416 262 431T296 458T336 475T386 482Q449 482 487 446T525 336V106Q525 89 527 77T537 56T558 44T593 40V0H379V370Q379 400 367 414T334 428Q313 428 296 413T265 374T245 323T238 270V106Q238 89 240 77T251 56T276 44T318 40V0H18Z"  />
<glyph unicode="o" horiz-adv-x="593" d="M390 235Q390 334 367 390T296 446Q249 446 226 390T202 235Q202 136 225 80T296 24Q343 24 366 80T390 235ZM558 235Q558 193 541 149T491 69T409 11T296 -12Q232 -12 183 10T101 69T51 149T34 235Q34 277 51 321T101 401T183 459T296 482Q360 482 409 460T491 401T541 321T558 235Z"  />
<glyph unicode="p" horiz-adv-x="593" d="M14 466L229 470V413H231Q248 442 279 462T352 482Q392 482 429 466T496 418T543 340T561 235Q561 193 545 149T499 69T430 11T341 -12Q311 -12 285 1T236 38V-68Q236 -85 239 -97T251 -118T279 -130T327 -134V-174H4V-134Q32 -134 49 -130T75 -118T87 -98T90 -68V364Q90 381 88 393T77 414T54 426T14 430V466ZM236 233Q236 139 256 87T318 34Q362 34 381 89T401 239Q401 278 397 314T384 377T361 420T324 436Q309 436 293 425T265 388T244 325T236 233Z"  />
<glyph unicode="q" horiz-adv-x="593" d="M516 470Q510 457 507 442T504 412V-68Q504 -85 506 -97T517 -118T541 -130T583 -134V-174H262V-134Q294 -134 313 -130T342 -118T355 -98T358 -68V40Q326 10 300 -1T240 -12Q199 -12 162 5T96 54T50 128T32 220Q32 281 52 329T105 412T178 464T257 482Q288 482 311 473T353 451T385 430T415 420Q424 420 432 425T448 438T460 454T468 470H516ZM192 245Q192 140 211 87T273 34Q298 34 314 48T340 84T354 135T358 193V292Q358 323 353 349T338 394T313 425T279 436Q243 436 218 388T192 245Z"  />
<glyph unicode="r" horiz-adv-x="463" d="M16 0V40Q41 40 56 44T79 56T90 76T93 106V364Q93 381 91 393T80 414T56 426T16 430V466L227 470V363H229Q237 381 248 402T276 440T313 470T364 482Q405 482 431 457T457 396Q457 361 437 340T385 318Q350 318 334 339T317 389Q317 400 318 408T321 424Q276 393 255 316T233 132Q233 105 236 87T248 59T276 44T327 40V0H16Z"  />
<glyph unicode="s" horiz-adv-x="481" d="M34 172H71Q77 145 92 119T128 73T176 41T234 28Q253 28 270 32T301 45T323 65T332 91Q332 121 310 135T255 158T182 172T110 194T54 239T32 321Q32 354 47 383T88 435T149 469T225 482Q251 482 271 477T307 464T334 452T351 446Q363 446 366 452T374 470H414V316H374Q363 341 351 364T322 404T282 432T228 442Q190 442 169 423T148 375Q148 350 170 338T225 319T298 303T370 279T426 234T448 153Q448 114 431 83T385 31T320 -1T247 -12Q214 -12 189 -7T145 5T116 16T97 22Q89 22 83 13T74 -6H34V172Z"  />
<glyph unicode="t" horiz-adv-x="426" d="M244 470H401V424H242V122Q242 75 256 58T300 40Q332 40 350 66T369 160H413Q413 114 405 82T378 28T328 -2T250 -12Q176 -12 136 22T96 123V424H14V462Q84 479 130 517T200 626H244V470Z"  />
<glyph unicode="u" horiz-adv-x="611" d="M236 120Q236 84 248 63T289 42Q313 42 330 53T357 81T372 120T377 162V364Q377 381 375 393T363 414T338 426T295 430V466L523 470V106Q523 89 525 77T536 56T561 44T603 40V4L386 0V54Q369 37 354 25T322 4T285 -8T240 -12Q162 -12 126 24T90 138V364Q90 381 88 393T78 414T56 426T18 430V466L236 470V120Z"  />
<glyph unicode="v" horiz-adv-x="537" d="M284 470V430Q249 430 235 423T220 400Q220 393 223 383T237 347T268 273T322 140H324Q359 224 379 272T409 347T421 383T424 399Q424 413 412 421T357 430V470H551V430Q513 430 498 416T469 369L313 0H230L68 380Q63 392 58 401T45 415T25 424T-6 430V470H284Z"  />
<glyph unicode="w" horiz-adv-x="778" d="M782 430Q758 430 743 422T716 401T698 369T683 330L564 0H488L388 312H386L270 0H192L68 382Q58 412 42 421T-4 430V470H262V430Q236 430 225 425T214 405Q214 401 215 393T223 361T243 293T280 170H282Q309 240 324 280T348 341T358 371T360 387Q360 413 341 421T296 430V470H556V430Q530 430 518 425T506 406Q506 401 508 393T516 361T536 293T574 170H576Q601 240 616 281T641 347T653 382T656 402Q656 420 640 425T594 430V470H782V430Z"  />
<glyph unicode="x" horiz-adv-x="611" d="M15 0V40Q40 43 62 48T108 69T163 118T238 207L90 399Q79 413 64 421T28 430V470H306V430Q286 430 277 427T268 413Q268 407 269 402T278 386T298 357T335 309Q360 337 374 354T396 381T404 396T406 406Q406 418 394 424T352 430V470H574V430Q549 429 527 421T480 395T427 348T363 274L505 83Q525 57 545 49T595 40V0H306V40Q331 40 338 44T346 55Q346 60 344 65T333 82T309 114T268 169Q243 140 229 123T207 95T197 79T194 67Q194 52 208 46T255 40V0H15Z"  />
<glyph unicode="y" horiz-adv-x="537" d="M542 470V430Q512 430 494 418T462 374L292 -38Q280 -67 265 -93T230 -138T186 -169T131 -180Q104 -180 84 -172T49 -150T28 -119T20 -86Q20 -54 41 -30T96 -6Q128 -6 147 -25T166 -70Q166 -94 154 -110T124 -132V-134H143Q161 -134 176 -125T204 -99T227 -64T245 -24L76 390Q65 415 52 422T8 430V470H294V430Q259 430 245 423T230 400Q230 395 232 386T244 353T273 285T324 162H326Q357 239 375 284T402 353T413 385T416 400Q416 419 397 425T346 430V470H542Z"  />
<glyph unicode="z" horiz-adv-x="500" d="M454 470V426L202 46Q243 46 277 53T339 76T387 119T419 186H453V0H34V60L282 424H232Q178 424 141 399T84 312H50V470H454Z"  />
<glyph unicode="{" horiz-adv-x="370" d="M98 148Q98 197 83 224T22 266Q45 273 60 283T83 307T95 340T98 384V569Q98 615 109 643T142 688T200 709T284 714V674Q248 674 232 648T216 580V400Q216 372 213 351T201 313T175 285T130 267V265Q158 258 175 247T201 220T213 182T216 132V-48Q216 -90 232 -116T284 -142V-182Q235 -182 200 -177T143 -156T109 -112T98 -37V148Z"  />
<glyph unicode="|" horiz-adv-x="222" d="M60 680H162V0H60V680Z"  />
<glyph unicode="}" horiz-adv-x="370" d="M272 384Q272 359 275 341T286 308T310 283T348 266Q325 259 310 249T287 225T275 192T272 148V-37Q272 -84 261 -112T228 -156T170 -177T86 -182V-142Q122 -142 138 -116T154 -48V132Q154 160 157 181T169 219T195 247T240 265V267Q212 274 195 285T169 312T157 350T154 400V580Q154 622 138 648T86 674V714Q135 714 170 709T227 688T261 644T272 569V384Z"  />
<glyph unicode="~" horiz-adv-x="600" d="M515 230Q504 214 493 199T468 171T437 152T398 144Q371 144 348 154T301 178T253 201T197 212Q182 212 170 206T148 189T131 166T119 140L85 240Q93 256 103 271T128 299T160 318T201 326Q227 326 254 316T308 292T357 269T399 258Q413 258 424 264T445 281T464 304T481 330L515 230Z"  />
<glyph unicode="&#xA0;" horiz-adv-x="287" />
<glyph unicode="&#xA1;" horiz-adv-x="333" d="M197 294L242 5Q246 -21 248 -40T250 -78Q250 -131 230 -158T167 -186Q125 -186 105 -159T84 -78Q84 -59 86 -40T92 5L137 294H197ZM250 439Q250 404 226 380T167 356Q132 356 108 380T84 439Q84 474 108 498T167 522Q202 522 226 498T250 439Z"  />
<glyph unicode="&#xA2;" horiz-adv-x="574" d="M278 530Q249 513 232 472T214 365Q214 298 231 253T278 191V530ZM278 688H314V582Q338 582 364 576T412 556T449 522T464 473Q464 442 445 421T394 400Q366 400 347 418T328 465Q328 488 344 506T385 524Q387 524 389 524T394 523Q383 537 364 541T331 546Q324 546 314 544V180Q324 178 329 178Q371 178 396 201T442 258L470 231Q446 187 406 160T314 132V0H278V132Q247 134 211 150T143 196T92 268T72 366Q73 409 90 446T136 511T202 557T278 582V688Z"  />
<glyph unicode="&#xA3;" horiz-adv-x="574" d="M101 286V332H204V334Q157 372 126 414T95 516Q95 550 110 583T154 642T221 684T308 700Q333 700 363 694T419 675T463 641T481 588Q481 560 463 539T409 518Q371 518 353 537T335 579Q335 600 349 615T383 637Q363 654 326 654Q289 654 260 632T231 568Q231 534 253 505T308 448T375 392T435 332H575V286H460Q474 255 474 224Q474 200 468 177T450 132T423 94T388 65Q417 46 457 46Q492 46 519 66T567 113L598 81Q582 60 567 44T534 17T496 0T448 -6Q390 -6 338 27Q304 8 258 -2T170 -12Q99 -12 55 13T11 81Q11 106 21 124T47 155T85 172T130 178Q158 178 182 174T227 161T270 140T315 111Q323 126 325 141T328 167Q328 185 322 201T306 231T283 259T257 286H101ZM163 104Q134 104 123 95T111 75Q111 57 130 46T176 34Q200 34 227 40T278 60Q256 76 223 90T163 104Z"  />
<glyph unicode="&#xA4;" horiz-adv-x="574" d="M547 541L492 485Q512 461 523 423T535 344Q535 304 524 266T492 203L547 147L483 83L425 140Q404 121 367 109T290 97Q248 97 209 109T145 142L89 83L27 147L86 204Q62 227 51 265T39 344Q39 384 50 422T86 484L27 541L89 605L145 546Q169 566 208 578T290 591Q330 591 367 579T425 548L483 605L547 541ZM147 344Q147 314 157 288T187 243T232 212T289 201Q319 201 344 212T387 242T416 288T427 344Q427 374 417 400T388 445T344 476T289 487Q258 487 232 476T187 446T158 400T147 344Z"  />
<glyph unicode="&#xA5;" horiz-adv-x="574" d="M526 354H393L360 286V280H526V234H360V128Q360 104 363 88T378 61T412 46T472 40V0H93V40Q131 41 153 46T187 61T202 87T206 128V234H46V280H206V290L174 354H46V400H151L80 538Q66 564 55 584T31 619T3 640T-35 648V688H285V648Q250 648 229 641T207 617Q207 611 210 602T226 566T264 491T334 355Q374 435 397 482T431 554T445 589T448 606Q448 626 426 637T363 648V688H609V648Q583 644 566 639T538 625T519 605T504 579L416 400H526V354Z"  />
<glyph unicode="&#xA6;" horiz-adv-x="222" d="M60 256H162V0H60V256ZM60 680H162V424H60V680Z"  />
<glyph unicode="&#xA7;" horiz-adv-x="500" d="M183 430Q169 443 155 459T130 492T112 529T105 570Q105 601 116 625T148 666T194 691T250 700Q273 700 298 694T343 676T377 646T391 602Q391 575 376 559T336 542Q307 542 293 558T279 591Q279 606 283 614T293 627T302 636T307 650Q307 656 296 662T264 668Q232 668 211 652T189 599Q189 574 207 552T254 506T314 459T374 407T420 346T439 272Q439 217 408 181T323 144Q339 127 352 112T376 82T393 48T399 6Q399 -25 386 -49T352 -89T301 -113T240 -122Q212 -122 187 -114T142 -93T111 -62T99 -24Q99 0 114 19T154 38Q173 38 192 25T211 -14Q211 -24 207 -31T197 -45T188 -56T183 -67Q183 -75 197 -80T243 -86Q270 -86 292 -71T315 -20Q315 3 296 25T249 70T188 117T127 169T80 228T61 298Q61 355 92 391T183 430ZM182 398Q159 398 145 381T131 342Q131 316 144 296T194 243Q236 205 264 191T314 176Q339 176 354 191T369 232Q369 245 366 256T355 280T333 307T296 342Q275 360 259 371T230 388T206 396T182 398Z"  />
<glyph unicode="&#xA8;" horiz-adv-x="333" d="M207 611Q207 637 224 656T271 676Q301 676 319 657T337 611Q337 585 319 566T271 546Q242 546 225 565T207 611ZM-3 611Q-3 637 14 656T61 676Q91 676 109 657T127 611Q127 585 109 566T61 546Q32 546 15 565T-3 611Z"  />
<glyph unicode="&#xA9;" horiz-adv-x="800" d="M52 344Q52 419 78 484T150 597T260 672T400 700Q476 700 539 673T649 597T722 484T748 344Q748 268 722 203T650 90T540 15T400 -12Q324 -12 261 15T151 90T78 203T52 344ZM662 344Q662 405 643 459T589 552T506 615T400 638Q342 638 294 615T211 552T157 459T138 344Q138 283 157 230T210 136T293 73T400 50Q457 50 505 73T588 136T642 229T662 344ZM569 269L553 187Q552 182 539 176T505 164T462 154T419 150Q316 150 258 202T200 356Q200 388 210 423T247 487T318 535T428 554Q445 554 466 551T507 544T539 533T552 520V442H530Q525 457 517 472T497 500T469 520T430 528Q376 528 351 484T326 361Q326 323 330 290T346 231T378 191T428 176Q467 176 497 201T547 269H569Z"  />
<glyph unicode="&#xAA;" horiz-adv-x="334" d="M188 629Q188 651 175 661T130 672Q108 672 87 663V661Q102 659 113 649T124 624Q124 607 110 594T72 581Q54 581 41 593T28 626Q28 638 36 651T60 675T103 693T164 700Q215 700 249 683T284 622V479Q284 461 288 453T304 444Q315 444 320 457T328 487H350V475Q350 445 328 425T268 404Q248 404 230 413T200 443Q185 422 161 413T106 404Q87 404 69 407T37 419T15 440T6 472Q6 502 26 521T74 553T134 573T188 588V629ZM188 562Q173 559 158 552T131 535T110 511T102 481Q102 464 112 450T145 436Q165 436 176 453T188 491V562Z"  />
<glyph unicode="&#xAB;" horiz-adv-x="500" d="M269 408Q269 400 260 383T234 342T195 291T147 235Q172 207 194 180T233 129T259 88T269 62Q269 57 266 52T257 47Q251 47 234 65T188 111T122 172T38 235Q84 265 122 298T188 358T233 404T257 423Q263 423 266 418T269 408ZM450 408Q450 400 441 383T415 342T376 291T328 235Q353 207 375 180T414 129T440 88T450 62Q450 57 447 52T438 47Q432 47 415 65T369 111T303 172T219 235Q265 265 303 298T369 358T414 404T438 423Q444 423 447 418T450 408Z"  />
<glyph unicode="&#xAC;" horiz-adv-x="600" d="M433 292H65V394H535V71H433V292Z"  />
<glyph unicode="&#xAD;" horiz-adv-x="333" d="M38 284H294V186H38V284Z"  />
<glyph unicode="&#xAE;" horiz-adv-x="800" d="M232 162V182Q248 183 257 185T270 191T275 203T276 221V483Q276 494 275 501T270 513T257 520T232 522V544H437Q484 544 516 519T548 442Q548 410 528 381T471 341L588 176V162H493Q482 162 471 179T447 221T421 275T392 328H370V221Q370 210 370 203T375 192T387 185T412 182V162H232ZM370 354H394Q410 354 420 362T436 382T444 409T446 438Q446 482 434 500T398 518H370V354ZM52 344Q52 419 78 484T150 597T260 672T400 700Q476 700 539 673T649 597T722 484T748 344Q748 268 722 203T650 90T540 15T400 -12Q324 -12 261 15T151 90T78 203T52 344ZM662 344Q662 405 643 459T589 552T506 615T400 638Q342 638 294 615T211 552T157 459T138 344Q138 283 157 230T210 136T293 73T400 50Q457 50 505 73T588 136T642 229T662 344Z"  />
<glyph unicode="&#xAF;" horiz-adv-x="333" d="M0 574V648H332V574H0Z"  />
<glyph unicode="&#xB0;" horiz-adv-x="400" d="M199 474Q215 474 229 481T254 499T271 525T277 557Q277 573 271 588T255 615T230 633T199 640Q184 640 170 633T146 615T129 589T123 557Q123 540 129 525T145 499T170 481T199 474ZM200 414Q170 414 144 425T99 455T68 501T57 557Q57 587 68 613T98 658T144 689T200 700Q230 700 256 689T301 659T332 613T343 557Q343 527 332 501T302 456T256 425T200 414Z"  />
<glyph unicode="&#xB1;" horiz-adv-x="600" d="M249 470H351V353H535V251H351V134H249V251H65V353H249V470ZM65 102H535V0H65V102Z"  />
<glyph unicode="&#xB2;" horiz-adv-x="344" d="M325 438L315 280H18Q18 290 19 309T31 345Q64 398 96 430T154 486T195 534T211 593Q211 622 193 643T140 664Q112 664 93 650T67 618Q72 619 76 620T84 621Q103 621 115 609T128 579Q128 557 114 544T78 531Q52 531 38 547T24 587Q24 615 37 636T72 671T120 692T174 700Q203 700 229 693T276 671T307 635T319 585Q319 544 298 520T245 474T172 429T94 366H202Q227 366 243 372T270 387T285 410T293 438H325Z"  />
<glyph unicode="&#xB3;" horiz-adv-x="344" d="M213 496Q264 494 297 471T331 397Q331 371 318 349T282 309T226 282T154 272Q90 272 52 299T13 371Q13 395 30 413T70 431Q94 431 107 418T121 385Q121 362 108 352T75 341Q70 341 65 342T55 345Q59 325 82 316T133 306Q178 306 197 331T217 394Q217 412 212 427T199 454T180 472T160 478Q148 478 138 476T119 474Q108 474 100 479T92 495Q92 503 100 507T121 512Q129 512 138 511T155 510Q179 510 196 532T214 589Q214 621 194 641T143 662Q122 662 105 656T74 632Q84 634 89 634Q109 634 121 623T134 594Q134 574 121 561T81 548Q59 548 45 561T30 600Q30 625 43 644T76 675T121 694T170 700Q201 700 229 692T277 670T310 636T322 594Q322 571 313 555T289 526T255 507T213 498V496Z"  />
<glyph unicode="&#xB4;" horiz-adv-x="333" d="M87 538L225 697Q239 712 253 717T281 722Q297 722 311 710T325 681Q325 668 319 655T294 631L145 538H87Z"  />
<glyph unicode="&#xB5;" horiz-adv-x="611" d="M236 470V120Q236 84 248 63T289 42Q313 42 330 53T357 81T372 120T377 162V364Q377 381 375 393T363 414T338 426T295 430V466L523 470V106Q523 89 525 77T536 56T561 44T603 40V4L386 0V54Q369 37 354 25T322 4T285 -8T240 -12H236V-174H18V-134Q37 -133 50 -131T73 -124T86 -107T90 -78V364Q90 381 88 393T78 414T56 426T18 430V466L236 470Z"  />
<glyph unicode="&#xB6;" horiz-adv-x="620" d="M396 658H336V-122H224V278Q193 278 165 291T114 330T78 394T64 483Q64 534 78 572T117 636T176 675T252 688H583V662Q569 662 556 660T532 653T515 637T508 608V-122H396V658Z"  />
<glyph unicode="&#xB7;" horiz-adv-x="287" d="M60 235Q60 270 84 294T143 318Q178 318 202 294T226 235Q226 200 202 176T143 152Q108 152 84 176T60 235Z"  />
<glyph unicode="&#xB8;" horiz-adv-x="333" d="M62 -165Q77 -170 92 -174T127 -178Q156 -178 167 -165T179 -137Q179 -119 166 -110T135 -100Q119 -100 106 -106L95 -97L138 0H179L151 -65Q158 -63 167 -61T186 -58Q229 -58 251 -79T273 -132Q273 -172 238 -196T141 -220Q120 -220 96 -216T46 -202L62 -165Z"  />
<glyph unicode="&#xB9;" horiz-adv-x="344" d="M37 280V314Q64 315 80 318T105 327T115 342T118 367V593Q118 606 116 613T106 623T85 627T51 629V663Q78 663 96 665T129 671T156 681T182 696H226V369Q226 333 243 324T307 314V280H37Z"  />
<glyph unicode="&#xBA;" horiz-adv-x="356" d="M118 552Q118 495 132 465T179 434Q208 434 223 464T238 552Q238 608 223 639T179 670Q147 670 133 639T118 552ZM348 552Q348 526 337 500T305 453T252 418T178 404Q137 404 105 417T52 452T19 500T8 552Q8 577 19 603T51 651T105 686T178 700Q220 700 251 687T304 652T337 604T348 552Z"  />
<glyph unicode="&#xBB;" horiz-adv-x="500" d="M231 62Q231 70 240 87T266 128T305 179T353 235Q327 263 305 290T267 341T241 382T231 408Q231 413 234 418T243 423Q249 423 266 405T312 359T377 298T462 235Q415 205 378 172T312 112T267 66T243 47Q237 47 234 52T231 62ZM50 62Q50 70 59 87T85 128T124 179T172 235Q146 263 124 290T86 341T60 382T50 408Q50 413 53 418T62 423Q68 423 85 405T131 359T196 298T281 235Q234 205 197 172T131 112T86 66T62 47Q56 47 53 52T50 62Z"  />
<glyph unicode="&#xBC;" horiz-adv-x="861" d="M566 0V34Q609 37 623 45T637 78V106H472L474 143L685 420H737V146H811V106H737V72Q737 51 749 43T799 34V0H566ZM637 146V291H635L521 146H637ZM722 700L295 -12H221L648 700H722ZM64 280V314Q91 315 107 318T132 327T142 342T145 367V593Q145 606 143 613T133 623T112 627T78 629V663Q105 663 123 665T156 671T183 681T209 696H253V369Q253 333 270 324T334 314V280H64Z"  />
<glyph unicode="&#xBD;" horiz-adv-x="861" d="M692 700L265 -12H191L618 700H692ZM64 280V314Q91 315 107 318T132 327T142 342T145 367V593Q145 606 143 613T133 623T112 627T78 629V663Q105 663 123 665T156 671T183 681T209 696H253V369Q253 333 270 324T334 314V280H64ZM816 158L806 0H509Q509 10 510 29T522 65Q555 118 587 150T645 206T686 254T702 313Q702 342 684 363T631 384Q603 384 584 370T558 338Q563 339 567 340T575 341Q594 341 606 329T619 299Q619 277 605 264T569 251Q543 251 529 267T515 307Q515 335 528 356T563 391T611 412T665 420Q694 420 720 413T767 391T798 355T810 305Q810 264 789 240T736 194T663 149T585 86H693Q718 86 734 92T761 107T776 130T784 158H816Z"  />
<glyph unicode="&#xBE;" horiz-adv-x="861" d="M566 0V34Q609 37 623 45T637 78V106H472L474 143L685 420H737V146H811V106H737V72Q737 51 749 43T799 34V0H566ZM637 146V291H635L521 146H637ZM722 700L295 -12H221L648 700H722ZM250 496Q301 494 334 471T368 397Q368 371 355 349T319 309T263 282T191 272Q127 272 89 299T50 371Q50 395 67 413T107 431Q131 431 144 418T158 385Q158 362 145 352T112 341Q107 341 102 342T92 345Q96 325 119 316T170 306Q215 306 234 331T254 394Q254 412 249 427T236 454T217 472T197 478Q185 478 175 476T156 474Q145 474 137 479T129 495Q129 503 137 507T158 512Q166 512 175 511T192 510Q216 510 233 532T251 589Q251 621 231 641T180 662Q159 662 142 656T111 632Q121 634 126 634Q146 634 158 623T171 594Q171 574 158 561T118 548Q96 548 82 561T67 600Q67 625 80 644T113 675T158 694T207 700Q238 700 266 692T314 670T347 636T359 594Q359 571 350 555T326 526T292 507T250 498V496Z"  />
<glyph unicode="&#xBF;" horiz-adv-x="500" d="M296 316V254Q296 213 282 188T250 140T219 89T204 14Q204 -55 228 -91T298 -128Q314 -128 330 -124T361 -112T385 -95T400 -76Q395 -77 392 -77T384 -77Q350 -77 329 -60T308 -8Q308 21 331 41T384 61Q416 61 439 37T462 -22Q462 -56 446 -84T402 -132T340 -163T266 -174Q217 -174 178 -163T110 -132T66 -84T50 -23Q50 15 64 42T100 90T147 128T193 166T229 211T244 272V316H296ZM358 439Q358 404 334 380T275 356Q240 356 216 380T192 439Q192 474 216 498T275 522Q310 522 334 498T358 439Z"  />
<glyph unicode="&#xC0;" horiz-adv-x="741" d="M-9 0V40Q19 45 38 54T73 77T100 114T125 167L347 700H400L656 107Q672 71 692 57T751 40V0H390V40H430Q469 40 479 48T490 73Q490 83 487 92T479 113L430 228H210L178 149Q174 139 170 123T166 86Q166 65 180 53T223 40H272V0H-9ZM317 491L232 280H408L317 491ZM380 731L231 824Q213 835 207 844T200 874Q200 891 214 903T244 915Q257 915 266 913T283 905T299 890T320 867L438 731H380Z"  />
<glyph unicode="&#xC1;" horiz-adv-x="741" d="M-9 0V40Q19 45 38 54T73 77T100 114T125 167L347 700H400L656 107Q672 71 692 57T751 40V0H390V40H430Q469 40 479 48T490 73Q490 83 487 92T479 113L430 228H210L178 149Q174 139 170 123T166 86Q166 65 180 53T223 40H272V0H-9ZM317 491L232 280H408L317 491ZM279 731L417 890Q431 905 445 910T473 915Q489 915 503 903T517 874Q517 861 511 848T486 824L337 731H279Z"  />
<glyph unicode="&#xC2;" horiz-adv-x="741" d="M-9 0V40Q19 45 38 54T73 77T100 114T125 167L347 700H400L656 107Q672 71 692 57T751 40V0H390V40H430Q469 40 479 48T490 73Q490 83 487 92T479 113L430 228H210L178 149Q174 139 170 123T166 86Q166 65 180 53T223 40H272V0H-9ZM317 491L232 280H408L317 491ZM405 907L527 731H469L359 830L249 731H191L313 907H405Z"  />
<glyph unicode="&#xC3;" horiz-adv-x="741" d="M-9 0V40Q19 45 38 54T73 77T100 114T125 167L347 700H400L656 107Q672 71 692 57T751 40V0H390V40H430Q469 40 479 48T490 73Q490 83 487 92T479 113L430 228H210L178 149Q174 139 170 123T166 86Q166 65 180 53T223 40H272V0H-9ZM317 491L232 280H408L317 491ZM542 877Q537 855 529 833T507 792T473 763T424 751Q397 751 375 758T334 775Q314 784 298 791T265 799Q246 799 233 783T216 752H176Q179 776 188 798T213 838T248 866T294 877Q314 877 335 870T378 852Q398 843 415 835T444 827Q458 827 466 831T480 842T489 858T498 877H542Z"  />
<glyph unicode="&#xC4;" horiz-adv-x="741" d="M-9 0V40Q19 45 38 54T73 77T100 114T125 167L347 700H400L656 107Q672 71 692 57T751 40V0H390V40H430Q469 40 479 48T490 73Q490 83 487 92T479 113L430 228H210L178 149Q174 139 170 123T166 86Q166 65 180 53T223 40H272V0H-9ZM317 491L232 280H408L317 491ZM399 804Q399 830 416 849T463 869Q493 869 511 850T529 804Q529 778 511 759T463 739Q434 739 417 758T399 804ZM189 804Q189 830 206 849T253 869Q283 869 301 850T319 804Q319 778 301 759T253 739Q224 739 207 758T189 804Z"  />
<glyph unicode="&#xC5;" horiz-adv-x="741" d="M-9 0V40Q19 45 38 54T73 77T100 114T125 167L347 700H400L656 107Q672 71 692 57T751 40V0H390V40H430Q469 40 479 48T490 73Q490 83 487 92T479 113L430 228H210L178 149Q174 139 170 123T166 86Q166 65 180 53T223 40H272V0H-9ZM317 491L232 280H408L317 491ZM382 730Q338 730 309 759T279 833Q279 854 287 873T309 906T341 928T382 936Q403 936 422 928T455 906T477 873T485 833Q485 811 477 793T455 760T422 738T382 730ZM382 892Q357 892 340 875T323 833Q323 807 340 791T382 774Q407 774 424 790T441 833Q441 857 424 874T382 892Z"  />
<glyph unicode="&#xC6;" horiz-adv-x="944" d="M866 0H316V40Q369 40 389 54T410 106V280H208L138 142Q122 110 122 91Q122 70 137 55T188 40H220V0H-30V40Q-4 40 22 60T67 116L304 573Q310 584 316 595T322 618Q322 635 304 641T234 648V688H851L857 440H814Q807 474 793 510T756 575T702 623T629 642Q589 642 573 631T556 593V384Q589 384 611 391T647 412T670 448T682 500H722V222H682Q678 252 670 273T648 309T611 331T556 338V118Q556 96 562 82T578 60T603 49T635 46Q679 46 713 65T772 116T810 186T829 262H872L866 0ZM410 332V644H400L236 332H410Z"  />
<glyph unicode="&#xC7;" horiz-adv-x="741" d="M668 438H628Q608 491 587 531T540 599T481 640T404 654Q311 654 269 573T226 344Q226 190 276 112T430 34Q530 34 585 94T646 269H690Q690 137 618 63T408 -12H401L378 -65Q385 -63 394 -61T413 -58Q456 -58 478 -79T500 -132Q500 -172 465 -196T368 -220Q347 -220 323 -216T273 -202L289 -165Q304 -170 319 -174T354 -178Q383 -178 394 -165T406 -137Q406 -119 393 -110T362 -100Q346 -100 333 -106L322 -97L361 -9Q284 -2 225 29T125 107T63 216T42 344Q42 416 70 480T147 594T258 671T393 700Q450 700 498 682T589 641L628 682H668V438Z"  />
<glyph unicode="&#xC8;" horiz-adv-x="722" d="M643 442H600Q574 541 515 591T367 642Q320 642 302 629T284 578V384Q320 384 345 389T388 407T418 442T440 500H480V222H440Q430 257 418 279T388 315T345 333T284 338V110Q284 73 302 60T367 46Q417 46 458 61T530 105T582 173T616 262H659L653 0H18V40Q74 40 95 54T116 106V582Q116 620 95 634T18 648V688H637L643 442ZM395 731L246 824Q228 835 222 844T215 874Q215 891 229 903T259 915Q272 915 281 913T298 905T314 890T335 867L453 731H395Z"  />
<glyph unicode="&#xC9;" horiz-adv-x="722" d="M643 442H600Q574 541 515 591T367 642Q320 642 302 629T284 578V384Q320 384 345 389T388 407T418 442T440 500H480V222H440Q430 257 418 279T388 315T345 333T284 338V110Q284 73 302 60T367 46Q417 46 458 61T530 105T582 173T616 262H659L653 0H18V40Q74 40 95 54T116 106V582Q116 620 95 634T18 648V688H637L643 442ZM294 731L432 890Q446 905 460 910T488 915Q504 915 518 903T532 874Q532 861 526 848T501 824L352 731H294Z"  />
<glyph unicode="&#xCA;" horiz-adv-x="722" d="M643 442H600Q574 541 515 591T367 642Q320 642 302 629T284 578V384Q320 384 345 389T388 407T418 442T440 500H480V222H440Q430 257 418 279T388 315T345 333T284 338V110Q284 73 302 60T367 46Q417 46 458 61T530 105T582 173T616 262H659L653 0H18V40Q74 40 95 54T116 106V582Q116 620 95 634T18 648V688H637L643 442ZM420 907L542 731H484L374 830L264 731H206L328 907H420Z"  />
<glyph unicode="&#xCB;" horiz-adv-x="722" d="M643 442H600Q574 541 515 591T367 642Q320 642 302 629T284 578V384Q320 384 345 389T388 407T418 442T440 500H480V222H440Q430 257 418 279T388 315T345 333T284 338V110Q284 73 302 60T367 46Q417 46 458 61T530 105T582 173T616 262H659L653 0H18V40Q74 40 95 54T116 106V582Q116 620 95 634T18 648V688H637L643 442ZM414 804Q414 830 431 849T478 869Q508 869 526 850T544 804Q544 778 526 759T478 739Q449 739 432 758T414 804ZM204 804Q204 830 221 849T268 869Q298 869 316 850T334 804Q334 778 316 759T268 739Q239 739 222 758T204 804Z"  />
<glyph unicode="&#xCC;" horiz-adv-x="426" d="M31 0V40Q87 40 108 54T129 106V582Q129 620 108 634T31 648V688H395V648Q339 648 318 634T297 582V106Q297 68 318 54T395 40V0H31ZM252 731L103 824Q85 835 79 844T72 874Q72 891 86 903T116 915Q129 915 138 913T155 905T171 890T192 867L310 731H252Z"  />
<glyph unicode="&#xCD;" horiz-adv-x="426" d="M31 0V40Q87 40 108 54T129 106V582Q129 620 108 634T31 648V688H395V648Q339 648 318 634T297 582V106Q297 68 318 54T395 40V0H31ZM151 731L289 890Q303 905 317 910T345 915Q361 915 375 903T389 874Q389 861 383 848T358 824L209 731H151Z"  />
<glyph unicode="&#xCE;" horiz-adv-x="426" d="M31 0V40Q87 40 108 54T129 106V582Q129 620 108 634T31 648V688H395V648Q339 648 318 634T297 582V106Q297 68 318 54T395 40V0H31ZM277 907L399 731H341L231 830L121 731H63L185 907H277Z"  />
<glyph unicode="&#xCF;" horiz-adv-x="426" d="M31 0V40Q87 40 108 54T129 106V582Q129 620 108 634T31 648V688H395V648Q339 648 318 634T297 582V106Q297 68 318 54T395 40V0H31ZM271 804Q271 830 288 849T335 869Q365 869 383 850T401 804Q401 778 383 759T335 739Q306 739 289 758T271 804ZM61 804Q61 830 78 849T125 869Q155 869 173 850T191 804Q191 778 173 759T125 739Q96 739 79 758T61 804Z"  />
<glyph unicode="&#xD0;" horiz-adv-x="759" d="M116 352H28V408H116V582Q116 620 95 634T18 648V688H330Q423 688 496 663T619 592T695 483T721 344Q721 271 696 209T623 100T508 27T358 0H18V40Q74 40 95 54T116 106V352ZM276 408H434V352H276V116Q276 80 295 63T366 46Q445 46 492 117T539 344Q539 421 527 477T493 570T438 624T366 642Q315 642 296 625T276 572V408Z"  />
<glyph unicode="&#xD1;" horiz-adv-x="759" d="M14 688H258L594 220H596V572Q596 591 591 603T574 625T542 639T491 648V688H744V648Q693 640 673 625T652 572V0H558L176 530H172V106Q172 87 177 75T195 55T231 44T289 40V0H18V40Q74 40 95 54T116 106V582Q116 620 95 634T14 648V688ZM580 877Q575 855 567 833T545 792T511 763T462 751Q435 751 413 758T372 775Q352 784 336 791T303 799Q284 799 271 783T254 752H214Q217 776 226 798T251 838T286 866T332 877Q352 877 373 870T416 852Q436 843 453 835T482 827Q496 827 504 831T518 842T527 858T536 877H580Z"  />
<glyph unicode="&#xD2;" horiz-adv-x="778" d="M38 344Q38 416 66 480T143 594T254 671T389 700Q460 700 523 672T635 594T711 481T740 344Q740 272 712 208T635 94T524 17T389 -12Q318 -12 255 16T143 94T67 207T38 344ZM226 344Q226 272 235 215T263 117T314 56T389 34Q433 34 464 55T514 117T543 214T552 344Q552 416 543 473T515 571T464 632T389 654Q345 654 314 633T264 571T235 474T226 344ZM423 731L274 824Q256 835 250 844T243 874Q243 891 257 903T287 915Q300 915 309 913T326 905T342 890T363 867L481 731H423Z"  />
<glyph unicode="&#xD3;" horiz-adv-x="778" d="M38 344Q38 416 66 480T143 594T254 671T389 700Q460 700 523 672T635 594T711 481T740 344Q740 272 712 208T635 94T524 17T389 -12Q318 -12 255 16T143 94T67 207T38 344ZM226 344Q226 272 235 215T263 117T314 56T389 34Q433 34 464 55T514 117T543 214T552 344Q552 416 543 473T515 571T464 632T389 654Q345 654 314 633T264 571T235 474T226 344ZM322 731L460 890Q474 905 488 910T516 915Q532 915 546 903T560 874Q560 861 554 848T529 824L380 731H322Z"  />
<glyph unicode="&#xD4;" horiz-adv-x="778" d="M38 344Q38 416 66 480T143 594T254 671T389 700Q460 700 523 672T635 594T711 481T740 344Q740 272 712 208T635 94T524 17T389 -12Q318 -12 255 16T143 94T67 207T38 344ZM226 344Q226 272 235 215T263 117T314 56T389 34Q433 34 464 55T514 117T543 214T552 344Q552 416 543 473T515 571T464 632T389 654Q345 654 314 633T264 571T235 474T226 344ZM448 907L570 731H512L402 830L292 731H234L356 907H448Z"  />
<glyph unicode="&#xD5;" horiz-adv-x="778" d="M38 344Q38 416 66 480T143 594T254 671T389 700Q460 700 523 672T635 594T711 481T740 344Q740 272 712 208T635 94T524 17T389 -12Q318 -12 255 16T143 94T67 207T38 344ZM226 344Q226 272 235 215T263 117T314 56T389 34Q433 34 464 55T514 117T543 214T552 344Q552 416 543 473T515 571T464 632T389 654Q345 654 314 633T264 571T235 474T226 344ZM585 877Q580 855 572 833T550 792T516 763T467 751Q440 751 418 758T377 775Q357 784 341 791T308 799Q289 799 276 783T259 752H219Q222 776 231 798T256 838T291 866T337 877Q357 877 378 870T421 852Q441 843 458 835T487 827Q501 827 509 831T523 842T532 858T541 877H585Z"  />
<glyph unicode="&#xD6;" horiz-adv-x="778" d="M38 344Q38 416 66 480T143 594T254 671T389 700Q460 700 523 672T635 594T711 481T740 344Q740 272 712 208T635 94T524 17T389 -12Q318 -12 255 16T143 94T67 207T38 344ZM226 344Q226 272 235 215T263 117T314 56T389 34Q433 34 464 55T514 117T543 214T552 344Q552 416 543 473T515 571T464 632T389 654Q345 654 314 633T264 571T235 474T226 344ZM442 804Q442 830 459 849T506 869Q536 869 554 850T572 804Q572 778 554 759T506 739Q477 739 460 758T442 804ZM232 804Q232 830 249 849T296 869Q326 869 344 850T362 804Q362 778 344 759T296 739Q267 739 250 758T232 804Z"  />
<glyph unicode="&#xD7;" horiz-adv-x="600" d="M462 470L535 396L372 235L535 74L462 0L300 163L138 0L65 74L228 235L65 396L138 470L300 307L462 470Z"  />
<glyph unicode="&#xD8;" horiz-adv-x="778" d="M517 564Q497 608 466 631T389 654Q345 654 314 633T264 571T235 474T226 344Q226 252 241 186L517 564ZM262 121Q282 79 313 57T389 34Q433 34 464 55T514 117T543 214T552 344Q552 389 549 427T538 498L262 121ZM162 78Q105 127 72 196T38 344Q38 416 66 480T143 594T254 671T389 700Q440 700 486 685T575 643L649 744H718L619 609Q674 560 707 491T740 344Q740 272 712 208T635 94T524 17T389 -12Q338 -12 292 3T205 44L126 -64H58L162 78Z"  />
<glyph unicode="&#xD9;" horiz-adv-x="722" d="M359 688V648Q300 648 279 634T257 582V170Q257 135 270 110T304 68T350 43T400 34Q569 34 569 208V572Q569 591 564 603T547 625T514 639T462 648V688H715V648Q664 640 644 625T623 572V216Q623 97 554 43T360 -12Q318 -12 273 -3T190 29T128 90T103 186V582Q103 620 82 634T6 648V688H359ZM400 731L251 824Q233 835 227 844T220 874Q220 891 234 903T264 915Q277 915 286 913T303 905T319 890T340 867L458 731H400Z"  />
<glyph unicode="&#xDA;" horiz-adv-x="722" d="M359 688V648Q300 648 279 634T257 582V170Q257 135 270 110T304 68T350 43T400 34Q569 34 569 208V572Q569 591 564 603T547 625T514 639T462 648V688H715V648Q664 640 644 625T623 572V216Q623 97 554 43T360 -12Q318 -12 273 -3T190 29T128 90T103 186V582Q103 620 82 634T6 648V688H359ZM299 731L437 890Q451 905 465 910T493 915Q509 915 523 903T537 874Q537 861 531 848T506 824L357 731H299Z"  />
<glyph unicode="&#xDB;" horiz-adv-x="722" d="M359 688V648Q300 648 279 634T257 582V170Q257 135 270 110T304 68T350 43T400 34Q569 34 569 208V572Q569 591 564 603T547 625T514 639T462 648V688H715V648Q664 640 644 625T623 572V216Q623 97 554 43T360 -12Q318 -12 273 -3T190 29T128 90T103 186V582Q103 620 82 634T6 648V688H359ZM425 907L547 731H489L379 830L269 731H211L333 907H425Z"  />
<glyph unicode="&#xDC;" horiz-adv-x="722" d="M359 688V648Q300 648 279 634T257 582V170Q257 135 270 110T304 68T350 43T400 34Q569 34 569 208V572Q569 591 564 603T547 625T514 639T462 648V688H715V648Q664 640 644 625T623 572V216Q623 97 554 43T360 -12Q318 -12 273 -3T190 29T128 90T103 186V582Q103 620 82 634T6 648V688H359ZM419 804Q419 830 436 849T483 869Q513 869 531 850T549 804Q549 778 531 759T483 739Q454 739 437 758T419 804ZM209 804Q209 830 226 849T273 869Q303 869 321 850T339 804Q339 778 321 759T273 739Q244 739 227 758T209 804Z"  />
<glyph unicode="&#xDD;" horiz-adv-x="630" d="M0 688H332V648Q297 648 276 641T254 617Q254 603 275 564L379 365L471 550Q480 568 485 581T490 606Q490 626 467 637T404 648V688H656V648Q627 644 609 639T580 625T560 605T545 579L401 286V106Q401 87 406 75T424 55T458 44T513 40V0H128V40Q161 40 183 43T218 54T236 74T241 106V290L115 538Q101 564 90 584T66 619T38 640T0 648V688ZM224 731L362 890Q376 905 390 910T418 915Q434 915 448 903T462 874Q462 861 456 848T431 824L282 731H224Z"  />
<glyph unicode="&#xDE;" horiz-adv-x="648" d="M10 0V40Q66 40 87 54T108 106V582Q108 620 87 634T10 648V688H366V648Q310 648 289 634T268 582V561Q294 563 320 563T372 563Q424 563 468 551T545 516T596 459T616 380Q617 334 599 299T550 239T475 202T381 189Q353 189 325 190T268 191V114Q268 73 291 57T374 40V0H10ZM268 235H305Q378 235 411 270T444 374Q444 403 437 429T416 474T382 505T334 517Q307 517 288 499T268 443V235Z"  />
<glyph unicode="&#xDF;" horiz-adv-x="648" d="M24 0V40Q55 40 73 54T92 116V424H20V470H92Q92 527 111 570T163 642T240 685T334 700Q369 700 406 690T475 660T526 610T546 541Q546 501 535 477T507 439T471 418T435 406T407 394T396 375Q396 360 412 351T453 333T507 313T560 282T601 234T618 161Q618 124 603 93T563 38T505 1T436 -12Q413 -12 397 -7T369 5T351 17T340 23Q334 23 329 15T320 0H288V172H328Q331 149 336 124T352 77T380 42T426 28Q457 28 481 50T506 109Q506 137 490 155T450 187T397 211T345 236T304 269T288 319Q288 350 306 371T347 414Q370 436 388 461T406 527Q406 590 381 625T317 660Q274 660 256 628T238 547V0H24Z"  />
<glyph unicode="&#xE0;" horiz-adv-x="556" d="M452 114Q452 83 458 69T483 54Q500 54 508 75T520 126H554V107Q554 57 522 23T428 -12Q390 -12 365 4T323 53Q295 18 260 3T179 -12Q150 -12 122 -6T72 13T37 49T23 105Q23 137 37 161T76 205T130 238T192 262T253 281T306 295V353Q306 398 284 417T216 436Q199 436 182 432T149 420V418Q172 415 188 398T204 353Q204 326 185 305T133 284Q100 284 79 304T58 361Q58 383 71 405T110 444T175 471T267 482Q356 482 404 450T452 343V114ZM306 250Q283 245 260 233T219 204T189 165T177 117Q177 88 191 65T238 42Q270 42 288 67T306 138V250ZM283 538L134 631Q116 642 110 651T103 681Q103 698 117 710T147 722Q160 722 169 720T186 712T202 697T223 674L341 538H283Z"  />
<glyph unicode="&#xE1;" horiz-adv-x="556" d="M452 114Q452 83 458 69T483 54Q500 54 508 75T520 126H554V107Q554 57 522 23T428 -12Q390 -12 365 4T323 53Q295 18 260 3T179 -12Q150 -12 122 -6T72 13T37 49T23 105Q23 137 37 161T76 205T130 238T192 262T253 281T306 295V353Q306 398 284 417T216 436Q199 436 182 432T149 420V418Q172 415 188 398T204 353Q204 326 185 305T133 284Q100 284 79 304T58 361Q58 383 71 405T110 444T175 471T267 482Q356 482 404 450T452 343V114ZM306 250Q283 245 260 233T219 204T189 165T177 117Q177 88 191 65T238 42Q270 42 288 67T306 138V250ZM182 538L320 697Q334 712 348 717T376 722Q392 722 406 710T420 681Q420 668 414 655T389 631L240 538H182Z"  />
<glyph unicode="&#xE2;" horiz-adv-x="556" d="M452 114Q452 83 458 69T483 54Q500 54 508 75T520 126H554V107Q554 57 522 23T428 -12Q390 -12 365 4T323 53Q295 18 260 3T179 -12Q150 -12 122 -6T72 13T37 49T23 105Q23 137 37 161T76 205T130 238T192 262T253 281T306 295V353Q306 398 284 417T216 436Q199 436 182 432T149 420V418Q172 415 188 398T204 353Q204 326 185 305T133 284Q100 284 79 304T58 361Q58 383 71 405T110 444T175 471T267 482Q356 482 404 450T452 343V114ZM306 250Q283 245 260 233T219 204T189 165T177 117Q177 88 191 65T238 42Q270 42 288 67T306 138V250ZM308 714L430 538H372L262 637L152 538H94L216 714H308Z"  />
<glyph unicode="&#xE3;" horiz-adv-x="556" d="M452 114Q452 83 458 69T483 54Q500 54 508 75T520 126H554V107Q554 57 522 23T428 -12Q390 -12 365 4T323 53Q295 18 260 3T179 -12Q150 -12 122 -6T72 13T37 49T23 105Q23 137 37 161T76 205T130 238T192 262T253 281T306 295V353Q306 398 284 417T216 436Q199 436 182 432T149 420V418Q172 415 188 398T204 353Q204 326 185 305T133 284Q100 284 79 304T58 361Q58 383 71 405T110 444T175 471T267 482Q356 482 404 450T452 343V114ZM306 250Q283 245 260 233T219 204T189 165T177 117Q177 88 191 65T238 42Q270 42 288 67T306 138V250ZM445 684Q440 662 432 640T410 599T376 570T327 558Q300 558 278 565T237 582Q217 591 201 598T168 606Q149 606 136 590T119 559H79Q82 583 91 605T116 645T151 673T197 684Q217 684 238 677T281 659Q301 650 318 642T347 634Q361 634 369 638T383 649T392 665T401 684H445Z"  />
<glyph unicode="&#xE4;" horiz-adv-x="556" d="M452 114Q452 83 458 69T483 54Q500 54 508 75T520 126H554V107Q554 57 522 23T428 -12Q390 -12 365 4T323 53Q295 18 260 3T179 -12Q150 -12 122 -6T72 13T37 49T23 105Q23 137 37 161T76 205T130 238T192 262T253 281T306 295V353Q306 398 284 417T216 436Q199 436 182 432T149 420V418Q172 415 188 398T204 353Q204 326 185 305T133 284Q100 284 79 304T58 361Q58 383 71 405T110 444T175 471T267 482Q356 482 404 450T452 343V114ZM306 250Q283 245 260 233T219 204T189 165T177 117Q177 88 191 65T238 42Q270 42 288 67T306 138V250ZM302 611Q302 637 319 656T366 676Q396 676 414 657T432 611Q432 585 414 566T366 546Q337 546 320 565T302 611ZM92 611Q92 637 109 656T156 676Q186 676 204 657T222 611Q222 585 204 566T156 546Q127 546 110 565T92 611Z"  />
<glyph unicode="&#xE5;" horiz-adv-x="556" d="M452 114Q452 83 458 69T483 54Q500 54 508 75T520 126H554V107Q554 57 522 23T428 -12Q390 -12 365 4T323 53Q295 18 260 3T179 -12Q150 -12 122 -6T72 13T37 49T23 105Q23 137 37 161T76 205T130 238T192 262T253 281T306 295V353Q306 398 284 417T216 436Q199 436 182 432T149 420V418Q172 415 188 398T204 353Q204 326 185 305T133 284Q100 284 79 304T58 361Q58 383 71 405T110 444T175 471T267 482Q356 482 404 450T452 343V114ZM306 250Q283 245 260 233T219 204T189 165T177 117Q177 88 191 65T238 42Q270 42 288 67T306 138V250ZM261 537Q217 537 188 566T158 640Q158 661 166 680T188 713T220 735T261 743Q282 743 301 735T334 713T356 680T364 640Q364 618 356 600T334 567T301 545T261 537ZM261 699Q236 699 219 682T202 640Q202 614 219 598T261 581Q286 581 303 597T320 640Q320 664 303 681T261 699Z"  />
<glyph unicode="&#xE6;" horiz-adv-x="815" d="M464 228Q464 194 469 160T489 97T528 52T594 34Q639 34 675 62T737 138L771 122Q742 50 692 19T571 -12Q547 -12 522 -7T472 10T428 41T394 88Q356 34 301 11T178 -12Q149 -12 121 -6T71 13T36 49T22 105Q22 175 99 219T318 274V323Q318 358 306 380T277 414T238 431T199 436Q181 436 166 432T139 420V418Q162 415 178 398T194 353Q194 326 175 305T123 284Q90 284 69 304T48 359Q48 378 60 399T94 439T146 470T214 482Q271 482 316 459T394 396Q425 434 468 458T561 482Q608 482 646 466T713 418T756 339T771 228H464ZM318 234Q275 229 247 221T201 198T176 164T168 118Q168 80 184 57T236 34Q258 34 274 45T299 74T313 115T318 163V234ZM625 274Q625 315 623 345T613 396T591 426T553 436Q530 436 514 424T486 391T470 339T464 274H625Z"  />
<glyph unicode="&#xE7;" horiz-adv-x="500" d="M468 99Q435 47 392 19T287 -12L264 -65Q271 -63 280 -61T299 -58Q342 -58 364 -79T386 -132Q386 -172 351 -196T254 -220Q233 -220 209 -216T159 -202L175 -165Q190 -170 205 -174T240 -178Q269 -178 280 -165T292 -137Q292 -119 279 -110T248 -100Q232 -100 219 -106L208 -97L246 -10Q200 -4 161 16T94 69T49 144T32 235Q32 295 54 341T112 418T195 466T292 482Q328 482 359 474T415 451T452 414T466 364Q466 330 444 306T385 282Q352 282 332 301T312 350Q312 379 328 397T378 422Q364 434 347 438T312 442Q290 442 269 433T230 400T203 337T192 237Q192 146 222 90T315 34Q335 34 353 42T388 64T417 92T441 122L468 99Z"  />
<glyph unicode="&#xE8;" horiz-adv-x="556" d="M194 233Q194 197 199 162T219 98T258 52T324 34Q348 34 370 42T411 65T447 97T477 134L509 114Q494 86 475 63T431 24T373 -2T296 -12Q232 -12 183 10T101 69T51 149T34 235Q34 277 51 321T101 401T183 459T296 482Q342 482 381 466T450 417T495 339T512 233H194ZM352 279Q352 326 348 358T334 409T312 437T280 446Q245 446 223 406T194 279H352ZM312 538L163 631Q145 642 139 651T132 681Q132 698 146 710T176 722Q189 722 198 720T215 712T231 697T252 674L370 538H312Z"  />
<glyph unicode="&#xE9;" horiz-adv-x="556" d="M194 233Q194 197 199 162T219 98T258 52T324 34Q348 34 370 42T411 65T447 97T477 134L509 114Q494 86 475 63T431 24T373 -2T296 -12Q232 -12 183 10T101 69T51 149T34 235Q34 277 51 321T101 401T183 459T296 482Q342 482 381 466T450 417T495 339T512 233H194ZM352 279Q352 326 348 358T334 409T312 437T280 446Q245 446 223 406T194 279H352ZM211 538L349 697Q363 712 377 717T405 722Q421 722 435 710T449 681Q449 668 443 655T418 631L269 538H211Z"  />
<glyph unicode="&#xEA;" horiz-adv-x="556" d="M194 233Q194 197 199 162T219 98T258 52T324 34Q348 34 370 42T411 65T447 97T477 134L509 114Q494 86 475 63T431 24T373 -2T296 -12Q232 -12 183 10T101 69T51 149T34 235Q34 277 51 321T101 401T183 459T296 482Q342 482 381 466T450 417T495 339T512 233H194ZM352 279Q352 326 348 358T334 409T312 437T280 446Q245 446 223 406T194 279H352ZM337 714L459 538H401L291 637L181 538H123L245 714H337Z"  />
<glyph unicode="&#xEB;" horiz-adv-x="556" d="M194 233Q194 197 199 162T219 98T258 52T324 34Q348 34 370 42T411 65T447 97T477 134L509 114Q494 86 475 63T431 24T373 -2T296 -12Q232 -12 183 10T101 69T51 149T34 235Q34 277 51 321T101 401T183 459T296 482Q342 482 381 466T450 417T495 339T512 233H194ZM352 279Q352 326 348 358T334 409T312 437T280 446Q245 446 223 406T194 279H352ZM331 611Q331 637 348 656T395 676Q425 676 443 657T461 611Q461 585 443 566T395 546Q366 546 349 565T331 611ZM121 611Q121 637 138 656T185 676Q215 676 233 657T251 611Q251 585 233 566T185 546Q156 546 139 565T121 611Z"  />
<glyph unicode="&#xEC;" horiz-adv-x="333" d="M14 0V40Q41 40 57 44T82 56T93 76T96 106V364Q96 381 94 393T83 414T58 426T16 430V466L242 470V106Q242 89 244 77T255 56T279 44T319 40V0H14ZM177 538L28 631Q10 642 4 651T-3 681Q-3 698 11 710T41 722Q54 722 63 720T80 712T96 697T117 674L235 538H177Z"  />
<glyph unicode="&#xED;" horiz-adv-x="333" d="M14 0V40Q41 40 57 44T82 56T93 76T96 106V364Q96 381 94 393T83 414T58 426T16 430V466L242 470V106Q242 89 244 77T255 56T279 44T319 40V0H14ZM76 538L214 697Q228 712 242 717T270 722Q286 722 300 710T314 681Q314 668 308 655T283 631L134 538H76Z"  />
<glyph unicode="&#xEE;" horiz-adv-x="333" d="M14 0V40Q41 40 57 44T82 56T93 76T96 106V364Q96 381 94 393T83 414T58 426T16 430V466L242 470V106Q242 89 244 77T255 56T279 44T319 40V0H14ZM202 714L324 538H266L156 637L46 538H-12L110 714H202Z"  />
<glyph unicode="&#xEF;" horiz-adv-x="333" d="M14 0V40Q41 40 57 44T82 56T93 76T96 106V364Q96 381 94 393T83 414T58 426T16 430V466L242 470V106Q242 89 244 77T255 56T279 44T319 40V0H14ZM196 611Q196 637 213 656T260 676Q290 676 308 657T326 611Q326 585 308 566T260 546Q231 546 214 565T196 611ZM-14 611Q-14 637 3 656T50 676Q80 676 98 657T116 611Q116 585 98 566T50 546Q21 546 4 565T-14 611Z"  />
<glyph unicode="&#xF0;" horiz-adv-x="593" d="M202 222Q202 178 208 142T226 79T255 39T296 24Q319 24 336 38T366 79T384 141T390 222Q390 314 367 367T296 420Q249 420 226 367T202 222ZM267 625Q246 639 223 648T172 662L184 700Q268 695 332 667L431 730L472 699L380 641Q425 612 458 572T514 484T547 381T558 268Q558 208 541 157T491 68T409 9T296 -12Q232 -12 183 10T101 67T51 143T34 222Q34 259 51 300T101 376T183 433T296 456Q338 456 376 445Q362 536 306 594L208 531L168 563L267 625Z"  />
<glyph unicode="&#xF1;" horiz-adv-x="611" d="M18 0V40Q42 40 56 44T79 56T89 76T92 106V364Q92 381 90 393T80 414T58 426T20 430V466L230 470V397Q246 416 262 431T296 458T336 475T386 482Q449 482 487 446T525 336V106Q525 89 527 77T537 56T558 44T593 40V0H379V370Q379 400 367 414T334 428Q313 428 296 413T265 374T245 323T238 270V106Q238 89 240 77T251 56T276 44T318 40V0H18ZM489 684Q484 662 476 640T454 599T420 570T371 558Q344 558 322 565T281 582Q261 591 245 598T212 606Q193 606 180 590T163 559H123Q126 583 135 605T160 645T195 673T241 684Q261 684 282 677T325 659Q345 650 362 642T391 634Q405 634 413 638T427 649T436 665T445 684H489Z"  />
<glyph unicode="&#xF2;" horiz-adv-x="593" d="M390 235Q390 334 367 390T296 446Q249 446 226 390T202 235Q202 136 225 80T296 24Q343 24 366 80T390 235ZM558 235Q558 193 541 149T491 69T409 11T296 -12Q232 -12 183 10T101 69T51 149T34 235Q34 277 51 321T101 401T183 459T296 482Q360 482 409 460T491 401T541 321T558 235ZM318 538L169 631Q151 642 145 651T138 681Q138 698 152 710T182 722Q195 722 204 720T221 712T237 697T258 674L376 538H318Z"  />
<glyph unicode="&#xF3;" horiz-adv-x="593" d="M390 235Q390 334 367 390T296 446Q249 446 226 390T202 235Q202 136 225 80T296 24Q343 24 366 80T390 235ZM558 235Q558 193 541 149T491 69T409 11T296 -12Q232 -12 183 10T101 69T51 149T34 235Q34 277 51 321T101 401T183 459T296 482Q360 482 409 460T491 401T541 321T558 235ZM217 538L355 697Q369 712 383 717T411 722Q427 722 441 710T455 681Q455 668 449 655T424 631L275 538H217Z"  />
<glyph unicode="&#xF4;" horiz-adv-x="593" d="M390 235Q390 334 367 390T296 446Q249 446 226 390T202 235Q202 136 225 80T296 24Q343 24 366 80T390 235ZM558 235Q558 193 541 149T491 69T409 11T296 -12Q232 -12 183 10T101 69T51 149T34 235Q34 277 51 321T101 401T183 459T296 482Q360 482 409 460T491 401T541 321T558 235ZM343 714L465 538H407L297 637L187 538H129L251 714H343Z"  />
<glyph unicode="&#xF5;" horiz-adv-x="593" d="M390 235Q390 334 367 390T296 446Q249 446 226 390T202 235Q202 136 225 80T296 24Q343 24 366 80T390 235ZM558 235Q558 193 541 149T491 69T409 11T296 -12Q232 -12 183 10T101 69T51 149T34 235Q34 277 51 321T101 401T183 459T296 482Q360 482 409 460T491 401T541 321T558 235ZM480 684Q475 662 467 640T445 599T411 570T362 558Q335 558 313 565T272 582Q252 591 236 598T203 606Q184 606 171 590T154 559H114Q117 583 126 605T151 645T186 673T232 684Q252 684 273 677T316 659Q336 650 353 642T382 634Q396 634 404 638T418 649T427 665T436 684H480Z"  />
<glyph unicode="&#xF6;" horiz-adv-x="593" d="M390 235Q390 334 367 390T296 446Q249 446 226 390T202 235Q202 136 225 80T296 24Q343 24 366 80T390 235ZM558 235Q558 193 541 149T491 69T409 11T296 -12Q232 -12 183 10T101 69T51 149T34 235Q34 277 51 321T101 401T183 459T296 482Q360 482 409 460T491 401T541 321T558 235ZM337 611Q337 637 354 656T401 676Q431 676 449 657T467 611Q467 585 449 566T401 546Q372 546 355 565T337 611ZM127 611Q127 637 144 656T191 676Q221 676 239 657T257 611Q257 585 239 566T191 546Q162 546 145 565T127 611Z"  />
<glyph unicode="&#xF7;" horiz-adv-x="600" d="M65 184V286H535V184H65ZM375 440Q375 410 353 388T300 366Q270 366 248 388T225 440Q225 470 247 492T300 514Q330 514 352 492T375 440ZM375 30Q375 0 353 -22T300 -44Q270 -44 248 -22T225 30Q225 60 247 82T300 104Q330 104 352 82T375 30Z"  />
<glyph unicode="&#xF8;" horiz-adv-x="593" d="M222 90Q247 24 296 24Q343 24 366 80T390 235Q390 257 389 276T385 313L222 90ZM370 378Q347 446 296 446Q249 446 226 390T202 235Q202 213 203 193T207 155L370 378ZM466 424Q511 387 534 336T558 235Q558 193 541 149T491 69T409 11T296 -12Q260 -12 229 -4T170 18L88 -94H25L127 46Q81 83 58 134T34 235Q34 277 51 321T101 401T183 459T296 482Q334 482 366 474T424 451L492 544H554L466 424Z"  />
<glyph unicode="&#xF9;" horiz-adv-x="611" d="M236 120Q236 84 248 63T289 42Q313 42 330 53T357 81T372 120T377 162V364Q377 381 375 393T363 414T338 426T295 430V466L523 470V106Q523 89 525 77T536 56T561 44T603 40V4L386 0V54Q369 37 354 25T322 4T285 -8T240 -12Q162 -12 126 24T90 138V364Q90 381 88 393T78 414T56 426T18 430V466L236 470V120ZM327 538L178 631Q160 642 154 651T147 681Q147 698 161 710T191 722Q204 722 213 720T230 712T246 697T267 674L385 538H327Z"  />
<glyph unicode="&#xFA;" horiz-adv-x="611" d="M236 120Q236 84 248 63T289 42Q313 42 330 53T357 81T372 120T377 162V364Q377 381 375 393T363 414T338 426T295 430V466L523 470V106Q523 89 525 77T536 56T561 44T603 40V4L386 0V54Q369 37 354 25T322 4T285 -8T240 -12Q162 -12 126 24T90 138V364Q90 381 88 393T78 414T56 426T18 430V466L236 470V120ZM226 538L364 697Q378 712 392 717T420 722Q436 722 450 710T464 681Q464 668 458 655T433 631L284 538H226Z"  />
<glyph unicode="&#xFB;" horiz-adv-x="611" d="M236 120Q236 84 248 63T289 42Q313 42 330 53T357 81T372 120T377 162V364Q377 381 375 393T363 414T338 426T295 430V466L523 470V106Q523 89 525 77T536 56T561 44T603 40V4L386 0V54Q369 37 354 25T322 4T285 -8T240 -12Q162 -12 126 24T90 138V364Q90 381 88 393T78 414T56 426T18 430V466L236 470V120ZM352 714L474 538H416L306 637L196 538H138L260 714H352Z"  />
<glyph unicode="&#xFC;" horiz-adv-x="611" d="M236 120Q236 84 248 63T289 42Q313 42 330 53T357 81T372 120T377 162V364Q377 381 375 393T363 414T338 426T295 430V466L523 470V106Q523 89 525 77T536 56T561 44T603 40V4L386 0V54Q369 37 354 25T322 4T285 -8T240 -12Q162 -12 126 24T90 138V364Q90 381 88 393T78 414T56 426T18 430V466L236 470V120ZM346 611Q346 637 363 656T410 676Q440 676 458 657T476 611Q476 585 458 566T410 546Q381 546 364 565T346 611ZM136 611Q136 637 153 656T200 676Q230 676 248 657T266 611Q266 585 248 566T200 546Q171 546 154 565T136 611Z"  />
<glyph unicode="&#xFD;" horiz-adv-x="537" d="M542 470V430Q512 430 494 418T462 374L292 -38Q280 -67 265 -93T230 -138T186 -169T131 -180Q104 -180 84 -172T49 -150T28 -119T20 -86Q20 -54 41 -30T96 -6Q128 -6 147 -25T166 -70Q166 -94 154 -110T124 -132V-134H143Q161 -134 176 -125T204 -99T227 -64T245 -24L76 390Q65 415 52 422T8 430V470H294V430Q259 430 245 423T230 400Q230 395 232 386T244 353T273 285T324 162H326Q357 239 375 284T402 353T413 385T416 400Q416 419 397 425T346 430V470H542ZM189 538L327 697Q341 712 355 717T383 722Q399 722 413 710T427 681Q427 668 421 655T396 631L247 538H189Z"  />
<glyph unicode="&#xFE;" horiz-adv-x="593" d="M14 678L236 682V421H240Q251 444 280 463T352 482Q392 482 429 466T496 418T543 340T561 235Q561 193 545 149T499 69T430 11T341 -12Q311 -12 285 1T236 38V-68Q236 -85 239 -97T251 -118T279 -130T327 -134V-174H4V-134Q32 -134 49 -130T75 -118T87 -98T90 -68V576Q90 593 88 605T77 626T54 638T14 642V678ZM236 233Q236 139 256 87T318 34Q362 34 381 89T401 239Q401 278 397 314T384 377T361 420T324 436Q309 436 293 425T265 388T244 325T236 233Z"  />
<glyph unicode="&#xFF;" horiz-adv-x="537" d="M542 470V430Q512 430 494 418T462 374L292 -38Q280 -67 265 -93T230 -138T186 -169T131 -180Q104 -180 84 -172T49 -150T28 -119T20 -86Q20 -54 41 -30T96 -6Q128 -6 147 -25T166 -70Q166 -94 154 -110T124 -132V-134H143Q161 -134 176 -125T204 -99T227 -64T245 -24L76 390Q65 415 52 422T8 430V470H294V430Q259 430 245 423T230 400Q230 395 232 386T244 353T273 285T324 162H326Q357 239 375 284T402 353T413 385T416 400Q416 419 397 425T346 430V470H542ZM309 611Q309 637 326 656T373 676Q403 676 421 657T439 611Q439 585 421 566T373 546Q344 546 327 565T309 611ZM99 611Q99 637 116 656T163 676Q193 676 211 657T229 611Q229 585 211 566T163 546Q134 546 117 565T99 611Z"  />
<glyph unicode="&#x131;" horiz-adv-x="333" d="M14 0V40Q41 40 57 44T82 56T93 76T96 106V364Q96 381 94 393T83 414T58 426T16 430V466L242 470V106Q242 89 244 77T255 56T279 44T319 40V0H14Z"  />
<glyph unicode="&#x152;" horiz-adv-x="1000" d="M936 0H462Q448 0 435 -1T407 -4Q393 -6 379 -7T349 -8Q278 -8 221 20T123 95T60 206T38 342Q38 402 58 465T117 581T216 666T356 700Q368 700 380 698T406 694Q419 692 431 690T455 688H917L923 440H880Q873 474 859 510T822 575T768 623T697 642Q657 642 640 631T622 593V384Q655 384 677 391T713 412T736 448T748 500H788V222H748Q744 252 736 273T714 309T677 331T622 338V118Q622 96 628 82T645 60T671 49T705 46Q749 46 783 65T842 116T880 186T899 262H942L936 0ZM476 548Q476 601 449 630T364 660Q287 660 243 582T198 346Q198 270 206 212T234 113T283 53T358 32Q419 32 447 66T476 150V548Z"  />
<glyph unicode="&#x153;" horiz-adv-x="870" d="M186 235Q186 136 209 80T280 24Q327 24 347 80T367 235Q367 334 347 390T280 446Q233 446 210 390T186 235ZM527 228Q527 194 532 160T552 97T591 52T657 34Q702 34 738 62T800 138L834 122Q805 50 755 19T634 -12Q610 -12 584 -7T534 9T488 37T452 80Q421 35 378 12T288 -12Q224 -12 175 10T93 69T43 149T26 235Q26 277 43 321T93 401T175 459T288 482Q333 482 376 460T450 396Q478 437 521 459T624 482Q671 482 709 466T776 418T819 339T834 228H527ZM688 274Q688 315 686 345T676 396T654 426T616 436Q593 436 577 424T549 391T533 339T527 274H688Z"  />
<glyph unicode="&#x160;" horiz-adv-x="630" d="M49 264H93Q103 223 121 182T166 108T229 55T314 34Q340 34 363 40T403 60T431 96T442 150Q442 186 414 208T342 247T249 280T155 320T84 380T55 474Q55 528 73 570T124 641T198 685T288 700Q329 700 357 692T404 674T437 656T460 647Q475 647 483 660T499 688H541V450H501Q490 491 473 528T431 593T374 637T303 654Q279 654 258 648T222 628T197 597T187 553Q187 514 216 492T289 454T383 423T478 384T551 320T580 215Q580 159 557 117T499 46T420 3T334 -12Q288 -12 255 -4T199 14T160 32T132 40Q117 40 106 25T89 0H49V264ZM258 731L136 907H194L304 808L414 907H472L350 731H258Z"  />
<glyph unicode="&#x161;" horiz-adv-x="481" d="M34 172H71Q77 145 92 119T128 73T176 41T234 28Q253 28 270 32T301 45T323 65T332 91Q332 121 310 135T255 158T182 172T110 194T54 239T32 321Q32 354 47 383T88 435T149 469T225 482Q251 482 271 477T307 464T334 452T351 446Q363 446 366 452T374 470H414V316H374Q363 341 351 364T322 404T282 432T228 442Q190 442 169 423T148 375Q148 350 170 338T225 319T298 303T370 279T426 234T448 153Q448 114 431 83T385 31T320 -1T247 -12Q214 -12 189 -7T145 5T116 16T97 22Q89 22 83 13T74 -6H34V172ZM195 538L73 714H131L241 615L351 714H409L287 538H195Z"  />
<glyph unicode="&#x178;" horiz-adv-x="630" d="M0 688H332V648Q297 648 276 641T254 617Q254 603 275 564L379 365L471 550Q480 568 485 581T490 606Q490 626 467 637T404 648V688H656V648Q627 644 609 639T580 625T560 605T545 579L401 286V106Q401 87 406 75T424 55T458 44T513 40V0H128V40Q161 40 183 43T218 54T236 74T241 106V290L115 538Q101 564 90 584T66 619T38 640T0 648V688ZM344 804Q344 830 361 849T408 869Q438 869 456 850T474 804Q474 778 456 759T408 739Q379 739 362 758T344 804ZM134 804Q134 830 151 849T198 869Q228 869 246 850T264 804Q264 778 246 759T198 739Q169 739 152 758T134 804Z"  />
<glyph unicode="&#x17D;" horiz-adv-x="611" d="M557 0H25V52L383 642H315Q272 642 233 632T163 598T113 539T91 450H48L54 688H557V618L210 46Q283 46 336 56T427 92T487 160T520 264H563L557 0ZM248 731L126 907H184L294 808L404 907H462L340 731H248Z"  />
<glyph unicode="&#x17E;" horiz-adv-x="500" d="M454 470V426L202 46Q243 46 277 53T339 76T387 119T419 186H453V0H34V60L282 424H232Q178 424 141 399T84 312H50V470H454ZM205 538L83 714H141L251 615L361 714H419L297 538H205Z"  />
<glyph unicode="&#x192;" horiz-adv-x="574" d="M134 392V438H242Q246 493 262 541T304 624T366 680T448 700Q472 700 494 694T532 675T559 645T569 605Q569 576 549 557T499 538Q477 538 457 551T437 594Q437 617 447 633T478 651V653Q470 656 463 658T447 660Q414 660 398 629T382 526V438H489V392H382Q379 319 375 249T362 115T338 -2T295 -95T228 -156T131 -178Q105 -178 82 -170T42 -147T14 -114T3 -76Q3 -42 23 -23T73 -4Q99 -4 122 -20T145 -68Q145 -87 131 -105T94 -124Q102 -132 113 -135T142 -138Q181 -138 199 -95T218 56Q218 167 223 256T234 392H134Z"  />
<glyph unicode="&#x2C6;" horiz-adv-x="333" d="M213 714L335 538H277L167 637L57 538H-1L121 714H213Z"  />
<glyph unicode="&#x2C7;" horiz-adv-x="333" d="M121 538L-1 714H57L167 615L277 714H335L213 538H121Z"  />
<glyph unicode="&#x2DA;" horiz-adv-x="333" d="M166 537Q122 537 93 566T63 640Q63 661 71 680T93 713T125 735T166 743Q187 743 206 735T239 713T261 680T269 640Q269 618 261 600T239 567T206 545T166 537ZM166 699Q141 699 124 682T107 640Q107 614 124 598T166 581Q191 581 208 597T225 640Q225 664 208 681T166 699Z"  />
<glyph unicode="&#x2DC;" horiz-adv-x="333" d="M350 684Q345 662 337 640T315 599T281 570T232 558Q205 558 183 565T142 582Q122 591 106 598T73 606Q54 606 41 590T24 559H-16Q-13 583 -4 605T21 645T56 673T102 684Q122 684 143 677T186 659Q206 650 223 642T252 634Q266 634 274 638T288 649T297 665T306 684H350Z"  />
<glyph unicode="&#x2013;" horiz-adv-x="500" d="M0 194V276H500V194H0Z"  />
<glyph unicode="&#x2014;" horiz-adv-x="1000" d="M0 194V276H1000V194H0Z"  />
<glyph unicode="&#x2018;" horiz-adv-x="278" d="M185 686Q148 642 128 606T102 534Q114 537 123 539T142 542Q178 542 198 519T218 462Q218 427 195 404T137 380Q90 380 66 412T42 490Q42 526 52 559T79 620T113 672T145 714L185 686Z"  />
<glyph unicode="&#x2019;" horiz-adv-x="278" d="M93 394Q130 438 150 474T176 546Q164 543 155 541T136 538Q100 538 80 561T60 618Q60 653 83 676T141 700Q188 700 212 668T236 590Q236 554 225 521T199 460T165 408T133 366L93 394Z"  />
<glyph unicode="&#x201A;" horiz-adv-x="278" d="M93 -148Q130 -104 150 -68T176 4Q164 1 155 -1T136 -4Q100 -4 80 19T60 76Q60 111 83 134T141 158Q188 158 212 126T236 48Q236 12 225 -21T199 -82T165 -134T133 -176L93 -148Z"  />
<glyph unicode="&#x201C;" horiz-adv-x="537" d="M182 686Q145 642 125 606T99 534Q111 537 120 539T139 542Q175 542 195 519T215 462Q215 427 192 404T134 380Q87 380 63 412T39 490Q39 526 49 559T76 620T110 672T142 714L182 686ZM442 686Q405 642 385 606T359 534Q371 537 380 539T399 542Q435 542 455 519T475 462Q475 427 452 404T394 380Q347 380 323 412T299 490Q299 526 309 559T336 620T370 672T402 714L442 686Z"  />
<glyph unicode="&#x201D;" horiz-adv-x="537" d="M355 394Q392 438 412 474T438 546Q426 543 417 541T398 538Q362 538 342 561T322 618Q322 653 345 676T403 700Q450 700 474 668T498 590Q498 554 487 521T461 460T427 408T395 366L355 394ZM95 394Q132 438 152 474T178 546Q166 543 157 541T138 538Q102 538 82 561T62 618Q62 653 85 676T143 700Q190 700 214 668T238 590Q238 554 227 521T201 460T167 408T135 366L95 394Z"  />
<glyph unicode="&#x201E;" horiz-adv-x="537" d="M355 -148Q392 -104 412 -68T438 4Q426 1 417 -1T398 -4Q362 -4 342 19T322 76Q322 111 345 134T403 158Q450 158 474 126T498 48Q498 12 487 -21T461 -82T427 -134T395 -176L355 -148ZM95 -148Q132 -104 152 -68T178 4Q166 1 157 -1T138 -4Q102 -4 82 19T62 76Q62 111 85 134T143 158Q190 158 214 126T238 48Q238 12 227 -21T201 -82T167 -134T135 -176L95 -148Z"  />
<glyph unicode="&#x2020;" horiz-adv-x="500" d="M236 -120Q236 -73 235 -17T227 93T210 196T181 278Q208 318 218 360T231 448Q205 448 189 442T159 428T133 415T101 409Q79 409 62 423T44 466Q44 495 61 509T101 523Q120 523 133 517T159 504T188 491T231 484Q231 517 225 540T211 580T197 611T190 640Q190 670 207 685T250 700Q276 700 293 685T310 640Q310 625 304 611T289 580T275 540T269 484Q295 484 311 490T341 504T367 517T399 523Q421 523 438 509T456 466Q456 437 439 423T399 409Q380 409 367 415T341 428T312 441T269 448Q271 403 281 361T319 278Q301 245 290 197T273 94T266 -17T264 -120H236Z"  />
<glyph unicode="&#x2021;" horiz-adv-x="500" d="M44 462Q44 488 61 500T95 512Q109 512 120 507T146 496T180 485T231 480Q231 517 226 541T213 582T200 612T194 640Q194 670 209 685T250 700Q276 700 291 685T306 640Q306 625 300 612T287 583T275 542T269 480Q300 480 320 485T354 496T379 507T405 512Q422 512 439 500T456 462Q456 436 439 424T405 412Q391 412 380 417T354 428T320 439T269 444Q271 402 281 361T315 287Q291 254 281 213T269 130Q300 130 320 135T354 146T379 157T405 162Q422 162 439 150T456 112Q456 86 439 74T405 62Q391 62 380 67T354 78T320 89T269 94Q269 56 274 32T287 -8T300 -38T306 -66Q306 -96 291 -111T250 -126Q224 -126 209 -111T194 -66Q194 -51 200 -38T213 -9T225 32T231 94Q200 94 180 89T146 78T121 67T95 62Q78 62 61 74T44 112Q44 138 61 150T95 162Q109 162 120 157T146 146T180 135T231 130Q229 172 219 213T185 287Q209 320 219 361T231 444Q200 444 180 439T146 428T121 417T95 412Q78 412 61 424T44 462Z"  />
<glyph unicode="&#x2022;" horiz-adv-x="500" d="M250 516Q286 516 317 503T372 466T409 411T422 344Q422 308 409 277T373 223T318 186T250 172Q214 172 183 185T128 222T92 276T78 344Q78 380 91 411T127 465T181 502T250 516Z"  />
<glyph unicode="&#x2026;" horiz-adv-x="1000" d="M84 75Q84 110 108 134T167 158Q202 158 226 134T250 75Q250 40 226 16T167 -8Q132 -8 108 16T84 75ZM417 75Q417 110 441 134T500 158Q535 158 559 134T583 75Q583 40 559 16T500 -8Q465 -8 441 16T417 75ZM750 75Q750 110 774 134T833 158Q868 158 892 134T916 75Q916 40 892 16T833 -8Q798 -8 774 16T750 75Z"  />
<glyph unicode="&#x2030;" horiz-adv-x="1111" d="M910 189Q910 138 914 105T927 51T947 23T971 14Q984 14 995 22T1014 51T1027 104T1032 189Q1032 240 1028 273T1015 327T995 355T971 364Q958 364 947 356T928 327T915 274T910 189ZM183 -12H127L612 700H672L183 -12ZM140 499Q140 448 144 415T157 361T177 333T201 324Q214 324 225 332T244 361T257 414T262 499Q262 550 258 583T245 637T225 665T201 674Q188 674 177 666T158 637T145 584T140 499ZM808 189Q808 231 820 268T855 332T907 374T971 390Q1005 390 1035 375T1087 332T1121 268T1134 189Q1134 147 1122 110T1087 46T1035 4T971 -12Q937 -12 907 3T855 46T821 110T808 189ZM38 499Q38 541 50 578T85 642T137 684T201 700Q235 700 265 685T317 642T351 578T364 499Q364 457 352 420T317 356T265 314T201 298Q167 298 137 313T85 356T51 420T38 499ZM434 189Q434 231 446 268T481 332T533 374T597 390Q631 390 661 375T713 332T747 268T760 189Q760 147 748 110T713 46T661 4T597 -12Q563 -12 533 3T481 46T447 110T434 189ZM536 189Q536 138 540 105T553 51T573 23T597 14Q610 14 621 22T640 51T653 104T658 189Q658 240 654 273T641 327T621 355T597 364Q584 364 573 356T554 327T541 274T536 189Z"  />
<glyph unicode="&#x2039;" horiz-adv-x="333" d="M282 408Q282 400 273 383T247 342T208 291T160 235Q185 207 207 180T246 129T272 88T282 62Q282 57 279 52T270 47Q264 47 247 65T201 111T135 172T51 235Q97 265 135 298T201 358T246 404T270 423Q276 423 279 418T282 408Z"  />
<glyph unicode="&#x203A;" horiz-adv-x="333" d="M51 62Q51 70 60 87T86 128T125 179T173 235Q147 263 125 290T87 341T61 382T51 408Q51 413 54 418T63 423Q69 423 86 405T132 359T197 298T282 235Q235 205 198 172T132 112T87 66T63 47Q57 47 54 52T51 62Z"  />
<glyph unicode="&#x20AC;" horiz-adv-x="574" d="M414 266H246Q249 228 255 187T276 113T315 57T375 35Q449 35 484 89T525 232H569Q560 114 511 51T359 -12Q296 -12 250 11T170 73T118 162T90 266H18L29 312H86Q85 320 85 327T85 342Q85 353 85 364T87 387H18L29 433H95Q105 483 126 531T180 616T255 677T353 700Q395 700 428 685T494 646L523 687H553V480H512Q499 518 485 549T452 604Q434 627 411 640T359 653Q328 653 307 633T274 580T255 509T246 433H445L434 387H244V342V312H425L414 266Z"  />
<glyph unicode="&#x2122;" horiz-adv-x="1000" d="M88 284V312Q107 313 118 315T133 322T139 334T140 354V660H97Q69 660 55 643T35 600H9V688H387V600H361Q356 625 343 642T300 660H256V354Q256 342 257 335T262 323T277 316T308 312V284H88ZM449 284V312Q467 313 477 316T492 328T498 350T499 385V609Q488 634 470 648T427 662V688H585L716 418L857 688H991V662Q972 661 962 659T946 652T940 639T939 620V354Q939 342 940 335T945 323T960 316T991 312V284H773V312Q792 313 802 315T816 322T822 334T823 354V562H821L681 284H665L533 562H531V385Q531 364 532 351T538 329T554 317T584 312V284H449Z"  />

</font>
</defs>
</svg>
